<svg width="306" height="241" viewBox="0 0 306 241" fill="none" xmlns="http://www.w3.org/2000/svg">
<path fill-rule="evenodd" clip-rule="evenodd" d="M251.503 211.112L215.974 168.653L49.6573 185.851L85.1856 228.31L251.503 211.112ZM85.1823 228.311L49.6578 185.852C46.0404 186.226 42.6479 184.553 40.163 181.584L75.6876 224.043C78.1724 227.012 81.5649 228.686 85.1823 228.311Z" fill="#1067DE"/>
<path fill-rule="evenodd" clip-rule="evenodd" d="M251.503 211.112L215.974 168.653L49.6573 185.851L85.1856 228.31L251.503 211.112ZM85.1823 228.311L49.6578 185.852C46.0404 186.226 42.6479 184.553 40.163 181.584L75.6876 224.043C78.1724 227.012 81.5649 228.686 85.1823 228.311Z" fill="url(#paint0_linear_15_117)"/>
<path d="M63.641 193.274L240.636 176.966L239.886 207.307L74.5011 225.199L63.641 193.274Z" fill="#C2D8F4"/>
<path d="M63.641 193.274L240.636 176.966L239.886 207.307L74.5011 225.199L63.641 193.274Z" fill="url(#paint1_radial_15_117)" fill-opacity="0.4"/>
<path d="M82.667 189.202L252.389 172.073L252.221 178.878L83.1047 196.024C76.2385 196.735 71.118 204.555 71.6899 213.46C72.2619 222.365 78.3167 229.026 85.183 228.315L251.424 211.086L251.256 217.891L85.6207 235.138C75.2511 236.21 66.153 226.781 65.3367 214.116C64.5204 201.451 72.2898 190.274 82.6594 189.202L82.667 189.202Z" fill="#2E86FE"/>
<path d="M82.667 189.202L252.389 172.073L252.221 178.878L83.1047 196.024C76.2385 196.735 71.118 204.555 71.6899 213.46C72.2619 222.365 78.3167 229.026 85.183 228.315L251.424 211.086L251.256 217.891L85.6207 235.138C75.2511 236.21 66.153 226.781 65.3367 214.116C64.5204 201.451 72.2898 190.274 82.6594 189.202L82.667 189.202Z" fill="url(#paint2_radial_15_117)"/>
<path d="M82.667 189.202L252.389 172.073L252.221 178.878L83.1047 196.024C76.2385 196.735 71.118 204.555 71.6899 213.46C72.2619 222.365 78.3167 229.026 85.183 228.315L251.424 211.086L251.256 217.891L85.6207 235.138C75.2511 236.21 66.153 226.781 65.3367 214.116C64.5204 201.451 72.2898 190.274 82.6594 189.202L82.667 189.202Z" fill="url(#paint3_linear_15_117)"/>
<path fill-rule="evenodd" clip-rule="evenodd" d="M252.377 172.104L213.455 129.54L47.1385 146.742L47.1381 146.741C36.7684 147.813 28.9991 158.991 29.8154 171.656C30.185 177.4 32.2614 182.481 35.3868 186.217L70.9113 228.676C67.7859 224.94 65.7095 219.859 65.3399 214.115C64.5236 201.45 72.2929 190.273 82.6626 189.201L52.1696 152.755L82.6663 189.201L252.377 172.104Z" fill="#2E86FE"/>
<path fill-rule="evenodd" clip-rule="evenodd" d="M252.377 172.104L213.455 129.54L47.1385 146.742L47.1381 146.741C36.7684 147.813 28.9991 158.991 29.8154 171.656C30.185 177.4 32.2614 182.481 35.3868 186.217L70.9113 228.676C67.7859 224.94 65.7095 219.859 65.3399 214.115C64.5236 201.45 72.2929 190.273 82.6626 189.201L52.1696 152.755L82.6663 189.201L252.377 172.104Z" fill="url(#paint4_linear_15_117)"/>
<path d="M107.023 193.275L18.9614 131.741L18.9614 125.017L106.896 186.589L107.023 193.275Z" fill="#2E86FE"/>
<path d="M107.023 193.275L18.9614 131.741L18.9614 125.017L106.896 186.589L107.023 193.275Z" fill="url(#paint5_linear_15_117)"/>
<path fill-rule="evenodd" clip-rule="evenodd" d="M246.089 166.693L246.091 166.694C252.526 165.774 257.655 159.165 257.514 151.959C257.43 147.725 255.549 144.213 252.707 142.224L164.787 80.6631C167.625 82.6541 169.498 86.1613 169.579 90.3875C169.72 97.5896 164.596 104.202 158.157 105.122L158.155 105.121L18.9616 125.016L106.897 186.588L246.089 166.693Z" fill="#1067DE"/>
<path fill-rule="evenodd" clip-rule="evenodd" d="M246.089 166.693L246.091 166.694C252.526 165.774 257.655 159.165 257.514 151.959C257.43 147.725 255.549 144.213 252.707 142.224L164.787 80.6631C167.625 82.6541 169.498 86.1613 169.579 90.3875C169.72 97.5896 164.596 104.202 158.157 105.122L158.155 105.121L18.9616 125.016L106.897 186.588L246.089 166.693Z" fill="url(#paint6_linear_15_117)"/>
<path d="M239.569 138.408C246.148 137.467 251.618 142.699 251.759 150.072C251.9 157.446 246.664 164.205 240.085 165.145L107.036 184.396L25.2738 127.449C24.7693 101.559 25.2596 126.601 24.7551 100.711L106.67 157.638L239.567 138.407L239.569 138.408Z" fill="#C2D8F4"/>
<path d="M239.569 138.408C246.148 137.467 251.618 142.699 251.759 150.072C251.9 157.446 246.664 164.205 240.085 165.145L107.036 184.396L25.2738 127.449C24.7693 101.559 25.2596 126.601 24.7551 100.711L106.67 157.638L239.567 138.407L239.569 138.408Z" fill="url(#paint7_radial_15_117)" fill-opacity="0.3"/>
<path d="M239.569 138.408C246.148 137.467 251.618 142.699 251.759 150.072C251.9 157.446 246.664 164.205 240.085 165.145L107.036 184.396L25.2738 127.449C24.7693 101.559 25.2596 126.601 24.7551 100.711L106.67 157.638L239.567 138.407L239.569 138.408Z" fill="url(#paint8_linear_15_117)" fill-opacity="0.3"/>
<path d="M245.458 133.874C255.18 132.484 263.263 140.214 263.471 151.11C263.679 162.006 255.943 171.993 246.221 173.383L107.023 193.278L106.893 186.591L246.091 166.696C252.53 165.777 257.655 159.164 257.515 151.962C257.374 144.755 252.024 139.641 245.585 140.56L106.387 160.455L106.257 153.769L245.454 133.873L245.458 133.874Z" fill="#2E86FE"/>
<path d="M245.458 133.874C255.18 132.484 263.263 140.214 263.471 151.11C263.679 162.006 255.943 171.993 246.221 173.383L107.023 193.278L106.893 186.591L246.091 166.696C252.53 165.777 257.655 159.164 257.515 151.962C257.374 144.755 252.024 139.641 245.585 140.56L106.387 160.455L106.257 153.769L245.454 133.873L245.458 133.874Z" fill="url(#paint9_linear_15_117)"/>
<path d="M106.391 160.45L18.3256 98.9115L18.3256 92.1959L106.261 153.763L106.391 160.45Z" fill="#2E86FE"/>
<path d="M106.391 160.45L18.3256 98.9115L18.3256 92.1959L106.261 153.763L106.391 160.45Z" fill="url(#paint10_linear_15_117)"/>
<path fill-rule="evenodd" clip-rule="evenodd" d="M157.524 72.298L245.459 133.869C249.468 133.297 253.196 134.276 256.21 136.385L168.275 74.8137C165.261 72.7011 161.533 71.7261 157.524 72.298ZM18.3252 92.1938L106.26 153.761L245.458 133.87L157.523 72.2988L18.3252 92.1938Z" fill="#F6FCFF"/>
<path fill-rule="evenodd" clip-rule="evenodd" d="M157.524 72.298L245.459 133.869C249.468 133.297 253.196 134.276 256.21 136.385L168.275 74.8137C165.261 72.7011 161.533 71.7261 157.524 72.298ZM18.3252 92.1938L106.26 153.761L245.458 133.87L157.523 72.2988L18.3252 92.1938Z" fill="#2E86FE"/>
<path fill-rule="evenodd" clip-rule="evenodd" d="M157.524 72.298L245.459 133.869C249.468 133.297 253.196 134.276 256.21 136.385L168.275 74.8137C165.261 72.7011 161.533 71.7261 157.524 72.298ZM18.3252 92.1938L106.26 153.761L245.458 133.87L157.523 72.2988L18.3252 92.1938Z" fill="url(#paint11_linear_15_117)"/>
<path fill-rule="evenodd" clip-rule="evenodd" d="M157.524 72.298L245.459 133.869C249.468 133.297 253.196 134.276 256.21 136.385L168.275 74.8137C165.261 72.7011 161.533 71.7261 157.524 72.298ZM18.3252 92.1938L106.26 153.761L245.458 133.87L157.523 72.2988L18.3252 92.1938Z" fill="url(#paint12_radial_15_117)" fill-opacity="0.3"/>
<path fill-rule="evenodd" clip-rule="evenodd" d="M157.524 72.298L245.459 133.869C249.468 133.297 253.196 134.276 256.21 136.385L168.275 74.8137C165.261 72.7011 161.533 71.7261 157.524 72.298ZM18.3252 92.1938L106.26 153.761L245.458 133.87L157.523 72.2988L18.3252 92.1938Z" fill="url(#paint13_radial_15_117)"/>
<mask id="mask0_15_117" style="mask-type:alpha" maskUnits="userSpaceOnUse" x="18" y="72" width="239" height="82">
<path d="M245.458 133.875L157.523 72.3033C161.532 71.7313 165.26 72.7064 168.274 74.819L256.209 136.39C253.195 134.282 249.467 133.303 245.458 133.875Z" fill="#EAEAEA"/>
<path d="M106.26 153.766L18.3254 92.1983L157.523 72.3033L245.458 133.875L106.26 153.766Z" fill="#8E8E8E"/>
</mask>
<g mask="url(#mask0_15_117)">
<path d="M227.053 99.6761C226.738 112.4 200.098 136.077 187.469 140.146C170.246 145.477 73.8454 116.994 74.2024 102.557C75.3816 54.8639 65.4518 32.1282 145.429 34.4127C242.3 37.1758 228.149 55.4863 227.057 99.6762L227.053 99.6761Z" fill="#1067DE" fill-opacity="0.7"/>
</g>
<path d="M225.999 95.2348C225.677 108.237 198.349 132.43 185.392 136.588C167.723 142.033 68.8191 112.915 69.1839 98.1608C70.389 49.4226 60.1994 26.1872 142.252 28.5311C241.636 31.366 227.119 50.0763 226.003 95.235L225.999 95.2348Z" fill="#F6FCFF"/>
<path d="M225.999 95.2348C225.677 108.237 198.349 132.43 185.392 136.588C167.723 142.033 68.8191 112.915 69.1839 98.1608C70.389 49.4226 60.1994 26.1872 142.252 28.5311C241.636 31.366 227.119 50.0763 226.003 95.235L225.999 95.2348Z" fill="url(#paint14_radial_15_117)" fill-opacity="0.4"/>
<path d="M225.999 95.2348C225.677 108.237 198.349 132.43 185.392 136.588C167.723 142.033 68.8191 112.915 69.1839 98.1608C70.389 49.4226 60.1994 26.1872 142.252 28.5311C241.636 31.366 227.119 50.0763 226.003 95.235L225.999 95.2348Z" fill="url(#paint15_linear_15_117)"/>
<path d="M225.999 95.2348C225.677 108.237 198.349 132.43 185.392 136.588C167.723 142.033 68.8191 112.915 69.1839 98.1608C70.389 49.4226 60.1994 26.1872 142.252 28.5311C241.636 31.366 227.119 50.0763 226.003 95.235L225.999 95.2348Z" fill="url(#paint16_linear_15_117)" fill-opacity="0.3"/>
<path d="M187.612 69.3408L187.612 75.1709L1.24651 46.2859L1.24643 40.4969L187.612 69.3408Z" fill="#F6FCFF"/>
<path d="M187.612 69.3408L187.612 75.1709L1.24651 46.2859L1.24643 40.4969L187.612 69.3408Z" fill="url(#paint17_radial_15_117)" fill-opacity="0.3"/>
<path d="M187.612 69.3391L305.088 32.7753L304.772 38.524L187.612 75.1907L187.612 69.3391Z" fill="#F6FCFF"/>
<path d="M187.612 69.3391L305.088 32.7753L304.772 38.524L187.612 75.1907L187.612 69.3391Z" fill="url(#paint18_radial_15_117)" fill-opacity="0.3"/>
<path d="M242.294 83.4718L246.23 81.521L258.554 82.3968L254.618 84.3476L242.294 83.4718Z" fill="#2BB0B8"/>
<path d="M273.741 105.839L277.676 103.888C277.643 107.988 277.615 111.921 277.581 115.99L273.646 117.941C273.676 113.876 273.708 109.939 273.741 105.839Z" fill="#2BB0B8"/>
<path d="M273.93 73.6237L277.934 71.6686C277.904 75.7168 277.872 79.6539 277.839 83.745L273.801 85.7562C273.834 81.6652 273.896 77.672 273.93 73.6237Z" fill="#2BB0B8"/>
<path d="M254.717 72.2519L258.652 70.3012C265.097 70.7581 271.4 71.2056 277.933 71.6733L273.998 73.6241C267.465 73.1606 261.162 72.7132 254.717 72.2519Z" fill="url(#paint19_linear_15_117)"/>
<path d="M273.825 85.7288L277.837 83.7441C281.971 84.0369 285.967 84.32 290.073 84.6134L286.138 86.5642C282.027 86.2709 277.956 86.0216 273.825 85.7288Z" fill="#3ADFD5"/>
<path d="M273.825 85.7288L277.837 83.7441C281.971 84.0369 285.967 84.32 290.073 84.6134L286.138 86.5642C282.027 86.2709 277.956 86.0216 273.825 85.7288Z" fill="url(#paint20_radial_15_117)" fill-opacity="0.2"/>
<path d="M286.128 86.5632L290.079 84.6139C290.028 91.3766 289.973 97.977 289.923 104.757L285.968 106.717C286.019 99.9368 286.077 93.3259 286.128 86.5632Z" fill="#2BB0B8"/>
<path d="M273.997 73.6192C273.967 77.6674 273.935 81.6046 273.902 85.6956C278.036 85.9884 282.032 86.2715 286.139 86.5649C286.088 93.3277 286.033 99.9281 285.983 106.708C281.959 106.421 277.924 106.135 273.754 105.838C273.721 109.938 273.692 113.871 273.659 117.94C267.221 117.483 260.923 117.036 254.461 116.575C254.493 112.629 254.522 108.701 254.554 104.546C250.332 104.246 246.269 103.956 242.135 103.663C242.188 96.8322 242.239 90.2319 242.29 83.4692L254.614 84.345C254.647 80.254 254.675 76.3126 254.709 72.2515C261.154 72.7085 267.457 73.1559 273.99 73.6237L273.997 73.6192Z" fill="#3ADFD5"/>
<path d="M273.997 73.6192C273.967 77.6674 273.935 81.6046 273.902 85.6956C278.036 85.9884 282.032 86.2715 286.139 86.5649C286.088 93.3277 286.033 99.9281 285.983 106.708C281.959 106.421 277.924 106.135 273.754 105.838C273.721 109.938 273.692 113.871 273.659 117.94C267.221 117.483 260.923 117.036 254.461 116.575C254.493 112.629 254.522 108.701 254.554 104.546C250.332 104.246 246.269 103.956 242.135 103.663C242.188 96.8322 242.239 90.2319 242.29 83.4692L254.614 84.345C254.647 80.254 254.675 76.3126 254.709 72.2515C261.154 72.7085 267.457 73.1559 273.99 73.6237L273.997 73.6192Z" fill="url(#paint21_radial_15_117)" fill-opacity="0.6"/>
<path d="M273.997 73.6192C273.967 77.6674 273.935 81.6046 273.902 85.6956C278.036 85.9884 282.032 86.2715 286.139 86.5649C286.088 93.3277 286.033 99.9281 285.983 106.708C281.959 106.421 277.924 106.135 273.754 105.838C273.721 109.938 273.692 113.871 273.659 117.94C267.221 117.483 260.923 117.036 254.461 116.575C254.493 112.629 254.522 108.701 254.554 104.546C250.332 104.246 246.269 103.956 242.135 103.663C242.188 96.8322 242.239 90.2319 242.29 83.4692L254.614 84.345C254.647 80.254 254.675 76.3126 254.709 72.2515C261.154 72.7085 267.457 73.1559 273.99 73.6237L273.997 73.6192Z" fill="url(#paint22_radial_15_117)" fill-opacity="0.2"/>
<path d="M1.2465 40.4961L118.723 3.92798L305.088 32.7761L187.612 69.34L1.2465 40.4961Z" fill="url(#paint23_linear_15_117)"/>
<path d="M158.368 32.795C154.228 32.4446 150.609 34.1568 150.284 38.627L263.385 45.7555L263.425 72.0218L268.772 72.0218L268.883 46.6967C268.899 42.8751 265.936 39.7019 262.123 39.457L158.368 32.795Z" fill="url(#paint24_radial_15_117)"/>
<ellipse cx="266.106" cy="71.9618" rx="2.67756" ry="0.799439" fill="#59D0EB"/>
<defs>
<linearGradient id="paint0_linear_15_117" x1="280.569" y1="174.327" x2="128.818" y2="188.928" gradientUnits="userSpaceOnUse">
<stop stop-color="#60C9FF"/>
<stop offset="1" stop-color="#12AFFF" stop-opacity="0"/>
</linearGradient>
<radialGradient id="paint1_radial_15_117" cx="0" cy="0" r="1" gradientUnits="userSpaceOnUse" gradientTransform="translate(141.121 185.843) rotate(167.681) scale(111.982 49.3609)">
<stop stop-color="#2E86FE"/>
<stop offset="1" stop-color="#2E86FE" stop-opacity="0"/>
</radialGradient>
<radialGradient id="paint2_radial_15_117" cx="0" cy="0" r="1" gradientUnits="userSpaceOnUse" gradientTransform="translate(321.522 199.108) rotate(-178.947) scale(307.222 384.191)">
<stop stop-color="#60C9FF"/>
<stop offset="1" stop-color="#23B5FF" stop-opacity="0.3435"/>
</radialGradient>
<linearGradient id="paint3_linear_15_117" x1="159.393" y1="169.392" x2="161.757" y2="205.623" gradientUnits="userSpaceOnUse">
<stop stop-color="#1067DE"/>
<stop offset="1" stop-color="#1067DE" stop-opacity="0"/>
</linearGradient>
<linearGradient id="paint4_linear_15_117" x1="28.6427" y1="170.355" x2="123.25" y2="165.671" gradientUnits="userSpaceOnUse">
<stop stop-color="#60C9FF"/>
<stop offset="0.828125" stop-color="#23B5FF" stop-opacity="0.3435"/>
<stop offset="0.864583" stop-color="#12AFFF" stop-opacity="0"/>
</linearGradient>
<linearGradient id="paint5_linear_15_117" x1="17.8009" y1="154.19" x2="192.299" y2="183.143" gradientUnits="userSpaceOnUse">
<stop stop-color="#60C9FF"/>
<stop offset="1" stop-color="#12AFFF" stop-opacity="0"/>
</linearGradient>
<linearGradient id="paint6_linear_15_117" x1="17.8043" y1="124.5" x2="119.433" y2="119.243" gradientUnits="userSpaceOnUse">
<stop stop-color="#60C9FF"/>
<stop offset="0.828125" stop-color="#23B5FF" stop-opacity="0.3435"/>
<stop offset="0.864583" stop-color="#12AFFF" stop-opacity="0"/>
</linearGradient>
<radialGradient id="paint7_radial_15_117" cx="0" cy="0" r="1" gradientUnits="userSpaceOnUse" gradientTransform="translate(115.215 148.519) rotate(179.496) scale(86.4093 72.104)">
<stop stop-color="#2E86FE"/>
<stop offset="1" stop-color="#2E86FE" stop-opacity="0"/>
</radialGradient>
<linearGradient id="paint8_linear_15_117" x1="97.501" y1="154.386" x2="225.004" y2="154.706" gradientUnits="userSpaceOnUse">
<stop offset="0.0677083" stop-color="#2E86FE" stop-opacity="0"/>
<stop offset="0.0678083" stop-color="#2E86FE"/>
<stop offset="0.755208" stop-color="#2E86FE" stop-opacity="0.12"/>
</linearGradient>
<linearGradient id="paint9_linear_15_117" x1="299.428" y1="215.756" x2="119.265" y2="158.021" gradientUnits="userSpaceOnUse">
<stop stop-color="#60C9FF"/>
<stop offset="0.828125" stop-color="#23B5FF" stop-opacity="0.3435"/>
</linearGradient>
<linearGradient id="paint10_linear_15_117" x1="17.1651" y1="121.367" x2="191.67" y2="150.323" gradientUnits="userSpaceOnUse">
<stop stop-color="#60C9FF"/>
<stop offset="1" stop-color="#12AFFF" stop-opacity="0"/>
</linearGradient>
<linearGradient id="paint11_linear_15_117" x1="13.6486" y1="213.139" x2="113.287" y2="104.769" gradientUnits="userSpaceOnUse">
<stop stop-color="#60C9FF"/>
<stop offset="0.916667" stop-color="#23B5FF" stop-opacity="0.3435"/>
<stop offset="1" stop-color="#12AFFF" stop-opacity="0"/>
</linearGradient>
<radialGradient id="paint12_radial_15_117" cx="0" cy="0" r="1" gradientUnits="userSpaceOnUse" gradientTransform="translate(217.867 154.543) rotate(172.419) scale(186.168 73.0386)">
<stop stop-color="#1067DE"/>
<stop offset="1" stop-color="#1067DE" stop-opacity="0"/>
</radialGradient>
<radialGradient id="paint13_radial_15_117" cx="0" cy="0" r="1" gradientUnits="userSpaceOnUse" gradientTransform="translate(187.232 126.94) rotate(-171.906) scale(143.612 56.4373)">
<stop stop-color="#1067DE"/>
<stop offset="0.744792" stop-color="#2E86FE" stop-opacity="0.255208"/>
<stop offset="0.786458" stop-color="#2E86FE" stop-opacity="0"/>
<stop offset="1" stop-color="#2E86FE" stop-opacity="0"/>
</radialGradient>
<radialGradient id="paint14_radial_15_117" cx="0" cy="0" r="1" gradientUnits="userSpaceOnUse" gradientTransform="translate(200.697 135.044) rotate(164.161) scale(127.135 91.5758)">
<stop stop-color="#4B71CD"/>
<stop offset="1" stop-color="#4B71CD" stop-opacity="0"/>
</radialGradient>
<linearGradient id="paint15_linear_15_117" x1="130.219" y1="44.4198" x2="150.672" y2="101.351" gradientUnits="userSpaceOnUse">
<stop stop-color="#7FABE4"/>
<stop offset="1" stop-color="#C2D8F4" stop-opacity="0"/>
</linearGradient>
<linearGradient id="paint16_linear_15_117" x1="200.673" y1="111.26" x2="28.6778" y2="106.581" gradientUnits="userSpaceOnUse">
<stop stop-color="#2E86FE" stop-opacity="0"/>
<stop offset="0.145833" stop-color="#2E86FE"/>
<stop offset="0.609375" stop-color="#2E86FE" stop-opacity="0"/>
</linearGradient>
<radialGradient id="paint17_radial_15_117" cx="0" cy="0" r="1" gradientUnits="userSpaceOnUse" gradientTransform="translate(157.857 73.4721) rotate(177.529) scale(144.321 25.9744)">
<stop stop-color="#2E86FE"/>
<stop offset="1" stop-color="#2E86FE" stop-opacity="0"/>
</radialGradient>
<radialGradient id="paint18_radial_15_117" cx="0" cy="0" r="1" gradientUnits="userSpaceOnUse" gradientTransform="translate(285.514 76.7136) rotate(171.401) scale(91.1616 40.089)">
<stop stop-color="#2E86FE"/>
<stop offset="1" stop-color="#2E86FE" stop-opacity="0"/>
</radialGradient>
<linearGradient id="paint19_linear_15_117" x1="264.173" y1="68.8468" x2="277.318" y2="69.7107" gradientUnits="userSpaceOnUse">
<stop stop-color="#2BB0B8"/>
<stop offset="1" stop-color="#3ADDD4"/>
</linearGradient>
<radialGradient id="paint20_radial_15_117" cx="0" cy="0" r="1" gradientUnits="userSpaceOnUse" gradientTransform="translate(292.395 81.15) rotate(169.148) scale(29.4442 3.23954)">
<stop stop-color="#0C2780"/>
<stop offset="1" stop-color="#0C2780" stop-opacity="0"/>
</radialGradient>
<radialGradient id="paint21_radial_15_117" cx="0" cy="0" r="1" gradientUnits="userSpaceOnUse" gradientTransform="translate(273.929 59.602) rotate(103.864) scale(49.4217 46.8599)">
<stop stop-color="white"/>
<stop offset="1" stop-color="white" stop-opacity="0"/>
</radialGradient>
<radialGradient id="paint22_radial_15_117" cx="0" cy="0" r="1" gradientUnits="userSpaceOnUse" gradientTransform="translate(279.815 125.124) rotate(-169.809) scale(67.1491 39.951)">
<stop stop-color="#0C2780"/>
<stop offset="1" stop-color="#0C2780" stop-opacity="0"/>
</radialGradient>
<linearGradient id="paint23_linear_15_117" x1="351.845" y1="81.6932" x2="182.964" y2="-209.917" gradientUnits="userSpaceOnUse">
<stop stop-color="#4B71CD"/>
<stop offset="0.32331" stop-color="#DCEFFF"/>
<stop offset="0.441143" stop-color="#DCEFFF"/>
<stop offset="1" stop-color="#4B71CD"/>
</linearGradient>
<radialGradient id="paint24_radial_15_117" cx="0" cy="0" r="1" gradientUnits="userSpaceOnUse" gradientTransform="translate(265.018 41.8677) rotate(-177.391) scale(114.853 45.413)">
<stop stop-color="#3FAFFD"/>
<stop offset="0.51966" stop-color="#55CBEC"/>
<stop offset="1" stop-color="#A0DFFF"/>
</radialGradient>
</defs>
</svg>
