<svg width="217" height="200" viewBox="0 0 217 200" fill="none" xmlns="http://www.w3.org/2000/svg">
<path d="M183.902 2.1817L175.899 0.465805L11.838 17.7108L19.8466 19.4267L183.902 2.1817Z" fill="#849ACB"/>
<path d="M19.8466 19.4267L19.7547 33.2033L8.39307 34.3972L183.816 15.9582L183.902 2.18164L19.8466 19.4267Z" fill="url(#paint0_linear_14_92)"/>
<path d="M183.902 2.18164L183.816 15.9582L8.39307 34.3972L7.48544 177.917L182.913 159.483L183.902 2.18164Z" fill="url(#paint1_radial_14_92)"/>
<path d="M8.39398 34.3978L0.409333 32.6177V175.062L7.48635 177.917L8.39398 34.3978Z" fill="#849ACB"/>
<path d="M8.48011 20.6218L8.39366 34.3984L19.7553 33.2044L19.8472 19.4278L8.48011 20.6218Z" fill="url(#paint2_linear_14_92)"/>
<path d="M8.48042 20.6202L0.485014 18.882L0.398571 32.6585L8.39398 34.3968L8.48042 20.6202Z" fill="#007DC3"/>
<path d="M19.8472 19.4272L11.8693 17.7121L0.502198 18.9061L8.48011 20.6212L19.8472 19.4272Z" fill="#007DC3"/>
<path d="M20.8519 67.4779L19.8578 181.753L127.207 170.467L128.202 56.1973L20.8519 67.4779Z" fill="url(#paint3_linear_14_92)"/>
<path fill-rule="evenodd" clip-rule="evenodd" d="M43.0124 91.1708C49.8251 82.2674 59.0311 76.6919 68.5937 75.687L68.3182 119.405L32.2504 123.197C32.326 111.609 36.1997 100.08 43.0124 91.1708ZM75.6006 127.18L75.8761 83.4621C95.6605 81.3821 111.814 99.4051 111.663 123.393C111.512 147.38 95.1148 168.828 75.3251 170.908C55.5354 172.988 39.3816 154.96 39.5329 130.972L75.6006 127.18Z" fill="url(#paint4_linear_14_92)"/>
<path fill-rule="evenodd" clip-rule="evenodd" d="M41.4026 179.287L42.0942 155.814L149.438 144.534L148.461 177.715V179.434C148.461 185.107 143.15 189.791 137.834 189.547V189.558L30.2951 199.467V199.461L37.4968 179.617L41.4026 179.287Z" fill="url(#paint5_linear_14_92)"/>
<path d="M19.8468 180.009L19.8576 165.724L41.8873 163.198L41.1006 189.344C41.1006 200.69 19.8522 208.075 19.8522 180.014L19.8468 180.009Z" fill="url(#paint6_linear_14_92)"/>
<path fill-rule="evenodd" clip-rule="evenodd" d="M174.074 56.6613C174.112 50.5078 178.261 45.089 183.335 44.5542C188.413 44.0193 192.492 48.5737 192.454 54.7272C192.443 56.8828 191.925 58.952 191.039 60.7511L191.038 60.7517L204.955 79.5411L209.623 85.8405L205.214 90.7619L205.215 90.7625L209.623 85.8407L204.956 79.5413C205.761 79.1848 206.603 78.947 207.479 78.8552V78.8606C212.552 78.3257 216.636 82.8747 216.598 89.0337C216.56 95.1872 212.417 100.611 207.338 101.141C202.26 101.67 198.181 97.1159 198.219 90.9624C198.235 88.3963 198.964 85.9654 200.174 83.9557L200.174 83.955L186.63 65.6786C185.565 66.3051 184.404 66.7102 183.194 66.8398C182.059 66.9587 180.974 66.8236 179.969 66.4724C178.868 66.0872 177.87 65.4402 177.022 64.5849C177.87 65.4405 178.868 66.0877 179.969 66.473L164.982 90.4983L164.979 90.5035C165.912 92.1504 166.451 94.1907 166.435 96.4359C166.397 102.595 162.248 108.008 157.175 108.543C152.096 109.078 148.012 104.529 148.05 98.37C148.066 96.3603 148.515 94.4315 149.292 92.7243L157.342 102.735L157.345 102.731L149.299 92.7241L128.888 67.3428L128.887 67.3419C127.72 68.1036 126.434 68.5952 125.078 68.7356C120 69.2651 115.921 64.7161 115.959 58.5572C115.996 52.3982 120.14 46.9848 125.219 46.45C130.292 45.9151 134.376 50.4641 134.338 56.6231C134.327 58.6058 133.884 60.5129 133.128 62.2039L130.481 58.9138L126.213 64.0192L126.213 64.0201L130.481 58.9148V58.9202L133.129 62.2104L153.564 87.621C154.714 86.8823 155.982 86.4078 157.315 86.2675C158.455 86.1487 159.541 86.2837 160.54 86.6349L157.148 92.0749L157.149 92.0758L160.541 86.6354L175.534 62.6049L175.533 62.6042C174.599 60.951 174.058 58.9142 174.074 56.6613Z" fill="url(#paint7_linear_14_92)"/>
<defs>
<linearGradient id="paint0_linear_14_92" x1="248.204" y1="51.4615" x2="231.158" y2="-35.8725" gradientUnits="userSpaceOnUse">
<stop stop-color="#486099"/>
<stop offset="1" stop-color="#DCEFFF"/>
</linearGradient>
<radialGradient id="paint1_radial_14_92" cx="0" cy="0" r="1" gradientUnits="userSpaceOnUse" gradientTransform="translate(95.6937 48.9917) rotate(78.7138) scale(201.166 382.286)">
<stop stop-color="#F6FCFF"/>
<stop offset="1" stop-color="#83A0DF"/>
</radialGradient>
<linearGradient id="paint2_linear_14_92" x1="2.4071" y1="38.6326" x2="23.5818" y2="19.4277" gradientUnits="userSpaceOnUse">
<stop stop-color="#2E86FE"/>
<stop offset="1" stop-color="#12AFFF"/>
</linearGradient>
<linearGradient id="paint3_linear_14_92" x1="108.861" y1="121.288" x2="112.825" y2="53.91" gradientUnits="userSpaceOnUse">
<stop stop-color="#EBF6FC"/>
<stop offset="1" stop-color="white"/>
</linearGradient>
<linearGradient id="paint4_linear_14_92" x1="32.25" y1="147.705" x2="71.9573" y2="67.7637" gradientUnits="userSpaceOnUse">
<stop stop-color="#13B8FF"/>
<stop offset="1" stop-color="#63F0EB"/>
</linearGradient>
<linearGradient id="paint5_linear_14_92" x1="86.7737" y1="160.63" x2="89.8587" y2="194.446" gradientUnits="userSpaceOnUse">
<stop stop-color="#F7FDFF"/>
<stop offset="1" stop-color="#A0CCF1"/>
</linearGradient>
<linearGradient id="paint6_linear_14_92" x1="33.3827" y1="164.107" x2="33.3827" y2="199.466" gradientUnits="userSpaceOnUse">
<stop stop-color="#EEF7FD"/>
<stop offset="1" stop-color="#89B9E1"/>
</linearGradient>
<linearGradient id="paint7_linear_14_92" x1="147.976" y1="-10.0586" x2="244.063" y2="16.6632" gradientUnits="userSpaceOnUse">
<stop stop-color="#2E86FE"/>
<stop offset="1" stop-color="#12AFFF"/>
</linearGradient>
</defs>
</svg>
