<svg width="80" height="80" viewBox="0 0 80 80" fill="none" xmlns="http://www.w3.org/2000/svg">
<path d="M55.9805 45.7354L63.6367 47.5033C64.4304 49.3887 65.886 50.7555 67.6711 51.1681L60.0149 49.4001C58.2298 48.9875 56.777 47.6208 55.9805 45.7354Z" fill="#ADD0FE"/>
<path d="M62.5381 49.3647L70.1943 51.1327C69.5363 53.4763 68.7 55.7209 67.708 57.847C66.6258 60.1665 65.3582 62.3452 63.9347 64.3578C62.0034 67.0883 60.3071 70.3881 57.8751 72.4449C54.7262 75.108 51.5172 77.5477 47.8111 78.8407C42.9815 80.5258 30.3485 79.5594 27.2519 78.8407C24.1553 78.1221 19.5967 75.1115 19.5967 75.1115C20.2156 75.2547 25.3745 76.9725 26.0106 77.0728C30.2389 77.7327 34.4488 77.3525 38.4456 76.0985C40.7968 75.3607 43.0743 74.3206 45.2384 73.0119C47.5806 71.5955 49.7899 69.8646 51.816 67.862C53.6721 66.0275 55.3744 63.9651 56.8845 61.7077C57.9262 60.1504 58.8764 58.5003 59.7223 56.7682C60.3655 55.4513 60.9485 54.087 61.4656 52.6801C61.8628 51.5994 62.2211 50.4936 62.5381 49.3647Z" fill="#E7F2FE"/>
<path d="M62.5381 49.3647L70.1943 51.1327C69.5363 53.4763 68.7 55.7209 67.708 57.847C66.6258 60.1665 65.3582 62.3452 63.9347 64.3578C62.0034 67.0883 60.3071 70.3881 57.8751 72.4449C54.7262 75.108 51.5172 77.5477 47.8111 78.8407C42.9815 80.5258 30.3485 79.5594 27.2519 78.8407C24.1553 78.1221 19.5967 75.1115 19.5967 75.1115C20.2156 75.2547 25.3745 76.9725 26.0106 77.0728C30.2389 77.7327 34.4488 77.3525 38.4456 76.0985C40.7968 75.3607 43.0743 74.3206 45.2384 73.0119C47.5806 71.5955 49.7899 69.8646 51.816 67.862C53.6721 66.0275 55.3744 63.9651 56.8845 61.7077C57.9262 60.1504 58.8764 58.5003 59.7223 56.7682C60.3655 55.4513 60.9485 54.087 61.4656 52.6801C61.8628 51.5994 62.2211 50.4936 62.5381 49.3647Z" fill="url(#paint0_radial_12851_26245)" fill-opacity="0.6"/>
<path d="M65.8081 15.7725C65.4119 16.5342 64.8089 16.6991 63.7031 16.9168C63.012 16.9819 62.3091 16.8347 61.617 16.6432C60.8937 16.2362 59.8934 16.027 59.3977 15.3536C58.9388 14.7239 58.8674 14.0557 59.1484 13.4257C59.4922 12.6914 59.6469 12.6244 60.9353 12.9381C61.7122 13.1379 62.4948 13.3824 63.2625 13.624C63.9228 13.8475 64.3943 13.9511 64.9734 14.2109C65.8459 14.6247 66.2596 14.9736 65.8081 15.7725Z" fill="url(#paint1_linear_12851_26245)"/>
<path d="M40.5127 3.67285L48.169 5.44078C46.5214 6.88492 45.3695 9.18868 45.2177 11.7732C45.1432 13.0139 45.3093 14.183 45.6646 15.2203L38.0084 13.4523C37.6531 12.4151 37.4869 11.246 37.5614 10.0053C37.7133 7.41788 38.8623 5.11413 40.5127 3.67285Z" fill="#ACD0FE"/>
<path d="M38.0089 13.4541L45.6651 15.222C44.3242 16.669 43.4187 18.7235 43.284 21.0015C43.1264 23.6777 44.0777 26.0273 45.6537 27.4228L37.9975 25.6548C36.4215 24.2623 35.4702 21.9127 35.6278 19.2335C35.7625 16.9556 36.6679 14.9011 38.0089 13.4541Z" fill="#D1E5FE"/>
<path d="M38 25.6509L45.6562 27.4188C45.4757 28.244 45.3582 29.0922 45.3067 29.9633C45.1864 32.0118 45.4525 33.946 46.0287 35.6654C47.2506 39.3114 49.8672 41.992 53.152 42.7514L45.4958 40.9834C42.9435 40.3949 40.7947 38.6449 39.39 36.1831C38.1343 33.9823 37.4733 31.2127 37.6505 28.1953C37.702 27.3243 37.8224 26.4732 38 25.6509Z" fill="#E7F2FE"/>
<path d="M47.2402 41.1982L54.8964 42.9662C55.0683 43.8848 55.3783 44.7304 55.8006 45.4687C55.8584 45.5698 55.9183 45.6688 55.9802 45.7658C55.9802 49.1772 55.5283 47.5398 54.7805 47.2546L51.7818 46.5622C49.4953 46.035 47.7531 43.9433 47.2402 41.1982Z" fill="#D1E5FE"/>
<path d="M61.2508 49.5359C61.6863 49.5302 62.1161 49.4729 62.5345 49.364C61.7277 52.2376 60.6528 54.9622 59.3516 57.5022C56.1935 63.6669 53.3836 69.9946 48.1548 73.4761C42.0258 77.557 33.2021 78.195 26.007 77.0721C20.5119 76.2152 15.6551 73.7054 11.7147 70.018C7.35267 65.936 2.4636 60.9677 0.725655 54.6442C-0.848759 48.9156 0.458782 41.9749 1.62857 35.4154C2.29834 31.6597 2.51412 25.9108 4.00056 22.6344C5.78672 18.6974 9.74406 14.1446 12.4519 11.1193C19.6958 3.02638 28.9977 1.83461 39.1417 3.41787C39.6031 3.48951 40.0587 3.57547 40.5114 3.67003C38.8638 5.11417 37.7119 7.41792 37.5601 10.0025C37.4856 11.2432 37.6518 12.4122 38.0071 13.4495C36.6661 14.8965 35.7606 16.951 35.6259 19.229C35.4684 21.9052 36.4197 24.2548 37.9956 25.6502C37.8151 26.4755 37.6976 27.3236 37.646 28.1947C37.2535 34.8481 40.9412 40.2951 46.0874 41.0974C46.4627 41.1547 46.8467 41.1891 47.2364 41.1977C47.775 44.0803 49.6748 46.2465 52.1332 46.6304C52.4083 46.6734 52.692 46.6935 52.9814 46.6906C54.0559 46.6791 55.0874 46.3353 56.0072 45.745C56.8553 47.7536 58.4485 49.1749 60.3969 49.4786C60.6749 49.5216 60.9585 49.5416 61.2479 49.5388L61.2508 49.5359Z" fill="#E7F2FE"/>
<path d="M61.2508 49.5359C61.6863 49.5302 62.1161 49.4729 62.5345 49.364C61.7277 52.2376 60.6528 54.9622 59.3516 57.5022C56.1935 63.6669 53.3836 69.9946 48.1548 73.4761C42.0258 77.557 33.2021 78.195 26.007 77.0721C20.5119 76.2152 15.6551 73.7054 11.7147 70.018C7.35267 65.936 2.4636 60.9677 0.725655 54.6442C-0.848759 48.9156 0.458782 41.9749 1.62857 35.4154C2.29834 31.6597 2.51412 25.9108 4.00056 22.6344C5.78672 18.6974 9.74406 14.1446 12.4519 11.1193C19.6958 3.02638 28.9977 1.83461 39.1417 3.41787C39.6031 3.48951 40.0587 3.57547 40.5114 3.67003C38.8638 5.11417 37.7119 7.41792 37.5601 10.0025C37.4856 11.2432 37.6518 12.4122 38.0071 13.4495C36.6661 14.8965 35.7606 16.951 35.6259 19.229C35.4684 21.9052 36.4197 24.2548 37.9956 25.6502C37.8151 26.4755 37.6976 27.3236 37.646 28.1947C37.2535 34.8481 40.9412 40.2951 46.0874 41.0974C46.4627 41.1547 46.8467 41.1891 47.2364 41.1977C47.775 44.0803 49.6748 46.2465 52.1332 46.6304C52.4083 46.6734 52.692 46.6935 52.9814 46.6906C54.0559 46.6791 55.0874 46.3353 56.0072 45.745C56.8553 47.7536 58.4485 49.1749 60.3969 49.4786C60.6749 49.5216 60.9585 49.5416 61.2479 49.5388L61.2508 49.5359Z" fill="url(#paint2_radial_12851_26245)" fill-opacity="0.4"/>
<path d="M61.2508 49.5359C61.6863 49.5302 62.1161 49.4729 62.5345 49.364C61.7277 52.2376 60.6528 54.9622 59.3516 57.5022C56.1935 63.6669 53.3836 69.9946 48.1548 73.4761C42.0258 77.557 33.2021 78.195 26.007 77.0721C20.5119 76.2152 15.6551 73.7054 11.7147 70.018C7.35267 65.936 2.4636 60.9677 0.725655 54.6442C-0.848759 48.9156 0.458782 41.9749 1.62857 35.4154C2.29834 31.6597 2.51412 25.9108 4.00056 22.6344C5.78672 18.6974 9.74406 14.1446 12.4519 11.1193C19.6958 3.02638 28.9977 1.83461 39.1417 3.41787C39.6031 3.48951 40.0587 3.57547 40.5114 3.67003C38.8638 5.11417 37.7119 7.41792 37.5601 10.0025C37.4856 11.2432 37.6518 12.4122 38.0071 13.4495C36.6661 14.8965 35.7606 16.951 35.6259 19.229C35.4684 21.9052 36.4197 24.2548 37.9956 25.6502C37.8151 26.4755 37.6976 27.3236 37.646 28.1947C37.2535 34.8481 40.9412 40.2951 46.0874 41.0974C46.4627 41.1547 46.8467 41.1891 47.2364 41.1977C47.775 44.0803 49.6748 46.2465 52.1332 46.6304C52.4083 46.6734 52.692 46.6935 52.9814 46.6906C54.0559 46.6791 55.0874 46.3353 56.0072 45.745C56.8553 47.7536 58.4485 49.1749 60.3969 49.4786C60.6749 49.5216 60.9585 49.5416 61.2479 49.5388L61.2508 49.5359Z" fill="url(#paint3_radial_12851_26245)" fill-opacity="0.4"/>
<path d="M71.0508 45.4252C65.6209 45.2361 61.0794 40.6888 60.386 34.2274C59.6266 27.1356 63.7757 20.3075 69.7814 18.4736C71.1024 21.7373 72.0135 25.319 72.4233 29.1471C73.0221 34.7374 72.4949 40.2676 71.0508 45.4252Z" fill="#E7F2FE"/>
<path d="M71.0508 45.4252C65.6209 45.2361 61.0794 40.6888 60.386 34.2274C59.6266 27.1356 63.7757 20.3075 69.7814 18.4736C71.1024 21.7373 72.0135 25.319 72.4233 29.1471C73.0221 34.7374 72.4949 40.2676 71.0508 45.4252Z" fill="url(#paint4_radial_12851_26245)" fill-opacity="0.4"/>
<path d="M79.7556 30.6319C79.3459 26.8038 78.4347 23.2221 77.1137 19.9584L69.7813 18.4771C71.1022 21.7407 72.0134 25.3224 72.4232 29.1505C73.022 34.7409 72.4948 40.271 71.0507 45.4287C70.4948 45.4086 69.9504 45.3456 69.4146 45.2367L76.747 46.7181C77.2799 46.827 77.8272 46.89 78.3831 46.9101C79.8301 41.7524 80.3573 36.2223 79.7556 30.6319Z" fill="#E7F2FE"/>
<path d="M79.7556 30.6319C79.3459 26.8038 78.4347 23.2221 77.1137 19.9584L69.7813 18.4771C71.1022 21.7407 72.0134 25.3224 72.4232 29.1505C73.022 34.7409 72.4948 40.271 71.0507 45.4287C70.4948 45.4086 69.9504 45.3456 69.4146 45.2367L76.747 46.7181C77.2799 46.827 77.8272 46.89 78.3831 46.9101C79.8301 41.7524 80.3573 36.2223 79.7556 30.6319Z" fill="url(#paint5_radial_12851_26245)" fill-opacity="0.4"/>
<path d="M60.6259 14.6536C55.6487 15.7167 51.1215 11.9544 50.5083 6.24949C50.2819 4.13772 50.6229 2.06033 51.3966 0.223633C57.1273 2.20073 62.1588 6.07184 65.8895 11.3355C64.5113 13.0032 62.6946 14.2123 60.6259 14.6536Z" fill="#E7F2FE"/>
<path d="M60.6259 14.6536C55.6487 15.7167 51.1215 11.9544 50.5083 6.24949C50.2819 4.13772 50.6229 2.06033 51.3966 0.223633C57.1273 2.20073 62.1588 6.07184 65.8895 11.3355C64.5113 13.0032 62.6946 14.2123 60.6259 14.6536Z" fill="url(#paint6_radial_12851_26245)" fill-opacity="0.4"/>
<path d="M58.7299 1.70503L51.3975 0.223633C57.1282 2.20073 62.1597 6.07184 65.8904 11.3355C64.5122 13.0032 62.6955 14.2123 60.6268 14.6536C59.5265 14.8886 58.4462 14.8886 57.4262 14.6823L64.7586 16.1637C65.7787 16.37 66.8589 16.37 67.9592 16.135C70.028 15.6937 71.8446 14.4845 73.2228 12.8169C69.4921 7.55323 64.4606 3.68213 58.7299 1.70503Z" fill="#E7F2FE"/>
<path d="M58.7299 1.70503L51.3975 0.223633C57.1282 2.20073 62.1597 6.07184 65.8904 11.3355C64.5122 13.0032 62.6955 14.2123 60.6268 14.6536C59.5265 14.8886 58.4462 14.8886 57.4262 14.6823L64.7586 16.1637C65.7787 16.37 66.8589 16.37 67.9592 16.135C70.028 15.6937 71.8446 14.4845 73.2228 12.8169C69.4921 7.55323 64.4606 3.68213 58.7299 1.70503Z" fill="url(#paint7_radial_12851_26245)" fill-opacity="0.4"/>
<path d="M54.697 16.375L54.4922 16.7332C55.9918 17.718 55.3766 18.3252 58.3347 19.7413C57.2044 21.1089 55.7147 22.1005 54.0182 22.4623C52.8665 22.4623 53.6458 21.6921 52.0342 22.5427L54.0182 22.9571C54.8547 23.1263 55.7405 23.1263 56.6428 22.9336C58.3393 22.5718 59.8291 21.5802 60.9593 20.2126C56.8574 17.3447 59.3965 17.9963 54.697 16.375Z" fill="#E7F2FE"/>
<path d="M54.697 16.375L54.4922 16.7332C55.9918 17.718 55.3766 18.3252 58.3347 19.7413C57.2044 21.1089 55.7147 22.1005 54.0182 22.4623C52.8665 22.4623 53.6458 21.6921 52.0342 22.5427L54.0182 22.9571C54.8547 23.1263 55.7405 23.1263 56.6428 22.9336C58.3393 22.5718 59.8291 21.5802 60.9593 20.2126C56.8574 17.3447 59.3965 17.9963 54.697 16.375Z" fill="url(#paint8_radial_12851_26245)"/>
<path d="M54.0138 22.458C50.7027 23.1643 49.1753 21.3659 51.6957 17.2821C54.0138 15.9207 55.2709 15.4204 58.3302 19.7369C57.2 21.1045 55.7103 22.0961 54.0138 22.458Z" fill="#E7F2FE"/>
<path d="M54.0138 22.458C50.7027 23.1643 49.1753 21.3659 51.6957 17.2821C54.0138 15.9207 55.2709 15.4204 58.3302 19.7369C57.2 21.1045 55.7103 22.0961 54.0138 22.458Z" fill="url(#paint9_radial_12851_26245)" fill-opacity="0.4"/>
<path d="M25.8754 48.7763C24.4191 48.4967 24.232 47.3103 23.3101 45.8225C22.8506 44.8664 22.1302 43.7017 22.0929 42.649C22.3947 41.472 22.8342 40.0887 23.6907 39.1359C24.4938 38.2515 25.5578 37.9025 26.7386 38.0676C28.123 38.283 28.3122 38.4776 28.452 40.4215C28.5188 41.5976 28.5149 42.7984 28.5082 43.9768C28.4767 44.9964 28.5463 45.7037 28.4135 46.6214C28.1766 48.0123 27.421 49.1206 25.8754 48.7763Z" fill="url(#paint10_linear_12851_26245)"/>
<path d="M24.1215 28.3852C22.6652 28.1056 22.4781 26.9192 21.5562 25.4314C21.0967 24.4753 20.3763 23.3105 20.339 22.2579C20.6408 21.0809 21.0803 19.6976 21.9368 18.7448C22.7399 17.8604 23.8039 17.5114 24.9847 17.6765C26.3691 17.8919 26.5583 18.0865 26.6981 20.0304C26.7649 21.2065 26.761 22.4073 26.7543 23.5857C26.7228 24.6053 26.7924 25.3126 26.6596 26.2302C26.4227 27.6212 25.6671 28.7295 24.1215 28.3852Z" fill="url(#paint11_linear_12851_26245)"/>
<path d="M28.8729 56.411C27.9723 56.2321 27.5885 56.8691 26.7129 57.5077C26.2265 57.9492 25.5418 58.4495 25.2751 59.0447C25.174 59.7902 25.1038 60.6862 25.3731 61.4323C25.6278 62.1268 26.1568 62.575 26.8727 62.7554C27.7171 62.9544 27.8709 62.8869 28.4041 61.8043C28.7165 61.1452 28.9941 60.4554 29.2648 59.7778C29.4843 59.1856 29.689 58.7961 29.8267 58.2387C30.015 57.3855 29.8397 56.5736 28.8729 56.411Z" fill="url(#paint12_linear_12851_26245)"/>
<path d="M10.9846 36.351C10.0829 36.5241 9.96702 37.2588 9.39615 38.18C9.11167 38.772 8.66558 39.4932 8.64249 40.145C8.82936 40.8738 9.1015 41.7303 9.63182 42.3203C10.1291 42.8679 10.7879 43.084 11.519 42.9817C12.3763 42.8484 12.4934 42.7279 12.58 41.5243C12.6214 40.796 12.619 40.0525 12.6148 39.3228C12.5953 38.6915 12.6384 38.2536 12.5562 37.6854C12.4095 36.8241 11.9416 36.1378 10.9846 36.351Z" fill="url(#paint13_linear_12851_26245)"/>
<path d="M65.9926 27.6634C65.4773 27.8391 65.485 28.3542 65.243 29.0267C65.1361 29.4537 64.9471 29.98 65.0011 30.4322C65.1872 30.9245 65.4371 31.4999 65.8119 31.8749C66.1629 32.2227 66.5749 32.3313 66.9967 32.2152C67.4899 32.0698 67.5466 31.9793 67.473 31.1416C67.4219 30.6355 67.3433 30.1215 67.2651 29.6172C67.1881 29.1819 67.1681 28.8764 67.0605 28.4886C66.8844 27.9021 66.5365 27.4566 65.9926 27.6634Z" fill="url(#paint14_linear_12851_26245)"/>
<path d="M67.8205 8.70136C67.3052 8.87703 67.3888 8.39649 67.1467 9.06892C67.0399 9.49593 67.2424 9.89924 67.2964 10.3514C67.4825 10.8437 67.3408 11.5421 67.7157 11.9172C68.0666 12.265 68.4787 12.3736 68.9005 12.2575C69.3936 12.1121 69.4504 12.0215 69.3767 11.1839C69.3256 10.6777 69.1749 10.6432 69.0967 10.1389C69.0197 9.70354 68.7695 9.56366 68.662 9.17585C68.4859 8.5894 68.3644 8.49459 67.8205 8.70136Z" fill="url(#paint15_linear_12851_26245)"/>
<mask id="mask0_12851_26245" style="mask-type:alpha" maskUnits="userSpaceOnUse" x="33" y="43" width="8" height="15">
<ellipse cx="6.97489" cy="3.47822" rx="6.97489" ry="3.47822" transform="matrix(-0.258818 -0.965926 0.965926 -0.25882 35.6104 58.0244)" fill="#D9D9D9"/>
</mask>
<g mask="url(#mask0_12851_26245)">
<path d="M38.6596 53.706C37.7737 53.1813 37.963 52.2874 37.7474 51.0136C37.6966 50.2245 37.5287 49.2276 37.7815 48.4631C38.2904 47.6847 38.9445 46.7887 39.7599 46.2946C40.5221 45.8379 41.3152 45.8238 42.0497 46.205C42.9052 46.6675 42.9786 46.8494 42.5586 48.277C42.2928 49.1367 41.9739 49.9985 41.6589 50.8436C41.3696 51.569 41.2291 52.0925 40.8998 52.7223C40.3772 53.6689 39.5874 54.297 38.6596 53.706Z" fill="url(#paint16_linear_12851_26245)"/>
</g>
<defs>
<radialGradient id="paint0_radial_12851_26245" cx="0" cy="0" r="1" gradientUnits="userSpaceOnUse" gradientTransform="translate(37.9231 85.9505) rotate(-123.977) scale(35.7615 49.5769)">
<stop stop-color="#2E86FE"/>
<stop offset="0.8125" stop-color="#2E86FE" stop-opacity="0.25"/>
<stop offset="0.880208" stop-color="#2E86FE" stop-opacity="0"/>
</radialGradient>
<linearGradient id="paint1_linear_12851_26245" x1="66.5306" y1="14.8928" x2="62.9715" y2="18.8122" gradientUnits="userSpaceOnUse">
<stop stop-color="#2E86FE"/>
<stop offset="1" stop-color="#12AFFF"/>
</linearGradient>
<radialGradient id="paint2_radial_12851_26245" cx="0" cy="0" r="1" gradientUnits="userSpaceOnUse" gradientTransform="translate(31.7338 41.4432) rotate(-147.414) scale(40.0965 45.6052)">
<stop stop-color="#2E86FE"/>
<stop offset="0.8125" stop-color="#2E86FE" stop-opacity="0.25"/>
<stop offset="0.880208" stop-color="#2E86FE" stop-opacity="0"/>
</radialGradient>
<radialGradient id="paint3_radial_12851_26245" cx="0" cy="0" r="1" gradientUnits="userSpaceOnUse" gradientTransform="translate(34.6646 80.2594) rotate(-97.0423) scale(27.7107 181.962)">
<stop stop-color="#2E86FE"/>
<stop offset="0.533103" stop-color="#2E86FE" stop-opacity="0.25"/>
<stop offset="0.880208" stop-color="#2E86FE" stop-opacity="0"/>
</radialGradient>
<radialGradient id="paint4_radial_12851_26245" cx="0" cy="0" r="1" gradientUnits="userSpaceOnUse" gradientTransform="translate(48.3276 24.4935) rotate(8.57391) scale(34.1043 39.5629)">
<stop stop-color="#2E86FE"/>
<stop offset="0.569367" stop-color="#2E86FE" stop-opacity="0.25"/>
<stop offset="0.880208" stop-color="#2E86FE" stop-opacity="0"/>
</radialGradient>
<radialGradient id="paint5_radial_12851_26245" cx="0" cy="0" r="1" gradientUnits="userSpaceOnUse" gradientTransform="translate(78.2114 32.6936) rotate(-147.945) scale(15.0588 19.3393)">
<stop stop-color="#2E86FE"/>
<stop offset="0.8125" stop-color="#2E86FE" stop-opacity="0.25"/>
<stop offset="0.880208" stop-color="#2E86FE" stop-opacity="0"/>
</radialGradient>
<radialGradient id="paint6_radial_12851_26245" cx="0" cy="0" r="1" gradientUnits="userSpaceOnUse" gradientTransform="translate(35.4903 3.48684) rotate(3.74377) scale(42.2106 21.642)">
<stop stop-color="#2E86FE"/>
<stop offset="0.569367" stop-color="#2E86FE" stop-opacity="0.25"/>
<stop offset="0.880208" stop-color="#2E86FE" stop-opacity="0"/>
</radialGradient>
<radialGradient id="paint7_radial_12851_26245" cx="0" cy="0" r="1" gradientUnits="userSpaceOnUse" gradientTransform="translate(70.1181 11.3148) rotate(-134.029) scale(25.9774 12.6434)">
<stop stop-color="#2E86FE"/>
<stop offset="0.8125" stop-color="#2E86FE" stop-opacity="0.25"/>
<stop offset="0.880208" stop-color="#2E86FE" stop-opacity="0"/>
</radialGradient>
<radialGradient id="paint8_radial_12851_26245" cx="0" cy="0" r="1" gradientUnits="userSpaceOnUse" gradientTransform="translate(57.6942 24.9376) rotate(-96.771) scale(10.156 15.7436)">
<stop stop-color="#2E86FE"/>
<stop offset="0.674923" stop-color="#2E86FE" stop-opacity="0.25"/>
<stop offset="0.880208" stop-color="#2E86FE" stop-opacity="0"/>
</radialGradient>
<radialGradient id="paint9_radial_12851_26245" cx="0" cy="0" r="1" gradientUnits="userSpaceOnUse" gradientTransform="translate(33.401 13.3003) rotate(3.74377) scale(34.615 17.7476)">
<stop stop-color="#2E86FE"/>
<stop offset="0.569367" stop-color="#2E86FE" stop-opacity="0.25"/>
<stop offset="0.880208" stop-color="#2E86FE" stop-opacity="0"/>
</radialGradient>
<linearGradient id="paint10_linear_12851_26245" x1="28.0839" y1="49.083" x2="20.2636" y2="44.6901" gradientUnits="userSpaceOnUse">
<stop stop-color="#2E86FE"/>
<stop offset="1" stop-color="#12AFFF"/>
</linearGradient>
<linearGradient id="paint11_linear_12851_26245" x1="26.33" y1="28.6919" x2="18.5097" y2="24.299" gradientUnits="userSpaceOnUse">
<stop stop-color="#2E86FE"/>
<stop offset="1" stop-color="#12AFFF"/>
</linearGradient>
<linearGradient id="paint12_linear_12851_26245" x1="30.2113" y1="56.7497" x2="24.7013" y2="57.4475" gradientUnits="userSpaceOnUse">
<stop stop-color="#2E86FE"/>
<stop offset="1" stop-color="#12AFFF"/>
</linearGradient>
<linearGradient id="paint13_linear_12851_26245" x1="12.3521" y1="36.1611" x2="7.50978" y2="38.8812" gradientUnits="userSpaceOnUse">
<stop stop-color="#2E86FE"/>
<stop offset="1" stop-color="#12AFFF"/>
</linearGradient>
<linearGradient id="paint14_linear_12851_26245" x1="66.7817" y1="27.4473" x2="63.9848" y2="29.3043" gradientUnits="userSpaceOnUse">
<stop stop-color="#2E86FE"/>
<stop offset="1" stop-color="#12AFFF"/>
</linearGradient>
<linearGradient id="paint15_linear_12851_26245" x1="68.0121" y1="7.85714" x2="65.2152" y2="9.71419" gradientUnits="userSpaceOnUse">
<stop stop-color="#2E86FE"/>
<stop offset="1" stop-color="#12AFFF"/>
</linearGradient>
<linearGradient id="paint16_linear_12851_26245" x1="40.0341" y1="54.4174" x2="35.7246" y2="49.8165" gradientUnits="userSpaceOnUse">
<stop stop-color="#2E86FE"/>
<stop offset="1" stop-color="#12AFFF"/>
</linearGradient>
</defs>
</svg>