<svg xmlns="http://www.w3.org/2000/svg" fill="none" viewBox="0 0 130 130"><path fill="url(#paint0_linear_12095_6022)" d="m62.938 25.383 64.331 7.985-9.887 50.702-64.33-7.985 9.886-50.702Z"/><path fill="url(#paint1_linear_12095_6022)" d="m62.938 25.383 64.331 7.985-9.887 50.702-64.33-7.985 9.886-50.702Z"/><path fill="#C98B8B" fill-rule="evenodd" d="M94.242 49.35c.605-3.102-.89-5.862-3.34-6.167h.003c-2.452-.305-4.928 1.964-5.532 5.067-.608 3.105.887 5.864 3.34 6.17 2.448.305 4.924-1.964 5.529-5.07Zm1.261 16.164c.207-5.287-2.637-9.65-6.968-10.187l.003-.003c-4.334-.537-8.703 2.931-10.52 8.02-.398 1.11.092 2.25 1.002 2.361l14.628 1.817c.913.112 1.812-.855 1.855-2.008Z" clip-rule="evenodd"/><path fill="url(#paint2_linear_12095_6022)" fill-rule="evenodd" d="M94.242 49.35c.605-3.102-.89-5.862-3.34-6.167h.003c-2.452-.305-4.928 1.964-5.532 5.067-.608 3.105.887 5.864 3.34 6.17 2.448.305 4.924-1.964 5.529-5.07Zm1.261 16.164c.207-5.287-2.637-9.65-6.968-10.187l.003-.003c-4.334-.537-8.703 2.931-10.52 8.02-.398 1.11.092 2.25 1.002 2.361l14.628 1.817c.913.112 1.812-.855 1.855-2.008Z" clip-rule="evenodd"/><path fill="url(#paint3_linear_12095_6022)" d="M92.338 35.811c8.586 1.065 13.827 10.75 11.707 21.626-2.119 10.877-10.8 18.831-19.39 17.766-8.585-1.065-13.83-10.749-11.707-21.626C75.07 42.7 83.75 34.747 92.338 35.811Zm1.307 31.71c.913.115 1.811-.852 1.855-2.007.21-5.287-2.637-9.651-6.968-10.188-4.331-.537-8.703 2.931-10.52 8.02-.398 1.108.092 2.247 1.002 2.361l14.628 1.817M90.9 43.185c-2.451-.305-4.928 1.964-5.532 5.067-.605 3.105.89 5.867 3.34 6.17 2.448.302 4.924-1.964 5.53-5.07.604-3.102-.892-5.865-3.34-6.167"/><path fill="url(#paint4_linear_12095_6022)" d="m129.179 31.732-1.258-.386c.596.184.943.914.783 1.724l-10.373 53.196c-.172.883-.878 1.533-1.578 1.444l1.258.386c.7.086 1.406-.56 1.578-1.448l10.373-53.196c.157-.812-.187-1.542-.783-1.723v.003Z"/><path fill="url(#paint5_radial_12095_6022)" d="M127.752 31.31c.7.087 1.124.876.952 1.76l-10.373 53.196c-.172.883-.878 1.533-1.578 1.444l-64.491-8.006c-.7-.086-1.124-.875-.952-1.759l10.373-53.193c.172-.884.878-1.533 1.578-1.447l64.491 8.006Zm-10.37 52.757 9.886-50.7-64.33-7.983-9.887 50.701 64.331 7.986"/><path fill="url(#paint6_linear_12095_6022)" d="M127.752 31.31c.7.087 1.124.876.952 1.76l-10.373 53.196c-.172.883-.878 1.533-1.578 1.444l-64.491-8.006c-.7-.086-1.124-.875-.952-1.759l10.373-53.193c.172-.884.878-1.533 1.578-1.447l64.491 8.006Z"/><path fill="url(#paint7_radial_12095_6022)" d="M116.887 86.176c.914.113 1.296.4.851.647l-31.904 17.601c-.445.247-1.546.353-2.46.241l-64.663-7.944c-.913-.113-1.293-.4-.848-.647l31.904-17.601c.442-.243 1.543-.353 2.454-.24l64.666 7.94v.003Z"/><path fill="url(#paint8_linear_12095_6022)" d="M117.925 86.607c0 .071-.059.145-.184.213L85.837 104.42a1.1 1.1 0 0 1-.187.08c-.006 0-.009.003-.015.006a2.914 2.914 0 0 1-.237.068h-.01a3.468 3.468 0 0 1-.275.054h-.015c-.098.014-.201.029-.305.038h-.012a5.87 5.87 0 0 1-.335.024h-.006c-.116.006-.232.006-.347.006h-.01c-.097 0-.198-.006-.296-.009-.027 0-.053 0-.08-.003a5.724 5.724 0 0 1-.326-.03l-64.67-7.931a2.616 2.616 0 0 1-.234-.036 3.143 3.143 0 0 1-.193-.039c-.012 0-.02-.006-.032-.009-.05-.011-.098-.026-.143-.038a1.19 1.19 0 0 1-.151-.056c-.003 0-.006 0-.009-.003a.68.68 0 0 1-.196-.116l-.006-.006a.22.22 0 0 1-.047-.06s0-.005-.003-.008c-.009-.021-.018-.042-.018-.063l.012 2.003v.009c0 .011.003.023.009.035 0 .006.006.012.009.018 0 0 0 .006.003.009 0 0 0 .006.003.009.006.012.015.02.023.03a.57.57 0 0 0 .033.03.502.502 0 0 0 .128.083l.056.026s.006 0 .009.003c.003 0 .006 0 .009.003.015.006.033.012.05.02.024.01.05.018.08.027h.01c.005 0 .011.003.014.006.024.006.048.015.071.02l.072.019c.011 0 .02.006.032.009l.018.003.172.035.234.036 64.667 7.94.097.012.19.018h.039c.027 0 .053 0 .08.003.047 0 .095.006.142.006.05 0 .098 0 .149.003h.243c.038 0 .077 0 .113-.003h.015c.032 0 .065 0 .097-.006.036 0 .074-.006.11-.006.036 0 .071-.006.107-.009h.033c.023 0 .05-.006.074-.009.035-.003.068-.009.103-.012.036-.006.069-.009.104-.014.01 0 .018-.003.027-.003h.015a2.66 2.66 0 0 0 .27-.054h.015c.032-.009.065-.015.097-.024.048-.011.092-.026.134-.041 0 0 .006 0 .009-.003.006 0 .009-.003.015-.006.07-.024.133-.053.186-.08l31.905-17.599c.125-.068.184-.142.184-.213l-.012-2.002-.009-.012Z"/><path fill="url(#paint9_linear_12095_6022)" d="m72.477 94.784-10.714 5.909-23.454-2.877 10.714-5.912 23.454 2.88Z"/><path fill="url(#paint10_linear_12095_6022)" d="m113.129 87.072-17.352 9.572-61.06-7.499 17.353-9.572 61.059 7.5Z"/><path fill="url(#paint11_linear_12095_6022)" d="M46.73 44.67H2.23A2.23 2.23 0 0 1 0 42.44V25.527a2.23 2.23 0 0 1 2.23-2.23h44.5a2.23 2.23 0 0 1 2.23 2.23v12.037l4.091 7.085h-6.017c-.1.014-.201.02-.304.02Z"/><path fill="url(#paint12_linear_12095_6022)" fill-rule="evenodd" d="M40.962 32.623H8.64a2.23 2.23 0 0 1-2.23-2.23v-.226a2.23 2.23 0 0 1 2.23-2.23h32.32a2.23 2.23 0 0 1 2.23 2.23v.226a2.23 2.23 0 0 1-2.23 2.23Zm-4.463 7.586H8.64a2.23 2.23 0 0 1-2.23-2.23v-.225a2.23 2.23 0 0 1 2.23-2.23H36.5a2.23 2.23 0 0 1 2.23 2.23v.226a2.23 2.23 0 0 1-2.23 2.23Z" clip-rule="evenodd"/><defs><linearGradient id="paint0_linear_12095_6022" x1="127.269" x2="53.051" y1="51.061" y2="51.061" gradientUnits="userSpaceOnUse"><stop stop-color="#2E86FE"/><stop offset="1" stop-color="#12AFFF"/></linearGradient><linearGradient id="paint1_linear_12095_6022" x1="108.238" x2="33.898" y1="111.438" y2="33.759" gradientUnits="userSpaceOnUse"><stop offset=".583" stop-color="#4FD8D5" stop-opacity="0"/><stop offset="1" stop-color="#4FD8D5"/></linearGradient><linearGradient id="paint2_linear_12095_6022" x1="95.514" x2="77.878" y1="53.821" y2="53.821" gradientUnits="userSpaceOnUse"><stop stop-color="#2E86FE"/><stop offset="1" stop-color="#12AFFF"/></linearGradient><linearGradient id="paint3_linear_12095_6022" x1="91.347" x2="112.033" y1="49.329" y2="78.059" gradientUnits="userSpaceOnUse"><stop stop-color="#F6FCFF"/><stop offset="1" stop-color="#C0E2FF"/></linearGradient><linearGradient id="paint4_linear_12095_6022" x1="134.907" x2="121.801" y1="62.721" y2="58.367" gradientUnits="userSpaceOnUse"><stop stop-color="#738AC1"/><stop offset="1" stop-color="#DCEFFF"/></linearGradient><linearGradient id="paint6_linear_12095_6022" x1="82.652" x2="90.053" y1="127.254" y2="64.121" gradientUnits="userSpaceOnUse"><stop stop-color="#0C2780"/><stop offset="1" stop-color="#0C2780" stop-opacity="0"/></linearGradient><linearGradient id="paint8_linear_12095_6022" x1="105.806" x2="18.955" y1="108.643" y2="108.453" gradientUnits="userSpaceOnUse"><stop stop-color="#738AC1"/><stop offset="1" stop-color="#DCEFFF"/></linearGradient><linearGradient id="paint9_linear_12095_6022" x1="55.393" x2="60.579" y1="104.07" y2="69.576" gradientUnits="userSpaceOnUse"><stop stop-color="#677DB4"/><stop offset="1" stop-color="#DCEFFF"/></linearGradient><linearGradient id="paint10_linear_12095_6022" x1="118.539" x2="19.185" y1="86.217" y2="-24.895" gradientUnits="userSpaceOnUse"><stop stop-color="#677DB4"/><stop offset="1" stop-color="#DCEFFF"/></linearGradient><linearGradient id="paint11_linear_12095_6022" x1="61.97" x2="-54.797" y1="48.335" y2="44.741" gradientUnits="userSpaceOnUse"><stop offset=".036" stop-color="#13B8FF"/><stop offset="1" stop-color="#4FD8D5"/></linearGradient><linearGradient id="paint12_linear_12095_6022" x1="177.798" x2="6.41" y1="56.686" y2="36.975" gradientUnits="userSpaceOnUse"><stop stop-color="#7EC9EA"/><stop offset="1" stop-color="#F6FCFF"/></linearGradient><radialGradient id="paint5_radial_12095_6022" cx="0" cy="0" r="1" gradientTransform="matrix(-8.40627 57.2667 -83.03921 -12.18946 81.124 55.508)" gradientUnits="userSpaceOnUse"><stop offset=".151" stop-color="#F6FCFF"/><stop offset="1" stop-color="#83A0DF"/></radialGradient><radialGradient id="paint7_radial_12095_6022" cx="0" cy="0" r="1" gradientTransform="rotate(140.353 17.84 56.774) scale(44.9466 126.243)" gradientUnits="userSpaceOnUse"><stop stop-color="#F6FCFF"/><stop offset="1" stop-color="#83A0DF"/></radialGradient></defs></svg>