<svg xmlns="http://www.w3.org/2000/svg" xmlns:xlink="http://www.w3.org/1999/xlink" width="1563" zoomAndPan="magnify" viewBox="0 0 1172.25 599.999999" height="800" preserveAspectRatio="xMidYMid meet" version="1.0"><defs><clipPath id="3c1a5c22b2"><path d="M 202.660156 3.976562 L 968.671875 3.976562 L 968.671875 596.097656 L 202.660156 596.097656 Z M 202.660156 3.976562 " clip-rule="nonzero"/></clipPath></defs><g clip-path="url(#3c1a5c22b2)"><path fill="#ffd700" d="M 272.316406 596.015625 C 270.03125 596.042969 267.75 595.957031 265.472656 595.753906 C 263.199219 595.550781 260.9375 595.234375 258.695312 594.800781 C 256.453125 594.371094 254.238281 593.824219 252.046875 593.167969 C 249.859375 592.511719 247.710938 591.742188 245.601562 590.867188 C 243.492188 589.992188 241.429688 589.011719 239.421875 587.925781 C 237.410156 586.839844 235.460938 585.65625 233.570312 584.371094 C 231.679688 583.089844 229.859375 581.710938 228.109375 580.246094 C 226.359375 578.777344 224.6875 577.222656 223.09375 575.585938 C 222.289062 574.777344 221.503906 573.953125 220.742188 573.109375 C 219.976562 572.265625 219.234375 571.402344 218.511719 570.519531 C 217.789062 569.640625 217.089844 568.742188 216.410156 567.828125 C 215.730469 566.910156 215.078125 565.980469 214.445312 565.03125 C 213.8125 564.085938 213.203125 563.125 212.617188 562.144531 C 212.035156 561.167969 211.472656 560.179688 210.9375 559.171875 C 210.398438 558.167969 209.886719 557.152344 209.402344 556.121094 C 208.914062 555.089844 208.453125 554.050781 208.019531 553 C 207.582031 551.945312 207.171875 550.882812 206.789062 549.8125 C 206.40625 548.738281 206.050781 547.65625 205.71875 546.566406 C 205.386719 545.476562 205.085938 544.378906 204.808594 543.273438 C 204.53125 542.167969 204.28125 541.058594 204.0625 539.941406 C 203.839844 538.824219 203.644531 537.703125 203.476562 536.574219 C 203.308594 535.449219 203.171875 534.320312 203.058594 533.183594 C 202.949219 532.050781 202.863281 530.917969 202.808594 529.777344 C 202.753906 528.640625 202.722656 527.503906 202.722656 526.363281 C 202.722656 525.226562 202.753906 524.085938 202.808594 522.949219 C 202.863281 521.8125 202.949219 520.675781 203.058594 519.542969 C 203.171875 518.410156 203.308594 517.277344 203.476562 516.152344 C 203.644531 515.023438 203.839844 513.902344 204.0625 512.785156 C 204.28125 511.667969 204.53125 510.558594 204.808594 509.453125 C 205.085938 508.347656 205.386719 507.25 205.71875 506.160156 C 206.050781 505.070312 206.40625 503.988281 206.789062 502.917969 C 207.171875 501.84375 207.582031 500.78125 208.019531 499.730469 C 208.453125 498.675781 208.914062 497.636719 209.402344 496.605469 C 209.886719 495.574219 210.398438 494.558594 210.9375 493.554688 C 211.472656 492.550781 212.035156 491.558594 212.617188 490.582031 C 213.203125 489.605469 213.8125 488.640625 214.445312 487.695312 C 215.078125 486.746094 215.730469 485.816406 216.410156 484.898438 C 217.089844 483.984375 217.789062 483.085938 218.511719 482.207031 C 219.234375 481.324219 219.976562 480.464844 220.742188 479.617188 C 221.503906 478.773438 222.289062 477.949219 223.09375 477.144531 C 224.6875 475.503906 226.359375 473.953125 228.109375 472.484375 C 229.859375 471.015625 231.679688 469.636719 233.570312 468.355469 C 235.460938 467.070312 237.410156 465.886719 239.421875 464.800781 C 241.429688 463.714844 243.492188 462.734375 245.601562 461.859375 C 247.710938 460.984375 249.859375 460.21875 252.046875 459.558594 C 254.238281 458.902344 256.453125 458.355469 258.695312 457.925781 C 260.9375 457.492188 263.199219 457.175781 265.472656 456.972656 C 267.75 456.769531 270.03125 456.683594 272.316406 456.710938 L 281.484375 456.710938 C 284.34375 456.765625 287.089844 457.347656 289.726562 458.453125 L 448.183594 299.996094 C 447.078125 297.359375 446.5 294.613281 446.445312 291.753906 L 446.445312 282.582031 C 446.445312 280.875 446.511719 279.167969 446.636719 277.460938 C 446.765625 275.757812 446.953125 274.058594 447.207031 272.371094 C 447.457031 270.679688 447.773438 269 448.148438 267.332031 C 448.523438 265.664062 448.960938 264.015625 449.457031 262.378906 C 449.953125 260.742188 450.511719 259.128906 451.128906 257.535156 C 451.742188 255.941406 452.417969 254.371094 453.148438 252.828125 C 453.878906 251.28125 454.667969 249.765625 455.511719 248.28125 C 456.355469 246.792969 457.25 245.339844 458.203125 243.917969 C 459.152344 242.496094 460.152344 241.113281 461.207031 239.765625 C 462.257812 238.421875 463.359375 237.113281 464.507812 235.847656 C 465.65625 234.582031 466.847656 233.359375 468.085938 232.179688 C 469.324219 231.003906 470.605469 229.871094 471.925781 228.789062 C 473.246094 227.703125 474.605469 226.671875 476.003906 225.6875 C 477.402344 224.703125 478.835938 223.773438 480.300781 222.894531 C 481.765625 222.015625 483.261719 221.191406 484.789062 220.425781 C 486.316406 219.65625 487.871094 218.945312 489.449219 218.289062 C 491.027344 217.636719 492.628906 217.042969 494.253906 216.507812 C 495.875 215.96875 497.515625 215.496094 499.175781 215.078125 C 500.832031 214.664062 502.503906 214.308594 504.1875 214.019531 C 505.871094 213.726562 507.5625 213.496094 509.265625 213.328125 C 510.964844 213.160156 512.671875 213.054688 514.378906 213.011719 C 516.085938 212.972656 517.796875 212.992188 519.503906 213.074219 C 521.210938 213.160156 522.910156 213.304688 524.609375 213.515625 C 526.304688 213.722656 527.992188 213.996094 529.667969 214.328125 C 531.34375 214.660156 533.003906 215.054688 534.652344 215.511719 C 536.300781 215.964844 537.929688 216.480469 539.539062 217.054688 C 541.148438 217.632812 542.734375 218.265625 544.296875 218.957031 C 545.859375 219.648438 547.394531 220.398438 548.902344 221.203125 C 550.410156 222.007812 551.886719 222.867188 553.332031 223.78125 C 554.773438 224.695312 556.183594 225.660156 557.558594 226.675781 C 558.929688 227.695312 560.265625 228.761719 561.558594 229.878906 C 562.855469 230.992188 564.105469 232.15625 565.316406 233.363281 C 566.953125 234.953125 568.507812 236.625 569.976562 238.375 C 571.445312 240.125 572.820312 241.945312 574.105469 243.835938 C 575.386719 245.726562 576.570312 247.675781 577.65625 249.6875 C 578.742188 251.699219 579.722656 253.757812 580.597656 255.867188 C 581.476562 257.980469 582.242188 260.128906 582.898438 262.316406 C 583.558594 264.503906 584.101562 266.71875 584.535156 268.964844 C 584.964844 271.207031 585.285156 273.464844 585.488281 275.742188 C 585.691406 278.019531 585.777344 280.296875 585.746094 282.582031 C 585.746094 283.742188 585.167969 289.546875 584.007812 299.996094 L 672.8125 388.800781 C 675.449219 387.695312 678.195312 387.113281 681.054688 387.058594 L 699.394531 387.058594 C 702.253906 387.113281 705 387.695312 707.636719 388.800781 L 831.269531 265.167969 C 830.164062 262.535156 829.582031 259.785156 829.527344 256.925781 L 829.527344 247.757812 C 829.527344 246.332031 829.570312 244.90625 829.65625 243.484375 C 829.742188 242.0625 829.871094 240.640625 830.042969 239.226562 C 830.21875 237.8125 830.433594 236.402344 830.695312 235.003906 C 830.953125 233.601562 831.257812 232.207031 831.601562 230.824219 C 831.949219 229.441406 832.335938 228.070312 832.765625 226.710938 C 833.195312 225.351562 833.664062 224.007812 834.175781 222.675781 C 834.6875 221.347656 835.242188 220.03125 835.832031 218.734375 C 836.425781 217.4375 837.058594 216.164062 837.730469 214.90625 C 838.402344 213.648438 839.109375 212.410156 839.855469 211.195312 C 840.605469 209.984375 841.386719 208.792969 842.207031 207.625 C 843.027344 206.460938 843.882812 205.320312 844.773438 204.207031 C 845.664062 203.09375 846.585938 202.007812 847.542969 200.953125 C 848.5 199.894531 849.488281 198.867188 850.507812 197.871094 C 851.527344 196.875 852.578125 195.910156 853.65625 194.980469 C 854.734375 194.046875 855.839844 193.148438 856.976562 192.285156 C 858.109375 191.421875 859.269531 190.59375 860.453125 189.800781 C 861.640625 189.007812 862.847656 188.253906 864.078125 187.535156 C 865.308594 186.816406 866.5625 186.136719 867.835938 185.496094 C 869.109375 184.855469 870.398438 184.253906 871.710938 183.691406 C 873.019531 183.128906 874.347656 182.605469 875.6875 182.125 C 877.03125 181.644531 878.386719 181.207031 879.753906 180.808594 C 881.125 180.410156 882.503906 180.054688 883.894531 179.742188 C 885.285156 179.429688 886.683594 179.160156 888.089844 178.933594 C 889.5 178.707031 890.910156 178.523438 892.332031 178.382812 C 893.75 178.242188 895.171875 178.144531 896.59375 178.09375 C 898.019531 178.039062 899.445312 178.03125 900.871094 178.066406 C 902.296875 178.097656 903.71875 178.175781 905.136719 178.300781 C 906.558594 178.421875 907.972656 178.585938 909.382812 178.796875 C 910.792969 179.003906 912.195312 179.257812 913.59375 179.550781 C 914.988281 179.847656 916.371094 180.183594 917.746094 180.5625 C 919.117188 180.945312 920.480469 181.367188 921.828125 181.828125 C 923.175781 182.292969 924.507812 182.796875 925.824219 183.34375 C 927.144531 183.886719 928.441406 184.472656 929.722656 185.097656 C 931.003906 185.722656 932.265625 186.386719 933.507812 187.089844 C 934.746094 187.792969 935.964844 188.53125 937.160156 189.308594 C 938.355469 190.085938 939.523438 190.898438 940.667969 191.75 C 941.8125 192.597656 942.933594 193.480469 944.023438 194.398438 C 945.113281 195.316406 946.175781 196.269531 947.207031 197.25 C 948.242188 198.234375 949.242188 199.246094 950.210938 200.292969 C 951.183594 201.335938 952.121094 202.410156 953.023438 203.511719 C 953.929688 204.613281 954.796875 205.742188 955.632812 206.898438 C 956.46875 208.054688 957.265625 209.234375 958.027344 210.4375 C 958.792969 211.644531 959.515625 212.871094 960.203125 214.117188 C 960.890625 215.367188 961.539062 216.636719 962.148438 217.925781 C 962.757812 219.214844 963.328125 220.519531 963.855469 221.84375 C 964.386719 223.167969 964.875 224.507812 965.320312 225.859375 C 965.765625 227.214844 966.171875 228.582031 966.535156 229.957031 C 966.898438 231.335938 967.21875 232.726562 967.496094 234.125 C 967.773438 235.523438 968.007812 236.929688 968.199219 238.339844 C 968.390625 239.753906 968.539062 241.171875 968.644531 242.59375 C 968.75 244.015625 968.808594 245.4375 968.828125 246.863281 C 968.84375 248.289062 968.816406 249.714844 968.746094 251.136719 C 968.675781 252.5625 968.5625 253.980469 968.402344 255.398438 C 968.246094 256.816406 968.046875 258.226562 967.800781 259.628906 C 967.558594 261.035156 967.269531 262.429688 966.941406 263.816406 C 966.609375 265.203125 966.238281 266.578125 965.824219 267.945312 C 965.410156 269.308594 964.953125 270.65625 964.457031 271.992188 C 963.957031 273.328125 963.421875 274.648438 962.84375 275.953125 C 962.265625 277.253906 961.644531 278.539062 960.988281 279.804688 C 960.332031 281.070312 959.636719 282.3125 958.902344 283.535156 C 958.167969 284.757812 957.398438 285.957031 956.59375 287.132812 C 955.785156 288.304688 954.941406 289.457031 954.066406 290.578125 C 953.1875 291.703125 952.277344 292.796875 951.332031 293.863281 C 950.386719 294.933594 949.410156 295.96875 948.398438 296.976562 C 946.808594 298.617188 945.136719 300.167969 943.386719 301.636719 C 941.636719 303.105469 939.816406 304.480469 937.925781 305.765625 C 936.035156 307.050781 934.085938 308.234375 932.074219 309.320312 C 930.0625 310.402344 928.003906 311.382812 925.894531 312.261719 C 923.785156 313.136719 921.632812 313.902344 919.445312 314.5625 C 917.257812 315.21875 915.042969 315.761719 912.800781 316.195312 C 910.554688 316.628906 908.296875 316.945312 906.019531 317.148438 C 903.746094 317.351562 901.464844 317.4375 899.179688 317.410156 L 890.007812 317.410156 C 887.152344 317.355469 884.402344 316.773438 881.765625 315.667969 L 758.136719 439.300781 C 759.242188 441.933594 759.820312 444.683594 759.875 447.542969 L 759.875 456.710938 C 759.875 457.851562 759.847656 458.992188 759.792969 460.128906 C 759.738281 461.269531 759.652344 462.40625 759.542969 463.539062 C 759.429688 464.671875 759.289062 465.804688 759.121094 466.933594 C 758.957031 468.058594 758.761719 469.183594 758.539062 470.300781 C 758.316406 471.417969 758.066406 472.53125 757.789062 473.636719 C 757.511719 474.742188 757.207031 475.839844 756.878906 476.929688 C 756.546875 478.023438 756.1875 479.105469 755.804688 480.175781 C 755.421875 481.25 755.011719 482.3125 754.574219 483.367188 C 754.136719 484.417969 753.675781 485.460938 753.1875 486.492188 C 752.703125 487.523438 752.1875 488.539062 751.652344 489.546875 C 751.113281 490.550781 750.554688 491.542969 749.96875 492.519531 C 749.382812 493.496094 748.769531 494.460938 748.136719 495.410156 C 747.503906 496.355469 746.847656 497.289062 746.167969 498.203125 C 745.492188 499.117188 744.789062 500.015625 744.066406 500.898438 C 743.34375 501.78125 742.597656 502.640625 741.832031 503.488281 C 741.066406 504.332031 740.28125 505.15625 739.476562 505.964844 C 738.671875 506.769531 737.84375 507.554688 737 508.320312 C 736.15625 509.085938 735.292969 509.832031 734.410156 510.554688 C 733.53125 511.277344 732.632812 511.976562 731.714844 512.65625 C 730.800781 513.335938 729.867188 513.992188 728.921875 514.625 C 727.972656 515.257812 727.011719 515.867188 726.03125 516.453125 C 725.054688 517.039062 724.0625 517.601562 723.058594 518.140625 C 722.054688 518.675781 721.035156 519.1875 720.003906 519.675781 C 718.972656 520.164062 717.933594 520.625 716.878906 521.0625 C 715.828125 521.496094 714.761719 521.90625 713.691406 522.292969 C 712.617188 522.675781 711.535156 523.035156 710.445312 523.363281 C 709.351562 523.695312 708.253906 524 707.148438 524.277344 C 706.042969 524.554688 704.929688 524.804688 703.8125 525.023438 C 702.695312 525.246094 701.574219 525.441406 700.445312 525.609375 C 699.316406 525.777344 698.1875 525.917969 697.050781 526.027344 C 695.917969 526.140625 694.78125 526.222656 693.640625 526.28125 C 692.503906 526.335938 691.363281 526.363281 690.226562 526.363281 C 689.085938 526.363281 687.945312 526.335938 686.808594 526.28125 C 685.667969 526.222656 684.53125 526.140625 683.398438 526.027344 C 682.261719 525.917969 681.132812 525.777344 680.003906 525.609375 C 678.878906 525.441406 677.753906 525.246094 676.636719 525.023438 C 675.519531 524.804688 674.40625 524.554688 673.300781 524.277344 C 672.195312 524 671.097656 523.695312 670.007812 523.363281 C 668.914062 523.035156 667.832031 522.675781 666.761719 522.292969 C 665.6875 521.90625 664.625 521.496094 663.570312 521.0625 C 662.515625 520.625 661.476562 520.164062 660.445312 519.675781 C 659.414062 519.1875 658.398438 518.675781 657.390625 518.140625 C 656.386719 517.601562 655.394531 517.039062 654.417969 516.453125 C 653.4375 515.867188 652.476562 515.257812 651.527344 514.625 C 650.582031 513.992188 649.648438 513.335938 648.734375 512.65625 C 647.816406 511.976562 646.917969 511.277344 646.039062 510.554688 C 645.15625 509.832031 644.292969 509.085938 643.449219 508.320312 C 642.605469 507.554688 641.78125 506.769531 640.972656 505.964844 C 640.167969 505.15625 639.382812 504.332031 638.617188 503.488281 C 637.851562 502.640625 637.105469 501.78125 636.382812 500.898438 C 635.660156 500.015625 634.960938 499.117188 634.28125 498.203125 C 633.601562 497.289062 632.945312 496.355469 632.3125 495.410156 C 631.679688 494.460938 631.070312 493.496094 630.484375 492.519531 C 629.898438 491.542969 629.335938 490.550781 628.796875 489.546875 C 628.261719 488.539062 627.746094 487.523438 627.261719 486.492188 C 626.773438 485.460938 626.3125 484.417969 625.875 483.367188 C 625.4375 482.3125 625.027344 481.25 624.644531 480.175781 C 624.261719 479.105469 623.902344 478.023438 623.574219 476.929688 C 623.242188 475.839844 622.9375 474.742188 622.660156 473.636719 C 622.382812 472.53125 622.132812 471.417969 621.910156 470.300781 C 621.6875 469.183594 621.496094 468.058594 621.328125 466.933594 C 621.160156 465.804688 621.019531 464.671875 620.910156 463.539062 C 620.796875 462.40625 620.714844 461.269531 620.65625 460.128906 C 620.601562 458.992188 620.574219 457.851562 620.574219 456.710938 L 620.574219 447.542969 C 620.628906 444.683594 621.207031 441.933594 622.316406 439.300781 L 533.507812 350.492188 C 530.871094 351.597656 528.125 352.179688 525.265625 352.234375 L 516.09375 352.234375 C 514.933594 352.234375 509.128906 351.652344 498.683594 350.492188 L 340.226562 508.949219 C 341.332031 511.585938 341.910156 514.335938 341.964844 517.191406 L 341.964844 526.363281 C 341.996094 528.648438 341.910156 530.929688 341.707031 533.203125 C 341.503906 535.480469 341.1875 537.738281 340.753906 539.984375 C 340.320312 542.226562 339.777344 544.441406 339.117188 546.628906 C 338.460938 548.816406 337.695312 550.96875 336.820312 553.078125 C 335.941406 555.1875 334.960938 557.246094 333.875 559.257812 C 332.792969 561.269531 331.605469 563.21875 330.324219 565.109375 C 329.039062 567 327.664062 568.820312 326.195312 570.570312 C 324.726562 572.320312 323.171875 573.992188 321.535156 575.585938 C 319.941406 577.222656 318.273438 578.777344 316.519531 580.246094 C 314.769531 581.710938 312.949219 583.089844 311.0625 584.371094 C 309.171875 585.65625 307.21875 586.839844 305.210938 587.925781 C 303.199219 589.011719 301.140625 589.992188 299.027344 590.867188 C 296.917969 591.742188 294.769531 592.511719 292.582031 593.167969 C 290.394531 593.824219 288.175781 594.371094 285.933594 594.800781 C 283.691406 595.234375 281.429688 595.550781 279.15625 595.753906 C 276.878906 595.957031 274.597656 596.042969 272.316406 596.015625 Z M 307.140625 246.828125 L 285.316406 200.394531 L 238.417969 178.105469 L 284.851562 156.28125 L 307.140625 109.265625 L 328.964844 155.699219 L 375.398438 177.523438 L 328.964844 199.347656 Z M 690.226562 212.929688 L 657.140625 141.539062 L 585.746094 108.453125 L 657.140625 75.367188 L 690.226562 3.976562 L 723.308594 75.367188 L 794.703125 108.453125 L 723.308594 141.539062 Z M 690.226562 212.929688 " fill-opacity="1" fill-rule="nonzero"/></g></svg>