<svg width="126" height="100" viewBox="0 0 126 100" fill="none" xmlns="http://www.w3.org/2000/svg">
<path d="M23.5825 99.0641V93.7036C23.6204 93.2528 23.5412 92.8005 23.3502 92.3768C23.1591 91.9532 22.8605 91.5679 22.4743 91.2467C22.0882 90.9255 21.6233 90.6757 21.1106 90.5139C20.5979 90.3522 20.0493 90.2822 19.5012 90.3087C18.7837 90.27 18.0668 90.3905 17.4253 90.6576C16.7838 90.9248 16.2411 91.3288 15.854 91.8275C15.5012 91.3438 14.9963 90.9473 14.3926 90.68C13.789 90.4127 13.1088 90.2844 12.424 90.3087C11.827 90.2838 11.2325 90.3878 10.6994 90.6104C10.1663 90.8329 9.71308 91.1662 9.3847 91.5773V90.5231H7.12695V99.0641H9.40641V94.3647C9.35793 94.0727 9.38843 93.7754 9.49575 93.4942C9.60307 93.2129 9.78455 92.9547 10.0272 92.7379C10.2699 92.5211 10.5677 92.3511 10.8995 92.24C11.2313 92.129 11.5888 92.0796 11.9464 92.0955C13.4443 92.0955 14.2041 92.8996 14.2041 94.3469V99.0998H16.4836V94.3647C16.4371 94.073 16.469 93.7763 16.577 93.4958C16.6851 93.2153 16.8667 92.9577 17.1089 92.7413C17.3512 92.5248 17.6482 92.3548 17.979 92.2432C18.3099 92.1317 18.6664 92.0812 19.0236 92.0955C20.5649 92.0955 21.303 92.8996 21.303 94.3469V99.0998L23.5825 99.0641ZM57.3076 90.5231H53.5954V87.9322H51.3159V90.5231H49.2535V92.2206H51.3593V96.1516C51.3593 98.1349 52.2928 99.3142 54.9631 99.3142C55.9607 99.317 56.9389 99.0878 57.7852 98.6531L57.134 97.0628C56.5285 97.3601 55.8413 97.5261 55.1367 97.5453C54.0513 97.5453 53.6388 96.9735 53.6388 96.1158V92.2206H57.3293L57.3076 90.5231ZM76.5637 90.3087C76.0132 90.2953 75.4685 90.4045 74.9871 90.6246C74.5057 90.8448 74.1054 91.1677 73.8283 91.5594V90.5231H71.5923V99.0641H73.85V94.2754C73.85 92.8638 74.5881 92.0776 76.0209 92.0776C76.5038 92.0722 76.9833 92.145 77.432 92.292L78.1267 90.5052C77.6111 90.3534 77.0679 90.2748 76.5202 90.2729L76.5637 90.3087ZM47.4517 91.2021C46.1737 90.5767 44.7043 90.2666 43.2184 90.3087C40.5916 90.3087 38.8766 91.345 38.8766 93.0425C38.8766 94.4362 40.1357 95.2939 42.4586 95.5619L43.544 95.687C44.7815 95.8299 45.3676 96.098 45.3676 96.5804C45.3676 97.2415 44.5427 97.6167 43.0013 97.6167C41.7615 97.6463 40.5457 97.3316 39.5496 96.7233L38.4641 98.1707C39.7793 98.9265 41.3545 99.3148 42.9579 99.2785C45.9538 99.2785 47.6905 98.117 47.6905 96.491C47.6905 94.865 46.3228 94.2039 44.0651 93.9359L42.9796 93.8108C42.0027 93.7036 41.2212 93.5428 41.2212 92.971C41.2212 92.3992 41.9593 91.9704 43.1967 91.9704C44.3404 91.9813 45.4616 92.2336 46.4531 92.703L47.4517 91.2021ZM107.923 90.3087C107.372 90.2953 106.827 90.4045 106.346 90.6246C105.865 90.8448 105.464 91.1677 105.187 91.5594V90.5231H102.951V99.0641H105.209V94.2754C105.209 92.8638 105.947 92.0776 107.38 92.0776C107.863 92.0722 108.342 92.145 108.791 92.292L109.486 90.5052C108.97 90.3534 108.427 90.2748 107.879 90.2729L107.923 90.3087ZM78.8323 94.7757C78.8054 95.3759 78.9311 95.9741 79.2012 96.5321C79.4714 97.09 79.8801 97.5954 80.4012 98.0158C80.9222 98.4363 81.5442 98.7626 82.2273 98.9739C82.9104 99.1852 83.6395 99.2767 84.3681 99.2427C85.7237 99.2995 87.0559 98.9361 88.1021 98.2243L87.0166 96.7233C86.2361 97.2132 85.2844 97.4827 84.303 97.4917C83.4684 97.4361 82.6899 97.124 82.1222 96.6174C81.5545 96.1109 81.2394 95.447 81.2394 94.7578C81.2394 94.0687 81.5545 93.4048 82.1222 92.8983C82.6899 92.3917 83.4684 92.0796 84.303 92.024C85.2844 92.033 86.2361 92.3025 87.0166 92.7923L88.1021 91.2914C87.0559 90.5796 85.7237 90.2162 84.3681 90.2729C83.6395 90.239 82.9104 90.3305 82.2273 90.5418C81.5442 90.7531 80.9222 91.0794 80.4012 91.4998C79.8801 91.9203 79.4714 92.4257 79.2012 92.9836C78.9311 93.5416 78.8054 94.1398 78.8323 94.74V94.7757ZM99.977 94.7757V90.5231H97.7192V91.5594C97.3358 91.1534 96.8405 90.8282 96.2743 90.6107C95.7082 90.3932 95.0872 90.2897 94.4628 90.3087C93.0234 90.3087 91.643 90.7793 90.6252 91.617C89.6074 92.4548 89.0356 93.591 89.0356 94.7757C89.0356 95.9604 89.6074 97.0966 90.6252 97.9344C91.643 98.7721 93.0234 99.2427 94.4628 99.2427C95.0872 99.2617 95.7082 99.1582 96.2743 98.9407C96.8405 98.7232 97.3358 98.398 97.7192 97.992V99.0283H99.977V94.7757ZM91.5755 94.7757C91.6115 94.273 91.8254 93.7899 92.1907 93.3859C92.5561 92.9819 93.057 92.6747 93.6319 92.5021C94.2067 92.3295 94.8303 92.299 95.4259 92.4144C96.0215 92.5298 96.5631 92.786 96.984 93.1516C97.4049 93.5171 97.6867 93.976 97.7947 94.4717C97.9028 94.9674 97.8323 95.4783 97.5921 95.9414C97.3518 96.4046 96.9522 96.7998 96.4425 97.0785C95.9328 97.3571 95.3352 97.5069 94.7233 97.5095C94.2936 97.514 93.8673 97.4452 93.4714 97.3075C93.0755 97.1698 92.7184 96.9662 92.4228 96.7094C92.1271 96.4527 91.8992 96.1483 91.7534 95.8155C91.6076 95.4827 91.547 95.1287 91.5755 94.7757V94.7757ZM64.3305 90.3087C62.8911 90.3253 61.5187 90.8118 60.5151 91.6613C59.5116 92.5107 58.9591 93.6535 58.9792 94.8382C58.9994 96.023 59.5905 97.1526 60.6226 97.9786C61.6546 98.8046 63.0431 99.2593 64.4825 99.2427C66.0442 99.3087 67.58 98.8948 68.7918 98.0813L67.7063 96.7055C66.8492 97.2712 65.7873 97.5856 64.6887 97.5989C63.9424 97.6517 63.2005 97.4628 62.6208 97.0724C62.0411 96.682 61.6692 96.1209 61.5843 95.5083H69.2911C69.2911 95.276 69.2911 95.0437 69.2911 94.7936C69.2911 92.1134 67.2721 90.3265 64.3631 90.3265L64.3305 90.3087ZM64.3305 91.9704C64.6684 91.9645 65.0044 92.0134 65.3192 92.1144C65.6341 92.2153 65.9217 92.3664 66.1657 92.5588C66.4096 92.7513 66.6051 92.9815 66.7409 93.2362C66.8768 93.4908 66.9503 93.765 66.9573 94.0431H61.5301C61.5694 93.4696 61.8799 92.9316 62.3952 92.5442C62.9105 92.1568 63.5896 91.9508 64.2871 91.9704H64.3305ZM120.894 94.7936V87.0924H118.723V91.5594C118.339 91.1534 117.844 90.8282 117.278 90.6107C116.712 90.3932 116.091 90.2897 115.466 90.3087C114.027 90.3087 112.647 90.7793 111.629 91.617C110.611 92.4548 110.039 93.591 110.039 94.7757C110.039 95.9604 110.611 97.0966 111.629 97.9344C112.647 98.7721 114.027 99.2427 115.466 99.2427C116.091 99.2617 116.712 99.1582 117.278 98.9407C117.844 98.7232 118.339 98.398 118.723 97.992V99.0283H120.894V94.7936ZM124.66 97.8222C124.801 97.8208 124.941 97.842 125.073 97.8848C125.197 97.9266 125.311 97.9872 125.409 98.0634C125.505 98.1405 125.582 98.2313 125.637 98.3315C125.692 98.4358 125.721 98.5483 125.721 98.662C125.721 98.7757 125.692 98.8883 125.637 98.9926C125.582 99.0927 125.505 99.1836 125.409 99.2606C125.311 99.3368 125.197 99.3974 125.073 99.4393C124.943 99.4865 124.802 99.5108 124.66 99.5108C124.454 99.5095 124.253 99.4601 124.08 99.3684C123.907 99.2766 123.77 99.1463 123.683 98.9926C123.629 98.8881 123.601 98.7757 123.601 98.662C123.601 98.5484 123.629 98.4359 123.683 98.3315C123.739 98.2313 123.816 98.1405 123.911 98.0634C124.009 97.9872 124.123 97.9266 124.248 97.8848C124.389 97.8385 124.541 97.8172 124.693 97.8222H124.66ZM124.66 99.3321C124.769 99.3326 124.876 99.3144 124.975 99.2785C125.068 99.2442 125.153 99.1957 125.225 99.1355C125.36 99.0136 125.436 98.8542 125.436 98.6888C125.436 98.5234 125.36 98.364 125.225 98.2421C125.153 98.1818 125.069 98.1333 124.975 98.0992C124.876 98.0636 124.769 98.0453 124.66 98.0456C124.552 98.046 124.445 98.0643 124.345 98.0992C124.248 98.1321 124.159 98.1807 124.085 98.2421C123.949 98.364 123.874 98.5234 123.874 98.6888C123.874 98.8542 123.949 99.0136 124.085 99.1355C124.16 99.1968 124.248 99.2454 124.345 99.2785C124.455 99.3173 124.574 99.3357 124.693 99.3321H124.66ZM124.725 98.2689C124.827 98.2649 124.927 98.2902 125.008 98.3404C125.041 98.363 125.067 98.3919 125.084 98.4245C125.101 98.4571 125.108 98.4926 125.105 98.528C125.107 98.5577 125.101 98.5873 125.088 98.615C125.075 98.6427 125.055 98.6678 125.029 98.6888C124.966 98.7359 124.886 98.7642 124.801 98.7692L125.116 99.0641H124.866L124.573 98.7692H124.476V99.0641H124.269V98.2779L124.725 98.2689ZM124.487 98.4208V98.6352H124.725C124.768 98.6457 124.813 98.6457 124.856 98.6352C124.863 98.6228 124.867 98.609 124.867 98.595C124.867 98.5811 124.863 98.5673 124.856 98.5548C124.863 98.5424 124.867 98.5286 124.867 98.5146C124.867 98.5006 124.863 98.4869 124.856 98.4744C124.813 98.464 124.768 98.464 124.725 98.4744L124.487 98.4208ZM112.547 94.7936C112.583 94.2908 112.796 93.8077 113.162 93.4037C113.527 92.9998 114.028 92.6926 114.603 92.5199C115.178 92.3473 115.801 92.3168 116.397 92.4322C116.993 92.5476 117.534 92.8039 117.955 93.1694C118.376 93.535 118.658 93.9938 118.766 94.4896C118.874 94.9853 118.803 95.4961 118.563 95.9593C118.323 96.4225 117.923 96.8177 117.414 97.0963C116.904 97.3749 116.306 97.5248 115.694 97.5274C115.265 97.5319 114.838 97.4631 114.442 97.3254C114.047 97.1877 113.689 96.9841 113.394 96.7273C113.098 96.4705 112.87 96.1662 112.724 95.8334C112.579 95.5006 112.518 95.1466 112.547 94.7936V94.7936ZM36.3149 94.7936V90.5231H34.0571V91.5594C33.6737 91.1534 33.1785 90.8282 32.6123 90.6107C32.0461 90.3932 31.4252 90.2897 30.8008 90.3087C29.3614 90.3087 27.9809 90.7793 26.9631 91.617C25.9453 92.4548 25.3735 93.591 25.3735 94.7757C25.3735 95.9604 25.9453 97.0966 26.9631 97.9344C27.9809 98.7721 29.3614 99.2427 30.8008 99.2427C31.4252 99.2617 32.0461 99.1582 32.6123 98.9407C33.1785 98.7232 33.6737 98.398 34.0571 97.992V99.0283H36.3149V94.7936ZM27.9135 94.7936C27.9495 94.2908 28.1633 93.8077 28.5287 93.4037C28.894 92.9998 29.395 92.6926 29.9698 92.5199C30.5446 92.3473 31.1682 92.3168 31.7638 92.4322C32.3594 92.5476 32.901 92.8039 33.3219 93.1694C33.7428 93.535 34.0246 93.9938 34.1327 94.4896C34.2407 94.9853 34.1703 95.4961 33.93 95.9593C33.6898 96.4225 33.2902 96.8177 32.7805 97.0963C32.2707 97.3749 31.6732 97.5248 31.0613 97.5274C30.6297 97.5344 30.201 97.4674 29.8025 97.3309C29.404 97.1943 29.0444 96.991 28.7464 96.734C28.4483 96.4769 28.2185 96.1717 28.0714 95.8377C27.9243 95.5036 27.8631 95.1481 27.8917 94.7936H27.9135Z" fill="#231F20"/>
<path d="M80.1845 8.8736H46.4302V69.2181H80.1845V8.8736Z" fill="#FF5F00"/>
<path d="M48.5631 39.051C48.5569 33.2385 49.8802 27.5009 52.433 22.2725C54.9857 17.0441 58.7008 12.4621 63.2971 8.87342C57.6062 4.4243 50.7718 1.65766 43.575 0.889695C36.3782 0.12173 29.1094 1.38343 22.5993 4.53058C16.0893 7.67774 10.6006 12.5834 6.76061 18.6868C2.92063 24.7903 0.884277 31.8454 0.884277 39.0456C0.884277 46.2459 2.92063 53.301 6.76061 59.4044C10.6006 65.5079 16.0893 70.4135 22.5993 73.5607C29.1094 76.7078 36.3782 77.9695 43.575 77.2016C50.7718 76.4336 57.6062 73.667 63.2971 69.2179C58.7023 65.6303 54.988 61.05 52.4353 55.8236C49.8827 50.5972 48.5585 44.8616 48.5631 39.051V39.051Z" fill="#EB001B"/>
<path d="M125.708 39.0517C125.708 46.2525 123.671 53.308 119.83 59.4117C115.99 65.5154 110.5 70.421 103.989 73.5677C97.4785 76.7144 90.209 77.9753 83.0118 77.2062C75.8146 76.4371 68.9801 73.6691 63.2896 69.2186C67.8826 65.6278 71.5958 61.0463 74.1492 55.8196C76.7025 50.5929 78.0292 44.8576 78.0292 39.0464C78.0292 33.2352 76.7025 27.4999 74.1492 22.2732C71.5958 17.0465 67.8826 12.4649 63.2896 8.87414C68.9801 4.42363 75.8146 1.65564 83.0118 0.88657C90.209 0.117502 97.4785 1.37839 103.989 4.5251C110.5 7.67181 115.99 12.5774 119.83 18.6811C123.671 24.7847 125.708 31.8402 125.708 39.0411V39.0517Z" fill="#F79E1B"/>
<path d="M122.029 62.8238V61.5872H122.532V61.3314H121.257V61.5872H121.804V62.8238H122.029ZM124.504 62.8238V61.3314H124.118L123.668 62.3974L123.218 61.3314H122.875V62.8238H123.154V61.7045L123.572 62.6745H123.861L124.279 61.7045V62.8344L124.504 62.8238Z" fill="#F79E1B"/>
</svg>
