<svg width="972" height="972" viewBox="0 0 972 972" fill="none" xmlns="http://www.w3.org/2000/svg">
	<mask id="path-1-inside-1_8120_41323" fill="white">
		<path fill-rule="evenodd" clip-rule="evenodd" d="M560.557 0.134073L178.07 102.621L243.203 345.701L0.133169 410.832L102.62 793.319L345.69 728.189L410.821 971.261L793.309 868.774L728.178 625.702L971.26 560.568L868.773 178.08L625.69 243.214L560.557 0.134073Z" />
	</mask>
	<path d="M178.07 102.621L177.552 100.689L175.62 101.207L176.138 103.139L178.07 102.621ZM560.557 0.133924L562.489 -0.383714L561.971 -2.31557L560.04 -1.79793L560.557 0.133924ZM243.203 345.701L243.72 347.633L245.652 347.116L245.135 345.184L243.203 345.701ZM0.133152 410.832L-0.384486 408.9L-2.31634 409.417L-1.7987 411.349L0.133152 410.832ZM102.62 793.319L100.688 793.837L101.206 795.769L103.138 795.251L102.62 793.319ZM345.69 728.189L347.622 727.671L347.104 725.739L345.172 726.257L345.69 728.189ZM410.821 971.261L408.889 971.779L409.407 973.711L411.339 973.193L410.821 971.261ZM793.309 868.774L793.826 870.706L795.758 870.188L795.24 868.256L793.309 868.774ZM728.178 625.702L727.66 623.77L725.728 624.287L726.246 626.219L728.178 625.702ZM971.26 560.568L971.778 562.5L973.71 561.982L973.192 560.05L971.26 560.568ZM868.773 178.08L870.705 177.563L870.187 175.631L868.255 176.148L868.773 178.08ZM625.69 243.214L623.758 243.732L624.276 245.664L626.208 245.146L625.69 243.214ZM178.587 104.553L561.075 2.06578L560.04 -1.79793L177.552 100.689L178.587 104.553ZM245.135 345.184L180.001 102.104L176.138 103.139L241.271 346.219L245.135 345.184ZM0.65079 412.763L243.72 347.633L242.685 343.769L-0.384486 408.9L0.65079 412.763ZM104.552 792.801L2.065 410.314L-1.7987 411.349L100.688 793.837L104.552 792.801ZM345.172 726.257L102.103 791.387L103.138 795.251L346.208 730.121L345.172 726.257ZM412.753 970.743L347.622 727.671L343.758 728.706L408.889 971.779L412.753 970.743ZM792.791 866.842L410.303 969.329L411.339 973.193L793.826 870.706L792.791 866.842ZM726.246 626.219L791.377 869.291L795.24 868.256L730.109 625.184L726.246 626.219ZM970.742 558.636L727.66 623.77L728.695 627.633L971.778 562.5L970.742 558.636ZM866.841 178.598L969.328 561.085L973.192 560.05L870.705 177.563L866.841 178.598ZM626.208 245.146L869.291 180.012L868.255 176.148L625.173 241.282L626.208 245.146ZM558.625 0.651562L623.758 243.732L627.622 242.696L562.489 -0.383714L558.625 0.651562Z" fill="url(#paint0_linear_8120_41323)" mask="url(#path-1-inside-1_8120_41323)" />
	<defs>
		<linearGradient id="paint0_linear_8120_41323" x1="616.133" y1="24.2394" x2="509.243" y2="1147.94" gradientUnits="userSpaceOnUse">
			<stop stop-color="#ffffff" />
			<stop offset="1" stop-color="#11AFFF" />
		</linearGradient>
	</defs>
</svg>