<svg xmlns="http://www.w3.org/2000/svg" xmlns:xlink="http://www.w3.org/1999/xlink" width="1563" zoomAndPan="magnify" viewBox="0 0 1172.25 599.999999" height="800" preserveAspectRatio="xMidYMid meet" version="1.0"><defs><clipPath id="8a57db17ae"><path d="M 538.382812 190.21875 L 613.277344 190.21875 L 613.277344 252.628906 L 538.382812 252.628906 Z M 475.96875 252.628906 L 675.339844 252.628906 L 675.339844 327.527344 L 475.96875 327.527344 Z M 538.382812 327.527344 L 613.277344 327.527344 L 613.277344 389.589844 L 538.382812 389.589844 Z M 538.382812 327.527344 " clip-rule="nonzero"/></clipPath></defs><g clip-path="url(#8a57db17ae)"><path stroke-linecap="butt" transform="matrix(0.74952, 0, 0, 0.74952, 475.967203, 190.217047)" fill="none" stroke-linejoin="miter" d="M 183.19733 0.00227187 L 83.274061 0.00227187 L 83.274061 83.269057 L 0.00206453 83.269057 L 0.00206453 183.197537 L 83.274061 183.197537 L 83.274061 266.469533 L 183.19733 266.469533 L 183.19733 183.197537 L 266.469326 183.197537 L 266.469326 83.269057 L 183.19733 83.269057 Z M 183.19733 0.00227187 " stroke="#5c0601" stroke-width="4" stroke-opacity="1" stroke-miterlimit="4"/></g></svg>