<svg xmlns="http://www.w3.org/2000/svg" xmlns:xlink="http://www.w3.org/1999/xlink" width="3000" zoomAndPan="magnify" viewBox="0 0 2250 599.999999" height="800" preserveAspectRatio="xMidYMid meet" version="1.0"><defs><g/><clipPath id="a0f1b4e8db"><path d="M 1577.265625 188.335938 L 2250 188.335938 L 2250 411.664062 L 1577.265625 411.664062 Z M 1577.265625 188.335938 " clip-rule="nonzero"/></clipPath><clipPath id="79634847f9"><path d="M 2144.230469 188.335938 L 1688.929688 188.335938 L 1577.265625 300 L 1688.929688 411.664062 L 2144.230469 411.664062 L 2255.894531 300 Z M 2144.230469 188.335938 " clip-rule="nonzero"/></clipPath></defs><g fill="#ffffff" fill-opacity="1"><g transform="translate(-9.735662, 390.254939)"><g><path d="M 117.984375 -211.6875 C 120.035156 -211.894531 122.335938 -212.050781 124.890625 -212.15625 C 127.453125 -212.257812 130.171875 -212.207031 133.046875 -212 C 138.773438 -212 144.609375 -211.742188 150.546875 -211.234375 C 156.492188 -210.722656 162.234375 -209.957031 167.765625 -208.9375 C 172.671875 -207.5 176.046875 -204.21875 177.890625 -199.09375 C 178.304688 -198.070312 178.71875 -197.253906 179.125 -196.640625 C 179.53125 -196.023438 179.941406 -195.410156 180.359375 -194.796875 C 182.398438 -192.128906 183.929688 -189.769531 184.953125 -187.71875 C 185.984375 -185.675781 186.703125 -183.628906 187.109375 -181.578125 C 187.523438 -179.734375 187.523438 -177.738281 187.109375 -175.59375 C 186.703125 -173.445312 185.988281 -171.144531 184.96875 -168.6875 C 184.144531 -166.84375 183.21875 -165.5625 182.1875 -164.84375 C 181.164062 -164.125 178.503906 -162.945312 174.203125 -161.3125 C 169.085938 -159.46875 165.40625 -158.953125 163.15625 -159.765625 C 162.738281 -159.972656 162.273438 -160.023438 161.765625 -159.921875 C 161.253906 -159.816406 160.691406 -159.765625 160.078125 -159.765625 C 158.640625 -159.566406 157.820312 -159.566406 157.625 -159.765625 C 157.414062 -159.765625 156.441406 -159.816406 154.703125 -159.921875 C 152.960938 -160.023438 150.347656 -160.179688 146.859375 -160.390625 C 141.128906 -160.585938 135.035156 -160.53125 128.578125 -160.21875 C 122.128906 -159.914062 115.21875 -159.457031 107.84375 -158.84375 C 104.976562 -158.4375 101.90625 -157.925781 98.625 -157.3125 C 95.351562 -156.695312 91.972656 -156.082031 88.484375 -155.46875 C 80.910156 -154.03125 77.125 -152.90625 77.125 -152.09375 C 77.125 -151.476562 76.816406 -148.097656 76.203125 -141.953125 C 75.992188 -139.691406 75.835938 -137.128906 75.734375 -134.265625 C 75.628906 -131.398438 75.476562 -128.125 75.28125 -124.4375 C 74.863281 -117.269531 74.757812 -113.582031 74.96875 -113.375 L 75.28125 -113.375 C 75.894531 -113.375 76.914062 -113.523438 78.34375 -113.828125 C 79.78125 -114.140625 81.726562 -114.5 84.1875 -114.90625 C 88.894531 -115.726562 93.5 -116.5 98 -117.21875 C 102.507812 -117.9375 107.429688 -118.601562 112.765625 -119.21875 C 115.222656 -119.625 118.394531 -119.878906 122.28125 -119.984375 C 126.175781 -120.085938 130.785156 -120.035156 136.109375 -119.828125 C 141.429688 -119.617188 145.988281 -119.410156 149.78125 -119.203125 C 153.570312 -119.003906 156.695312 -118.703125 159.15625 -118.296875 C 161.820312 -117.878906 163.921875 -117.109375 165.453125 -115.984375 C 166.992188 -114.859375 168.171875 -113.578125 168.984375 -112.140625 C 169.398438 -111.523438 169.757812 -110.910156 170.0625 -110.296875 C 170.375 -109.679688 170.734375 -108.96875 171.140625 -108.15625 C 171.546875 -107.125 172.363281 -105.582031 173.59375 -103.53125 C 174.820312 -101.488281 176.050781 -98.832031 177.28125 -95.5625 C 178.71875 -92.894531 179.4375 -91.050781 179.4375 -90.03125 C 179.4375 -89.207031 179.28125 -88.023438 178.96875 -86.484375 C 178.664062 -84.953125 178.253906 -83.316406 177.734375 -81.578125 C 177.222656 -79.835938 176.660156 -78.25 176.046875 -76.8125 C 175.429688 -75.375 174.816406 -74.347656 174.203125 -73.734375 C 172.566406 -72.503906 170.671875 -71.734375 168.515625 -71.421875 C 166.367188 -71.117188 164.273438 -70.96875 162.234375 -70.96875 C 161.816406 -70.769531 161.40625 -70.617188 161 -70.515625 C 160.59375 -70.410156 159.875 -70.253906 158.84375 -70.046875 C 157.820312 -69.847656 156.898438 -69.644531 156.078125 -69.4375 C 155.265625 -69.226562 154.648438 -69.023438 154.234375 -68.828125 C 153.828125 -68.617188 153.265625 -68.410156 152.546875 -68.203125 C 151.828125 -68.003906 151.160156 -67.800781 150.546875 -67.59375 C 148.703125 -67.1875 147.679688 -66.878906 147.484375 -66.671875 C 147.273438 -66.460938 146.554688 -66.15625 145.328125 -65.75 C 144.921875 -65.957031 144.71875 -66.0625 144.71875 -66.0625 L 144.40625 -66.0625 L 145.015625 -66.671875 C 144.816406 -66.878906 144.101562 -66.675781 142.875 -66.0625 C 141.84375 -65.644531 141.226562 -65.847656 141.03125 -66.671875 C 140.820312 -68.722656 136.722656 -69.75 128.734375 -69.75 C 120.546875 -69.75 113.992188 -68.722656 109.078125 -66.671875 L 106 -65.75 C 106 -65.957031 106.664062 -66.46875 108 -67.28125 C 109.332031 -68.101562 110.304688 -68.820312 110.921875 -69.4375 C 111.117188 -69.644531 111.578125 -70.054688 112.296875 -70.671875 C 113.015625 -71.285156 113.476562 -71.691406 113.6875 -71.890625 C 114.707031 -73.117188 114.910156 -73.632812 114.296875 -73.4375 C 114.085938 -73.4375 113.570312 -73.382812 112.75 -73.28125 C 111.9375 -73.175781 110.8125 -73.019531 109.375 -72.8125 C 103.4375 -71.789062 99.035156 -71.175781 96.171875 -70.96875 C 90.023438 -70.351562 85.257812 -69.582031 81.875 -68.65625 C 78.5 -67.738281 76.503906 -66.972656 75.890625 -66.359375 C 75.273438 -65.742188 74.863281 -58.066406 74.65625 -43.328125 C 74.457031 -31.035156 74.253906 -21.914062 74.046875 -15.96875 C 73.835938 -10.03125 73.632812 -6.859375 73.4375 -6.453125 C 73.4375 -6.453125 73.226562 -3.890625 72.8125 1.234375 C 72.613281 4.710938 72.410156 7.578125 72.203125 9.828125 C 71.992188 12.085938 71.425781 14.035156 70.5 15.671875 C 69.582031 17.304688 68.203125 18.6875 66.359375 19.8125 C 64.515625 20.9375 61.957031 22.113281 58.6875 23.34375 C 54.382812 24.78125 51.109375 25.5 48.859375 25.5 C 46.597656 25.5 44.035156 24.78125 41.171875 23.34375 C 37.691406 22.320312 35.953125 21.8125 35.953125 21.8125 C 35.535156 21.8125 33.382812 20.070312 29.5 16.59375 C 24.582031 11.675781 21.609375 6.960938 20.578125 2.453125 C 20.171875 0.609375 20.171875 -5.84375 20.578125 -16.90625 C 22.015625 -41.28125 23.039062 -63.398438 23.65625 -83.265625 C 24.269531 -103.128906 24.578125 -121.050781 24.578125 -137.03125 L 24.890625 -154.546875 L 22.421875 -157.3125 C 20.171875 -159.769531 18.535156 -162.585938 17.515625 -165.765625 C 16.492188 -168.941406 15.265625 -174.007812 13.828125 -180.96875 C 13.210938 -184.25 12.851562 -187.164062 12.75 -189.71875 C 12.644531 -192.28125 13.003906 -194.382812 13.828125 -196.03125 C 15.054688 -199.507812 16.59375 -201.046875 18.4375 -200.640625 C 19.25 -200.429688 19.554688 -200.738281 19.359375 -201.5625 C 19.359375 -202.582031 19.457031 -203.09375 19.65625 -203.09375 C 20.269531 -203.09375 21.5 -202.679688 23.34375 -201.859375 C 26.414062 -201.046875 31.4375 -200.738281 38.40625 -200.9375 C 41.882812 -201.351562 46.898438 -202.019531 53.453125 -202.9375 C 60.015625 -203.863281 68.109375 -205.144531 77.734375 -206.78125 C 84.285156 -207.800781 90.941406 -208.722656 97.703125 -209.546875 C 104.460938 -210.367188 111.222656 -211.082031 117.984375 -211.6875 Z M 117.984375 -211.6875 "/></g></g></g><g fill="#ffffff" fill-opacity="1"><g transform="translate(176.439044, 390.254939)"><g><path d="M 117.375 -128.4375 C 116.550781 -130.476562 115.9375 -131.5 115.53125 -131.5 C 113.882812 -131.5 110.8125 -124.332031 106.3125 -110 C 99.75 -89.507812 96.570312 -79.164062 96.78125 -78.96875 C 96.988281 -78.757812 100.472656 -79.066406 107.234375 -79.890625 C 109.890625 -80.296875 112.648438 -80.703125 115.515625 -81.109375 C 118.390625 -81.523438 121.46875 -81.9375 124.75 -82.34375 C 127.207031 -82.75 129.050781 -83.054688 130.28125 -83.265625 C 131.507812 -83.472656 132.222656 -83.578125 132.421875 -83.578125 C 133.035156 -83.773438 130.988281 -90.835938 126.28125 -104.765625 C 121.769531 -117.671875 118.800781 -125.5625 117.375 -128.4375 Z M 82.953125 -210.78125 C 85.828125 -211.382812 90.128906 -211.382812 95.859375 -210.78125 C 101.796875 -210.164062 106.8125 -209.597656 110.90625 -209.078125 C 115.007812 -208.566406 118.085938 -208.109375 120.140625 -207.703125 C 124.441406 -207.085938 130.992188 -205.242188 139.796875 -202.171875 C 147.992188 -200.117188 153.523438 -197.457031 156.390625 -194.1875 C 158.234375 -192.539062 160.585938 -187.828125 163.453125 -180.046875 C 164.890625 -176.148438 166.835938 -170.515625 169.296875 -163.140625 C 171.753906 -155.773438 174.828125 -146.457031 178.515625 -135.1875 C 181.378906 -126.582031 183.679688 -119.617188 185.421875 -114.296875 C 187.160156 -108.972656 188.546875 -104.976562 189.578125 -102.3125 C 190.597656 -99.03125 191.566406 -96.160156 192.484375 -93.703125 C 193.410156 -91.253906 194.179688 -89.003906 194.796875 -86.953125 C 195.816406 -84.492188 196.6875 -82.289062 197.40625 -80.34375 C 198.125 -78.394531 198.6875 -76.707031 199.09375 -75.28125 C 201.757812 -68.71875 204.269531 -62.109375 206.625 -55.453125 C 208.976562 -48.796875 211.179688 -41.78125 213.234375 -34.40625 C 215.484375 -26.832031 217.222656 -20.640625 218.453125 -15.828125 C 219.679688 -11.015625 220.601562 -6.351562 221.21875 -1.84375 C 222.039062 3.476562 222.601562 7.625 222.90625 10.59375 C 223.21875 13.570312 223.472656 15.878906 223.671875 17.515625 C 223.878906 19.359375 223.984375 20.585938 223.984375 21.203125 C 223.578125 21.203125 222.601562 21.863281 221.0625 23.1875 C 219.53125 24.519531 218.25 25.1875 217.21875 25.1875 C 216.40625 25.1875 215.484375 25.492188 214.453125 26.109375 C 213.640625 26.722656 206.984375 27.132812 194.484375 27.34375 L 175.4375 27.34375 L 172.671875 25.8125 C 171.035156 25.195312 169.09375 23.757812 166.84375 21.5 C 165.613281 20.269531 164.738281 19.296875 164.21875 18.578125 C 163.707031 17.867188 163.398438 17.359375 163.296875 17.046875 C 163.203125 16.742188 163.203125 16.488281 163.296875 16.28125 C 163.398438 16.082031 163.25 15.878906 162.84375 15.671875 C 162.226562 15.054688 161.921875 14.546875 161.921875 14.140625 C 161.921875 13.722656 160.691406 12.390625 158.234375 10.140625 C 155.984375 7.890625 154.445312 6.148438 153.625 4.921875 C 153.414062 4.503906 153.207031 3.988281 153 3.375 C 152.800781 2.757812 152.394531 1.941406 151.78125 0.921875 C 150.144531 -1.328125 150.347656 -2.144531 152.390625 -1.53125 C 153.210938 -1.53125 153.726562 -2.046875 153.9375 -3.078125 C 154.132812 -4.503906 154.539062 -4.8125 155.15625 -4 C 155.570312 -3.582031 155.78125 -3.785156 155.78125 -4.609375 L 155.78125 -8.609375 C 155.363281 -12.703125 154.59375 -16.847656 153.46875 -21.046875 C 152.34375 -25.242188 150.65625 -30.617188 148.40625 -37.171875 L 146.859375 -41.484375 L 142.5625 -41.171875 C 138.664062 -40.765625 133.75 -39.992188 127.8125 -38.859375 C 121.875 -37.734375 114.804688 -36.148438 106.609375 -34.109375 C 104.972656 -33.691406 103.488281 -33.328125 102.15625 -33.015625 C 100.820312 -32.710938 99.644531 -32.359375 98.625 -31.953125 C 97.800781 -31.742188 96.414062 -31.4375 94.46875 -31.03125 C 92.53125 -30.625 89.921875 -29.90625 86.640625 -28.875 C 80.492188 -27.238281 77.113281 -26.113281 76.5 -25.5 C 75.6875 -24.675781 74.457031 -22.117188 72.8125 -17.828125 C 70.5625 -12.085938 68.15625 -6.859375 65.59375 -2.140625 C 63.03125 2.566406 60.113281 7.273438 56.84375 11.984375 C 55 14.441406 54.078125 15.976562 54.078125 16.59375 C 54.078125 16.800781 53.15625 17.820312 51.3125 19.65625 L 48.546875 22.734375 L 43.015625 22.421875 C 39.734375 22.222656 37.582031 21.816406 36.5625 21.203125 C 36.15625 20.992188 34.617188 21.503906 31.953125 22.734375 C 28.054688 24.578125 25.90625 24.882812 25.5 23.65625 C 25.289062 23.25 24.722656 22.738281 23.796875 22.125 C 22.878906 21.507812 21.398438 20.992188 19.359375 20.578125 C 18.742188 20.378906 18.4375 19.867188 18.4375 19.046875 C 18.4375 18.234375 18.128906 17.828125 17.515625 17.828125 C 16.691406 17.828125 15.359375 16.695312 13.515625 14.4375 C 11.671875 12.1875 10.648438 10.445312 10.453125 9.21875 C 10.453125 7.78125 10.039062 6.65625 9.21875 5.84375 C 7.78125 4.195312 7.367188 -1.234375 7.984375 -10.453125 C 8.398438 -13.722656 8.609375 -15.359375 8.609375 -15.359375 C 9.015625 -16.585938 9.320312 -17.71875 9.53125 -18.75 C 10.34375 -21 11.363281 -23.046875 12.59375 -24.890625 C 14.03125 -27.140625 14.898438 -28.828125 15.203125 -29.953125 C 15.515625 -31.078125 16.179688 -32.359375 17.203125 -33.796875 C 18.234375 -35.023438 19.359375 -36.765625 20.578125 -39.015625 C 21.804688 -41.273438 23.242188 -44.25 24.890625 -47.9375 C 25.910156 -50.800781 26.726562 -53 27.34375 -54.53125 C 27.957031 -56.070312 28.367188 -57.148438 28.578125 -57.765625 C 28.578125 -58.578125 28.882812 -59.703125 29.5 -61.140625 C 31.75 -66.265625 35.128906 -75.378906 39.640625 -88.484375 C 41.066406 -92.585938 42.238281 -96.019531 43.15625 -98.78125 C 44.082031 -101.539062 44.851562 -103.742188 45.46875 -105.390625 C 48.539062 -114.191406 51.613281 -123.253906 54.6875 -132.578125 C 57.757812 -141.898438 60.726562 -151.578125 63.59375 -161.609375 C 69.738281 -181.890625 72.300781 -193.976562 71.28125 -197.875 C 71.070312 -198.894531 70.660156 -199.710938 70.046875 -200.328125 C 69.234375 -200.941406 69.644531 -201.863281 71.28125 -203.09375 C 72.507812 -203.914062 72.914062 -204.582031 72.5 -205.09375 C 72.09375 -205.601562 72.710938 -206.367188 74.359375 -207.390625 C 77.429688 -209.234375 80.296875 -210.363281 82.953125 -210.78125 Z M 82.953125 -210.78125 "/></g></g></g><g fill="#ffffff" fill-opacity="1"><g transform="translate(398.251305, 390.254939)"><g><path d="M 55.609375 -211.390625 C 59.296875 -211.390625 62.421875 -211.285156 64.984375 -211.078125 C 67.546875 -210.878906 69.335938 -210.570312 70.359375 -210.15625 C 71.992188 -209.75 73.835938 -208.722656 75.890625 -207.078125 C 77.941406 -205.441406 79.273438 -204.007812 79.890625 -202.78125 C 80.910156 -201.144531 81.625 -198.378906 82.03125 -194.484375 C 82.238281 -192.847656 82.289062 -190.285156 82.1875 -186.796875 C 82.082031 -183.316406 81.828125 -178.914062 81.421875 -173.59375 C 81.015625 -169.5 80.757812 -161.457031 80.65625 -149.46875 C 80.550781 -137.488281 80.394531 -121.359375 80.1875 -101.078125 C 79.988281 -79.984375 79.890625 -64.007812 79.890625 -53.15625 C 79.890625 -42.300781 79.785156 -36.359375 79.578125 -35.328125 C 79.367188 -33.078125 79.265625 -30.820312 79.265625 -28.5625 C 79.265625 -26.3125 79.164062 -24.0625 78.96875 -21.8125 C 78.757812 -16.488281 78.5 -11.878906 78.1875 -7.984375 C 77.882812 -4.097656 77.320312 -0.925781 76.5 1.53125 C 76.300781 3.175781 75.429688 5.070312 73.890625 7.21875 C 72.359375 9.375 70.515625 11.472656 68.359375 13.515625 C 66.210938 15.566406 63.957031 17.410156 61.59375 19.046875 C 59.238281 20.679688 57.144531 21.601562 55.3125 21.8125 C 53.664062 21.8125 52.484375 22.015625 51.765625 22.421875 C 51.054688 22.835938 49.472656 23.144531 47.015625 23.34375 C 44.347656 23.757812 42.191406 23.503906 40.546875 22.578125 C 38.910156 21.660156 36.765625 19.769531 34.109375 16.90625 C 32.265625 14.644531 30.625 12.847656 29.1875 11.515625 C 27.75 10.191406 26.519531 9.222656 25.5 8.609375 C 22.632812 6.765625 20.894531 4.304688 20.28125 1.234375 C 19.664062 -1.640625 19.359375 -10.140625 19.359375 -24.265625 C 19.359375 -31.847656 19.359375 -37.738281 19.359375 -41.9375 C 19.359375 -46.132812 19.457031 -48.539062 19.65625 -49.15625 C 19.863281 -49.570312 19.96875 -52.695312 19.96875 -58.53125 C 19.96875 -64.363281 20.070312 -73.019531 20.28125 -84.5 C 20.894531 -143.28125 19.359375 -179.125 15.671875 -192.03125 C 15.460938 -193.050781 14.234375 -194.789062 11.984375 -197.25 C 10.140625 -199.507812 9.320312 -200.84375 9.53125 -201.25 C 9.726562 -201.457031 9.976562 -201.710938 10.28125 -202.015625 C 10.59375 -202.328125 11.160156 -202.6875 11.984375 -203.09375 C 13.617188 -203.707031 15.15625 -204.734375 16.59375 -206.171875 C 18.03125 -207.597656 20.691406 -208.414062 24.578125 -208.625 C 28.671875 -209.03125 31.128906 -209.441406 31.953125 -209.859375 C 32.972656 -210.265625 34.554688 -210.566406 36.703125 -210.765625 C 38.859375 -210.972656 41.113281 -211.128906 43.46875 -211.234375 C 45.832031 -211.335938 48.140625 -211.390625 50.390625 -211.390625 C 52.640625 -211.390625 54.378906 -211.390625 55.609375 -211.390625 Z M 55.609375 -211.390625 "/></g></g></g><g fill="#ffffff" fill-opacity="1"><g transform="translate(490.723802, 390.254939)"><g><path d="M 108.765625 -162.234375 C 103.234375 -162.234375 96.882812 -161.410156 89.71875 -159.765625 C 85.625 -159.148438 83.269531 -158.640625 82.65625 -158.234375 C 82.039062 -157.828125 81.832031 -156.492188 82.03125 -154.234375 C 82.238281 -152.804688 82.289062 -151.015625 82.1875 -148.859375 C 82.082031 -146.710938 81.828125 -144.203125 81.421875 -141.328125 C 81.210938 -138.671875 81.054688 -135.445312 80.953125 -131.65625 C 80.859375 -127.863281 80.601562 -123.410156 80.1875 -118.296875 C 79.570312 -108.253906 79.367188 -103.128906 79.578125 -102.921875 C 80.191406 -102.304688 83.773438 -102.921875 90.328125 -104.765625 C 93.398438 -105.585938 96.78125 -106.613281 100.46875 -107.84375 C 104.15625 -109.070312 107.738281 -110.554688 111.21875 -112.296875 C 114.707031 -114.035156 117.9375 -116.03125 120.90625 -118.28125 C 123.875 -120.539062 126.28125 -123.003906 128.125 -125.671875 C 130.789062 -129.765625 132.125 -135.289062 132.125 -142.25 C 131.707031 -150.445312 129.757812 -155.828125 126.28125 -158.390625 C 122.800781 -160.953125 116.960938 -162.234375 108.765625 -162.234375 Z M 102.921875 -208.9375 C 106.609375 -208.9375 110.859375 -208.726562 115.671875 -208.3125 C 120.492188 -207.90625 125.257812 -207.289062 129.96875 -206.46875 C 134.675781 -205.65625 139.28125 -204.632812 143.78125 -203.40625 C 148.289062 -202.175781 152.082031 -200.738281 155.15625 -199.09375 C 165.8125 -193.5625 174.722656 -186.800781 181.890625 -178.8125 C 189.054688 -170.832031 193.5625 -162.640625 195.40625 -154.234375 C 197.664062 -144.609375 197.257812 -134.78125 194.1875 -124.75 C 193.570312 -122.082031 192.648438 -119.363281 191.421875 -116.59375 C 190.191406 -113.832031 188.859375 -111.171875 187.421875 -108.609375 C 185.984375 -106.046875 184.445312 -103.6875 182.8125 -101.53125 C 181.175781 -99.382812 179.640625 -97.695312 178.203125 -96.46875 C 176.566406 -95.039062 175.1875 -93.765625 174.0625 -92.640625 C 172.9375 -91.515625 171.960938 -90.539062 171.140625 -89.71875 C 167.242188 -86.03125 164.988281 -84.1875 164.375 -84.1875 C 164.175781 -84.800781 163.867188 -85.109375 163.453125 -85.109375 C 163.046875 -85.109375 162.84375 -84.898438 162.84375 -84.484375 C 162.84375 -84.078125 161.921875 -83.257812 160.078125 -82.03125 C 157.410156 -81.007812 155.363281 -79.78125 153.9375 -78.34375 C 151.476562 -76.5 149.632812 -75.375 148.40625 -74.96875 L 146.5625 -74.046875 C 146.351562 -74.046875 146.144531 -73.941406 145.9375 -73.734375 C 145.9375 -72.921875 151.878906 -66.570312 163.765625 -54.6875 C 171.335938 -46.90625 177.734375 -40.195312 182.953125 -34.5625 C 188.179688 -28.925781 192.023438 -24.164062 194.484375 -20.28125 C 195.097656 -19.257812 196.070312 -17.722656 197.40625 -15.671875 C 198.738281 -13.617188 200.019531 -11.414062 201.25 -9.0625 C 202.476562 -6.707031 203.601562 -4.503906 204.625 -2.453125 C 205.65625 -0.410156 206.269531 1.222656 206.46875 2.453125 C 207.082031 5.117188 207.539062 7.320312 207.84375 9.0625 C 208.15625 10.800781 208.207031 12.390625 208 13.828125 C 207.800781 15.265625 207.34375 16.59375 206.625 17.8125 C 205.90625 19.039062 204.726562 20.375 203.09375 21.8125 C 199.8125 25.09375 195.816406 27.550781 191.109375 29.1875 C 186.398438 30.820312 181.6875 31.640625 176.96875 31.640625 C 171.445312 31.640625 166.738281 30.207031 162.84375 27.34375 C 161.820312 26.519531 160.953125 25.90625 160.234375 25.5 C 159.515625 25.09375 158.742188 24.679688 157.921875 24.265625 C 156.285156 23.648438 154.546875 22.421875 152.703125 20.578125 C 150.859375 19.359375 148.804688 17.828125 146.546875 15.984375 C 144.296875 14.140625 142.09375 12.140625 139.9375 9.984375 C 137.789062 7.835938 135.796875 5.582031 133.953125 3.21875 C 132.117188 0.863281 130.6875 -1.332031 129.65625 -3.375 C 125.15625 -11.363281 120.085938 -19.40625 114.453125 -27.5 C 108.816406 -35.59375 103.03125 -43.222656 97.09375 -50.390625 C 94.425781 -53.671875 92.425781 -56.078125 91.09375 -57.609375 C 89.769531 -59.140625 89.003906 -60.007812 88.796875 -60.21875 C 88.390625 -60.425781 87.160156 -60.222656 85.109375 -59.609375 C 83.265625 -58.992188 81.523438 -58.6875 79.890625 -58.6875 C 78.453125 -58.6875 77.628906 -58.273438 77.421875 -57.453125 C 76.804688 -54.585938 76.191406 -45.882812 75.578125 -31.34375 C 74.960938 -20.6875 74.453125 -12.082031 74.046875 -5.53125 C 73.640625 1.019531 73.332031 5.425781 73.125 7.6875 C 72.71875 12.394531 72 15.414062 70.96875 16.75 C 69.945312 18.082031 69.128906 19.050781 68.515625 19.65625 C 65.441406 22.113281 60.9375 23.753906 55 24.578125 C 53.363281 24.984375 51.828125 25.289062 50.390625 25.5 C 48.953125 25.707031 47.722656 26.015625 46.703125 26.421875 C 45.066406 27.242188 43.734375 27.65625 42.703125 27.65625 C 42.296875 28.0625 40.046875 27.238281 35.953125 25.1875 C 32.878906 23.757812 30.210938 22.273438 27.953125 20.734375 C 25.703125 19.203125 23.757812 16.898438 22.125 13.828125 C 21.300781 12.390625 20.632812 11.054688 20.125 9.828125 C 19.613281 8.597656 19.253906 7.367188 19.046875 6.140625 C 18.847656 4.910156 18.75 3.476562 18.75 1.84375 C 18.75 0.207031 18.847656 -1.738281 19.046875 -4 C 19.253906 -6.65625 19.40625 -10.492188 19.5 -15.515625 C 19.601562 -20.535156 19.863281 -26.734375 20.28125 -34.109375 C 21.300781 -59.503906 22.066406 -79.523438 22.578125 -94.171875 C 23.085938 -108.816406 23.445312 -118.492188 23.65625 -123.203125 C 23.863281 -129.347656 24.015625 -134.210938 24.109375 -137.796875 C 24.210938 -141.378906 24.164062 -143.6875 23.96875 -144.71875 C 23.550781 -145.945312 22.421875 -147.378906 20.578125 -149.015625 C 17.515625 -151.878906 15.367188 -155.363281 14.140625 -159.46875 C 12.085938 -167.039062 12.394531 -173.695312 15.0625 -179.4375 C 15.875 -181.070312 16.28125 -184.242188 16.28125 -188.953125 L 16.28125 -195.71875 L 18.75 -196.953125 C 19.5625 -197.765625 21.25 -198.425781 23.8125 -198.9375 C 26.375 -199.457031 28.164062 -199.71875 29.1875 -199.71875 L 29.5 -199.71875 C 29.695312 -199.507812 30.410156 -199.507812 31.640625 -199.71875 C 33.078125 -200.332031 40.660156 -201.867188 54.390625 -204.328125 C 70.359375 -207.398438 86.535156 -208.9375 102.921875 -208.9375 Z M 102.921875 -208.9375 "/></g></g></g><g fill="#ffffff" fill-opacity="1"><g transform="translate(699.018373, 390.254939)"><g><path d="M 301.109375 -213.234375 C 302.128906 -213.429688 303.097656 -213.476562 304.015625 -213.375 C 304.941406 -213.28125 306.125 -213.234375 307.5625 -213.234375 C 311.65625 -213.023438 314.726562 -212.101562 316.78125 -210.46875 C 318.820312 -208.832031 319.945312 -206.375 320.15625 -203.09375 C 320.363281 -199.8125 320.257812 -195.816406 319.84375 -191.109375 C 318.820312 -183.734375 317.335938 -176.050781 315.390625 -168.0625 C 313.441406 -160.070312 311.648438 -152.492188 310.015625 -145.328125 C 309.804688 -143.890625 309.5 -142.300781 309.09375 -140.5625 C 308.6875 -138.820312 308.328125 -137.179688 308.015625 -135.640625 C 307.710938 -134.109375 307.40625 -132.78125 307.09375 -131.65625 C 306.789062 -130.53125 306.640625 -129.863281 306.640625 -129.65625 C 305.816406 -123.71875 303.664062 -115.320312 300.1875 -104.46875 C 299.363281 -101.800781 298.644531 -99.390625 298.03125 -97.234375 C 297.414062 -95.085938 296.90625 -93.09375 296.5 -91.25 C 296.289062 -90.632812 296.03125 -89.710938 295.71875 -88.484375 C 295.414062 -87.253906 294.957031 -85.617188 294.34375 -83.578125 C 292.90625 -79.273438 292.085938 -76.203125 291.890625 -74.359375 C 291.472656 -72.710938 290.800781 -70.351562 289.875 -67.28125 C 288.957031 -64.207031 287.890625 -60.316406 286.671875 -55.609375 C 285.640625 -52.335938 284.816406 -49.625 284.203125 -47.46875 C 283.585938 -45.320312 283.078125 -43.632812 282.671875 -42.40625 C 280.617188 -36.257812 278.363281 -29.191406 275.90625 -21.203125 C 272.425781 -8.910156 268.84375 0.613281 265.15625 7.375 C 263.71875 10.238281 262.226562 12.898438 260.6875 15.359375 C 259.15625 17.816406 257.984375 19.046875 257.171875 19.046875 C 256.960938 19.046875 256.859375 19.25 256.859375 19.65625 C 256.859375 20.070312 256.242188 20.484375 255.015625 20.890625 C 253.785156 21.296875 253.066406 21.804688 252.859375 22.421875 C 252.453125 23.859375 242.210938 24.375 222.140625 23.96875 L 205.859375 23.96875 L 202.78125 22.125 C 199.507812 20.28125 196.644531 16.847656 194.1875 11.828125 C 191.726562 6.804688 188.859375 -1.4375 185.578125 -12.90625 C 184.554688 -16.1875 183.6875 -19.003906 182.96875 -21.359375 C 182.25 -23.710938 181.6875 -25.601562 181.28125 -27.03125 C 178.40625 -35.4375 174.71875 -47.929688 170.21875 -64.515625 C 170.007812 -64.929688 169.597656 -66.265625 168.984375 -68.515625 C 168.367188 -70.765625 167.445312 -73.941406 166.21875 -78.046875 C 165.601562 -80.910156 164.785156 -84.03125 163.765625 -87.40625 C 162.742188 -90.789062 162.128906 -92.789062 161.921875 -93.40625 C 161.304688 -95.863281 160.796875 -97.09375 160.390625 -97.09375 C 159.972656 -97.09375 159.050781 -94.738281 157.625 -90.03125 C 157.007812 -87.976562 156.34375 -85.820312 155.625 -83.5625 C 154.90625 -81.3125 154.132812 -78.859375 153.3125 -76.203125 C 151.882812 -71.691406 150.503906 -67.128906 149.171875 -62.515625 C 147.835938 -57.910156 146.453125 -53.148438 145.015625 -48.234375 C 143.992188 -44.753906 142.816406 -40.960938 141.484375 -36.859375 C 140.148438 -32.765625 138.664062 -28.363281 137.03125 -23.65625 C 136.625 -22.632812 135.957031 -20.6875 135.03125 -17.8125 C 134.113281 -14.945312 132.9375 -11.265625 131.5 -6.765625 C 129.863281 -1.847656 128.53125 1.890625 127.5 4.453125 C 126.476562 7.015625 125.765625 8.707031 125.359375 9.53125 C 122.285156 13.625 120.03125 15.875 118.59375 16.28125 C 117.78125 16.488281 117.375 16.796875 117.375 17.203125 C 117.375 17.617188 116.601562 18.03125 115.0625 18.4375 C 113.53125 18.84375 112.660156 19.351562 112.453125 19.96875 C 112.242188 20.375 111.0625 20.832031 108.90625 21.34375 C 106.757812 21.863281 105.378906 21.914062 104.765625 21.5 C 103.742188 21.300781 101.898438 21.816406 99.234375 23.046875 L 98.625 23.65625 C 96.988281 24.0625 95.863281 23.753906 95.25 22.734375 C 95.039062 22.117188 94.425781 22.015625 93.40625 22.421875 C 92.582031 22.835938 89.710938 23.25 84.796875 23.65625 L 77.421875 23.96875 L 73.4375 21.8125 C 69.132812 19.769531 66.46875 17.414062 65.4375 14.75 C 65.238281 14.132812 64.929688 13.828125 64.515625 13.828125 C 64.316406 13.828125 63.753906 13.46875 62.828125 12.75 C 61.910156 12.03125 61.65625 11.46875 62.0625 11.0625 L 62.0625 10.75 C 61.851562 10.75 61.546875 10.648438 61.140625 10.453125 C 60.316406 10.242188 59.90625 9.832031 59.90625 9.21875 C 59.90625 8.601562 59.597656 8.398438 58.984375 8.609375 C 58.578125 8.804688 58.015625 8.441406 57.296875 7.515625 C 56.585938 6.597656 56.332031 5.832031 56.53125 5.21875 C 56.738281 5.019531 56.640625 4.921875 56.234375 4.921875 C 55.617188 4.921875 54.847656 3.234375 53.921875 -0.140625 C 53.003906 -3.523438 52.546875 -6.445312 52.546875 -8.90625 C 52.546875 -14.238281 48.859375 -30.21875 41.484375 -56.84375 C 40.867188 -59.09375 39.789062 -63.1875 38.25 -69.125 C 36.71875 -75.070312 34.820312 -82.859375 32.5625 -92.484375 C 30.3125 -102.109375 28.519531 -109.582031 27.1875 -114.90625 C 25.851562 -120.238281 24.984375 -123.722656 24.578125 -125.359375 C 23.960938 -128.222656 22.988281 -132.570312 21.65625 -138.40625 C 20.320312 -144.25 18.835938 -150.296875 17.203125 -156.546875 C 15.566406 -162.796875 13.925781 -168.679688 12.28125 -174.203125 C 10.644531 -179.734375 9.210938 -183.628906 7.984375 -185.890625 C 6.960938 -187.523438 6.453125 -191.109375 6.453125 -196.640625 C 6.242188 -202.578125 6.550781 -206.160156 7.375 -207.390625 C 8.394531 -208.828125 10.390625 -209.953125 13.359375 -210.765625 C 16.335938 -211.585938 19.515625 -212.148438 22.890625 -212.453125 C 26.265625 -212.765625 29.59375 -212.972656 32.875 -213.078125 C 36.15625 -213.179688 38.613281 -213.234375 40.25 -213.234375 C 43.113281 -213.023438 46.390625 -212.507812 50.078125 -211.6875 C 53.765625 -210.875 57.398438 -209.644531 60.984375 -208 C 64.566406 -206.363281 67.738281 -204.367188 70.5 -202.015625 C 73.269531 -199.660156 74.960938 -196.945312 75.578125 -193.875 C 76.804688 -187.9375 77.726562 -181.84375 78.34375 -175.59375 C 78.957031 -169.34375 79.570312 -163.25 80.1875 -157.3125 C 80.800781 -153.625 81.519531 -148.8125 82.34375 -142.875 C 83.164062 -136.9375 84.085938 -129.765625 85.109375 -121.359375 C 86.546875 -109.679688 87.828125 -99.898438 88.953125 -92.015625 C 90.078125 -84.128906 91.050781 -78.035156 91.875 -73.734375 C 93.71875 -64.316406 95.148438 -59.609375 96.171875 -59.609375 C 96.984375 -60.222656 98.207031 -63.085938 99.84375 -68.203125 C 101.488281 -73.328125 103.382812 -79.726562 105.53125 -87.40625 C 107.6875 -95.09375 109.890625 -103.492188 112.140625 -112.609375 C 114.398438 -121.722656 116.453125 -130.476562 118.296875 -138.875 C 120.140625 -147.269531 121.675781 -154.742188 122.90625 -161.296875 C 124.132812 -167.859375 124.75 -172.46875 124.75 -175.125 C 124.75 -176.96875 124.234375 -178.347656 123.203125 -179.265625 C 122.179688 -180.191406 121.363281 -180.65625 120.75 -180.65625 C 118.695312 -180.65625 118.898438 -181.988281 121.359375 -184.65625 C 123.003906 -186.289062 125.207031 -187.722656 127.96875 -188.953125 C 130.738281 -190.179688 133.707031 -191.207031 136.875 -192.03125 C 140.050781 -192.851562 143.226562 -193.414062 146.40625 -193.71875 C 149.582031 -194.03125 152.398438 -194.1875 154.859375 -194.1875 C 156.492188 -194.1875 159.613281 -193.976562 164.21875 -193.5625 C 168.832031 -193.15625 173.597656 -192.488281 178.515625 -191.5625 C 183.429688 -190.644531 187.78125 -189.414062 191.5625 -187.875 C 195.351562 -186.34375 197.25 -184.453125 197.25 -182.203125 C 197.25 -180.148438 197.96875 -176.566406 199.40625 -171.453125 C 201.25 -163.660156 203.039062 -156.226562 204.78125 -149.15625 C 206.519531 -142.09375 208.109375 -135.285156 209.546875 -128.734375 C 211.179688 -121.972656 212.5625 -115.625 213.6875 -109.6875 C 214.8125 -103.75 215.890625 -98.117188 216.921875 -92.796875 C 221.222656 -70.253906 224.085938 -58.269531 225.515625 -56.84375 C 225.929688 -56.4375 226.753906 -58.894531 227.984375 -64.21875 C 229.003906 -68.925781 230.535156 -75.785156 232.578125 -84.796875 C 234.628906 -93.804688 237.09375 -105.175781 239.96875 -118.90625 C 244.0625 -138.363281 246.875 -153.265625 248.40625 -163.609375 C 249.945312 -173.953125 250.304688 -180.554688 249.484375 -183.421875 C 249.285156 -184.453125 248.46875 -185.679688 247.03125 -187.109375 C 245.800781 -188.335938 245.1875 -189.875 245.1875 -191.71875 C 245.1875 -193.5625 245.082031 -194.894531 244.875 -195.71875 C 244.875 -197.351562 246.3125 -199.503906 249.1875 -202.171875 C 251.632812 -204.628906 254.394531 -206.367188 257.46875 -207.390625 C 259.3125 -208.003906 264.128906 -208.925781 271.921875 -210.15625 C 275.398438 -210.570312 278.160156 -210.984375 280.203125 -211.390625 C 282.253906 -211.796875 283.585938 -212.101562 284.203125 -212.3125 C 284.410156 -212.3125 287.28125 -212.515625 292.8125 -212.921875 C 298.132812 -212.921875 300.898438 -213.023438 301.109375 -213.234375 Z M 301.109375 -213.234375 "/></g></g></g><g fill="#ffffff" fill-opacity="1"><g transform="translate(1018.219526, 390.254939)"><g><path d="M 55.609375 -211.390625 C 59.296875 -211.390625 62.421875 -211.285156 64.984375 -211.078125 C 67.546875 -210.878906 69.335938 -210.570312 70.359375 -210.15625 C 71.992188 -209.75 73.835938 -208.722656 75.890625 -207.078125 C 77.941406 -205.441406 79.273438 -204.007812 79.890625 -202.78125 C 80.910156 -201.144531 81.625 -198.378906 82.03125 -194.484375 C 82.238281 -192.847656 82.289062 -190.285156 82.1875 -186.796875 C 82.082031 -183.316406 81.828125 -178.914062 81.421875 -173.59375 C 81.015625 -169.5 80.757812 -161.457031 80.65625 -149.46875 C 80.550781 -137.488281 80.394531 -121.359375 80.1875 -101.078125 C 79.988281 -79.984375 79.890625 -64.007812 79.890625 -53.15625 C 79.890625 -42.300781 79.785156 -36.359375 79.578125 -35.328125 C 79.367188 -33.078125 79.265625 -30.820312 79.265625 -28.5625 C 79.265625 -26.3125 79.164062 -24.0625 78.96875 -21.8125 C 78.757812 -16.488281 78.5 -11.878906 78.1875 -7.984375 C 77.882812 -4.097656 77.320312 -0.925781 76.5 1.53125 C 76.300781 3.175781 75.429688 5.070312 73.890625 7.21875 C 72.359375 9.375 70.515625 11.472656 68.359375 13.515625 C 66.210938 15.566406 63.957031 17.410156 61.59375 19.046875 C 59.238281 20.679688 57.144531 21.601562 55.3125 21.8125 C 53.664062 21.8125 52.484375 22.015625 51.765625 22.421875 C 51.054688 22.835938 49.472656 23.144531 47.015625 23.34375 C 44.347656 23.757812 42.191406 23.503906 40.546875 22.578125 C 38.910156 21.660156 36.765625 19.769531 34.109375 16.90625 C 32.265625 14.644531 30.625 12.847656 29.1875 11.515625 C 27.75 10.191406 26.519531 9.222656 25.5 8.609375 C 22.632812 6.765625 20.894531 4.304688 20.28125 1.234375 C 19.664062 -1.640625 19.359375 -10.140625 19.359375 -24.265625 C 19.359375 -31.847656 19.359375 -37.738281 19.359375 -41.9375 C 19.359375 -46.132812 19.457031 -48.539062 19.65625 -49.15625 C 19.863281 -49.570312 19.96875 -52.695312 19.96875 -58.53125 C 19.96875 -64.363281 20.070312 -73.019531 20.28125 -84.5 C 20.894531 -143.28125 19.359375 -179.125 15.671875 -192.03125 C 15.460938 -193.050781 14.234375 -194.789062 11.984375 -197.25 C 10.140625 -199.507812 9.320312 -200.84375 9.53125 -201.25 C 9.726562 -201.457031 9.976562 -201.710938 10.28125 -202.015625 C 10.59375 -202.328125 11.160156 -202.6875 11.984375 -203.09375 C 13.617188 -203.707031 15.15625 -204.734375 16.59375 -206.171875 C 18.03125 -207.597656 20.691406 -208.414062 24.578125 -208.625 C 28.671875 -209.03125 31.128906 -209.441406 31.953125 -209.859375 C 32.972656 -210.265625 34.554688 -210.566406 36.703125 -210.765625 C 38.859375 -210.972656 41.113281 -211.128906 43.46875 -211.234375 C 45.832031 -211.335938 48.140625 -211.390625 50.390625 -211.390625 C 52.640625 -211.390625 54.378906 -211.390625 55.609375 -211.390625 Z M 55.609375 -211.390625 "/></g></g></g><g fill="#ffffff" fill-opacity="1"><g transform="translate(1110.691965, 390.254939)"><g><path d="M 191.109375 -213.53125 C 192.742188 -213.945312 195.921875 -213.945312 200.640625 -213.53125 L 208.015625 -213.53125 L 209.859375 -211.390625 C 211.691406 -209.335938 212.914062 -204.832031 213.53125 -197.875 C 213.945312 -195.820312 214.15625 -190.082031 214.15625 -180.65625 C 214.15625 -171.238281 214.050781 -157.925781 213.84375 -140.71875 C 213.632812 -114.90625 213.019531 -88.890625 212 -62.671875 C 211.789062 -57.960938 211.6875 -54.019531 211.6875 -50.84375 C 211.6875 -47.675781 211.585938 -45.171875 211.390625 -43.328125 C 211.179688 -41.890625 211.023438 -39.785156 210.921875 -37.015625 C 210.828125 -34.253906 210.675781 -29.90625 210.46875 -23.96875 C 210.0625 -12.289062 209.445312 -4.195312 208.625 0.3125 C 207.800781 3.582031 207.1875 5.628906 206.78125 6.453125 C 206.375 7.273438 205.65625 8.195312 204.625 9.21875 C 202.988281 10.65625 201.453125 11.9375 200.015625 13.0625 C 198.585938 14.1875 197.15625 15.160156 195.71875 15.984375 C 193.46875 17.003906 191.828125 17.820312 190.796875 18.4375 C 185.878906 20.894531 180.347656 22.125 174.203125 22.125 C 171.335938 22.125 168.578125 21.609375 165.921875 20.578125 C 162.847656 19.148438 160.59375 17.820312 159.15625 16.59375 C 157.71875 15.363281 155.15625 13.828125 151.46875 11.984375 C 145.738281 9.117188 140.773438 5.175781 136.578125 0.15625 C 132.378906 -4.863281 129.050781 -10.242188 126.59375 -15.984375 C 124.75 -20.078125 123.828125 -22.222656 123.828125 -22.421875 C 123.828125 -22.421875 122.1875 -26.828125 118.90625 -35.640625 C 118.082031 -37.691406 117.003906 -40.097656 115.671875 -42.859375 C 114.347656 -45.628906 112.660156 -49.878906 110.609375 -55.609375 C 109.171875 -59.910156 107.632812 -64.363281 106 -68.96875 C 104.363281 -73.582031 103.441406 -76.195312 103.234375 -76.8125 C 102.617188 -78.445312 100.46875 -84.285156 96.78125 -94.328125 C 93.300781 -104.160156 90.332031 -112.503906 87.875 -119.359375 C 85.414062 -126.222656 83.46875 -131.601562 82.03125 -135.5 L 79.578125 -141.953125 L 78.65625 -137.34375 C 78.25 -135.09375 77.785156 -128.945312 77.265625 -118.90625 C 76.753906 -108.863281 76.191406 -94.832031 75.578125 -76.8125 C 75.578125 -74.757812 75.523438 -71.835938 75.421875 -68.046875 C 75.328125 -64.265625 75.28125 -60.117188 75.28125 -55.609375 C 75.28125 -51.109375 75.226562 -46.398438 75.125 -41.484375 C 75.019531 -36.566406 74.96875 -31.957031 74.96875 -27.65625 C 74.96875 -9.21875 74.25 1.84375 72.8125 5.53125 C 72.195312 7.164062 70.765625 9.160156 68.515625 11.515625 C 66.265625 13.878906 64.113281 15.675781 62.0625 16.90625 C 59.8125 18.332031 58.378906 19.457031 57.765625 20.28125 C 56.941406 21.09375 55.914062 21.5 54.6875 21.5 C 53.050781 21.5 51.722656 21.910156 50.703125 22.734375 C 47.828125 24.578125 46.390625 25.191406 46.390625 24.578125 C 46.390625 23.347656 44.648438 23.550781 41.171875 25.1875 C 38.921875 26.21875 37.078125 26.523438 35.640625 26.109375 C 34.003906 25.703125 32.210938 24.78125 30.265625 23.34375 C 28.316406 21.914062 26.472656 20.332031 24.734375 18.59375 C 22.992188 16.851562 21.40625 15.007812 19.96875 13.0625 C 18.539062 11.113281 17.617188 9.320312 17.203125 7.6875 C 15.773438 1.738281 15.46875 -2.867188 16.28125 -6.140625 C 16.488281 -7.171875 16.691406 -10.5 16.890625 -16.125 C 17.097656 -21.757812 17.613281 -29.800781 18.4375 -40.25 C 18.644531 -44.34375 18.847656 -49.410156 19.046875 -55.453125 C 19.253906 -61.492188 19.457031 -68.203125 19.65625 -75.578125 C 19.863281 -82.953125 20.019531 -90.785156 20.125 -99.078125 C 20.226562 -107.378906 20.28125 -115.628906 20.28125 -123.828125 C 20.28125 -140.410156 20.175781 -153.925781 19.96875 -164.375 C 19.757812 -174.820312 19.453125 -182.09375 19.046875 -186.1875 C 18.429688 -194.382812 17.203125 -200.738281 15.359375 -205.25 C 14.953125 -205.863281 15.414062 -206.425781 16.75 -206.9375 C 18.082031 -207.445312 20.796875 -208.007812 24.890625 -208.625 C 28.773438 -209.445312 33.484375 -209.859375 39.015625 -209.859375 C 46.804688 -209.859375 54.59375 -209.140625 62.375 -207.703125 C 70.15625 -206.265625 77.734375 -204.421875 85.109375 -202.171875 L 94.015625 -199.40625 L 97.390625 -195.71875 C 101.492188 -191.207031 105.03125 -187.160156 108 -183.578125 C 110.96875 -179.992188 113.679688 -176.304688 116.140625 -172.515625 C 118.597656 -168.734375 120.898438 -164.738281 123.046875 -160.53125 C 125.203125 -156.332031 127.507812 -151.367188 129.96875 -145.640625 C 132.832031 -139.285156 135.75 -131.035156 138.71875 -120.890625 C 141.6875 -110.753906 144.914062 -100.160156 148.40625 -89.109375 C 149.832031 -84.191406 151.054688 -80.296875 152.078125 -77.421875 C 153.109375 -74.554688 153.828125 -72.710938 154.234375 -71.890625 C 154.441406 -71.691406 154.648438 -72.71875 154.859375 -74.96875 C 155.265625 -78.445312 155.566406 -87.148438 155.765625 -101.078125 C 155.972656 -115.015625 156.179688 -132.835938 156.390625 -154.546875 C 156.597656 -168.679688 156.703125 -179.691406 156.703125 -187.578125 C 156.703125 -195.460938 156.703125 -200.429688 156.703125 -202.484375 C 156.703125 -203.503906 157.160156 -204.375 158.078125 -205.09375 C 159.003906 -205.8125 160.082031 -206.425781 161.3125 -206.9375 C 162.539062 -207.445312 163.816406 -207.851562 165.140625 -208.15625 C 166.472656 -208.46875 167.550781 -208.625 168.375 -208.625 C 170.625 -209.03125 172.160156 -209.644531 172.984375 -210.46875 C 173.796875 -211.28125 176.660156 -211.894531 181.578125 -212.3125 C 184.242188 -212.71875 186.34375 -212.972656 187.875 -213.078125 C 189.414062 -213.179688 190.492188 -213.332031 191.109375 -213.53125 Z M 191.109375 -213.53125 "/></g></g></g><g fill="#ffffff" fill-opacity="1"><g transform="translate(1335.88363, 390.254939)"><g><path d="M 134.578125 -161 C 133.554688 -161.207031 132.632812 -161.359375 131.8125 -161.453125 C 130.988281 -161.554688 130.375 -161.609375 129.96875 -161.609375 C 128.125 -161.609375 125.5625 -161.351562 122.28125 -160.84375 C 119.007812 -160.332031 115.628906 -159.664062 112.140625 -158.84375 C 108.660156 -158.03125 105.4375 -157.054688 102.46875 -155.921875 C 99.5 -154.796875 97.398438 -153.617188 96.171875 -152.390625 C 95.765625 -152.191406 95.300781 -151.882812 94.78125 -151.46875 C 94.269531 -151.0625 93.503906 -150.65625 92.484375 -150.25 C 88.179688 -147.988281 85.210938 -145.320312 83.578125 -142.25 C 81.929688 -139.175781 80.597656 -133.035156 79.578125 -123.828125 C 79.171875 -121.566406 78.914062 -119.460938 78.8125 -117.515625 C 78.707031 -115.578125 78.550781 -113.476562 78.34375 -111.21875 C 78.144531 -108.96875 78.046875 -107.125 78.046875 -105.6875 C 78.046875 -104.257812 77.941406 -103.238281 77.734375 -102.625 C 77.328125 -99.75 77.019531 -94.113281 76.8125 -85.71875 C 76.40625 -79.375 76.148438 -74.148438 76.046875 -70.046875 C 75.941406 -65.953125 75.785156 -62.984375 75.578125 -61.140625 C 75.578125 -58.273438 75.523438 -55.097656 75.421875 -51.609375 C 75.328125 -48.128906 75.28125 -44.546875 75.28125 -40.859375 C 75.070312 -33.285156 75.070312 -29.085938 75.28125 -28.265625 C 75.894531 -26.628906 77.941406 -25.242188 81.421875 -24.109375 C 84.898438 -22.984375 89.097656 -22.421875 94.015625 -22.421875 C 100.984375 -22.421875 107.488281 -23.597656 113.53125 -25.953125 C 119.570312 -28.316406 125.148438 -31.546875 130.265625 -35.640625 C 135.390625 -39.734375 139.894531 -44.492188 143.78125 -49.921875 C 147.675781 -55.347656 150.851562 -61.132812 153.3125 -67.28125 C 157.414062 -77.53125 159.46875 -90.234375 159.46875 -105.390625 C 159.46875 -110.304688 159.257812 -115.628906 158.84375 -121.359375 C 158.4375 -127.097656 157.363281 -132.679688 155.625 -138.109375 C 153.882812 -143.535156 151.375 -148.347656 148.09375 -152.546875 C 144.8125 -156.742188 140.304688 -159.5625 134.578125 -161 Z M 128.734375 -211.390625 C 134.472656 -211.390625 139.441406 -211.234375 143.640625 -210.921875 C 147.835938 -210.617188 151.878906 -209.953125 155.765625 -208.921875 C 159.660156 -207.898438 163.503906 -206.46875 167.296875 -204.625 C 171.085938 -202.78125 175.441406 -200.320312 180.359375 -197.25 C 202.472656 -183.726562 216.398438 -164.269531 222.140625 -138.875 C 223.984375 -130.882812 224.800781 -116.546875 224.59375 -95.859375 C 224.800781 -89.921875 224.695312 -84.75 224.28125 -80.34375 C 223.875 -75.9375 223.363281 -72.195312 222.75 -69.125 C 221.519531 -64.207031 219.675781 -58.929688 217.21875 -53.296875 C 214.757812 -47.671875 211.992188 -42.144531 208.921875 -36.71875 C 205.859375 -31.289062 202.582031 -26.117188 199.09375 -21.203125 C 195.613281 -16.285156 192.132812 -11.984375 188.65625 -8.296875 C 178.207031 2.765625 165.660156 11.316406 151.015625 17.359375 C 136.367188 23.398438 121.054688 26.421875 105.078125 26.421875 C 100.367188 26.421875 94.992188 26.0625 88.953125 25.34375 C 82.910156 24.625 77.941406 23.242188 74.046875 21.203125 L 69.4375 18.75 L 65.75 20.578125 C 63.695312 21.609375 61.75 22.378906 59.90625 22.890625 C 58.070312 23.398438 56.234375 23.65625 54.390625 23.65625 C 51.929688 23.65625 49.265625 23.039062 46.390625 21.8125 C 43.117188 20.375 38.507812 15.5625 32.5625 7.375 C 32.363281 6.757812 31.957031 5.9375 31.34375 4.90625 C 30.726562 3.882812 30.007812 2.863281 29.1875 1.84375 C 28.363281 0.820312 27.59375 -0.195312 26.875 -1.21875 C 26.164062 -2.25 25.601562 -2.96875 25.1875 -3.375 C 21.707031 -8.90625 19.660156 -13.003906 19.046875 -15.671875 C 18.640625 -17.304688 18.382812 -19.554688 18.28125 -22.421875 C 18.175781 -25.296875 18.226562 -28.882812 18.4375 -33.1875 C 18.644531 -36.664062 18.847656 -40.65625 19.046875 -45.15625 C 19.253906 -49.664062 19.457031 -54.6875 19.65625 -60.21875 C 19.65625 -65.34375 19.757812 -69.953125 19.96875 -74.046875 C 20.175781 -78.140625 20.378906 -81.929688 20.578125 -85.421875 C 20.578125 -86.441406 20.628906 -88.488281 20.734375 -91.5625 C 20.835938 -94.632812 20.988281 -98.21875 21.1875 -102.3125 C 21.394531 -106.40625 21.601562 -110.65625 21.8125 -115.0625 C 22.019531 -119.46875 22.171875 -123.613281 22.265625 -127.5 C 22.367188 -131.394531 22.523438 -134.671875 22.734375 -137.328125 C 22.941406 -139.992188 23.144531 -141.535156 23.34375 -141.953125 C 23.550781 -143.378906 22.9375 -145.117188 21.5 -147.171875 C 14.945312 -155.984375 13.515625 -168.890625 17.203125 -185.890625 C 18.023438 -189.160156 18.789062 -191.820312 19.5 -193.875 C 20.21875 -195.925781 21.09375 -197.359375 22.125 -198.171875 C 22.738281 -198.585938 23.351562 -199.101562 23.96875 -199.71875 C 24.164062 -199.71875 24.367188 -199.816406 24.578125 -200.015625 C 25.191406 -200.628906 26.367188 -201.5 28.109375 -202.625 C 29.847656 -203.757812 31.234375 -204.53125 32.265625 -204.9375 C 33.285156 -205.144531 34.613281 -205.863281 36.25 -207.09375 C 38.914062 -209.132812 41.273438 -209.441406 43.328125 -208.015625 C 43.941406 -207.804688 44.863281 -207.191406 46.09375 -206.171875 C 46.289062 -205.960938 46.539062 -205.703125 46.84375 -205.390625 C 47.15625 -205.085938 47.722656 -204.734375 48.546875 -204.328125 C 49.367188 -203.503906 50.597656 -203.09375 52.234375 -203.09375 C 53.671875 -203.09375 55.101562 -202.476562 56.53125 -201.25 C 57.550781 -200.226562 58.675781 -199.71875 59.90625 -199.71875 C 60.9375 -199.71875 63.910156 -200.332031 68.828125 -201.5625 C 78.660156 -204.425781 88.488281 -206.78125 98.3125 -208.625 C 108.144531 -210.46875 118.285156 -211.390625 128.734375 -211.390625 Z M 128.734375 -211.390625 "/></g></g></g><g fill="#ffffff" fill-opacity="1"><g transform="translate(1565.389906, 390.254939)"><g/></g></g><g clip-path="url(#a0f1b4e8db)"><g clip-path="url(#79634847f9)"><path fill="#ffffff" d="M 1577.265625 188.335938 L 2255.972656 188.335938 L 2255.972656 411.664062 L 1577.265625 411.664062 Z M 1577.265625 188.335938 " fill-opacity="1" fill-rule="nonzero"/></g></g><g fill="#1b0400" fill-opacity="1"><g transform="translate(1788.132696, 355.858891)"><g><path d="M 57.859375 -99.4375 C 59.117188 -99.4375 60.398438 -99.363281 61.703125 -99.21875 C 63.015625 -99.070312 64.347656 -98.898438 65.703125 -98.703125 C 66.960938 -98.515625 68.515625 -98.222656 70.359375 -97.828125 C 72.203125 -97.441406 74.066406 -96.984375 75.953125 -96.453125 C 77.847656 -95.921875 79.640625 -95.316406 81.328125 -94.640625 C 83.023438 -93.960938 84.3125 -93.1875 85.1875 -92.3125 C 87.125 -90.082031 88.53125 -87.660156 89.40625 -85.046875 C 89.789062 -83.785156 89.9375 -82.425781 89.84375 -80.96875 C 89.550781 -77.96875 88.820312 -75.304688 87.65625 -72.984375 C 87.175781 -72.015625 86.5 -71.019531 85.625 -70 C 84.75 -68.976562 84.117188 -68.46875 83.734375 -68.46875 C 83.347656 -68.46875 82.960938 -68.082031 82.578125 -67.3125 C 81.796875 -65.945312 80.875 -65.265625 79.8125 -65.265625 C 79.613281 -65.367188 79.195312 -65.6875 78.5625 -66.21875 C 77.9375 -66.75 77.257812 -67.328125 76.53125 -67.953125 C 75.8125 -68.585938 75.160156 -69.171875 74.578125 -69.703125 C 73.992188 -70.234375 73.703125 -70.550781 73.703125 -70.65625 C 73.703125 -70.945312 73.507812 -71.09375 73.125 -71.09375 C 72.738281 -71.09375 72.207031 -71.332031 71.53125 -71.8125 C 71.132812 -72.101562 70.671875 -72.414062 70.140625 -72.75 C 69.609375 -73.09375 68.90625 -73.457031 68.03125 -73.84375 C 66.476562 -74.625 65.457031 -74.941406 64.96875 -74.796875 C 64.488281 -74.648438 64.25 -74.722656 64.25 -75.015625 C 64.25 -75.492188 62.703125 -75.734375 59.609375 -75.734375 C 53.890625 -75.734375 48.847656 -73.894531 44.484375 -70.21875 C 42.546875 -68.863281 41.039062 -67.410156 39.96875 -65.859375 C 38.90625 -64.304688 37.695312 -62.222656 36.34375 -59.609375 C 35.46875 -57.671875 34.765625 -55.828125 34.234375 -54.078125 C 33.703125 -52.335938 33.335938 -50.640625 33.140625 -48.984375 C 32.753906 -45.890625 32.535156 -43.007812 32.484375 -40.34375 C 32.441406 -37.675781 32.566406 -35.375 32.859375 -33.4375 C 33.441406 -28.394531 35.085938 -24.46875 37.796875 -21.65625 C 40.515625 -18.84375 44.195312 -16.566406 48.84375 -14.828125 C 52.425781 -13.566406 55.867188 -12.9375 59.171875 -12.9375 C 63.429688 -12.9375 67.039062 -13.46875 70 -14.53125 C 72.957031 -15.601562 75.984375 -17.546875 79.078125 -20.359375 C 80.441406 -21.617188 81.679688 -22.804688 82.796875 -23.921875 C 83.910156 -25.035156 84.753906 -26.078125 85.328125 -27.046875 C 85.910156 -28.109375 86.347656 -28.640625 86.640625 -28.640625 C 86.734375 -27.765625 87.023438 -27.71875 87.515625 -28.5 C 87.804688 -28.882812 88 -29.023438 88.09375 -28.921875 C 88.195312 -28.828125 88.25 -26.40625 88.25 -21.65625 C 88.4375 -16.90625 88.53125 -14.53125 88.53125 -14.53125 C 88.726562 -14.238281 88.875 -13.269531 88.96875 -11.625 C 89.0625 -10.851562 89.15625 -10.296875 89.25 -9.953125 C 89.351562 -9.617188 89.425781 -9.378906 89.46875 -9.234375 C 89.519531 -9.085938 89.570312 -8.960938 89.625 -8.859375 C 89.675781 -8.765625 89.648438 -8.570312 89.546875 -8.28125 C 89.359375 -7.800781 89.382812 -7.582031 89.625 -7.625 C 89.863281 -7.675781 89.9375 -7.554688 89.84375 -7.265625 C 89.75 -6.972656 89.796875 -6.488281 89.984375 -5.8125 C 90.179688 -5.132812 90.28125 -4.210938 90.28125 -3.046875 C 90.28125 -1.984375 90.0625 -1.039062 89.625 -0.21875 C 89.1875 0.601562 88.726562 1.160156 88.25 1.453125 C 85.332031 3.390625 82.566406 4.960938 79.953125 6.171875 C 77.335938 7.390625 74.695312 8.335938 72.03125 9.015625 C 69.363281 9.691406 66.578125 10.175781 63.671875 10.46875 C 60.765625 10.757812 57.613281 10.90625 54.21875 10.90625 C 46.46875 10.90625 39.128906 9.253906 32.203125 5.953125 C 25.273438 2.660156 19.484375 -2.179688 14.828125 -8.578125 C 12.109375 -12.453125 10.09375 -16.765625 8.78125 -21.515625 C 7.476562 -26.265625 6.632812 -31.546875 6.25 -37.359375 C 5.769531 -46.859375 6.910156 -55.601562 9.671875 -63.59375 C 12.429688 -71.59375 16.71875 -78.453125 22.53125 -84.171875 C 27.375 -88.828125 32.75 -92.535156 38.65625 -95.296875 C 44.570312 -98.054688 50.972656 -99.4375 57.859375 -99.4375 Z M 57.859375 -99.4375 "/></g></g></g><g fill="#1b0400" fill-opacity="1"><g transform="translate(1879.280082, 355.858891)"><g><path d="M 55.828125 -100.15625 C 56.796875 -100.257812 57.882812 -100.332031 59.09375 -100.375 C 60.300781 -100.425781 61.585938 -100.40625 62.953125 -100.3125 C 65.660156 -100.3125 68.421875 -100.1875 71.234375 -99.9375 C 74.046875 -99.695312 76.757812 -99.335938 79.375 -98.859375 C 81.695312 -98.179688 83.296875 -96.628906 84.171875 -94.203125 C 84.367188 -93.710938 84.5625 -93.320312 84.75 -93.03125 C 84.945312 -92.75 85.140625 -92.460938 85.328125 -92.171875 C 86.296875 -90.910156 87.023438 -89.796875 87.515625 -88.828125 C 88.003906 -87.859375 88.34375 -86.890625 88.53125 -85.921875 C 88.726562 -85.046875 88.726562 -84.097656 88.53125 -83.078125 C 88.34375 -82.066406 88.003906 -80.976562 87.515625 -79.8125 C 87.128906 -78.9375 86.691406 -78.328125 86.203125 -77.984375 C 85.722656 -77.648438 84.460938 -77.097656 82.421875 -76.328125 C 80.003906 -75.453125 78.257812 -75.207031 77.1875 -75.59375 C 77 -75.6875 76.78125 -75.707031 76.53125 -75.65625 C 76.289062 -75.613281 76.023438 -75.59375 75.734375 -75.59375 C 75.054688 -75.5 74.671875 -75.5 74.578125 -75.59375 C 74.484375 -75.59375 74.019531 -75.613281 73.1875 -75.65625 C 72.363281 -75.707031 71.128906 -75.785156 69.484375 -75.890625 C 66.773438 -75.984375 63.894531 -75.957031 60.84375 -75.8125 C 57.789062 -75.664062 54.519531 -75.445312 51.03125 -75.15625 C 49.664062 -74.96875 48.207031 -74.726562 46.65625 -74.4375 C 45.113281 -74.144531 43.519531 -73.851562 41.875 -73.5625 C 38.28125 -72.882812 36.484375 -72.347656 36.484375 -71.953125 C 36.484375 -71.671875 36.335938 -70.070312 36.046875 -67.15625 C 35.953125 -66.09375 35.878906 -64.882812 35.828125 -63.53125 C 35.785156 -62.175781 35.710938 -60.625 35.609375 -58.875 C 35.421875 -55.476562 35.375 -53.734375 35.46875 -53.640625 L 35.609375 -53.640625 C 35.898438 -53.640625 36.382812 -53.710938 37.0625 -53.859375 C 37.75 -54.003906 38.671875 -54.175781 39.828125 -54.375 C 42.054688 -54.757812 44.238281 -55.117188 46.375 -55.453125 C 48.507812 -55.796875 50.835938 -56.113281 53.359375 -56.40625 C 54.515625 -56.601562 56.015625 -56.722656 57.859375 -56.765625 C 59.703125 -56.816406 61.882812 -56.796875 64.40625 -56.703125 C 66.925781 -56.597656 69.082031 -56.5 70.875 -56.40625 C 72.664062 -56.3125 74.140625 -56.164062 75.296875 -55.96875 C 76.554688 -55.769531 77.550781 -55.40625 78.28125 -54.875 C 79.007812 -54.34375 79.566406 -53.738281 79.953125 -53.0625 C 80.148438 -52.769531 80.320312 -52.476562 80.46875 -52.1875 C 80.613281 -51.894531 80.78125 -51.554688 80.96875 -51.171875 C 81.164062 -50.679688 81.554688 -49.953125 82.140625 -48.984375 C 82.722656 -48.015625 83.300781 -46.757812 83.875 -45.21875 C 84.5625 -43.957031 84.90625 -43.082031 84.90625 -42.59375 C 84.90625 -42.207031 84.832031 -41.648438 84.6875 -40.921875 C 84.539062 -40.191406 84.34375 -39.414062 84.09375 -38.59375 C 83.851562 -37.769531 83.585938 -37.019531 83.296875 -36.34375 C 83.003906 -35.664062 82.710938 -35.179688 82.421875 -34.890625 C 81.648438 -34.304688 80.753906 -33.941406 79.734375 -33.796875 C 78.722656 -33.648438 77.734375 -33.578125 76.765625 -33.578125 C 76.566406 -33.484375 76.367188 -33.410156 76.171875 -33.359375 C 75.984375 -33.316406 75.644531 -33.242188 75.15625 -33.140625 C 74.675781 -33.046875 74.238281 -32.945312 73.84375 -32.84375 C 73.457031 -32.75 73.171875 -32.65625 72.984375 -32.5625 C 72.785156 -32.46875 72.515625 -32.367188 72.171875 -32.265625 C 71.835938 -32.171875 71.523438 -32.078125 71.234375 -31.984375 C 70.359375 -31.785156 69.875 -31.640625 69.78125 -31.546875 C 69.6875 -31.453125 69.347656 -31.304688 68.765625 -31.109375 C 68.566406 -31.203125 68.46875 -31.25 68.46875 -31.25 L 68.328125 -31.25 L 68.609375 -31.546875 C 68.515625 -31.640625 68.175781 -31.539062 67.59375 -31.25 C 67.113281 -31.0625 66.828125 -31.160156 66.734375 -31.546875 C 66.628906 -32.515625 64.6875 -33 60.90625 -33 C 57.03125 -33 53.929688 -32.515625 51.609375 -31.546875 L 50.15625 -31.109375 C 50.15625 -31.203125 50.46875 -31.441406 51.09375 -31.828125 C 51.726562 -32.222656 52.191406 -32.566406 52.484375 -32.859375 C 52.578125 -32.953125 52.789062 -33.144531 53.125 -33.4375 C 53.46875 -33.726562 53.6875 -33.921875 53.78125 -34.015625 C 54.269531 -34.597656 54.367188 -34.84375 54.078125 -34.75 C 53.984375 -34.75 53.738281 -34.722656 53.34375 -34.671875 C 52.957031 -34.617188 52.425781 -34.546875 51.75 -34.453125 C 48.9375 -33.972656 46.851562 -33.679688 45.5 -33.578125 C 42.59375 -33.285156 40.335938 -32.921875 38.734375 -32.484375 C 37.140625 -32.054688 36.195312 -31.695312 35.90625 -31.40625 C 35.613281 -31.113281 35.421875 -27.476562 35.328125 -20.5 C 35.234375 -14.6875 35.132812 -10.375 35.03125 -7.5625 C 34.9375 -4.75 34.84375 -3.242188 34.75 -3.046875 C 34.75 -3.046875 34.648438 -1.835938 34.453125 0.578125 C 34.359375 2.222656 34.257812 3.578125 34.15625 4.640625 C 34.0625 5.710938 33.796875 6.632812 33.359375 7.40625 C 32.921875 8.1875 32.265625 8.84375 31.390625 9.375 C 30.523438 9.90625 29.316406 10.460938 27.765625 11.046875 C 25.734375 11.722656 24.179688 12.0625 23.109375 12.0625 C 22.046875 12.0625 20.835938 11.722656 19.484375 11.046875 C 17.835938 10.566406 17.015625 10.328125 17.015625 10.328125 C 16.816406 10.328125 15.796875 9.5 13.953125 7.84375 C 11.628906 5.519531 10.222656 3.289062 9.734375 1.15625 C 9.546875 0.289062 9.546875 -2.757812 9.734375 -8 C 10.410156 -19.53125 10.894531 -29.992188 11.1875 -39.390625 C 11.476562 -48.796875 11.625 -57.28125 11.625 -64.84375 L 11.78125 -73.125 L 10.609375 -74.4375 C 9.546875 -75.59375 8.769531 -76.921875 8.28125 -78.421875 C 7.800781 -79.929688 7.222656 -82.332031 6.546875 -85.625 C 6.253906 -87.175781 6.082031 -88.554688 6.03125 -89.765625 C 5.976562 -90.984375 6.148438 -91.976562 6.546875 -92.75 C 7.128906 -94.394531 7.851562 -95.125 8.71875 -94.9375 C 9.101562 -94.832031 9.25 -94.972656 9.15625 -95.359375 C 9.15625 -95.847656 9.203125 -96.09375 9.296875 -96.09375 C 9.585938 -96.09375 10.171875 -95.898438 11.046875 -95.515625 C 12.503906 -95.128906 14.878906 -94.984375 18.171875 -95.078125 C 19.816406 -95.265625 22.191406 -95.578125 25.296875 -96.015625 C 28.398438 -96.453125 32.226562 -97.0625 36.78125 -97.84375 C 39.882812 -98.320312 43.035156 -98.753906 46.234375 -99.140625 C 49.429688 -99.535156 52.628906 -99.875 55.828125 -100.15625 Z M 55.828125 -100.15625 "/></g></g></g><g fill="#1b0400" fill-opacity="1"><g transform="translate(1967.374677, 355.858891)"><g><path d="M 63.671875 -76.171875 C 63.191406 -76.273438 62.753906 -76.347656 62.359375 -76.390625 C 61.972656 -76.441406 61.6875 -76.46875 61.5 -76.46875 C 60.625 -76.46875 59.410156 -76.34375 57.859375 -76.09375 C 56.304688 -75.851562 54.707031 -75.539062 53.0625 -75.15625 C 51.414062 -74.769531 49.890625 -74.3125 48.484375 -73.78125 C 47.078125 -73.25 46.082031 -72.691406 45.5 -72.109375 C 45.3125 -72.003906 45.09375 -71.851562 44.84375 -71.65625 C 44.601562 -71.46875 44.242188 -71.28125 43.765625 -71.09375 C 41.722656 -70.019531 40.316406 -68.757812 39.546875 -67.3125 C 38.765625 -65.851562 38.132812 -62.945312 37.65625 -58.59375 C 37.457031 -57.519531 37.332031 -56.519531 37.28125 -55.59375 C 37.238281 -54.675781 37.171875 -53.6875 37.078125 -52.625 C 36.972656 -51.5625 36.921875 -50.6875 36.921875 -50 C 36.921875 -49.320312 36.875 -48.84375 36.78125 -48.5625 C 36.582031 -47.195312 36.4375 -44.53125 36.34375 -40.5625 C 36.144531 -37.550781 36.019531 -35.078125 35.96875 -33.140625 C 35.925781 -31.203125 35.859375 -29.796875 35.765625 -28.921875 C 35.765625 -27.566406 35.738281 -26.066406 35.6875 -24.421875 C 35.632812 -22.773438 35.609375 -21.078125 35.609375 -19.328125 C 35.515625 -15.742188 35.515625 -13.757812 35.609375 -13.375 C 35.898438 -12.601562 36.867188 -11.945312 38.515625 -11.40625 C 40.171875 -10.875 42.160156 -10.609375 44.484375 -10.609375 C 47.773438 -10.609375 50.847656 -11.164062 53.703125 -12.28125 C 56.566406 -13.394531 59.207031 -14.921875 61.625 -16.859375 C 64.050781 -18.796875 66.1875 -21.046875 68.03125 -23.609375 C 69.875 -26.179688 71.378906 -28.925781 72.546875 -31.84375 C 74.484375 -36.6875 75.453125 -42.691406 75.453125 -49.859375 C 75.453125 -52.191406 75.351562 -54.710938 75.15625 -57.421875 C 74.96875 -60.140625 74.457031 -62.78125 73.625 -65.34375 C 72.800781 -67.914062 71.613281 -70.191406 70.0625 -72.171875 C 68.519531 -74.160156 66.390625 -75.492188 63.671875 -76.171875 Z M 60.90625 -100.015625 C 63.625 -100.015625 65.972656 -99.941406 67.953125 -99.796875 C 69.941406 -99.648438 71.859375 -99.332031 73.703125 -98.84375 C 75.546875 -98.363281 77.363281 -97.6875 79.15625 -96.8125 C 80.945312 -95.945312 83.003906 -94.785156 85.328125 -93.328125 C 95.796875 -86.929688 102.390625 -77.722656 105.109375 -65.703125 C 105.984375 -61.929688 106.367188 -55.148438 106.265625 -45.359375 C 106.367188 -42.546875 106.320312 -40.097656 106.125 -38.015625 C 105.925781 -35.929688 105.679688 -34.160156 105.390625 -32.703125 C 104.816406 -30.378906 103.945312 -27.882812 102.78125 -25.21875 C 101.613281 -22.550781 100.300781 -19.929688 98.84375 -17.359375 C 97.394531 -14.796875 95.847656 -12.351562 94.203125 -10.03125 C 92.554688 -7.707031 90.910156 -5.671875 89.265625 -3.921875 C 84.316406 1.304688 78.378906 5.347656 71.453125 8.203125 C 64.523438 11.066406 57.28125 12.5 49.71875 12.5 C 47.488281 12.5 44.941406 12.328125 42.078125 11.984375 C 39.222656 11.648438 36.875 11 35.03125 10.03125 L 32.859375 8.875 L 31.109375 9.734375 C 30.140625 10.222656 29.21875 10.585938 28.34375 10.828125 C 27.476562 11.066406 26.609375 11.1875 25.734375 11.1875 C 24.566406 11.1875 23.304688 10.898438 21.953125 10.328125 C 20.398438 9.640625 18.21875 7.359375 15.40625 3.484375 C 15.3125 3.191406 15.117188 2.800781 14.828125 2.3125 C 14.535156 1.832031 14.195312 1.347656 13.8125 0.859375 C 13.425781 0.378906 13.0625 -0.0976562 12.71875 -0.578125 C 12.382812 -1.066406 12.117188 -1.40625 11.921875 -1.59375 C 10.273438 -4.21875 9.304688 -6.160156 9.015625 -7.421875 C 8.816406 -8.191406 8.691406 -9.253906 8.640625 -10.609375 C 8.597656 -11.960938 8.625 -13.660156 8.71875 -15.703125 C 8.820312 -17.347656 8.921875 -19.234375 9.015625 -21.359375 C 9.109375 -23.492188 9.203125 -25.875 9.296875 -28.5 C 9.296875 -30.914062 9.34375 -33.09375 9.4375 -35.03125 C 9.539062 -36.96875 9.640625 -38.765625 9.734375 -40.421875 C 9.734375 -40.898438 9.757812 -41.863281 9.8125 -43.3125 C 9.863281 -44.769531 9.9375 -46.46875 10.03125 -48.40625 C 10.125 -50.34375 10.21875 -52.351562 10.3125 -54.4375 C 10.414062 -56.519531 10.488281 -58.484375 10.53125 -60.328125 C 10.582031 -62.171875 10.65625 -63.722656 10.75 -64.984375 C 10.851562 -66.242188 10.953125 -66.96875 11.046875 -67.15625 C 11.140625 -67.84375 10.847656 -68.671875 10.171875 -69.640625 C 7.078125 -73.804688 6.398438 -79.910156 8.140625 -87.953125 C 8.523438 -89.503906 8.882812 -90.765625 9.21875 -91.734375 C 9.5625 -92.703125 9.976562 -93.378906 10.46875 -93.765625 C 10.757812 -93.960938 11.050781 -94.207031 11.34375 -94.5 C 11.4375 -94.5 11.53125 -94.546875 11.625 -94.640625 C 11.914062 -94.929688 12.472656 -95.34375 13.296875 -95.875 C 14.117188 -96.40625 14.773438 -96.769531 15.265625 -96.96875 C 15.742188 -97.0625 16.375 -97.398438 17.15625 -97.984375 C 18.414062 -98.953125 19.53125 -99.097656 20.5 -98.421875 C 20.789062 -98.328125 21.226562 -98.035156 21.8125 -97.546875 C 21.90625 -97.453125 22.023438 -97.332031 22.171875 -97.1875 C 22.316406 -97.039062 22.582031 -96.867188 22.96875 -96.671875 C 23.351562 -96.285156 23.9375 -96.09375 24.71875 -96.09375 C 25.394531 -96.09375 26.070312 -95.800781 26.75 -95.21875 C 27.226562 -94.738281 27.757812 -94.5 28.34375 -94.5 C 28.832031 -94.5 30.238281 -94.785156 32.5625 -95.359375 C 37.21875 -96.722656 41.867188 -97.835938 46.515625 -98.703125 C 51.171875 -99.578125 55.96875 -100.015625 60.90625 -100.015625 Z M 60.90625 -100.015625 "/></g></g></g></svg>