<svg width="24" height="24" viewBox="0 0 24 24" fill="none" xmlns="http://www.w3.org/2000/svg">
    <path d="M24.0001 12.0735C24.0001 5.40454 18.6271 -0.00146484 12.0001 -0.00146484C5.37007 3.51563e-05 -0.00292969 5.40454 -0.00292969 12.075C-0.00292969 18.1005 4.38607 23.0955 10.1221 24.0015V15.564H7.07707V12.075H10.1251V9.41253C10.1251 6.38704 11.9176 4.71603 14.6581 4.71603C15.9721 4.71603 17.3446 4.95154 17.3446 4.95154V7.92154H15.8311C14.3416 7.92154 13.8766 8.85303 13.8766 9.80853V12.0735H17.2036L16.6726 15.5625H13.8751V24C19.6111 23.094 24.0001 18.099 24.0001 12.0735Z" fill="white"/>
</svg>
