<svg width="24" height="24" viewBox="0 0 24 24" fill="none" xmlns="http://www.w3.org/2000/svg">
<g clip-path="url(#clip0_48_692)">
<g clip-path="url(#clip1_48_692)">
<path d="M6.43373 5.55938L3.87435 3H11.8056V10.9313L9.18998 8.31562C4.46498 12.8156 7.89623 15.8813 11.215 16.8375C5.1681 16.6125 0.780603 10.9594 6.43373 5.55938Z" fill="#325AAA"/>
<path d="M17.5662 18.4407L20.1255 21H12.1662V13.0688L14.7818 15.6844C19.5068 11.1844 16.0755 8.11879 12.7568 7.16254C18.8318 7.38754 23.2193 13.0407 17.5662 18.4407Z" fill="#8FA6D2"/>
</g>
</g>
<defs>
<clipPath id="clip0_48_692">
<path d="M0 2C0 0.89543 0.895431 0 2 0H22C23.1046 0 24 0.895431 24 2V22C24 23.1046 23.1046 24 22 24H2C0.89543 24 0 23.1046 0 22V2Z" fill="white"/>
</clipPath>
<clipPath id="clip1_48_692">
<rect width="18" height="18" fill="white" transform="translate(3 3)"/>
</clipPath>
</defs>
</svg>
