<svg width="30" height="24" viewBox="0 0 30 24" fill="none" xmlns="http://www.w3.org/2000/svg">
<path d="M26.5987 3H3.51797C3.42184 3 3.32555 3 3.22959 3.00056C3.14848 3.00114 3.06755 3.00204 2.98663 3.00425C2.81014 3.00902 2.63213 3.01943 2.45785 3.05076C2.28078 3.08262 2.11601 3.1346 1.95526 3.21644C1.79723 3.29681 1.65256 3.40192 1.52718 3.52735C1.40175 3.65278 1.29664 3.79722 1.21629 3.95542C1.13443 4.11616 1.08242 4.28099 1.05077 4.45819C1.01928 4.63253 1.0088 4.8105 1.00404 4.9868C1.00186 5.06773 1.00093 5.14865 1.0004 5.22956C0.999843 5.32572 1.00003 5.42181 1.00003 5.51815V18.482C1.00003 18.5784 0.999843 18.6743 1.0004 18.7706C1.00093 18.8516 1.00186 18.9325 1.00404 19.0134C1.0088 19.1896 1.01928 19.3675 1.05077 19.5418C1.08242 19.7191 1.13443 19.8838 1.21629 20.0446C1.29664 20.2028 1.40175 20.3474 1.52718 20.4727C1.65256 20.5983 1.79723 20.7034 1.95526 20.7836C2.11601 20.8656 2.28078 20.9176 2.45785 20.9495C2.63213 20.9806 2.81014 20.9912 2.98663 20.996C3.06755 20.9978 3.14848 20.9989 3.22959 20.9993C3.32555 21 3.42184 21 3.51797 21H26.5987C26.6946 21 26.7909 21 26.8869 20.9993C26.9678 20.9989 27.0487 20.9978 27.13 20.996C27.3061 20.9912 27.4841 20.9806 27.6588 20.9495C27.8356 20.9176 28.0004 20.8656 28.1612 20.7836C28.3194 20.7034 28.4637 20.5983 28.5893 20.4727C28.7145 20.3474 28.8196 20.2028 28.9002 20.0446C28.9822 19.8838 29.0342 19.7191 29.0657 19.5418C29.0972 19.3675 29.1074 19.1896 29.1122 19.0134C29.1144 18.9325 29.1155 18.8516 29.1159 18.7706C29.1166 18.6743 29.1166 18.5784 29.1166 18.482V5.51815C29.1166 5.42181 29.1166 5.32572 29.1159 5.22956C29.1155 5.14865 29.1144 5.06773 29.1122 4.9868C29.1074 4.8105 29.0972 4.63253 29.0657 4.45819C29.0342 4.28099 28.9822 4.11616 28.9002 3.95542C28.8196 3.79722 28.7145 3.65278 28.5893 3.52735C28.4637 3.40192 28.3194 3.29681 28.1612 3.21644C28.0004 3.1346 27.8356 3.08262 27.6588 3.05076C27.4841 3.01943 27.3061 3.00902 27.13 3.00425C27.0487 3.00204 26.9678 3.00114 26.8869 3.00056C26.7909 3 26.6946 3 26.5987 3Z" fill="black"/>
<path d="M26.5987 3.59998L26.8826 3.60052C26.9595 3.60106 27.0364 3.6019 27.1138 3.604C27.2483 3.60764 27.4057 3.61492 27.5524 3.64122C27.6799 3.66419 27.7869 3.69911 27.8895 3.75136C27.9908 3.80285 28.0837 3.87032 28.1647 3.95126C28.2461 4.03275 28.3136 4.12573 28.3658 4.22818C28.4178 4.33001 28.4525 4.43645 28.4753 4.56491C28.5015 4.71001 28.5088 4.86781 28.5125 5.00318C28.5145 5.07959 28.5156 5.15599 28.5159 5.23422C28.5167 5.32882 28.5166 5.42336 28.5166 5.51815V18.482C28.5166 18.5768 28.5167 18.6712 28.5159 18.7678C28.5156 18.8442 28.5145 18.9206 28.5124 18.9972C28.5088 19.1323 28.5015 19.2901 28.475 19.4369C28.4525 19.5636 28.4178 19.67 28.3655 19.7724C28.3135 19.8745 28.2461 19.9674 28.1651 20.0484C28.0835 20.1299 27.991 20.1972 27.8885 20.2492C27.7866 20.3012 27.6798 20.3361 27.5536 20.3588C27.4039 20.3855 27.2399 20.3928 27.1164 20.3961C27.0387 20.3979 26.9614 20.3989 26.8822 20.3993C26.7878 20.4 26.6931 20.4 26.5987 20.4H3.51798C3.51672 20.4 3.5155 20.4 3.51422 20.4C3.4209 20.4 3.32739 20.4 3.23236 20.3993C3.15489 20.3989 3.07758 20.3979 3.00284 20.3962C2.87653 20.3928 2.71245 20.3855 2.564 20.359C2.43666 20.3361 2.32989 20.3012 2.22668 20.2485C2.12512 20.197 2.03266 20.1298 1.95111 20.0481C1.87018 19.9673 1.80293 19.8747 1.75093 19.7724C1.69889 19.6701 1.66406 19.5634 1.64117 19.4352C1.6147 19.2886 1.60743 19.1315 1.6038 18.9973C1.60172 18.9204 1.60086 18.8436 1.60036 18.7672L1.59999 18.5416L1.60001 18.482V5.51815L1.59999 5.4586L1.60035 5.2335C1.60086 5.15664 1.60172 5.07979 1.6038 5.00299C1.60743 4.86861 1.6147 4.71145 1.64139 4.5637C1.66408 4.43666 1.69889 4.32988 1.75121 4.22713C1.8028 4.12556 1.87016 4.03285 1.95152 3.95152C2.03254 3.87046 2.12531 3.80307 2.22751 3.75109C2.32962 3.69909 2.43659 3.66419 2.56394 3.64127C2.71067 3.61491 2.86815 3.60764 3.00303 3.60398C3.07991 3.6019 3.15679 3.60106 3.23309 3.60054L3.51798 3.59998H26.5987Z" fill="white"/>
<path d="M8.67567 9.05416C8.91641 8.75305 9.07978 8.34874 9.03669 7.93558C8.68427 7.9531 8.25422 8.16808 8.00524 8.46943C7.78169 8.72749 7.58382 9.14873 7.6354 9.54457C8.031 9.57888 8.42624 9.34683 8.67567 9.05416Z" fill="black"/>
<path d="M9.03219 9.62189C8.45768 9.58767 7.96921 9.94795 7.69485 9.94795C7.42034 9.94795 7.00021 9.63914 6.5458 9.64746C5.95436 9.65615 5.40558 9.99055 5.10545 10.5224C4.48813 11.5864 4.94254 13.1646 5.54285 14.0312C5.83437 14.4599 6.1857 14.932 6.64864 14.915C7.08604 14.8978 7.25748 14.6318 7.78916 14.6318C8.32044 14.6318 8.47487 14.915 8.93789 14.9064C9.41804 14.8978 9.71822 14.4775 10.0097 14.0484C10.3442 13.5597 10.4811 13.0878 10.4897 13.0619C10.4811 13.0533 9.56382 12.7014 9.55531 11.6463C9.54665 10.7628 10.2755 10.3425 10.3098 10.3165C9.8982 9.70777 9.25513 9.63914 9.03219 9.62189Z" fill="black"/>
<path d="M14.0346 8.42627C15.2832 8.42627 16.1527 9.287 16.1527 10.5402C16.1527 11.7978 15.2654 12.663 14.0032 12.663H12.6207V14.8616H11.6218V8.42627H14.0346V8.42627ZM12.6207 11.8245H13.7669C14.6365 11.8245 15.1315 11.3563 15.1315 10.5446C15.1315 9.73302 14.6365 9.26919 13.7713 9.26919H12.6207V11.8245Z" fill="black"/>
<path d="M16.4137 13.5281C16.4137 12.7075 17.0426 12.2036 18.1576 12.1411L19.4419 12.0653V11.7041C19.4419 11.1823 19.0895 10.8702 18.501 10.8702C17.9434 10.8702 17.5955 11.1377 17.5109 11.5569H16.6011C16.6546 10.7095 17.377 10.0852 18.5366 10.0852C19.6738 10.0852 20.4007 10.6873 20.4007 11.6283V14.8615H19.4775V14.09H19.4553C19.1833 14.6118 18.5901 14.9418 17.9747 14.9418C17.056 14.9418 16.4137 14.371 16.4137 13.5281ZM19.4419 13.1045V12.7343L18.2868 12.8056C17.7115 12.8458 17.386 13.1 17.386 13.5014C17.386 13.9116 17.7249 14.1792 18.2422 14.1792C18.9156 14.1792 19.4419 13.7154 19.4419 13.1045Z" fill="black"/>
<path d="M21.2722 16.5875V15.8071C21.3435 15.8249 21.504 15.8249 21.5843 15.8249C22.0303 15.8249 22.2711 15.6376 22.4182 15.156C22.4182 15.147 22.503 14.8705 22.503 14.8661L20.8084 10.17H21.8519L23.0383 13.9875H23.056L24.2424 10.17H25.2592L23.5019 15.1068C23.1007 16.2441 22.6369 16.6098 21.6647 16.6098C21.5843 16.6098 21.3435 16.6009 21.2722 16.5875Z" fill="black"/>
</svg>
