<svg width="24" height="24" viewBox="0 0 24 24" fill="none" xmlns="http://www.w3.org/2000/svg">
<path d="M19.3801 22.11C19.3801 22.5056 19.0599 22.8258 18.6644 22.8258H5.38527C4.99443 22.8258 4.67422 22.5056 4.67422 22.11V1.88526C4.67422 1.48972 4.99443 1.16951 5.38527 1.16951H18.6691C19.0646 1.16951 19.3848 1.48972 19.3848 1.88526V22.11H19.3801Z" fill="#0C2C65"/>
<path d="M16.0698 16.8596C15.8814 16.8596 15.8014 16.8549 15.7213 16.8549C15.6366 16.8549 15.5424 16.869 15.4953 17.0009L15.3305 17.3022L14.6618 18.4842L13.9931 17.3022L13.8283 17.0056C13.7812 16.8737 13.6871 16.8596 13.6023 16.8596C13.5223 16.8596 13.4375 16.8643 13.2539 16.8643C13.0702 16.8643 13.1408 17.0056 13.1408 17.0056C13.1408 17.0056 13.8189 18.2063 14.3604 19.1764C14.3604 19.1764 14.351 20.3301 14.351 20.4101C14.351 20.4902 14.3934 20.542 14.4829 20.542H14.8031C14.8596 20.542 14.9632 20.5372 14.9632 20.4148L14.9585 19.1764C15.5047 18.2063 16.1781 17.0056 16.1781 17.0056C16.1781 17.0056 16.2534 16.8596 16.0698 16.8596ZM9.23245 16.8643H7.89512C7.7774 16.8643 7.76327 16.9585 7.76327 17.0197C7.76327 17.0809 7.76327 20.4054 7.76327 20.4054C7.76327 20.5467 7.89041 20.5372 7.90454 20.5372H8.24829C8.30479 20.5372 8.36601 20.4902 8.36601 20.4289V19.214H9.23245C9.88228 19.214 10.4097 18.6866 10.4097 18.0368C10.405 17.387 9.88228 16.8643 9.23245 16.8643ZM9.22303 18.6301H8.36601V17.467H9.22303C9.54324 17.467 9.80223 17.726 9.80223 18.0509C9.80223 18.3759 9.54324 18.6301 9.22303 18.6301ZM12.3733 17.015C12.3262 16.9208 12.2932 16.8596 12.1284 16.8596H11.6952C11.5304 16.8596 11.4974 16.9208 11.4503 17.015C11.408 17.1045 10.1978 20.396 10.1978 20.396C10.1978 20.396 10.1271 20.5372 10.3108 20.5372C10.4991 20.5372 10.5368 20.542 10.6169 20.542C10.7016 20.542 10.7958 20.5278 10.8429 20.396C10.8806 20.283 11.0642 19.7791 11.0642 19.7791H12.7641C12.7641 19.7791 12.9478 20.283 12.9854 20.396C13.0325 20.5278 13.1267 20.542 13.2115 20.542C13.2915 20.542 13.3292 20.5372 13.5176 20.5372C13.7012 20.5372 13.6306 20.396 13.6306 20.396C13.6306 20.396 12.4157 17.1092 12.3733 17.015ZM11.3138 19.1764L11.9165 17.467L12.5569 19.1764H11.3138ZM18.8433 1H5.21104C4.82021 1 4.5 1.32021 4.5 1.71575V22.2842C4.5 22.6798 4.82021 23 5.21104 23H18.8386C19.2342 23 19.5544 22.6798 19.5544 22.2842V1.71575C19.5544 1.32021 19.2342 1 18.8433 1ZM9.96704 6.43878H12.3968C13.0372 6.43878 13.5505 6.98502 13.5505 7.62072C13.5505 8.26113 13.0372 8.7744 12.3968 8.7744L11.9777 8.79795C11.7517 8.80736 11.634 8.93921 11.6293 9.1464V10.5638C11.6434 10.7898 11.7847 10.9075 12.0013 10.9075H13.0467C13.7389 10.9075 14.3039 11.4726 14.3039 12.1601C14.3039 12.8146 13.8001 13.3515 13.1597 13.4033L10.3296 13.408C10.1177 13.4033 9.98116 13.2808 9.97175 13.0501V6.43878H9.96704ZM5.52183 2.35616C5.52183 2.17723 5.65839 2.03125 5.83262 2.01712H7.76327V4.25385H5.52183V2.35616ZM18.5372 21.6109C18.5372 21.7945 18.4431 21.9688 18.1747 21.9735H5.86087C5.85146 21.9735 5.84675 21.9735 5.83733 21.9735C5.6631 21.964 5.52183 21.8181 5.52183 21.6391C5.52183 21.6391 5.52183 12.1695 5.52183 6.5H9.27483L7.76327 7.05094V15.3433C7.76327 15.5741 7.89041 15.6965 8.08818 15.7153H13.1832C14.9255 15.6588 16.3193 14.232 16.3193 12.4756C16.3193 11.3266 15.7213 10.3142 14.8172 9.73973C15.3823 9.24058 15.8061 8.42123 15.8061 7.61601C15.8061 5.46875 14.2851 4.25385 12.1143 4.25385H10V2.02183C13.5835 2.02183 18.1747 2.02183 18.1747 2.02183C18.4525 2.02183 18.5372 2.20548 18.5372 2.38442V21.6109Z" fill="white"/>
</svg>
