<svg xmlns="http://www.w3.org/2000/svg" xmlns:xlink="http://www.w3.org/1999/xlink" viewBox="0 0 153.05 153.05"><defs><clipPath id="a"><rect width="153.05" height="153.05" fill="none"/></clipPath><linearGradient id="b" x1="104.9" y1="14.98" x2="48.13" y2="144.04" gradientTransform="matrix(1, 0, 0, -1, 0, 156)" gradientUnits="userSpaceOnUse"><stop offset="0" stop-color="#63f0eb"/><stop offset="1" stop-color="#11afff"/></linearGradient><linearGradient id="c" x1="106.68" y1="47.49" x2="45.94" y2="111.93" gradientTransform="matrix(1, 0, 0, -1, 0, 156)" gradientUnits="userSpaceOnUse"><stop offset="0" stop-color="#fff"/><stop offset="1" stop-color="#11afff"/></linearGradient><linearGradient id="d" x1="124.81" y1="28.25" x2="27.52" y2="131.46" xlink:href="#c"/></defs><g clip-path="url(#a)"><path d="M76.53,153.05a76.53,76.53,0,1,1,76.53-76.52,76.61,76.61,0,0,1-76.53,76.52Zm0-151.53a75,75,0,1,0,75,75A75.08,75.08,0,0,0,76.53,1.52Z" fill="url(#b)"/><path d="M91.68,76.53A15.11,15.11,0,1,1,91,72l23.71-7c0-.16-.08-.32-.13-.49a40.33,40.33,0,1,0,.68,2.45l-23.8,7a15.42,15.42,0,0,1,.23,2.56Z" fill="url(#c)"/><path d="M76.53,12.6a63.93,63.93,0,1,0,63.93,63.93A63.93,63.93,0,0,0,76.53,12.6Zm51.32,50.59L125,64a50.06,50.06,0,0,1-96.2,27.64,50.07,50.07,0,1,1,95.45-30.28l.2.68,2.81-.83a1,1,0,1,1,.58,1.95Z" fill="url(#d)"/><path d="M125,61.89l2-9.5-8.61,2.66a19.88,19.88,0,0,0-13.13,12.68Z" fill="#2e86fe"/><path d="M125.22,64l-19.68,5.82a24,24,0,0,0,20.08,2.91l7.68-2.36Z" fill="#2e86fe"/></g></svg>