<svg xmlns="http://www.w3.org/2000/svg" viewBox="0 0 66 51"><path d="M6,51a5.81,5.81,0,0,1-4.24-1.76,6,6,0,0,1,0-8.48A5.81,5.81,0,0,1,6,39h.79a1.93,1.93,0,0,1,.71.15L21.15,25.5a1.93,1.93,0,0,1-.15-.71V24a6,6,0,0,1,10.24-4.24A5.81,5.81,0,0,1,33,24q0,.15-.15,1.5l7.65,7.65a1.93,1.93,0,0,1,.71-.15h1.58a1.93,1.93,0,0,1,.71.15L54.15,22.5a1.93,1.93,0,0,1-.15-.71V21a6,6,0,1,1,10.24,4.24A5.81,5.81,0,0,1,60,27h-.79a1.93,1.93,0,0,1-.71-.15L47.85,37.5a1.93,1.93,0,0,1,.15.71V39a6,6,0,0,1-12,0v-.79a1.93,1.93,0,0,1,.15-.71L28.5,29.85a1.93,1.93,0,0,1-.71.15H27q-.15,0-1.5-.15L11.85,43.5a1.93,1.93,0,0,1,.15.71V45a5.81,5.81,0,0,1-1.76,4.24A5.81,5.81,0,0,1,6,51ZM9,20.92l-1.88-4L3.08,15l4-1.88L9,9.07l1.88,4,4,1.88-4,1.88ZM42,18l-2.85-6.15L33,9l6.15-2.85L42,0l2.85,6.15L51,9l-6.15,2.85Z" fill="#11afff"/></svg>