<svg xmlns="http://www.w3.org/2000/svg" xmlns:xlink="http://www.w3.org/1999/xlink" viewBox="0 0 116.85 153.05"><defs><clipPath id="a"><rect width="116.85" height="153.05" fill="none"/></clipPath><linearGradient id="b" x1="94.9" y1="23.54" x2="28.12" y2="139.19" gradientTransform="matrix(1, 0, 0, -1, 0, 156)" gradientUnits="userSpaceOnUse"><stop offset="0" stop-color="#63f0eb"/><stop offset="1" stop-color="#11afff"/></linearGradient><linearGradient id="c" x1="85.79" y1="139.4" x2="15.11" y2="-1.08" gradientTransform="matrix(1, 0, 0, -1, 0, 156)" gradientUnits="userSpaceOnUse"><stop offset="0" stop-color="#fff"/><stop offset="1" stop-color="#11afff"/></linearGradient></defs><g clip-path="url(#a)"><path d="M59.23,153.05,24.54,132.78A50.64,50.64,0,0,1,0,89.52V36.41A2.9,2.9,0,0,1,1.38,34L56.11.65a4.43,4.43,0,0,1,4.63,0l54.72,33.29a2.9,2.9,0,0,1,1.39,2.46V89.51a50.67,50.67,0,0,1-24.53,43.26L59.24,153.05ZM58.43,1.33a3.06,3.06,0,0,0-1.62.46L2.08,35.08a1.55,1.55,0,0,0-.75,1.33V89.52a49.3,49.3,0,0,0,23.89,42.12l34,19.87,32.41-19.86a49.33,49.33,0,0,0,23.89-42.12V36.41a1.55,1.55,0,0,0-.74-1.32L60.05,1.79A3.06,3.06,0,0,0,58.43,1.33Z" fill="url(#b)"/><path d="M106.9,40.28,61.16,11.65a3.67,3.67,0,0,0-3.88,0L11.57,40.29a2.11,2.11,0,0,0-1,1.81V85.8a47.9,47.9,0,0,0,22.78,40.78l25.88,15.94,25.88-15.94A47.88,47.88,0,0,0,107.89,85.8V42.09a2.16,2.16,0,0,0-1-1.81Zm-23,23.12L62,96.29a5,5,0,0,1-3.24,2.13,5.26,5.26,0,0,1-.89.08A5,5,0,0,1,55,97.57L41.57,87.94a5,5,0,0,1,5.78-8l9.24,6.63,19-28.62a5,5,0,1,1,8.25,5.49Z" fill="url(#c)"/></g></svg>