<svg xmlns="http://www.w3.org/2000/svg" fill="none" viewBox="0 0 130 130"><path fill="url(#paint0_linear_12095_6046)" d="M111.88 103.504c-.373 1.456-1.284 2.688-3.287 4.189-5.207 3.9-14.546 7.368-26.536 8.969-12.394 1.656-25.807 1.565-37.77-.252-7.755-1.178-14.392-3.024-19.196-5.34-4.168-2.009-6.847-4.338-7.542-6.557-.67-2.137.513-4.359 3.513-6.605 5.207-3.9 15.07-7.055 27.061-8.656 5.842-.78 11.91-1.173 17.946-1.18 60.314-.067 17.872-11.235-20.926-6.054-14.791 1.976-26.692 5.876-33.51 10.98-2.592 1.942-4.425 4.034-5.445 6.218-1.076 2.3-1.25 4.649-.52 6.982 1.262 4.031 5.258 7.766 11.558 10.802 5.995 2.89 14.118 5.17 23.49 6.594 7.437 1.13 15.346 1.692 23.3 1.684 7.08-.008 14.195-.469 21.042-1.383 14.79-1.976 26.692-5.875 33.509-10.981 3.856-2.887 5.545-5.728 6.138-8.17 1.152-4.75-11.918-4.79-12.825-1.24Z"/><path fill="#C5DEFB" d="M100.561 56.685c-.014-2.315-1.777-4.407-3.937-4.672l-52.276-6.419a1.245 1.245 0 0 0-.07-.007c-.04-.005-.082-.006-.123-.009-.046-.003-.091-.008-.137-.01-.053-.002-.105 0-.158 0h-.132a3.738 3.738 0 0 0-.157.01c-.042.003-.086.006-.128.011l-.154.023c-.04.006-.082.012-.122.02-.052.01-.103.022-.154.035l-.115.027-.156.05c-.035.011-.07.021-.103.034-.057.02-.112.045-.168.069-.027.012-.056.021-.083.033-.082.037-.161.078-.239.12l-.002.001-10.74 5.925c.078-.043.158-.084.24-.12l.083-.034c.055-.024.11-.048.167-.069.034-.012.068-.021.103-.033.052-.018.103-.035.157-.05.037-.011.076-.019.114-.027.051-.013.102-.027.154-.036.04-.008.082-.013.122-.02a2.45 2.45 0 0 1 .283-.034c.052-.004.103-.008.156-.01.044-.003.088 0 .133 0h.157l.137.01c.064.005.129.01.194.017l52.275 6.418c2.16.266 3.923 2.358 3.937 4.672l.266 42.132c.01 1.499-.716 2.724-1.814 3.33l10.74-5.926c1.099-.605 1.825-1.83 1.815-3.33l-.266-42.13h.001Z"/><path fill="url(#paint1_radial_12095_6046)" fill-opacity=".3" d="M100.561 56.685c-.014-2.315-1.777-4.407-3.937-4.672l-52.276-6.419a1.245 1.245 0 0 0-.07-.007c-.04-.005-.082-.006-.123-.009-.046-.003-.091-.008-.137-.01-.053-.002-.105 0-.158 0h-.132a3.738 3.738 0 0 0-.157.01c-.042.003-.086.006-.128.011l-.154.023c-.04.006-.082.012-.122.02-.052.01-.103.022-.154.035l-.115.027-.156.05c-.035.011-.07.021-.103.034-.057.02-.112.045-.168.069-.027.012-.056.021-.083.033-.082.037-.161.078-.239.12l-.002.001-10.74 5.925c.078-.043.158-.084.24-.12l.083-.034c.055-.024.11-.048.167-.069.034-.012.068-.021.103-.033.052-.018.103-.035.157-.05.037-.011.076-.019.114-.027.051-.013.102-.027.154-.036.04-.008.082-.013.122-.02a2.45 2.45 0 0 1 .283-.034c.052-.004.103-.008.156-.01.044-.003.088 0 .133 0h.157l.137.01c.064.005.129.01.194.017l52.275 6.418c2.16.266 3.923 2.358 3.937 4.672l.266 42.132c.01 1.499-.716 2.724-1.814 3.33l10.74-5.926c1.099-.605 1.825-1.83 1.815-3.33l-.266-42.13h.001Z"/><path fill="url(#paint2_linear_12095_6046)" fill-opacity=".5" d="M100.561 56.685c-.014-2.315-1.777-4.407-3.937-4.672l-52.276-6.419a1.245 1.245 0 0 0-.07-.007c-.04-.005-.082-.006-.123-.009-.046-.003-.091-.008-.137-.01-.053-.002-.105 0-.158 0h-.132a3.738 3.738 0 0 0-.157.01c-.042.003-.086.006-.128.011l-.154.023c-.04.006-.082.012-.122.02-.052.01-.103.022-.154.035l-.115.027-.156.05c-.035.011-.07.021-.103.034-.057.02-.112.045-.168.069-.027.012-.056.021-.083.033-.082.037-.161.078-.239.12l-.002.001-10.74 5.925c.078-.043.158-.084.24-.12l.083-.034c.055-.024.11-.048.167-.069.034-.012.068-.021.103-.033.052-.018.103-.035.157-.05.037-.011.076-.019.114-.027.051-.013.102-.027.154-.036.04-.008.082-.013.122-.02a2.45 2.45 0 0 1 .283-.034c.052-.004.103-.008.156-.01.044-.003.088 0 .133 0h.157l.137.01c.064.005.129.01.194.017l52.275 6.418c2.16.266 3.923 2.358 3.937 4.672l.266 42.132c.01 1.499-.716 2.724-1.814 3.33l10.74-5.926c1.099-.605 1.825-1.83 1.815-3.33l-.266-42.13h.001Z"/><path fill="url(#paint3_radial_12095_6046)" d="M83.433 61.498c1.023.123 1.864 1.122 1.87 2.218l.266 42.132c.009 1.098-.822 1.891-1.844 1.764l-52.523-6.449c-1.024-.124-1.865-1.123-1.87-2.22l-.265-41.866c-.01-1.244.93-2.142 2.09-1.998l52.275 6.419h.001Z"/><path fill="url(#paint4_radial_12095_6046)" d="M83.433 61.498c1.023.123 1.864 1.122 1.87 2.218l.266 42.132c.009 1.098-.822 1.891-1.844 1.764l-52.523-6.449c-1.024-.124-1.865-1.123-1.87-2.22l-.265-41.866c-.01-1.244.93-2.142 2.09-1.998l52.275 6.419h.001Z"/><path fill="#ECF6FF" d="M89.859 62.608c0-.082-.005-.165-.009-.246l-.005-.078a4.528 4.528 0 0 0-.054-.426c-.004-.025-.007-.05-.013-.075a5.355 5.355 0 0 0-.05-.238v-.003a4.276 4.276 0 0 0-.062-.23l-.023-.073a2.827 2.827 0 0 0-.053-.161l-.028-.08a4.808 4.808 0 0 0-.062-.158l-.028-.069a5.735 5.735 0 0 0-.1-.22l-.002-.006a5.45 5.45 0 0 0-.107-.206l-.037-.066a3.762 3.762 0 0 0-.085-.145l-.043-.07a4.594 4.594 0 0 0-.093-.14l-.04-.062a5.036 5.036 0 0 0-.141-.191l-.008-.01a3.568 3.568 0 0 0-.192-.23 3.712 3.712 0 0 0-.169-.182l-.118-.117-.052-.05a4.739 4.739 0 0 0-.175-.156h-.001a4.868 4.868 0 0 0-.21-.165l-.057-.042c-.07-.05-.14-.1-.213-.146l-.008-.007a4.88 4.88 0 0 0-.229-.135l-.06-.033a4.553 4.553 0 0 0-.216-.109l-.024-.012c-.08-.037-.16-.07-.243-.1l-.063-.024a5.187 5.187 0 0 0-.22-.073l-.037-.011a3.955 3.955 0 0 0-.543-.116c-.011 0-.023-.004-.034-.005a.314.314 0 0 1-.031-.004l-52.314-6.416a3.343 3.343 0 0 0-.231-.02l-.063-.004a3.497 3.497 0 0 0-.186-.004h-.046c-.074 0-.148.004-.22.01-.018 0-.035.003-.053.004-.059.006-.116.011-.174.02l-.057.007a3.347 3.347 0 0 0-.421.09l-.058.017a3.836 3.836 0 0 0-.172.055l-.031.011c-.065.024-.13.05-.193.077-.017.008-.033.016-.05.022l-.15.072-.046.024c-.061.032-.12.066-.18.102l-.032.02a4.14 4.14 0 0 0-.194.129 4.04 4.04 0 0 0-.155.118l-.01.009a4.62 4.62 0 0 0-.159.137l-.04.04a6.07 6.07 0 0 0-.153.151 3.765 3.765 0 0 0-.138.157l-.03.036c-.035.044-.07.089-.104.135-.006.008-.014.017-.02.027a.58.58 0 0 0-.017.023l-.07.102a4.12 4.12 0 0 0-.119.19l-.013.023c-.031.054-.06.11-.09.166-.009.016-.016.034-.025.051-.02.04-.04.08-.058.122l-.028.065a4.907 4.907 0 0 0-.047.113l-.027.07a3.531 3.531 0 0 0-.041.117l-.024.07a5.659 5.659 0 0 0-.038.129l-.017.06a3.586 3.586 0 0 0-.048.195l-.462 2.111c.014-.066.032-.13.052-.193a2.137 2.137 0 0 1 .07-.184l.03-.066a2.4 2.4 0 0 1 .054-.108l.037-.064c.02-.035.043-.067.065-.101l.046-.065.026-.034.08-.096.02-.021c.033-.037.069-.072.106-.105l.027-.023a1.916 1.916 0 0 1 .378-.255l.038-.018c.04-.019.082-.036.123-.053l.016-.006c.047-.018.096-.032.145-.046l.039-.01a1.378 1.378 0 0 1 .156-.031 1.79 1.79 0 0 1 .155-.017c.01 0 .021 0 .031-.002.044-.002.087-.003.132-.002l.044.001c.055.003.11.006.165.013l52.275 6.42c.06.007.117.018.176.03l.044.01a2.47 2.47 0 0 1 .175.053c.05.017.098.037.146.057l.015.007c.053.024.104.05.154.08l.042.024.11.07.041.029a2.136 2.136 0 0 1 .267.226l.027.026c.04.04.078.083.115.126l.018.023a2.15 2.15 0 0 1 .208.294l.02.032c.029.051.058.104.083.157v.002c.026.053.05.108.07.162l.015.036c.02.054.04.11.055.166.004.01.006.02.008.028a2.7 2.7 0 0 1 .038.157l.007.028c.01.058.02.116.025.175l.003.04c.005.06.009.121.01.182l.266 42.132c.009 1.098-.87 1.793-1.892 1.666l-52.84-6.443 2.843.934 52.522 6.449c2.16.266 3.937-1.4 3.922-3.716l-.267-42.132.006-.007Z"/><path fill="url(#paint5_linear_12095_6046)" fill-opacity=".3" d="M89.859 62.608c0-.082-.005-.165-.009-.246l-.005-.078a4.528 4.528 0 0 0-.054-.426c-.004-.025-.007-.05-.013-.075a5.355 5.355 0 0 0-.05-.238v-.003a4.276 4.276 0 0 0-.062-.23l-.023-.073a2.827 2.827 0 0 0-.053-.161l-.028-.08a4.808 4.808 0 0 0-.062-.158l-.028-.069a5.735 5.735 0 0 0-.1-.22l-.002-.006a5.45 5.45 0 0 0-.107-.206l-.037-.066a3.762 3.762 0 0 0-.085-.145l-.043-.07a4.594 4.594 0 0 0-.093-.14l-.04-.062a5.036 5.036 0 0 0-.141-.191l-.008-.01a3.568 3.568 0 0 0-.192-.23 3.712 3.712 0 0 0-.169-.182l-.118-.117-.052-.05a4.739 4.739 0 0 0-.175-.156h-.001a4.868 4.868 0 0 0-.21-.165l-.057-.042c-.07-.05-.14-.1-.213-.146l-.008-.007a4.88 4.88 0 0 0-.229-.135l-.06-.033a4.553 4.553 0 0 0-.216-.109l-.024-.012c-.08-.037-.16-.07-.243-.1l-.063-.024a5.187 5.187 0 0 0-.22-.073l-.037-.011a3.955 3.955 0 0 0-.543-.116c-.011 0-.023-.004-.034-.005a.314.314 0 0 1-.031-.004l-52.314-6.416a3.343 3.343 0 0 0-.231-.02l-.063-.004a3.497 3.497 0 0 0-.186-.004h-.046c-.074 0-.148.004-.22.01-.018 0-.035.003-.053.004-.059.006-.116.011-.174.02l-.057.007a3.347 3.347 0 0 0-.421.09l-.058.017a3.836 3.836 0 0 0-.172.055l-.031.011c-.065.024-.13.05-.193.077-.017.008-.033.016-.05.022l-.15.072-.046.024c-.061.032-.12.066-.18.102l-.032.02a4.14 4.14 0 0 0-.194.129 4.04 4.04 0 0 0-.155.118l-.01.009a4.62 4.62 0 0 0-.159.137l-.04.04a6.07 6.07 0 0 0-.153.151 3.765 3.765 0 0 0-.138.157l-.03.036c-.035.044-.07.089-.104.135-.006.008-.014.017-.02.027a.58.58 0 0 0-.017.023l-.07.102a4.12 4.12 0 0 0-.119.19l-.013.023c-.031.054-.06.11-.09.166-.009.016-.016.034-.025.051-.02.04-.04.08-.058.122l-.028.065a4.907 4.907 0 0 0-.047.113l-.027.07a3.531 3.531 0 0 0-.041.117l-.024.07a5.659 5.659 0 0 0-.038.129l-.017.06a3.586 3.586 0 0 0-.048.195l-.462 2.111c.014-.066.032-.13.052-.193a2.137 2.137 0 0 1 .07-.184l.03-.066a2.4 2.4 0 0 1 .054-.108l.037-.064c.02-.035.043-.067.065-.101l.046-.065.026-.034.08-.096.02-.021c.033-.037.069-.072.106-.105l.027-.023a1.916 1.916 0 0 1 .378-.255l.038-.018c.04-.019.082-.036.123-.053l.016-.006c.047-.018.096-.032.145-.046l.039-.01a1.378 1.378 0 0 1 .156-.031 1.79 1.79 0 0 1 .155-.017c.01 0 .021 0 .031-.002.044-.002.087-.003.132-.002l.044.001c.055.003.11.006.165.013l52.275 6.42c.06.007.117.018.176.03l.044.01a2.47 2.47 0 0 1 .175.053c.05.017.098.037.146.057l.015.007c.053.024.104.05.154.08l.042.024.11.07.041.029a2.136 2.136 0 0 1 .267.226l.027.026c.04.04.078.083.115.126l.018.023a2.15 2.15 0 0 1 .208.294l.02.032c.029.051.058.104.083.157v.002c.026.053.05.108.07.162l.015.036c.02.054.04.11.055.166.004.01.006.02.008.028a2.7 2.7 0 0 1 .038.157l.007.028c.01.058.02.116.025.175l.003.04c.005.06.009.121.01.182l.266 42.132c.009 1.098-.87 1.793-1.892 1.666l-52.84-6.443 2.843.934 52.522 6.449c2.16.266 3.937-1.4 3.922-3.716l-.267-42.132.006-.007Z"/><path fill="url(#paint6_linear_12095_6046)" fill-opacity=".3" d="M89.859 62.608c0-.082-.005-.165-.009-.246l-.005-.078a4.528 4.528 0 0 0-.054-.426c-.004-.025-.007-.05-.013-.075a5.355 5.355 0 0 0-.05-.238v-.003a4.276 4.276 0 0 0-.062-.23l-.023-.073a2.827 2.827 0 0 0-.053-.161l-.028-.08a4.808 4.808 0 0 0-.062-.158l-.028-.069a5.735 5.735 0 0 0-.1-.22l-.002-.006a5.45 5.45 0 0 0-.107-.206l-.037-.066a3.762 3.762 0 0 0-.085-.145l-.043-.07a4.594 4.594 0 0 0-.093-.14l-.04-.062a5.036 5.036 0 0 0-.141-.191l-.008-.01a3.568 3.568 0 0 0-.192-.23 3.712 3.712 0 0 0-.169-.182l-.118-.117-.052-.05a4.739 4.739 0 0 0-.175-.156h-.001a4.868 4.868 0 0 0-.21-.165l-.057-.042c-.07-.05-.14-.1-.213-.146l-.008-.007a4.88 4.88 0 0 0-.229-.135l-.06-.033a4.553 4.553 0 0 0-.216-.109l-.024-.012c-.08-.037-.16-.07-.243-.1l-.063-.024a5.187 5.187 0 0 0-.22-.073l-.037-.011a3.955 3.955 0 0 0-.543-.116c-.011 0-.023-.004-.034-.005a.314.314 0 0 1-.031-.004l-52.314-6.416a3.343 3.343 0 0 0-.231-.02l-.063-.004a3.497 3.497 0 0 0-.186-.004h-.046c-.074 0-.148.004-.22.01-.018 0-.035.003-.053.004-.059.006-.116.011-.174.02l-.057.007a3.347 3.347 0 0 0-.421.09l-.058.017a3.836 3.836 0 0 0-.172.055l-.031.011c-.065.024-.13.05-.193.077-.017.008-.033.016-.05.022l-.15.072-.046.024c-.061.032-.12.066-.18.102l-.032.02a4.14 4.14 0 0 0-.194.129 4.04 4.04 0 0 0-.155.118l-.01.009a4.62 4.62 0 0 0-.159.137l-.04.04a6.07 6.07 0 0 0-.153.151 3.765 3.765 0 0 0-.138.157l-.03.036c-.035.044-.07.089-.104.135-.006.008-.014.017-.02.027a.58.58 0 0 0-.017.023l-.07.102a4.12 4.12 0 0 0-.119.19l-.013.023c-.031.054-.06.11-.09.166-.009.016-.016.034-.025.051-.02.04-.04.08-.058.122l-.028.065a4.907 4.907 0 0 0-.047.113l-.027.07a3.531 3.531 0 0 0-.041.117l-.024.07a5.659 5.659 0 0 0-.038.129l-.017.06a3.586 3.586 0 0 0-.048.195l-.462 2.111c.014-.066.032-.13.052-.193a2.137 2.137 0 0 1 .07-.184l.03-.066a2.4 2.4 0 0 1 .054-.108l.037-.064c.02-.035.043-.067.065-.101l.046-.065.026-.034.08-.096.02-.021c.033-.037.069-.072.106-.105l.027-.023a1.916 1.916 0 0 1 .378-.255l.038-.018c.04-.019.082-.036.123-.053l.016-.006c.047-.018.096-.032.145-.046l.039-.01a1.378 1.378 0 0 1 .156-.031 1.79 1.79 0 0 1 .155-.017c.01 0 .021 0 .031-.002.044-.002.087-.003.132-.002l.044.001c.055.003.11.006.165.013l52.275 6.42c.06.007.117.018.176.03l.044.01a2.47 2.47 0 0 1 .175.053c.05.017.098.037.146.057l.015.007c.053.024.104.05.154.08l.042.024.11.07.041.029a2.136 2.136 0 0 1 .267.226l.027.026c.04.04.078.083.115.126l.018.023a2.15 2.15 0 0 1 .208.294l.02.032c.029.051.058.104.083.157v.002c.026.053.05.108.07.162l.015.036c.02.054.04.11.055.166.004.01.006.02.008.028a2.7 2.7 0 0 1 .038.157l.007.028c.01.058.02.116.025.175l.003.04c.005.06.009.121.01.182l.266 42.132c.009 1.098-.87 1.793-1.892 1.666l-52.84-6.443 2.843.934 52.522 6.449c2.16.266 3.937-1.4 3.922-3.716l-.267-42.132.006-.007Z"/><path fill="#EAEAEA" d="m80.592 66.46-.388.235.388-.235ZM80.592 66.46l-.388.235.388-.235ZM80.592 66.46l-.388.235.388-.235ZM80.592 66.46l-.388.235.388-.235Z"/><path fill="url(#paint7_linear_12095_6046)" d="M80.704 70.487c1.377-.832 1.764-2.714.865-4.203-.9-1.49-2.746-2.023-4.124-1.19-1.377.832-1.764 2.714-.864 4.203.9 1.49 2.746 2.022 4.123 1.19Z"/><path fill="url(#paint8_linear_12095_6046)" d="M80.23 104.138c1.377-.832 1.764-2.714.864-4.203-.9-1.49-2.745-2.022-4.123-1.19-1.377.832-1.764 2.714-.864 4.203.9 1.49 2.746 2.023 4.123 1.19Z"/><path fill="url(#paint9_linear_12095_6046)" d="M36.549 65.192c1.377-.832 1.764-2.714.864-4.203-.9-1.49-2.746-2.022-4.123-1.19-1.377.832-1.764 2.714-.864 4.203.9 1.49 2.745 2.023 4.123 1.19Z"/><path fill="url(#paint10_linear_12095_6046)" d="M36.549 98.382c1.377-.832 1.764-2.714.864-4.203-.9-1.49-2.746-2.022-4.123-1.19-1.377.832-1.764 2.714-.864 4.203.9 1.49 2.745 2.023 4.123 1.19Z"/><path fill="#C0D4EC" d="M80.027 68.105c-.041-.817-.714-1.491-1.5-1.505-.788-.013-1.392.64-1.351 1.457.041.818.714 1.492 1.5 1.505.788.013 1.392-.638 1.35-1.455v-.002ZM79.55 101.757c-.04-.818-.713-1.492-1.5-1.505-.787-.013-1.391.639-1.35 1.457.041.817.713 1.491 1.5 1.505.787.013 1.392-.638 1.35-1.456v-.001ZM35.872 62.81c-.042-.819-.714-1.492-1.501-1.506-.787-.013-1.392.64-1.35 1.457.04.818.713 1.492 1.5 1.505.787.013 1.392-.638 1.35-1.456ZM35.872 96c-.042-.818-.714-1.491-1.501-1.505-.787-.013-1.392.64-1.35 1.457.04.818.713 1.492 1.5 1.505.787.013 1.392-.638 1.35-1.456V96Z"/><path fill="url(#paint11_radial_12095_6046)" d="M49.26 21.745c-3.71 2.5-6.117 6.949-6.083 12.225l.122 14.836c-.01.095.014.508.014.508.228.84 1.352 1.55 3.085 1.918 2.689.572 5.88-.015 7.128-1.31.458-.477.439-.922.441-1.46l-.124-15.027c-.006-.983.176-1.9.508-2.71a3.37 3.37 0 0 1 3.403-2.08l.025.002 12.714 1.198c3.253.307 5.918 3.562 5.942 7.258l.125 15.29s-.026.43-.03.637c-.01.971 1.141 1.893 3.106 2.31 2.688.572 5.88-.015 7.128-1.31.407-.424.557-.87.481-1.299-.041-.229-.02-.873-.02-.873l-.124-15.289c-.055-8.666-6.669-16.335-14.744-17.096l-12.715-1.197c-3.264-.307-6.274.56-8.7 2.275"/><path fill="#12AFFF" d="M62.254 75.806c0-.121-.007-.241-.014-.361l-.007-.098a7.34 7.34 0 0 0-.032-.302l-.007-.06a6.827 6.827 0 0 0-.06-.348l-.019-.087a4.812 4.812 0 0 0-.067-.278l-.02-.081a5.49 5.49 0 0 0-.104-.336c-.007-.022-.016-.043-.024-.065a5.76 5.76 0 0 0-.103-.273l-.035-.087a5.423 5.423 0 0 0-.144-.32c-.004-.008-.009-.015-.011-.023a7.072 7.072 0 0 0-.151-.29l-.048-.084a5.043 5.043 0 0 0-.16-.264l-.023-.039a6.733 6.733 0 0 0-.422-.581c-.015-.02-.03-.04-.048-.059a5.602 5.602 0 0 0-.226-.257l-.052-.055a6.751 6.751 0 0 0-.515-.487l-.034-.028a6.028 6.028 0 0 0-.238-.186l-.074-.055a6.576 6.576 0 0 0-.26-.179l-.022-.015a4.31 4.31 0 0 0-.243-.147l-.069-.038a5.643 5.643 0 0 0-.437-.218l-.105-.044a6.975 6.975 0 0 0-.267-.105 3.193 3.193 0 0 0-.16-.055c-.037-.01-.073-.023-.111-.035a3.606 3.606 0 0 0-.168-.046 2.97 2.97 0 0 0-.106-.028c-.062-.015-.124-.028-.187-.04-.031-.006-.06-.013-.091-.018a4.735 4.735 0 0 0-.615-.072l-.096-.004a4.759 4.759 0 0 0-.245-.001l-.092.001a4.632 4.632 0 0 0-.318.022c-.01 0-.018.003-.026.005a3.777 3.777 0 0 0-.376.061 4.16 4.16 0 0 0-.228.053l-.081.021a4.105 4.105 0 0 0-.502.178c-.035.014-.071.026-.105.043a4.728 4.728 0 0 0-.304.152c-1.437.793-2.386 2.396-2.374 4.356.012 1.727.766 3.358 1.936 4.506l-1.533 12.604 8.853-4.884-.904-6.932c1.157-.862 1.892-2.31 1.88-4.038l-.006.001Z"/><path fill="url(#paint12_linear_12095_6046)" fill-opacity=".7" d="M62.254 75.806c0-.121-.007-.241-.014-.361l-.007-.098a7.34 7.34 0 0 0-.032-.302l-.007-.06a6.827 6.827 0 0 0-.06-.348l-.019-.087a4.812 4.812 0 0 0-.067-.278l-.02-.081a5.49 5.49 0 0 0-.104-.336c-.007-.022-.016-.043-.024-.065a5.76 5.76 0 0 0-.103-.273l-.035-.087a5.423 5.423 0 0 0-.144-.32c-.004-.008-.009-.015-.011-.023a7.072 7.072 0 0 0-.151-.29l-.048-.084a5.043 5.043 0 0 0-.16-.264l-.023-.039a6.733 6.733 0 0 0-.422-.581c-.015-.02-.03-.04-.048-.059a5.602 5.602 0 0 0-.226-.257l-.052-.055a6.751 6.751 0 0 0-.515-.487l-.034-.028a6.028 6.028 0 0 0-.238-.186l-.074-.055a6.576 6.576 0 0 0-.26-.179l-.022-.015a4.31 4.31 0 0 0-.243-.147l-.069-.038a5.643 5.643 0 0 0-.437-.218l-.105-.044a6.975 6.975 0 0 0-.267-.105 3.193 3.193 0 0 0-.16-.055c-.037-.01-.073-.023-.111-.035a3.606 3.606 0 0 0-.168-.046 2.97 2.97 0 0 0-.106-.028c-.062-.015-.124-.028-.187-.04-.031-.006-.06-.013-.091-.018a4.735 4.735 0 0 0-.615-.072l-.096-.004a4.759 4.759 0 0 0-.245-.001l-.092.001a4.632 4.632 0 0 0-.318.022c-.01 0-.018.003-.026.005a3.777 3.777 0 0 0-.376.061 4.16 4.16 0 0 0-.228.053l-.081.021a4.105 4.105 0 0 0-.502.178c-.035.014-.071.026-.105.043a4.728 4.728 0 0 0-.304.152c-1.437.793-2.386 2.396-2.374 4.356.012 1.727.766 3.358 1.936 4.506l-1.533 12.604 8.853-4.884-.904-6.932c1.157-.862 1.892-2.31 1.88-4.038l-.006.001Z"/><path fill="url(#paint13_radial_12095_6046)" fill-opacity=".9" d="M60.373 79.843c1.157-.862 1.892-2.31 1.881-4.038 0-.121-.007-.242-.014-.362l-.007-.097c-.008-.101-.02-.202-.032-.302l-.007-.06a6.94 6.94 0 0 0-.078-.431l-8.16 4.5-1.533 12.605 8.853-4.884-.905-6.932.002.001Z"/><path fill="#129FEF" d="m61.276 86.778-8.853 4.883 9.644 1.184-.791-6.067Z"/><defs><linearGradient id="paint0_linear_12095_6046" x1="33.727" x2="113.756" y1="80.583" y2="134.37" gradientUnits="userSpaceOnUse"><stop stop-color="#13B8FF" stop-opacity="0"/><stop offset=".667" stop-color="#13B8FF"/><stop offset="1" stop-color="#4FD8D5"/></linearGradient><linearGradient id="paint2_linear_12095_6046" x1="89.162" x2="121.682" y1="57.671" y2="114.441" gradientUnits="userSpaceOnUse"><stop stop-color="#2E86FE" stop-opacity="0"/><stop offset=".057" stop-color="#1C6CD9"/><stop offset=".745" stop-color="#2E86FE" stop-opacity="0"/></linearGradient><linearGradient id="paint5_linear_12095_6046" x1="94.48" x2="25.519" y1="111.898" y2="54.035" gradientUnits="userSpaceOnUse"><stop stop-color="#2E86FE" stop-opacity="0"/><stop offset=".219" stop-color="#2E86FE"/><stop offset=".474" stop-color="#2E86FE" stop-opacity="0"/><stop offset=".672" stop-color="#2E86FE"/><stop offset="1" stop-color="#2E86FE" stop-opacity="0"/></linearGradient><linearGradient id="paint6_linear_12095_6046" x1="79.838" x2="110.047" y1="62.532" y2="113.318" gradientUnits="userSpaceOnUse"><stop stop-color="#2E86FE" stop-opacity="0"/><stop offset=".057" stop-color="#2E86FE"/><stop offset=".745" stop-color="#2E86FE" stop-opacity="0"/></linearGradient><linearGradient id="paint7_linear_12095_6046" x1="81.457" x2="79.075" y1="71.994" y2="67.79" gradientUnits="userSpaceOnUse"><stop stop-color="#0C2780"/><stop offset="1" stop-color="#ECF6FF"/></linearGradient><linearGradient id="paint8_linear_12095_6046" x1="80.983" x2="78.601" y1="105.645" y2="101.442" gradientUnits="userSpaceOnUse"><stop stop-color="#0C2780"/><stop offset="1" stop-color="#ECF6FF"/></linearGradient><linearGradient id="paint9_linear_12095_6046" x1="37.302" x2="34.919" y1="66.699" y2="62.496" gradientUnits="userSpaceOnUse"><stop stop-color="#0C2780"/><stop offset="1" stop-color="#ECF6FF"/></linearGradient><linearGradient id="paint10_linear_12095_6046" x1="37.302" x2="34.919" y1="99.889" y2="95.686" gradientUnits="userSpaceOnUse"><stop stop-color="#0C2780"/><stop offset="1" stop-color="#EEF7FF"/></linearGradient><linearGradient id="paint12_linear_12095_6046" x1="67.025" x2="54.316" y1="64.45" y2="78.006" gradientUnits="userSpaceOnUse"><stop stop-color="#0C2780"/><stop offset="1" stop-color="#0C2780" stop-opacity="0"/></linearGradient><radialGradient id="paint1_radial_12095_6046" cx="0" cy="0" r="1" gradientTransform="rotate(157.434 34.3 62.17) scale(57.8237 51.4229)" gradientUnits="userSpaceOnUse"><stop stop-color="#2E86FE"/><stop offset="1" stop-color="#2E86FE" stop-opacity="0"/></radialGradient><radialGradient id="paint3_radial_12095_6046" cx="0" cy="0" r="1" gradientTransform="rotate(53.917 -48.195 80.964) scale(67.8272 87.5232)" gradientUnits="userSpaceOnUse"><stop offset=".214" stop-color="#F8FDFF"/><stop offset="1" stop-color="#66A3F3"/></radialGradient><radialGradient id="paint4_radial_12095_6046" cx="0" cy="0" r="1" gradientTransform="matrix(-12.60903 51.36573 -67.5316 -16.57735 57.318 76.703)" gradientUnits="userSpaceOnUse"><stop offset=".207" stop-color="#F6FCFF" stop-opacity="0"/><stop offset="1" stop-color="#4F73C4"/></radialGradient><radialGradient id="paint11_radial_12095_6046" cx="0" cy="0" r="1" gradientTransform="rotate(95.147 18.164 45.61) scale(35.4333 50.5694)" gradientUnits="userSpaceOnUse"><stop stop-color="#F6FCFF"/><stop offset="1" stop-color="#528BD7"/></radialGradient><radialGradient id="paint13_radial_12095_6046" cx="0" cy="0" r="1" gradientTransform="rotate(175.948 45.298 43.207) scale(39.5625 68.7388)" gradientUnits="userSpaceOnUse"><stop stop-color="#0C2780"/><stop offset="1" stop-color="#0C2780" stop-opacity="0"/></radialGradient></defs></svg>