<svg xmlns="http://www.w3.org/2000/svg" xmlns:xlink="http://www.w3.org/1999/xlink" width="1563" zoomAndPan="magnify" viewBox="0 0 1172.25 599.999999" height="800" preserveAspectRatio="xMidYMid meet" version="1.0"><defs><clipPath id="0024bba925"><path d="M 465.828125 180.078125 L 705.671875 180.078125 L 705.671875 419.921875 L 465.828125 419.921875 Z M 465.828125 180.078125 " clip-rule="nonzero"/></clipPath><clipPath id="88db1afbe2"><path d="M 585.757812 419.921875 C 583.796875 419.921875 581.832031 419.875 579.875 419.777344 C 577.914062 419.683594 575.957031 419.539062 574.003906 419.347656 C 572.050781 419.152344 570.101562 418.914062 568.160156 418.625 C 566.21875 418.335938 564.285156 418 562.359375 417.617188 C 560.433594 417.234375 558.519531 416.804688 556.617188 416.328125 C 554.710938 415.851562 552.820312 415.328125 550.941406 414.757812 C 549.066406 414.1875 547.203125 413.574219 545.351562 412.914062 C 543.503906 412.25 541.675781 411.542969 539.859375 410.792969 C 538.046875 410.042969 536.253906 409.246094 534.480469 408.40625 C 532.707031 407.570312 530.953125 406.6875 529.222656 405.761719 C 527.492188 404.835938 525.78125 403.867188 524.097656 402.859375 C 522.417969 401.851562 520.757812 400.800781 519.125 399.710938 C 517.496094 398.621094 515.890625 397.488281 514.3125 396.320312 C 512.738281 395.152344 511.191406 393.945312 509.671875 392.699219 C 508.15625 391.453125 506.667969 390.171875 505.214844 388.855469 C 503.761719 387.535156 502.339844 386.183594 500.953125 384.792969 C 499.5625 383.40625 498.210938 381.984375 496.894531 380.53125 C 495.574219 379.078125 494.292969 377.589844 493.046875 376.074219 C 491.804688 374.554688 490.597656 373.007812 489.425781 371.433594 C 488.257812 369.855469 487.128906 368.25 486.039062 366.621094 C 484.945312 364.988281 483.898438 363.328125 482.886719 361.644531 C 481.878906 359.960938 480.910156 358.253906 479.988281 356.523438 C 479.0625 354.792969 478.179688 353.039062 477.339844 351.265625 C 476.5 349.492188 475.707031 347.699219 474.953125 345.882812 C 474.203125 344.070312 473.496094 342.238281 472.835938 340.390625 C 472.175781 338.542969 471.558594 336.679688 470.988281 334.800781 C 470.421875 332.925781 469.898438 331.03125 469.421875 329.128906 C 468.941406 327.226562 468.511719 325.308594 468.128906 323.386719 C 467.746094 321.460938 467.414062 319.527344 467.125 317.585938 C 466.835938 315.644531 466.597656 313.695312 466.402344 311.742188 C 466.210938 309.789062 466.066406 307.832031 465.972656 305.871094 C 465.875 303.910156 465.828125 301.949219 465.828125 299.988281 C 465.828125 298.023438 465.875 296.0625 465.972656 294.101562 C 466.066406 292.140625 466.210938 290.183594 466.40625 288.230469 C 466.597656 286.277344 466.835938 284.332031 467.125 282.390625 C 467.414062 280.449219 467.75 278.515625 468.132812 276.589844 C 468.515625 274.664062 468.945312 272.75 469.421875 270.84375 C 469.898438 268.941406 470.421875 267.050781 470.992188 265.171875 C 471.5625 263.292969 472.179688 261.429688 472.839844 259.582031 C 473.5 257.734375 474.207031 255.902344 474.957031 254.089844 C 475.710938 252.277344 476.503906 250.484375 477.34375 248.707031 C 478.183594 246.933594 479.066406 245.183594 479.992188 243.449219 C 480.917969 241.71875 481.882812 240.011719 482.894531 238.328125 C 483.902344 236.644531 484.953125 234.988281 486.042969 233.355469 C 487.132812 231.722656 488.261719 230.121094 489.433594 228.542969 C 490.601562 226.96875 491.808594 225.421875 493.054688 223.902344 C 494.300781 222.386719 495.582031 220.898438 496.898438 219.445312 C 498.21875 217.992188 499.570312 216.570312 500.960938 215.183594 C 502.347656 213.792969 503.769531 212.441406 505.222656 211.125 C 506.675781 209.804688 508.164062 208.523438 509.679688 207.277344 C 511.199219 206.035156 512.746094 204.828125 514.320312 203.65625 C 515.898438 202.488281 517.503906 201.359375 519.136719 200.269531 C 520.765625 199.179688 522.425781 198.128906 524.109375 197.121094 C 525.792969 196.109375 527.5 195.144531 529.230469 194.21875 C 530.960938 193.292969 532.714844 192.410156 534.488281 191.570312 C 536.261719 190.734375 538.058594 189.9375 539.871094 189.1875 C 541.683594 188.4375 543.515625 187.730469 545.363281 187.070312 C 547.210938 186.40625 549.074219 185.792969 550.953125 185.222656 C 552.832031 184.652344 554.722656 184.128906 556.625 183.652344 C 558.53125 183.175781 560.445312 182.746094 562.371094 182.363281 C 564.296875 181.980469 566.230469 181.644531 568.171875 181.359375 C 570.113281 181.070312 572.058594 180.828125 574.011719 180.636719 C 575.964844 180.445312 577.921875 180.300781 579.882812 180.203125 C 581.84375 180.109375 583.804688 180.0625 585.769531 180.0625 C 587.730469 180.0625 589.691406 180.109375 591.652344 180.207031 C 593.613281 180.300781 595.570312 180.445312 597.523438 180.640625 C 599.476562 180.832031 601.425781 181.074219 603.367188 181.359375 C 605.308594 181.648438 607.242188 181.984375 609.167969 182.367188 C 611.089844 182.75 613.007812 183.179688 614.910156 183.65625 C 616.8125 184.136719 618.703125 184.660156 620.582031 185.230469 C 622.460938 185.796875 624.324219 186.414062 626.171875 187.074219 C 628.019531 187.738281 629.851562 188.445312 631.664062 189.195312 C 633.476562 189.945312 635.273438 190.742188 637.046875 191.582031 C 638.820312 192.421875 640.574219 193.300781 642.304688 194.226562 C 644.035156 195.152344 645.742188 196.121094 647.425781 197.128906 C 649.109375 198.140625 650.765625 199.1875 652.398438 200.28125 C 654.03125 201.371094 655.632812 202.5 657.210938 203.671875 C 658.789062 204.839844 660.335938 206.046875 661.851562 207.292969 C 663.367188 208.539062 664.855469 209.820312 666.308594 211.136719 C 667.761719 212.457031 669.183594 213.808594 670.570312 215.199219 C 671.960938 216.585938 673.3125 218.007812 674.628906 219.460938 C 675.949219 220.914062 677.230469 222.402344 678.472656 223.917969 C 679.71875 225.4375 680.925781 226.984375 682.097656 228.558594 C 683.265625 230.136719 684.394531 231.742188 685.484375 233.375 C 686.574219 235.003906 687.625 236.664062 688.632812 238.347656 C 689.640625 240.03125 690.609375 241.738281 691.535156 243.46875 C 692.460938 245.199219 693.339844 246.953125 694.179688 248.726562 C 695.019531 250.503906 695.816406 252.296875 696.566406 254.109375 C 697.316406 255.921875 698.023438 257.753906 698.683594 259.601562 C 699.34375 261.449219 699.960938 263.3125 700.527344 265.191406 C 701.097656 267.070312 701.621094 268.960938 702.097656 270.867188 C 702.574219 272.769531 703.003906 274.683594 703.386719 276.609375 C 703.769531 278.535156 704.105469 280.46875 704.394531 282.410156 C 704.679688 284.351562 704.921875 286.296875 705.113281 288.253906 C 705.304688 290.207031 705.449219 292.164062 705.546875 294.121094 C 705.640625 296.082031 705.6875 298.046875 705.6875 300.007812 C 705.6875 301.96875 705.636719 303.929688 705.539062 305.890625 C 705.441406 307.851562 705.292969 309.804688 705.097656 311.757812 C 704.90625 313.710938 704.664062 315.65625 704.371094 317.597656 C 704.082031 319.539062 703.746094 321.46875 703.359375 323.394531 C 702.976562 325.316406 702.546875 327.230469 702.066406 329.132812 C 701.589844 331.039062 701.0625 332.925781 700.492188 334.804688 C 699.921875 336.683594 699.304688 338.542969 698.644531 340.390625 C 697.980469 342.238281 697.273438 344.066406 696.523438 345.878906 C 695.769531 347.691406 694.972656 349.484375 694.132812 351.257812 C 693.292969 353.03125 692.410156 354.78125 691.484375 356.511719 C 690.558594 358.242188 689.59375 359.949219 688.582031 361.628906 C 687.574219 363.3125 686.523438 364.96875 685.433594 366.601562 C 684.34375 368.230469 683.210938 369.835938 682.042969 371.410156 C 680.875 372.988281 679.667969 374.53125 678.421875 376.046875 C 677.175781 377.566406 675.894531 379.050781 674.578125 380.503906 C 673.261719 381.957031 671.90625 383.378906 670.519531 384.765625 C 669.132812 386.152344 667.710938 387.503906 666.257812 388.824219 C 664.804688 390.140625 663.320312 391.421875 661.800781 392.667969 C 660.285156 393.910156 658.738281 395.117188 657.164062 396.285156 C 655.589844 397.457031 653.984375 398.585938 652.355469 399.675781 C 650.722656 400.765625 649.066406 401.816406 647.382812 402.824219 C 645.699219 403.835938 643.992188 404.800781 642.265625 405.726562 C 640.535156 406.652344 638.78125 407.535156 637.007812 408.375 C 635.234375 409.214844 633.441406 410.011719 631.628906 410.761719 C 629.816406 411.515625 627.988281 412.21875 626.140625 412.882812 C 624.292969 413.542969 622.433594 414.160156 620.554688 414.730469 C 618.679688 415.300781 616.789062 415.828125 614.886719 416.304688 C 612.980469 416.78125 611.070312 417.214844 609.144531 417.597656 C 607.222656 417.984375 605.289062 418.320312 603.347656 418.609375 C 601.40625 418.898438 599.460938 419.140625 597.507812 419.335938 C 595.554688 419.527344 593.601562 419.675781 591.640625 419.773438 C 589.679688 419.871094 587.71875 419.921875 585.757812 419.921875 Z M 585.757812 182.457031 C 583.835938 182.457031 581.914062 182.507812 579.992188 182.601562 C 578.070312 182.695312 576.152344 182.835938 574.238281 183.023438 C 572.324219 183.214844 570.414062 183.449219 568.511719 183.730469 C 566.609375 184.011719 564.714844 184.34375 562.828125 184.71875 C 560.941406 185.09375 559.066406 185.515625 557.199219 185.980469 C 555.332031 186.449219 553.480469 186.960938 551.640625 187.519531 C 549.800781 188.078125 547.972656 188.679688 546.164062 189.328125 C 544.351562 189.976562 542.558594 190.667969 540.78125 191.40625 C 539.003906 192.140625 537.246094 192.921875 535.507812 193.742188 C 533.765625 194.566406 532.050781 195.429688 530.351562 196.335938 C 528.65625 197.242188 526.984375 198.191406 525.332031 199.179688 C 523.683594 200.167969 522.058594 201.199219 520.460938 202.265625 C 518.859375 203.335938 517.289062 204.441406 515.742188 205.589844 C 514.199219 206.734375 512.683594 207.917969 511.195312 209.136719 C 509.707031 210.359375 508.253906 211.613281 506.828125 212.90625 C 505.402344 214.199219 504.007812 215.523438 502.648438 216.882812 C 501.289062 218.242188 499.964844 219.636719 498.671875 221.0625 C 497.378906 222.488281 496.125 223.941406 494.902344 225.429688 C 493.683594 226.917969 492.5 228.433594 491.355469 229.976562 C 490.207031 231.523438 489.101562 233.09375 488.03125 234.695312 C 486.964844 236.292969 485.933594 237.917969 484.945312 239.566406 C 483.957031 241.21875 483.007812 242.890625 482.101562 244.585938 C 481.195312 246.285156 480.332031 248 479.507812 249.738281 C 478.6875 251.480469 477.90625 253.238281 477.171875 255.015625 C 476.433594 256.792969 475.742188 258.585938 475.09375 260.394531 C 474.445312 262.207031 473.84375 264.035156 473.285156 265.875 C 472.726562 267.714844 472.214844 269.566406 471.746094 271.433594 C 471.28125 273.300781 470.859375 275.175781 470.484375 277.0625 C 470.109375 278.949219 469.777344 280.84375 469.496094 282.746094 C 469.214844 284.648438 468.980469 286.558594 468.789062 288.472656 C 468.601562 290.386719 468.460938 292.304688 468.367188 294.226562 C 468.273438 296.144531 468.226562 298.070312 468.226562 299.992188 C 468.226562 301.914062 468.273438 303.839844 468.367188 305.757812 C 468.460938 307.679688 468.601562 309.597656 468.789062 311.511719 C 468.980469 313.425781 469.214844 315.335938 469.496094 317.238281 C 469.777344 319.140625 470.109375 321.035156 470.484375 322.921875 C 470.859375 324.808594 471.28125 326.683594 471.746094 328.550781 C 472.214844 330.417969 472.726562 332.269531 473.285156 334.109375 C 473.84375 335.949219 474.445312 337.777344 475.09375 339.589844 C 475.742188 341.398438 476.433594 343.191406 477.171875 344.96875 C 477.90625 346.746094 478.6875 348.503906 479.507812 350.246094 C 480.332031 351.984375 481.195312 353.699219 482.101562 355.398438 C 483.007812 357.09375 483.957031 358.765625 484.945312 360.417969 C 485.933594 362.066406 486.964844 363.691406 488.03125 365.289062 C 489.101562 366.890625 490.207031 368.460938 491.355469 370.007812 C 492.5 371.550781 493.683594 373.066406 494.902344 374.554688 C 496.125 376.042969 497.378906 377.496094 498.671875 378.921875 C 499.964844 380.347656 501.289062 381.742188 502.648438 383.101562 C 504.007812 384.460938 505.402344 385.785156 506.828125 387.078125 C 508.253906 388.371094 509.707031 389.625 511.195312 390.847656 C 512.683594 392.066406 514.199219 393.25 515.742188 394.394531 C 517.289062 395.542969 518.859375 396.648438 520.460938 397.71875 C 522.058594 398.785156 523.683594 399.816406 525.332031 400.804688 C 526.984375 401.792969 528.65625 402.742188 530.351562 403.648438 C 532.050781 404.554688 533.765625 405.417969 535.507812 406.242188 C 537.246094 407.0625 539.003906 407.84375 540.78125 408.578125 C 542.558594 409.316406 544.351562 410.007812 546.164062 410.65625 C 547.972656 411.304688 549.800781 411.90625 551.640625 412.464844 C 553.480469 413.023438 555.332031 413.535156 557.199219 414.003906 C 559.066406 414.46875 560.941406 414.890625 562.828125 415.265625 C 564.714844 415.640625 566.609375 415.972656 568.511719 416.253906 C 570.414062 416.535156 572.324219 416.769531 574.238281 416.960938 C 576.152344 417.148438 578.070312 417.289062 579.992188 417.382812 C 581.914062 417.476562 583.835938 417.527344 585.757812 417.527344 C 587.679688 417.527344 589.605469 417.476562 591.523438 417.382812 C 593.445312 417.289062 595.363281 417.148438 597.277344 416.960938 C 599.191406 416.769531 601.101562 416.535156 603.003906 416.253906 C 604.90625 415.972656 606.800781 415.640625 608.6875 415.265625 C 610.574219 414.890625 612.449219 414.46875 614.316406 414.003906 C 616.183594 413.535156 618.035156 413.023438 619.875 412.464844 C 621.71875 411.90625 623.542969 411.304688 625.355469 410.65625 C 627.164062 410.007812 628.960938 409.316406 630.734375 408.578125 C 632.511719 407.84375 634.269531 407.0625 636.011719 406.242188 C 637.75 405.417969 639.464844 404.554688 641.164062 403.648438 C 642.859375 402.742188 644.53125 401.792969 646.183594 400.804688 C 647.832031 399.816406 649.457031 398.785156 651.054688 397.71875 C 652.65625 396.648438 654.226562 395.542969 655.773438 394.394531 C 657.316406 393.25 658.832031 392.066406 660.320312 390.847656 C 661.808594 389.625 663.261719 388.371094 664.6875 387.078125 C 666.113281 385.785156 667.507812 384.460938 668.867188 383.101562 C 670.226562 381.742188 671.554688 380.347656 672.84375 378.921875 C 674.136719 377.496094 675.390625 376.042969 676.613281 374.554688 C 677.832031 373.066406 679.015625 371.550781 680.160156 370.007812 C 681.308594 368.460938 682.414062 366.890625 683.484375 365.289062 C 684.550781 363.691406 685.582031 362.066406 686.570312 360.417969 C 687.558594 358.765625 688.507812 357.09375 689.414062 355.398438 C 690.320312 353.699219 691.183594 351.984375 692.007812 350.246094 C 692.828125 348.503906 693.609375 346.746094 694.34375 344.96875 C 695.082031 343.191406 695.773438 341.398438 696.421875 339.589844 C 697.070312 337.777344 697.671875 335.949219 698.230469 334.109375 C 698.789062 332.269531 699.300781 330.417969 699.769531 328.550781 C 700.238281 326.683594 700.65625 324.808594 701.03125 322.921875 C 701.410156 321.035156 701.738281 319.140625 702.019531 317.238281 C 702.300781 315.335938 702.535156 313.425781 702.726562 311.511719 C 702.914062 309.597656 703.054688 307.679688 703.148438 305.757812 C 703.246094 303.839844 703.292969 301.914062 703.292969 299.992188 C 703.289062 298.070312 703.238281 296.148438 703.144531 294.226562 C 703.046875 292.304688 702.90625 290.390625 702.714844 288.476562 C 702.523438 286.5625 702.285156 284.65625 702.003906 282.753906 C 701.71875 280.851562 701.390625 278.957031 701.011719 277.070312 C 700.636719 275.183594 700.214844 273.308594 699.746094 271.445312 C 699.277344 269.582031 698.761719 267.726562 698.203125 265.886719 C 697.644531 264.046875 697.039062 262.222656 696.390625 260.414062 C 695.742188 258.601562 695.046875 256.808594 694.3125 255.035156 C 693.574219 253.257812 692.792969 251.5 691.972656 249.761719 C 691.148438 248.023438 690.285156 246.308594 689.375 244.613281 C 688.46875 242.917969 687.519531 241.246094 686.53125 239.59375 C 685.542969 237.945312 684.515625 236.324219 683.445312 234.722656 C 682.375 233.125 681.269531 231.554688 680.125 230.007812 C 678.976562 228.464844 677.792969 226.949219 676.574219 225.464844 C 675.355469 223.976562 674.097656 222.523438 672.808594 221.097656 C 671.515625 219.671875 670.191406 218.28125 668.828125 216.921875 C 667.46875 215.558594 666.078125 214.234375 664.652344 212.941406 C 663.230469 211.652344 661.773438 210.394531 660.285156 209.175781 C 658.800781 207.957031 657.285156 206.773438 655.742188 205.628906 C 654.195312 204.480469 652.625 203.375 651.027344 202.304688 C 649.429688 201.238281 647.804688 200.207031 646.15625 199.21875 C 644.507812 198.230469 642.832031 197.28125 641.136719 196.375 C 639.441406 195.464844 637.726562 194.601562 635.988281 193.777344 C 634.25 192.957031 632.492188 192.175781 630.714844 191.4375 C 628.941406 190.703125 627.148438 190.007812 625.335938 189.359375 C 623.527344 188.710938 621.703125 188.105469 619.863281 187.546875 C 618.023438 186.988281 616.171875 186.472656 614.304688 186.003906 C 612.441406 185.539062 610.566406 185.113281 608.679688 184.738281 C 606.792969 184.359375 604.898438 184.03125 602.996094 183.746094 C 601.09375 183.464844 599.1875 183.226562 597.273438 183.035156 C 595.359375 182.847656 593.445312 182.703125 591.523438 182.605469 C 589.601562 182.511719 587.679688 182.460938 585.757812 182.457031 Z M 585.757812 182.457031 " clip-rule="nonzero"/></clipPath><linearGradient x1="117.13986" gradientTransform="matrix(1.567112, 0, 0, -1.567112, 465.826966, 424.546246)" y1="-12.845895" x2="35.919178" gradientUnits="userSpaceOnUse" y2="171.799878" id="40eb5c88ce"><stop stop-opacity="1" stop-color="rgb(78.399658%, 31.799316%, 1.199341%)" offset="0"/><stop stop-opacity="1" stop-color="rgb(78.399658%, 31.799316%, 1.199341%)" offset="0.125"/><stop stop-opacity="1" stop-color="rgb(78.485107%, 31.896973%, 1.194763%)" offset="0.15625"/><stop stop-opacity="1" stop-color="rgb(78.691101%, 32.133484%, 1.182556%)" offset="0.164062"/><stop stop-opacity="1" stop-color="rgb(78.93219%, 32.408142%, 1.168823%)" offset="0.171875"/><stop stop-opacity="1" stop-color="rgb(79.174805%, 32.684326%, 1.15509%)" offset="0.179688"/><stop stop-opacity="1" stop-color="rgb(79.415894%, 32.96051%, 1.142883%)" offset="0.1875"/><stop stop-opacity="1" stop-color="rgb(79.656982%, 33.236694%, 1.12915%)" offset="0.195312"/><stop stop-opacity="1" stop-color="rgb(79.898071%, 33.512878%, 1.115417%)" offset="0.203125"/><stop stop-opacity="1" stop-color="rgb(80.13916%, 33.789062%, 1.101685%)" offset="0.210938"/><stop stop-opacity="1" stop-color="rgb(80.381775%, 34.065247%, 1.087952%)" offset="0.21875"/><stop stop-opacity="1" stop-color="rgb(80.622864%, 34.341431%, 1.075745%)" offset="0.226563"/><stop stop-opacity="1" stop-color="rgb(80.863953%, 34.617615%, 1.062012%)" offset="0.234375"/><stop stop-opacity="1" stop-color="rgb(81.105042%, 34.893799%, 1.048279%)" offset="0.242188"/><stop stop-opacity="1" stop-color="rgb(81.347656%, 35.169983%, 1.034546%)" offset="0.25"/><stop stop-opacity="1" stop-color="rgb(81.588745%, 35.446167%, 1.020813%)" offset="0.257813"/><stop stop-opacity="1" stop-color="rgb(81.829834%, 35.722351%, 1.008606%)" offset="0.265625"/><stop stop-opacity="1" stop-color="rgb(82.070923%, 35.998535%, 0.994873%)" offset="0.273438"/><stop stop-opacity="1" stop-color="rgb(82.313538%, 36.273193%, 0.98114%)" offset="0.28125"/><stop stop-opacity="1" stop-color="rgb(82.554626%, 36.549377%, 0.967407%)" offset="0.289062"/><stop stop-opacity="1" stop-color="rgb(82.795715%, 36.825562%, 0.953674%)" offset="0.296875"/><stop stop-opacity="1" stop-color="rgb(83.036804%, 37.101746%, 0.941467%)" offset="0.304688"/><stop stop-opacity="1" stop-color="rgb(83.277893%, 37.37793%, 0.927734%)" offset="0.305494"/><stop stop-opacity="1" stop-color="rgb(83.399963%, 37.516785%, 0.921631%)" offset="0.3125"/><stop stop-opacity="1" stop-color="rgb(83.520508%, 37.654114%, 0.914001%)" offset="0.320312"/><stop stop-opacity="1" stop-color="rgb(83.761597%, 37.930298%, 0.900269%)" offset="0.328125"/><stop stop-opacity="1" stop-color="rgb(84.002686%, 38.206482%, 0.888062%)" offset="0.335938"/><stop stop-opacity="1" stop-color="rgb(84.243774%, 38.482666%, 0.874329%)" offset="0.34375"/><stop stop-opacity="1" stop-color="rgb(84.486389%, 38.75885%, 0.860596%)" offset="0.351563"/><stop stop-opacity="1" stop-color="rgb(84.727478%, 39.035034%, 0.846863%)" offset="0.359375"/><stop stop-opacity="1" stop-color="rgb(84.968567%, 39.311218%, 0.83313%)" offset="0.367188"/><stop stop-opacity="1" stop-color="rgb(85.209656%, 39.587402%, 0.820923%)" offset="0.375"/><stop stop-opacity="1" stop-color="rgb(85.450745%, 39.863586%, 0.80719%)" offset="0.382813"/><stop stop-opacity="1" stop-color="rgb(85.693359%, 40.139771%, 0.793457%)" offset="0.390625"/><stop stop-opacity="1" stop-color="rgb(85.934448%, 40.414429%, 0.779724%)" offset="0.398438"/><stop stop-opacity="1" stop-color="rgb(86.175537%, 40.690613%, 0.765991%)" offset="0.40625"/><stop stop-opacity="1" stop-color="rgb(86.416626%, 40.966797%, 0.753784%)" offset="0.414062"/><stop stop-opacity="1" stop-color="rgb(86.659241%, 41.242981%, 0.740051%)" offset="0.421875"/><stop stop-opacity="1" stop-color="rgb(86.90033%, 41.519165%, 0.726318%)" offset="0.429688"/><stop stop-opacity="1" stop-color="rgb(87.141418%, 41.795349%, 0.712585%)" offset="0.4375"/><stop stop-opacity="1" stop-color="rgb(87.382507%, 42.071533%, 0.698853%)" offset="0.445313"/><stop stop-opacity="1" stop-color="rgb(87.623596%, 42.347717%, 0.686646%)" offset="0.453125"/><stop stop-opacity="1" stop-color="rgb(87.866211%, 42.623901%, 0.672913%)" offset="0.460938"/><stop stop-opacity="1" stop-color="rgb(88.1073%, 42.900085%, 0.65918%)" offset="0.46875"/><stop stop-opacity="1" stop-color="rgb(88.348389%, 43.17627%, 0.645447%)" offset="0.476563"/><stop stop-opacity="1" stop-color="rgb(88.589478%, 43.452454%, 0.631714%)" offset="0.484375"/><stop stop-opacity="1" stop-color="rgb(88.832092%, 43.728638%, 0.619507%)" offset="0.492188"/><stop stop-opacity="1" stop-color="rgb(89.073181%, 44.004822%, 0.605774%)" offset="0.5"/><stop stop-opacity="1" stop-color="rgb(89.31427%, 44.281006%, 0.592041%)" offset="0.507812"/><stop stop-opacity="1" stop-color="rgb(89.555359%, 44.555664%, 0.578308%)" offset="0.515625"/><stop stop-opacity="1" stop-color="rgb(89.796448%, 44.831848%, 0.566101%)" offset="0.523438"/><stop stop-opacity="1" stop-color="rgb(90.039062%, 45.108032%, 0.552368%)" offset="0.53125"/><stop stop-opacity="1" stop-color="rgb(90.280151%, 45.384216%, 0.538635%)" offset="0.539062"/><stop stop-opacity="1" stop-color="rgb(90.52124%, 45.6604%, 0.524902%)" offset="0.546875"/><stop stop-opacity="1" stop-color="rgb(90.762329%, 45.936584%, 0.511169%)" offset="0.554688"/><stop stop-opacity="1" stop-color="rgb(91.004944%, 46.212769%, 0.498962%)" offset="0.5625"/><stop stop-opacity="1" stop-color="rgb(91.246033%, 46.488953%, 0.485229%)" offset="0.570312"/><stop stop-opacity="1" stop-color="rgb(91.487122%, 46.765137%, 0.471497%)" offset="0.578125"/><stop stop-opacity="1" stop-color="rgb(91.72821%, 47.041321%, 0.457764%)" offset="0.585938"/><stop stop-opacity="1" stop-color="rgb(91.969299%, 47.317505%, 0.444031%)" offset="0.59375"/><stop stop-opacity="1" stop-color="rgb(92.211914%, 47.593689%, 0.431824%)" offset="0.601563"/><stop stop-opacity="1" stop-color="rgb(92.453003%, 47.869873%, 0.418091%)" offset="0.609375"/><stop stop-opacity="1" stop-color="rgb(92.694092%, 48.146057%, 0.404358%)" offset="0.617188"/><stop stop-opacity="1" stop-color="rgb(92.935181%, 48.420715%, 0.390625%)" offset="0.625"/><stop stop-opacity="1" stop-color="rgb(93.177795%, 48.696899%, 0.376892%)" offset="0.632812"/><stop stop-opacity="1" stop-color="rgb(93.418884%, 48.973083%, 0.364685%)" offset="0.640625"/><stop stop-opacity="1" stop-color="rgb(93.659973%, 49.249268%, 0.350952%)" offset="0.648438"/><stop stop-opacity="1" stop-color="rgb(93.901062%, 49.525452%, 0.337219%)" offset="0.65625"/><stop stop-opacity="1" stop-color="rgb(94.142151%, 49.801636%, 0.323486%)" offset="0.664062"/><stop stop-opacity="1" stop-color="rgb(94.384766%, 50.07782%, 0.311279%)" offset="0.671875"/><stop stop-opacity="1" stop-color="rgb(94.625854%, 50.354004%, 0.297546%)" offset="0.679688"/><stop stop-opacity="1" stop-color="rgb(94.866943%, 50.630188%, 0.283813%)" offset="0.6875"/><stop stop-opacity="1" stop-color="rgb(95.108032%, 50.906372%, 0.270081%)" offset="0.694506"/><stop stop-opacity="1" stop-color="rgb(95.230103%, 51.045227%, 0.263977%)" offset="0.695312"/><stop stop-opacity="1" stop-color="rgb(95.350647%, 51.182556%, 0.256348%)" offset="0.703125"/><stop stop-opacity="1" stop-color="rgb(95.591736%, 51.45874%, 0.244141%)" offset="0.710937"/><stop stop-opacity="1" stop-color="rgb(95.832825%, 51.734924%, 0.230408%)" offset="0.71875"/><stop stop-opacity="1" stop-color="rgb(96.073914%, 52.011108%, 0.216675%)" offset="0.726562"/><stop stop-opacity="1" stop-color="rgb(96.315002%, 52.287292%, 0.202942%)" offset="0.734375"/><stop stop-opacity="1" stop-color="rgb(96.557617%, 52.561951%, 0.189209%)" offset="0.742188"/><stop stop-opacity="1" stop-color="rgb(96.798706%, 52.838135%, 0.177002%)" offset="0.75"/><stop stop-opacity="1" stop-color="rgb(97.039795%, 53.114319%, 0.163269%)" offset="0.757812"/><stop stop-opacity="1" stop-color="rgb(97.280884%, 53.390503%, 0.149536%)" offset="0.765625"/><stop stop-opacity="1" stop-color="rgb(97.523499%, 53.666687%, 0.135803%)" offset="0.773438"/><stop stop-opacity="1" stop-color="rgb(97.764587%, 53.942871%, 0.12207%)" offset="0.78125"/><stop stop-opacity="1" stop-color="rgb(98.005676%, 54.219055%, 0.109863%)" offset="0.789062"/><stop stop-opacity="1" stop-color="rgb(98.246765%, 54.495239%, 0.0961304%)" offset="0.796875"/><stop stop-opacity="1" stop-color="rgb(98.487854%, 54.771423%, 0.0823975%)" offset="0.804688"/><stop stop-opacity="1" stop-color="rgb(98.730469%, 55.047607%, 0.0686646%)" offset="0.8125"/><stop stop-opacity="1" stop-color="rgb(98.971558%, 55.323792%, 0.0564575%)" offset="0.820312"/><stop stop-opacity="1" stop-color="rgb(99.212646%, 55.599976%, 0.0427246%)" offset="0.828125"/><stop stop-opacity="1" stop-color="rgb(99.453735%, 55.87616%, 0.0289917%)" offset="0.835938"/><stop stop-opacity="1" stop-color="rgb(99.69635%, 56.152344%, 0.0152588%)" offset="0.84375"/><stop stop-opacity="1" stop-color="rgb(99.908447%, 56.393433%, 0.00457764%)" offset="0.875"/><stop stop-opacity="1" stop-color="rgb(100%, 56.498718%, 0%)" offset="1"/></linearGradient><clipPath id="4324d31954"><path d="M 521 236 L 649 236 L 649 364 L 521 364 Z M 521 236 " clip-rule="nonzero"/></clipPath><clipPath id="e58b0ed828"><path d="M 609.5 300.007812 C 609.5 300.5 609.480469 300.992188 609.449219 301.480469 C 609.417969 301.972656 609.371094 302.460938 609.308594 302.949219 C 609.246094 303.4375 609.167969 303.921875 609.074219 304.40625 C 608.980469 304.886719 608.875 305.367188 608.75 305.84375 C 608.628906 306.320312 608.488281 306.792969 608.339844 307.257812 C 608.1875 307.726562 608.019531 308.1875 607.839844 308.648438 C 607.65625 309.105469 607.460938 309.554688 607.253906 310 C 607.042969 310.445312 606.820312 310.882812 606.585938 311.3125 C 606.347656 311.746094 606.097656 312.167969 605.835938 312.585938 C 605.574219 313 605.296875 313.40625 605.011719 313.804688 C 604.722656 314.203125 604.421875 314.59375 604.109375 314.972656 C 603.796875 315.351562 603.472656 315.722656 603.136719 316.082031 C 602.800781 316.441406 602.457031 316.789062 602.097656 317.128906 C 601.742188 317.46875 601.375 317.792969 600.996094 318.109375 C 600.621094 318.425781 600.234375 318.726562 599.835938 319.019531 C 599.441406 319.308594 599.035156 319.585938 598.621094 319.851562 C 598.207031 320.121094 597.785156 320.371094 597.355469 320.613281 C 596.925781 320.851562 596.492188 321.078125 596.046875 321.289062 C 595.605469 321.5 595.15625 321.699219 594.699219 321.882812 C 594.242188 322.070312 593.78125 322.238281 593.316406 322.394531 C 592.847656 322.550781 592.378906 322.691406 591.902344 322.816406 C 591.425781 322.945312 590.949219 323.054688 590.464844 323.152344 C 589.984375 323.25 589.5 323.328125 589.011719 323.394531 C 588.523438 323.460938 588.035156 323.511719 587.546875 323.550781 C 587.054688 323.585938 586.5625 323.605469 586.074219 323.609375 C 585.582031 323.617188 585.089844 323.605469 584.597656 323.582031 C 584.109375 323.554688 583.617188 323.515625 583.128906 323.457031 C 582.640625 323.402344 582.152344 323.332031 581.671875 323.246094 C 581.1875 323.160156 580.703125 323.058594 580.226562 322.941406 C 579.75 322.824219 579.277344 322.695312 578.804688 322.550781 C 578.335938 322.402344 577.871094 322.242188 577.410156 322.070312 C 576.953125 321.894531 576.5 321.707031 576.050781 321.503906 C 575.601562 321.300781 575.160156 321.082031 574.726562 320.851562 C 574.292969 320.621094 573.867188 320.378906 573.445312 320.121094 C 573.027344 319.863281 572.617188 319.59375 572.214844 319.3125 C 571.8125 319.03125 571.417969 318.734375 571.035156 318.425781 C 570.648438 318.121094 570.277344 317.800781 569.910156 317.472656 C 569.546875 317.140625 569.195312 316.800781 568.851562 316.445312 C 568.507812 316.09375 568.175781 315.730469 567.855469 315.359375 C 567.535156 314.984375 567.226562 314.601562 566.929688 314.210938 C 566.632812 313.820312 566.351562 313.417969 566.078125 313.007812 C 565.808594 312.597656 565.546875 312.179688 565.304688 311.753906 C 565.058594 311.328125 564.824219 310.894531 564.605469 310.453125 C 564.390625 310.011719 564.183594 309.566406 563.992188 309.113281 C 563.804688 308.660156 563.625 308.199219 563.464844 307.738281 C 563.300781 307.273438 563.15625 306.804688 563.023438 306.328125 C 562.890625 305.855469 562.769531 305.378906 562.667969 304.898438 C 562.566406 304.417969 562.476562 303.933594 562.402344 303.449219 C 562.332031 302.960938 562.273438 302.472656 562.230469 301.984375 C 562.1875 301.492188 562.160156 301.003906 562.148438 300.511719 C 562.136719 300.019531 562.140625 299.527344 562.160156 299.035156 C 562.175781 298.546875 562.210938 298.054688 562.261719 297.566406 C 562.308594 297.078125 562.375 296.589844 562.453125 296.105469 C 562.53125 295.617188 562.628906 295.136719 562.738281 294.65625 C 562.847656 294.179688 562.972656 293.703125 563.109375 293.230469 C 563.25 292.757812 563.402344 292.292969 563.570312 291.832031 C 563.738281 291.367188 563.921875 290.910156 564.117188 290.460938 C 564.316406 290.011719 564.527344 289.566406 564.75 289.128906 C 564.976562 288.691406 565.210938 288.261719 565.464844 287.839844 C 565.714844 287.414062 565.980469 287 566.253906 286.59375 C 566.53125 286.1875 566.820312 285.792969 567.125 285.402344 C 567.425781 285.015625 567.738281 284.636719 568.0625 284.265625 C 568.390625 283.898438 568.726562 283.539062 569.074219 283.191406 C 569.421875 282.84375 569.78125 282.507812 570.148438 282.183594 C 570.515625 281.855469 570.894531 281.542969 571.285156 281.242188 C 571.671875 280.941406 572.070312 280.648438 572.476562 280.375 C 572.882812 280.097656 573.296875 279.832031 573.71875 279.582031 C 574.140625 279.328125 574.570312 279.089844 575.007812 278.867188 C 575.445312 278.640625 575.890625 278.429688 576.339844 278.234375 C 576.792969 278.039062 577.246094 277.855469 577.710938 277.6875 C 578.171875 277.519531 578.636719 277.363281 579.109375 277.226562 C 579.582031 277.085938 580.058594 276.960938 580.535156 276.851562 C 581.015625 276.742188 581.496094 276.648438 581.984375 276.566406 C 582.46875 276.488281 582.957031 276.421875 583.445312 276.375 C 583.933594 276.324219 584.425781 276.289062 584.914062 276.269531 C 585.40625 276.253906 585.898438 276.25 586.390625 276.261719 C 586.882812 276.273438 587.371094 276.300781 587.863281 276.34375 C 588.351562 276.382812 588.839844 276.441406 589.328125 276.515625 C 589.8125 276.585938 590.296875 276.675781 590.777344 276.777344 C 591.257812 276.882812 591.734375 277 592.207031 277.132812 C 592.683594 277.265625 593.152344 277.410156 593.617188 277.574219 C 594.078125 277.734375 594.539062 277.910156 594.992188 278.101562 C 595.445312 278.292969 595.890625 278.496094 596.332031 278.714844 C 596.773438 278.933594 597.207031 279.164062 597.632812 279.410156 C 598.058594 279.65625 598.476562 279.914062 598.886719 280.183594 C 599.296875 280.457031 599.699219 280.742188 600.089844 281.035156 C 600.484375 281.332031 600.867188 281.640625 601.238281 281.960938 C 601.613281 282.28125 601.976562 282.613281 602.328125 282.957031 C 602.679688 283.300781 603.023438 283.652344 603.351562 284.015625 C 603.683594 284.378906 604.003906 284.753906 604.308594 285.140625 C 604.617188 285.523438 604.910156 285.914062 605.195312 286.316406 C 605.476562 286.71875 605.746094 287.132812 606.003906 287.550781 C 606.261719 287.96875 606.503906 288.394531 606.734375 288.832031 C 606.964844 289.265625 607.183594 289.707031 607.386719 290.152344 C 607.589844 290.601562 607.777344 291.054688 607.953125 291.515625 C 608.128906 291.976562 608.289062 292.4375 608.433594 292.910156 L 645.589844 281.9375 C 645.589844 281.6875 645.464844 281.4375 645.386719 281.171875 C 644.980469 279.867188 644.53125 278.578125 644.042969 277.304688 C 643.550781 276.03125 643.019531 274.773438 642.449219 273.53125 C 641.878906 272.292969 641.265625 271.070312 640.617188 269.871094 C 639.964844 268.671875 639.277344 267.492188 638.550781 266.335938 C 637.824219 265.179688 637.058594 264.050781 636.257812 262.941406 C 635.457031 261.835938 634.625 260.757812 633.753906 259.707031 C 632.882812 258.652344 631.980469 257.628906 631.042969 256.636719 C 630.105469 255.640625 629.136719 254.679688 628.140625 253.75 C 627.140625 252.816406 626.113281 251.921875 625.054688 251.054688 C 624 250.191406 622.914062 249.363281 621.804688 248.570312 C 620.691406 247.773438 619.558594 247.015625 618.398438 246.296875 C 617.238281 245.578125 616.054688 244.894531 614.851562 244.25 C 613.648438 243.605469 612.421875 243.003906 611.179688 242.4375 C 609.9375 241.875 608.675781 241.351562 607.398438 240.867188 C 606.121094 240.382812 604.832031 239.941406 603.523438 239.542969 C 602.21875 239.144531 600.902344 238.789062 599.574219 238.472656 C 598.242188 238.160156 596.90625 237.890625 595.558594 237.664062 C 594.210938 237.4375 592.859375 237.253906 591.503906 237.113281 C 590.144531 236.972656 588.78125 236.878906 587.417969 236.828125 C 586.054688 236.777344 584.6875 236.769531 583.324219 236.808594 C 581.957031 236.84375 580.597656 236.925781 579.238281 237.050781 C 577.875 237.175781 576.523438 237.347656 575.171875 237.558594 C 573.824219 237.773438 572.484375 238.03125 571.152344 238.332031 C 569.820312 238.628906 568.5 238.972656 567.191406 239.359375 C 565.878906 239.746094 564.585938 240.171875 563.300781 240.644531 C 562.019531 241.113281 560.753906 241.625 559.503906 242.175781 C 558.257812 242.726562 557.027344 243.320312 555.816406 243.949219 C 554.605469 244.582031 553.417969 245.253906 552.25 245.960938 C 551.082031 246.671875 549.9375 247.414062 548.820312 248.199219 C 547.703125 248.980469 546.609375 249.800781 545.542969 250.652344 C 544.476562 251.507812 543.441406 252.394531 542.433594 253.316406 C 541.421875 254.234375 540.445312 255.1875 539.5 256.171875 C 538.554688 257.15625 537.640625 258.171875 536.757812 259.214844 C 535.878906 260.257812 535.03125 261.328125 534.21875 262.425781 C 533.410156 263.523438 532.632812 264.648438 531.894531 265.796875 C 531.15625 266.945312 530.457031 268.117188 529.792969 269.308594 C 529.128906 270.503906 528.507812 271.71875 527.921875 272.953125 C 527.339844 274.1875 526.792969 275.4375 526.292969 276.707031 C 525.789062 277.976562 525.328125 279.261719 524.90625 280.558594 C 524.488281 281.859375 524.109375 283.171875 523.777344 284.496094 C 523.441406 285.820312 523.148438 287.152344 522.902344 288.496094 C 522.652344 289.835938 522.449219 291.1875 522.289062 292.542969 C 522.128906 293.898438 522.011719 295.257812 521.9375 296.621094 C 521.867188 297.984375 521.835938 299.351562 521.851562 300.714844 C 521.867188 302.082031 521.929688 303.445312 522.03125 304.804688 C 522.136719 306.167969 522.285156 307.523438 522.476562 308.875 C 522.667969 310.226562 522.90625 311.574219 523.183594 312.910156 C 523.464844 314.246094 523.785156 315.570312 524.152344 316.886719 C 524.515625 318.203125 524.921875 319.507812 525.371094 320.796875 C 525.824219 322.085938 526.3125 323.359375 526.84375 324.617188 C 527.378906 325.875 527.949219 327.113281 528.5625 328.332031 C 529.175781 329.554688 529.828125 330.753906 530.515625 331.929688 C 531.207031 333.109375 531.933594 334.261719 532.699219 335.394531 C 533.464844 336.527344 534.265625 337.628906 535.101562 338.710938 C 535.9375 339.789062 536.808594 340.839844 537.714844 341.863281 C 538.617188 342.886719 539.554688 343.878906 540.523438 344.839844 C 541.492188 345.800781 542.492188 346.730469 543.523438 347.628906 C 544.550781 348.527344 545.609375 349.386719 546.695312 350.21875 C 547.78125 351.046875 548.890625 351.839844 550.027344 352.59375 C 551.164062 353.351562 552.324219 354.070312 553.507812 354.753906 C 554.691406 355.433594 555.894531 356.078125 557.121094 356.679688 C 558.34375 357.285156 559.585938 357.847656 560.847656 358.371094 C 562.109375 358.890625 563.386719 359.375 564.679688 359.8125 C 565.972656 360.253906 567.277344 360.652344 568.597656 361.007812 C 569.914062 361.363281 571.242188 361.675781 572.582031 361.945312 C 573.921875 362.214844 575.265625 362.441406 576.621094 362.621094 C 577.972656 362.804688 579.332031 362.941406 580.691406 363.035156 C 582.054688 363.128906 583.417969 363.179688 584.785156 363.1875 C 586.148438 363.191406 587.515625 363.152344 588.878906 363.070312 C 590.242188 362.988281 591.597656 362.859375 592.953125 362.691406 C 594.308594 362.519531 595.65625 362.304688 596.996094 362.046875 C 598.339844 361.789062 599.667969 361.488281 600.992188 361.144531 C 602.3125 360.800781 603.621094 360.414062 604.917969 359.984375 C 606.214844 359.554688 607.496094 359.082031 608.761719 358.570312 C 610.027344 358.058594 611.273438 357.503906 612.503906 356.914062 C 613.734375 356.320312 614.941406 355.6875 616.132812 355.015625 C 617.320312 354.34375 618.488281 353.636719 619.628906 352.886719 C 620.773438 352.140625 621.890625 351.355469 622.984375 350.539062 C 624.074219 349.71875 625.140625 348.863281 626.175781 347.976562 C 627.214844 347.085938 628.21875 346.164062 629.199219 345.210938 C 630.175781 344.257812 631.121094 343.273438 632.03125 342.257812 C 632.945312 341.242188 633.824219 340.199219 634.671875 339.128906 C 635.515625 338.054688 636.328125 336.957031 637.101562 335.832031 C 637.875 334.707031 638.613281 333.558594 639.3125 332.386719 C 640.015625 331.214844 640.675781 330.019531 641.296875 328.804688 C 641.921875 327.589844 642.503906 326.355469 643.046875 325.105469 C 643.589844 323.851562 644.089844 322.582031 644.550781 321.296875 C 645.011719 320.011719 645.429688 318.710938 645.804688 317.398438 C 646.183594 316.085938 646.515625 314.761719 646.804688 313.429688 C 647.097656 312.09375 647.34375 310.753906 647.546875 309.402344 C 647.75 308.050781 647.910156 306.695312 648.023438 305.335938 C 648.140625 303.976562 648.210938 302.613281 648.238281 301.246094 C 648.265625 299.882812 648.25 298.515625 648.1875 297.152344 C 648.128906 295.789062 648.023438 294.429688 647.871094 293.070312 C 647.722656 291.714844 647.53125 290.363281 647.292969 289.019531 C 647.054688 287.671875 646.777344 286.335938 646.453125 285.011719 L 609.15625 295.980469 C 609.386719 297.308594 609.507812 298.644531 609.515625 299.992188 Z M 609.5 300.007812 " clip-rule="nonzero"/></clipPath><linearGradient x1="115.423375" gradientTransform="matrix(1.567112, 0, 0, -1.567112, 465.826966, 424.546246)" y1="38.214022" x2="37.201911" gradientUnits="userSpaceOnUse" y2="121.200372" id="661deef9e1"><stop stop-opacity="1" stop-color="rgb(100%, 100%, 100%)" offset="0"/><stop stop-opacity="1" stop-color="rgb(100%, 100%, 100%)" offset="0.0625"/><stop stop-opacity="1" stop-color="rgb(100%, 100%, 100%)" offset="0.09375"/><stop stop-opacity="1" stop-color="rgb(100%, 100%, 100%)" offset="0.109375"/><stop stop-opacity="1" stop-color="rgb(100%, 99.847412%, 99.650574%)" offset="0.113281"/><stop stop-opacity="1" stop-color="rgb(100%, 99.69635%, 99.302673%)" offset="0.117188"/><stop stop-opacity="1" stop-color="rgb(100%, 99.476624%, 98.799133%)" offset="0.121094"/><stop stop-opacity="1" stop-color="rgb(100%, 99.258423%, 98.297119%)" offset="0.125"/><stop stop-opacity="1" stop-color="rgb(100%, 99.038696%, 97.793579%)" offset="0.128906"/><stop stop-opacity="1" stop-color="rgb(100%, 98.820496%, 97.290039%)" offset="0.132813"/><stop stop-opacity="1" stop-color="rgb(100%, 98.600769%, 96.786499%)" offset="0.136719"/><stop stop-opacity="1" stop-color="rgb(100%, 98.382568%, 96.284485%)" offset="0.140625"/><stop stop-opacity="1" stop-color="rgb(100%, 98.164368%, 95.780945%)" offset="0.144531"/><stop stop-opacity="1" stop-color="rgb(100%, 97.946167%, 95.277405%)" offset="0.148438"/><stop stop-opacity="1" stop-color="rgb(100%, 97.72644%, 94.773865%)" offset="0.152344"/><stop stop-opacity="1" stop-color="rgb(100%, 97.50824%, 94.271851%)" offset="0.15625"/><stop stop-opacity="1" stop-color="rgb(100%, 97.288513%, 93.768311%)" offset="0.160156"/><stop stop-opacity="1" stop-color="rgb(100%, 97.070312%, 93.266296%)" offset="0.164063"/><stop stop-opacity="1" stop-color="rgb(100%, 96.850586%, 92.762756%)" offset="0.167969"/><stop stop-opacity="1" stop-color="rgb(100%, 96.632385%, 92.259216%)" offset="0.171875"/><stop stop-opacity="1" stop-color="rgb(100%, 96.412659%, 91.755676%)" offset="0.175781"/><stop stop-opacity="1" stop-color="rgb(100%, 96.194458%, 91.253662%)" offset="0.179688"/><stop stop-opacity="1" stop-color="rgb(100%, 95.974731%, 90.750122%)" offset="0.183594"/><stop stop-opacity="1" stop-color="rgb(100%, 95.756531%, 90.248108%)" offset="0.1875"/><stop stop-opacity="1" stop-color="rgb(100%, 95.53833%, 89.744568%)" offset="0.191406"/><stop stop-opacity="1" stop-color="rgb(100%, 95.320129%, 89.241028%)" offset="0.195313"/><stop stop-opacity="1" stop-color="rgb(100%, 95.100403%, 88.737488%)" offset="0.199219"/><stop stop-opacity="1" stop-color="rgb(100%, 94.882202%, 88.235474%)" offset="0.203125"/><stop stop-opacity="1" stop-color="rgb(100%, 94.662476%, 87.731934%)" offset="0.207031"/><stop stop-opacity="1" stop-color="rgb(100%, 94.444275%, 87.229919%)" offset="0.210938"/><stop stop-opacity="1" stop-color="rgb(100%, 94.224548%, 86.726379%)" offset="0.214844"/><stop stop-opacity="1" stop-color="rgb(100%, 94.006348%, 86.222839%)" offset="0.21875"/><stop stop-opacity="1" stop-color="rgb(100%, 93.786621%, 85.719299%)" offset="0.222656"/><stop stop-opacity="1" stop-color="rgb(100%, 93.56842%, 85.217285%)" offset="0.226563"/><stop stop-opacity="1" stop-color="rgb(100%, 93.35022%, 84.713745%)" offset="0.230469"/><stop stop-opacity="1" stop-color="rgb(100%, 93.132019%, 84.211731%)" offset="0.234375"/><stop stop-opacity="1" stop-color="rgb(100%, 92.912292%, 83.708191%)" offset="0.238281"/><stop stop-opacity="1" stop-color="rgb(100%, 92.694092%, 83.204651%)" offset="0.242188"/><stop stop-opacity="1" stop-color="rgb(100%, 92.474365%, 82.701111%)" offset="0.246094"/><stop stop-opacity="1" stop-color="rgb(100%, 92.256165%, 82.199097%)" offset="0.25"/><stop stop-opacity="1" stop-color="rgb(100%, 92.036438%, 81.695557%)" offset="0.253906"/><stop stop-opacity="1" stop-color="rgb(100%, 91.818237%, 81.192017%)" offset="0.257813"/><stop stop-opacity="1" stop-color="rgb(100%, 91.598511%, 80.688477%)" offset="0.261719"/><stop stop-opacity="1" stop-color="rgb(100%, 91.38031%, 80.186462%)" offset="0.265625"/><stop stop-opacity="1" stop-color="rgb(100%, 91.160583%, 79.682922%)" offset="0.269531"/><stop stop-opacity="1" stop-color="rgb(100%, 90.942383%, 79.180908%)" offset="0.273438"/><stop stop-opacity="1" stop-color="rgb(100%, 90.724182%, 78.677368%)" offset="0.277344"/><stop stop-opacity="1" stop-color="rgb(100%, 90.505981%, 78.173828%)" offset="0.28125"/><stop stop-opacity="1" stop-color="rgb(100%, 90.286255%, 77.670288%)" offset="0.285156"/><stop stop-opacity="1" stop-color="rgb(100%, 90.068054%, 77.168274%)" offset="0.289063"/><stop stop-opacity="1" stop-color="rgb(100%, 89.848328%, 76.664734%)" offset="0.292969"/><stop stop-opacity="1" stop-color="rgb(100%, 89.630127%, 76.16272%)" offset="0.296875"/><stop stop-opacity="1" stop-color="rgb(100%, 89.4104%, 75.65918%)" offset="0.300781"/><stop stop-opacity="1" stop-color="rgb(100%, 89.1922%, 75.15564%)" offset="0.304688"/><stop stop-opacity="1" stop-color="rgb(100%, 88.972473%, 74.6521%)" offset="0.308594"/><stop stop-opacity="1" stop-color="rgb(100%, 88.754272%, 74.150085%)" offset="0.3125"/><stop stop-opacity="1" stop-color="rgb(100%, 88.536072%, 73.646545%)" offset="0.316406"/><stop stop-opacity="1" stop-color="rgb(100%, 88.317871%, 73.144531%)" offset="0.320312"/><stop stop-opacity="1" stop-color="rgb(100%, 88.098145%, 72.640991%)" offset="0.324219"/><stop stop-opacity="1" stop-color="rgb(100%, 87.879944%, 72.137451%)" offset="0.328125"/><stop stop-opacity="1" stop-color="rgb(100%, 87.660217%, 71.633911%)" offset="0.332031"/><stop stop-opacity="1" stop-color="rgb(100%, 87.442017%, 71.131897%)" offset="0.335938"/><stop stop-opacity="1" stop-color="rgb(100%, 87.22229%, 70.628357%)" offset="0.339844"/><stop stop-opacity="1" stop-color="rgb(100%, 87.004089%, 70.126343%)" offset="0.34375"/><stop stop-opacity="1" stop-color="rgb(100%, 86.784363%, 69.622803%)" offset="0.347656"/><stop stop-opacity="1" stop-color="rgb(100%, 86.566162%, 69.119263%)" offset="0.351562"/><stop stop-opacity="1" stop-color="rgb(100%, 86.346436%, 68.615723%)" offset="0.355469"/><stop stop-opacity="1" stop-color="rgb(100%, 86.128235%, 68.113708%)" offset="0.359375"/><stop stop-opacity="1" stop-color="rgb(100%, 85.910034%, 67.610168%)" offset="0.363281"/><stop stop-opacity="1" stop-color="rgb(100%, 85.691833%, 67.106628%)" offset="0.367188"/><stop stop-opacity="1" stop-color="rgb(100%, 85.472107%, 66.603088%)" offset="0.371094"/><stop stop-opacity="1" stop-color="rgb(100%, 85.253906%, 66.101074%)" offset="0.375"/><stop stop-opacity="1" stop-color="rgb(100%, 85.03418%, 65.597534%)" offset="0.378906"/><stop stop-opacity="1" stop-color="rgb(100%, 84.815979%, 65.09552%)" offset="0.382812"/><stop stop-opacity="1" stop-color="rgb(100%, 84.596252%, 64.59198%)" offset="0.386719"/><stop stop-opacity="1" stop-color="rgb(100%, 84.378052%, 64.08844%)" offset="0.390625"/><stop stop-opacity="1" stop-color="rgb(100%, 84.158325%, 63.5849%)" offset="0.394531"/><stop stop-opacity="1" stop-color="rgb(100%, 83.940125%, 63.082886%)" offset="0.398438"/><stop stop-opacity="1" stop-color="rgb(100%, 83.721924%, 62.579346%)" offset="0.402344"/><stop stop-opacity="1" stop-color="rgb(100%, 83.503723%, 62.077332%)" offset="0.40625"/><stop stop-opacity="1" stop-color="rgb(100%, 83.283997%, 61.573792%)" offset="0.410156"/><stop stop-opacity="1" stop-color="rgb(100%, 83.065796%, 61.070251%)" offset="0.414062"/><stop stop-opacity="1" stop-color="rgb(100%, 82.846069%, 60.566711%)" offset="0.417969"/><stop stop-opacity="1" stop-color="rgb(100%, 82.627869%, 60.064697%)" offset="0.421875"/><stop stop-opacity="1" stop-color="rgb(100%, 82.408142%, 59.561157%)" offset="0.425781"/><stop stop-opacity="1" stop-color="rgb(100%, 82.189941%, 59.059143%)" offset="0.429688"/><stop stop-opacity="1" stop-color="rgb(100%, 81.970215%, 58.555603%)" offset="0.433594"/><stop stop-opacity="1" stop-color="rgb(100%, 81.752014%, 58.052063%)" offset="0.4375"/><stop stop-opacity="1" stop-color="rgb(100%, 81.532288%, 57.548523%)" offset="0.441406"/><stop stop-opacity="1" stop-color="rgb(100%, 81.314087%, 57.046509%)" offset="0.445312"/><stop stop-opacity="1" stop-color="rgb(100%, 81.095886%, 56.542969%)" offset="0.449219"/><stop stop-opacity="1" stop-color="rgb(100%, 80.877686%, 56.039429%)" offset="0.453125"/><stop stop-opacity="1" stop-color="rgb(100%, 80.657959%, 55.535889%)" offset="0.457031"/><stop stop-opacity="1" stop-color="rgb(100%, 80.439758%, 55.033875%)" offset="0.460937"/><stop stop-opacity="1" stop-color="rgb(100%, 80.220032%, 54.530334%)" offset="0.464844"/><stop stop-opacity="1" stop-color="rgb(100%, 80.001831%, 54.02832%)" offset="0.46875"/><stop stop-opacity="1" stop-color="rgb(100%, 79.782104%, 53.52478%)" offset="0.472656"/><stop stop-opacity="1" stop-color="rgb(100%, 79.563904%, 53.02124%)" offset="0.476562"/><stop stop-opacity="1" stop-color="rgb(100%, 79.344177%, 52.5177%)" offset="0.480469"/><stop stop-opacity="1" stop-color="rgb(100%, 79.125977%, 52.015686%)" offset="0.484375"/><stop stop-opacity="1" stop-color="rgb(100%, 78.90625%, 51.512146%)" offset="0.488281"/><stop stop-opacity="1" stop-color="rgb(100%, 78.688049%, 51.010132%)" offset="0.492188"/><stop stop-opacity="1" stop-color="rgb(100%, 78.469849%, 50.506592%)" offset="0.496094"/><stop stop-opacity="1" stop-color="rgb(100%, 78.251648%, 50.003052%)" offset="0.5"/><stop stop-opacity="1" stop-color="rgb(100%, 78.031921%, 49.499512%)" offset="0.503906"/><stop stop-opacity="1" stop-color="rgb(100%, 77.813721%, 48.997498%)" offset="0.507812"/><stop stop-opacity="1" stop-color="rgb(100%, 77.593994%, 48.493958%)" offset="0.511719"/><stop stop-opacity="1" stop-color="rgb(100%, 77.375793%, 47.991943%)" offset="0.515625"/><stop stop-opacity="1" stop-color="rgb(100%, 77.156067%, 47.488403%)" offset="0.519531"/><stop stop-opacity="1" stop-color="rgb(100%, 76.937866%, 46.984863%)" offset="0.523438"/><stop stop-opacity="1" stop-color="rgb(100%, 76.71814%, 46.481323%)" offset="0.527344"/><stop stop-opacity="1" stop-color="rgb(100%, 76.499939%, 45.979309%)" offset="0.53125"/><stop stop-opacity="1" stop-color="rgb(100%, 76.281738%, 45.475769%)" offset="0.535156"/><stop stop-opacity="1" stop-color="rgb(100%, 76.063538%, 44.973755%)" offset="0.539063"/><stop stop-opacity="1" stop-color="rgb(100%, 75.843811%, 44.470215%)" offset="0.542969"/><stop stop-opacity="1" stop-color="rgb(100%, 75.62561%, 43.966675%)" offset="0.546875"/><stop stop-opacity="1" stop-color="rgb(100%, 75.405884%, 43.463135%)" offset="0.550781"/><stop stop-opacity="1" stop-color="rgb(100%, 75.187683%, 42.961121%)" offset="0.554688"/><stop stop-opacity="1" stop-color="rgb(100%, 74.967957%, 42.457581%)" offset="0.558594"/><stop stop-opacity="1" stop-color="rgb(100%, 74.749756%, 41.954041%)" offset="0.5625"/><stop stop-opacity="1" stop-color="rgb(100%, 74.530029%, 41.4505%)" offset="0.566406"/><stop stop-opacity="1" stop-color="rgb(100%, 74.311829%, 40.948486%)" offset="0.570313"/><stop stop-opacity="1" stop-color="rgb(100%, 74.092102%, 40.444946%)" offset="0.574219"/><stop stop-opacity="1" stop-color="rgb(100%, 73.873901%, 39.942932%)" offset="0.578125"/><stop stop-opacity="1" stop-color="rgb(100%, 73.655701%, 39.439392%)" offset="0.582031"/><stop stop-opacity="1" stop-color="rgb(100%, 73.4375%, 38.935852%)" offset="0.585938"/><stop stop-opacity="1" stop-color="rgb(100%, 73.217773%, 38.432312%)" offset="0.589844"/><stop stop-opacity="1" stop-color="rgb(100%, 72.999573%, 37.930298%)" offset="0.59375"/><stop stop-opacity="1" stop-color="rgb(100%, 72.779846%, 37.426758%)" offset="0.597656"/><stop stop-opacity="1" stop-color="rgb(100%, 72.561646%, 36.924744%)" offset="0.601563"/><stop stop-opacity="1" stop-color="rgb(100%, 72.341919%, 36.421204%)" offset="0.605469"/><stop stop-opacity="1" stop-color="rgb(100%, 72.123718%, 35.917664%)" offset="0.609375"/><stop stop-opacity="1" stop-color="rgb(100%, 71.903992%, 35.414124%)" offset="0.613281"/><stop stop-opacity="1" stop-color="rgb(100%, 71.685791%, 34.912109%)" offset="0.617188"/><stop stop-opacity="1" stop-color="rgb(100%, 71.46759%, 34.408569%)" offset="0.621094"/><stop stop-opacity="1" stop-color="rgb(100%, 71.24939%, 33.906555%)" offset="0.625"/><stop stop-opacity="1" stop-color="rgb(100%, 71.029663%, 33.403015%)" offset="0.628906"/><stop stop-opacity="1" stop-color="rgb(100%, 70.811462%, 32.899475%)" offset="0.632813"/><stop stop-opacity="1" stop-color="rgb(100%, 70.591736%, 32.395935%)" offset="0.636719"/><stop stop-opacity="1" stop-color="rgb(100%, 70.373535%, 31.893921%)" offset="0.640625"/><stop stop-opacity="1" stop-color="rgb(100%, 70.153809%, 31.390381%)" offset="0.644531"/><stop stop-opacity="1" stop-color="rgb(100%, 69.935608%, 30.888367%)" offset="0.648438"/><stop stop-opacity="1" stop-color="rgb(100%, 69.715881%, 30.384827%)" offset="0.652344"/><stop stop-opacity="1" stop-color="rgb(100%, 69.497681%, 29.881287%)" offset="0.65625"/><stop stop-opacity="1" stop-color="rgb(100%, 69.277954%, 29.377747%)" offset="0.660156"/><stop stop-opacity="1" stop-color="rgb(100%, 69.059753%, 28.875732%)" offset="0.664063"/><stop stop-opacity="1" stop-color="rgb(100%, 68.841553%, 28.372192%)" offset="0.667969"/><stop stop-opacity="1" stop-color="rgb(100%, 68.623352%, 27.868652%)" offset="0.671875"/><stop stop-opacity="1" stop-color="rgb(100%, 68.403625%, 27.365112%)" offset="0.675781"/><stop stop-opacity="1" stop-color="rgb(100%, 68.185425%, 26.863098%)" offset="0.679688"/><stop stop-opacity="1" stop-color="rgb(100%, 67.965698%, 26.359558%)" offset="0.683594"/><stop stop-opacity="1" stop-color="rgb(100%, 67.747498%, 25.857544%)" offset="0.6875"/><stop stop-opacity="1" stop-color="rgb(100%, 67.527771%, 25.354004%)" offset="0.691406"/><stop stop-opacity="1" stop-color="rgb(100%, 67.30957%, 24.850464%)" offset="0.695313"/><stop stop-opacity="1" stop-color="rgb(100%, 67.089844%, 24.346924%)" offset="0.699219"/><stop stop-opacity="1" stop-color="rgb(100%, 66.871643%, 23.84491%)" offset="0.703125"/><stop stop-opacity="1" stop-color="rgb(100%, 66.653442%, 23.34137%)" offset="0.707031"/><stop stop-opacity="1" stop-color="rgb(100%, 66.435242%, 22.839355%)" offset="0.710938"/><stop stop-opacity="1" stop-color="rgb(100%, 66.215515%, 22.335815%)" offset="0.714844"/><stop stop-opacity="1" stop-color="rgb(100%, 65.997314%, 21.832275%)" offset="0.71875"/><stop stop-opacity="1" stop-color="rgb(100%, 65.777588%, 21.328735%)" offset="0.722656"/><stop stop-opacity="1" stop-color="rgb(100%, 65.559387%, 20.826721%)" offset="0.726562"/><stop stop-opacity="1" stop-color="rgb(100%, 65.339661%, 20.323181%)" offset="0.730469"/><stop stop-opacity="1" stop-color="rgb(100%, 65.12146%, 19.821167%)" offset="0.734375"/><stop stop-opacity="1" stop-color="rgb(100%, 64.901733%, 19.317627%)" offset="0.738281"/><stop stop-opacity="1" stop-color="rgb(100%, 64.683533%, 18.814087%)" offset="0.742188"/><stop stop-opacity="1" stop-color="rgb(100%, 64.463806%, 18.310547%)" offset="0.746094"/><stop stop-opacity="1" stop-color="rgb(100%, 64.245605%, 17.808533%)" offset="0.75"/><stop stop-opacity="1" stop-color="rgb(100%, 64.027405%, 17.304993%)" offset="0.753906"/><stop stop-opacity="1" stop-color="rgb(100%, 63.809204%, 16.802979%)" offset="0.757812"/><stop stop-opacity="1" stop-color="rgb(100%, 63.589478%, 16.299438%)" offset="0.761719"/><stop stop-opacity="1" stop-color="rgb(100%, 63.371277%, 15.795898%)" offset="0.765625"/><stop stop-opacity="1" stop-color="rgb(100%, 63.15155%, 15.292358%)" offset="0.769531"/><stop stop-opacity="1" stop-color="rgb(100%, 62.93335%, 14.790344%)" offset="0.773438"/><stop stop-opacity="1" stop-color="rgb(100%, 62.713623%, 14.286804%)" offset="0.777344"/><stop stop-opacity="1" stop-color="rgb(100%, 62.495422%, 13.783264%)" offset="0.78125"/><stop stop-opacity="1" stop-color="rgb(100%, 62.275696%, 13.279724%)" offset="0.785156"/><stop stop-opacity="1" stop-color="rgb(100%, 62.057495%, 12.77771%)" offset="0.789063"/><stop stop-opacity="1" stop-color="rgb(100%, 61.837769%, 12.27417%)" offset="0.792969"/><stop stop-opacity="1" stop-color="rgb(100%, 61.619568%, 11.772156%)" offset="0.796875"/><stop stop-opacity="1" stop-color="rgb(100%, 61.401367%, 11.268616%)" offset="0.800781"/><stop stop-opacity="1" stop-color="rgb(100%, 61.183167%, 10.765076%)" offset="0.804688"/><stop stop-opacity="1" stop-color="rgb(100%, 60.96344%, 10.261536%)" offset="0.808594"/><stop stop-opacity="1" stop-color="rgb(100%, 60.745239%, 9.759521%)" offset="0.8125"/><stop stop-opacity="1" stop-color="rgb(100%, 60.525513%, 9.255981%)" offset="0.816406"/><stop stop-opacity="1" stop-color="rgb(100%, 60.307312%, 8.753967%)" offset="0.820313"/><stop stop-opacity="1" stop-color="rgb(100%, 60.087585%, 8.250427%)" offset="0.824219"/><stop stop-opacity="1" stop-color="rgb(100%, 59.869385%, 7.746887%)" offset="0.828125"/><stop stop-opacity="1" stop-color="rgb(100%, 59.649658%, 7.243347%)" offset="0.832031"/><stop stop-opacity="1" stop-color="rgb(100%, 59.431458%, 6.741333%)" offset="0.835938"/><stop stop-opacity="1" stop-color="rgb(100%, 59.213257%, 6.237793%)" offset="0.839844"/><stop stop-opacity="1" stop-color="rgb(100%, 58.995056%, 5.735779%)" offset="0.84375"/><stop stop-opacity="1" stop-color="rgb(100%, 58.77533%, 5.232239%)" offset="0.847656"/><stop stop-opacity="1" stop-color="rgb(100%, 58.557129%, 4.728699%)" offset="0.851563"/><stop stop-opacity="1" stop-color="rgb(100%, 58.337402%, 4.225159%)" offset="0.855469"/><stop stop-opacity="1" stop-color="rgb(100%, 58.119202%, 3.723145%)" offset="0.859375"/><stop stop-opacity="1" stop-color="rgb(100%, 57.899475%, 3.219604%)" offset="0.863281"/><stop stop-opacity="1" stop-color="rgb(100%, 57.681274%, 2.71759%)" offset="0.867188"/><stop stop-opacity="1" stop-color="rgb(100%, 57.461548%, 2.21405%)" offset="0.871094"/><stop stop-opacity="1" stop-color="rgb(100%, 57.243347%, 1.71051%)" offset="0.875"/><stop stop-opacity="1" stop-color="rgb(100%, 57.023621%, 1.20697%)" offset="0.878906"/><stop stop-opacity="1" stop-color="rgb(100%, 56.80542%, 0.704956%)" offset="0.882813"/><stop stop-opacity="1" stop-color="rgb(100%, 56.651306%, 0.352478%)" offset="0.886719"/><stop stop-opacity="1" stop-color="rgb(100%, 56.498718%, 0%)" offset="0.890625"/><stop stop-opacity="1" stop-color="rgb(100%, 56.498718%, 0%)" offset="0.90625"/><stop stop-opacity="1" stop-color="rgb(100%, 56.498718%, 0%)" offset="0.9375"/><stop stop-opacity="1" stop-color="rgb(100%, 56.498718%, 0%)" offset="1"/></linearGradient><clipPath id="16daf91c51"><path d="M 485 199 L 686 199 L 686 401 L 485 401 Z M 485 199 " clip-rule="nonzero"/></clipPath><clipPath id="20a8597f02"><path d="M 585.757812 199.824219 C 584.117188 199.824219 582.480469 199.863281 580.84375 199.941406 C 579.203125 200.023438 577.570312 200.144531 575.9375 200.304688 C 574.304688 200.464844 572.679688 200.667969 571.058594 200.90625 C 569.4375 201.148438 567.820312 201.425781 566.210938 201.746094 C 564.605469 202.066406 563.003906 202.425781 561.414062 202.824219 C 559.824219 203.222656 558.246094 203.660156 556.675781 204.136719 C 555.105469 204.613281 553.550781 205.125 552.007812 205.679688 C 550.460938 206.230469 548.933594 206.820312 547.417969 207.449219 C 545.902344 208.074219 544.40625 208.738281 542.921875 209.441406 C 541.441406 210.140625 539.976562 210.878906 538.53125 211.652344 C 537.085938 212.425781 535.660156 213.234375 534.253906 214.074219 C 532.847656 214.917969 531.460938 215.796875 530.097656 216.707031 C 528.734375 217.617188 527.394531 218.5625 526.078125 219.539062 C 524.761719 220.515625 523.46875 221.523438 522.199219 222.5625 C 520.933594 223.605469 519.691406 224.675781 518.476562 225.773438 C 517.261719 226.875 516.074219 228.007812 514.917969 229.164062 C 513.757812 230.324219 512.625 231.511719 511.527344 232.726562 C 510.425781 233.941406 509.355469 235.183594 508.3125 236.449219 C 507.273438 237.71875 506.265625 239.011719 505.289062 240.328125 C 504.3125 241.644531 503.367188 242.984375 502.457031 244.347656 C 501.546875 245.710938 500.667969 247.097656 499.824219 248.503906 C 498.984375 249.910156 498.175781 251.335938 497.402344 252.78125 C 496.628906 254.226562 495.890625 255.691406 495.191406 257.171875 C 494.492188 258.65625 493.824219 260.152344 493.199219 261.667969 C 492.570312 263.183594 491.980469 264.710938 491.429688 266.257812 C 490.875 267.800781 490.363281 269.355469 489.886719 270.925781 C 489.410156 272.496094 488.972656 274.074219 488.574219 275.664062 C 488.175781 277.253906 487.816406 278.855469 487.496094 280.460938 C 487.175781 282.070312 486.898438 283.6875 486.65625 285.308594 C 486.417969 286.929688 486.214844 288.554688 486.054688 290.1875 C 485.894531 291.820312 485.773438 293.453125 485.691406 295.09375 C 485.613281 296.730469 485.574219 298.367188 485.574219 300.007812 C 485.574219 301.648438 485.613281 303.285156 485.691406 304.921875 C 485.773438 306.5625 485.894531 308.195312 486.054688 309.828125 C 486.214844 311.460938 486.417969 313.085938 486.65625 314.707031 C 486.898438 316.328125 487.175781 317.945312 487.496094 319.554688 C 487.816406 321.160156 488.175781 322.761719 488.574219 324.351562 C 488.972656 325.941406 489.410156 327.519531 489.886719 329.089844 C 490.363281 330.660156 490.875 332.214844 491.429688 333.757812 C 491.980469 335.304688 492.570312 336.832031 493.199219 338.347656 C 493.824219 339.863281 494.492188 341.359375 495.191406 342.84375 C 495.890625 344.324219 496.628906 345.789062 497.402344 347.234375 C 498.175781 348.679688 498.984375 350.105469 499.824219 351.511719 C 500.667969 352.917969 501.546875 354.304688 502.457031 355.667969 C 503.367188 357.03125 504.3125 358.371094 505.289062 359.6875 C 506.265625 361.003906 507.273438 362.296875 508.3125 363.566406 C 509.355469 364.832031 510.425781 366.074219 511.527344 367.289062 C 512.625 368.503906 513.757812 369.691406 514.917969 370.851562 C 516.074219 372.007812 517.261719 373.140625 518.476562 374.242188 C 519.691406 375.339844 520.933594 376.410156 522.199219 377.453125 C 523.46875 378.492188 524.761719 379.5 526.078125 380.476562 C 527.394531 381.453125 528.734375 382.398438 530.097656 383.308594 C 531.460938 384.21875 532.847656 385.097656 534.253906 385.941406 C 535.660156 386.78125 537.085938 387.589844 538.53125 388.363281 C 539.976562 389.136719 541.441406 389.875 542.921875 390.574219 C 544.40625 391.277344 545.902344 391.941406 547.417969 392.566406 C 548.933594 393.195312 550.460938 393.785156 552.007812 394.335938 C 553.550781 394.890625 555.105469 395.402344 556.675781 395.878906 C 558.246094 396.355469 559.824219 396.792969 561.414062 397.191406 C 563.003906 397.589844 564.605469 397.949219 566.210938 398.269531 C 567.820312 398.589844 569.4375 398.867188 571.058594 399.109375 C 572.679688 399.347656 574.304688 399.550781 575.9375 399.710938 C 577.570312 399.871094 579.203125 399.992188 580.84375 400.074219 C 582.480469 400.152344 584.117188 400.191406 585.757812 400.191406 C 587.398438 400.191406 589.035156 400.152344 590.675781 400.074219 C 592.3125 399.992188 593.945312 399.871094 595.578125 399.710938 C 597.210938 399.550781 598.835938 399.347656 600.457031 399.109375 C 602.082031 398.867188 603.695312 398.589844 605.304688 398.269531 C 606.910156 397.949219 608.511719 397.589844 610.101562 397.191406 C 611.691406 396.792969 613.269531 396.355469 614.839844 395.878906 C 616.410156 395.402344 617.964844 394.890625 619.507812 394.335938 C 621.054688 393.785156 622.582031 393.195312 624.097656 392.566406 C 625.613281 391.941406 627.109375 391.277344 628.59375 390.574219 C 630.074219 389.875 631.539062 389.136719 632.984375 388.363281 C 634.429688 387.589844 635.855469 386.78125 637.261719 385.941406 C 638.671875 385.097656 640.054688 384.21875 641.417969 383.308594 C 642.78125 382.398438 644.121094 381.453125 645.4375 380.476562 C 646.753906 379.5 648.046875 378.492188 649.316406 377.453125 C 650.582031 376.414062 651.824219 375.339844 653.039062 374.242188 C 654.253906 373.140625 655.441406 372.007812 656.601562 370.851562 C 657.757812 369.691406 658.890625 368.503906 659.992188 367.289062 C 661.089844 366.074219 662.164062 364.832031 663.203125 363.566406 C 664.242188 362.296875 665.25 361.003906 666.226562 359.6875 C 667.203125 358.371094 668.148438 357.03125 669.058594 355.667969 C 669.96875 354.304688 670.847656 352.917969 671.691406 351.511719 C 672.53125 350.105469 673.339844 348.679688 674.113281 347.234375 C 674.886719 345.789062 675.625 344.324219 676.324219 342.84375 C 677.027344 341.359375 677.691406 339.863281 678.316406 338.347656 C 678.945312 336.832031 679.535156 335.304688 680.085938 333.757812 C 680.640625 332.214844 681.152344 330.660156 681.628906 329.089844 C 682.105469 327.519531 682.542969 325.941406 682.941406 324.351562 C 683.339844 322.761719 683.699219 321.160156 684.019531 319.554688 C 684.339844 317.945312 684.617188 316.328125 684.859375 314.707031 C 685.101562 313.085938 685.300781 311.460938 685.460938 309.828125 C 685.621094 308.195312 685.742188 306.5625 685.824219 304.921875 C 685.902344 303.285156 685.945312 301.648438 685.945312 300.007812 C 685.945312 298.367188 685.902344 296.730469 685.824219 295.09375 C 685.742188 293.453125 685.621094 291.820312 685.460938 290.1875 C 685.300781 288.554688 685.101562 286.929688 684.859375 285.308594 C 684.617188 283.6875 684.339844 282.070312 684.019531 280.460938 C 683.699219 278.855469 683.339844 277.253906 682.941406 275.664062 C 682.542969 274.074219 682.105469 272.496094 681.628906 270.925781 C 681.152344 269.355469 680.640625 267.800781 680.085938 266.257812 C 679.535156 264.710938 678.945312 263.183594 678.316406 261.667969 C 677.691406 260.152344 677.027344 258.65625 676.324219 257.171875 C 675.625 255.691406 674.886719 254.226562 674.113281 252.78125 C 673.339844 251.335938 672.53125 249.910156 671.691406 248.503906 C 670.847656 247.097656 669.96875 245.710938 669.058594 244.347656 C 668.148438 242.984375 667.203125 241.644531 666.226562 240.328125 C 665.25 239.011719 664.242188 237.71875 663.203125 236.449219 C 662.164062 235.183594 661.089844 233.941406 659.992188 232.726562 C 658.890625 231.511719 657.757812 230.324219 656.601562 229.164062 C 655.441406 228.007812 654.253906 226.875 653.039062 225.773438 C 651.824219 224.675781 650.582031 223.605469 649.316406 222.5625 C 648.046875 221.523438 646.753906 220.515625 645.4375 219.539062 C 644.121094 218.5625 642.78125 217.617188 641.417969 216.707031 C 640.054688 215.796875 638.671875 214.917969 637.261719 214.074219 C 635.855469 213.234375 634.429688 212.425781 632.984375 211.652344 C 631.539062 210.878906 630.074219 210.140625 628.59375 209.441406 C 627.109375 208.738281 625.613281 208.074219 624.097656 207.449219 C 622.582031 206.820312 621.054688 206.230469 619.507812 205.679688 C 617.964844 205.125 616.410156 204.613281 614.839844 204.136719 C 613.269531 203.660156 611.691406 203.222656 610.101562 202.824219 C 608.511719 202.425781 606.910156 202.066406 605.304688 201.746094 C 603.695312 201.425781 602.082031 201.148438 600.457031 200.90625 C 598.835938 200.667969 597.210938 200.464844 595.578125 200.304688 C 593.945312 200.144531 592.3125 200.023438 590.675781 199.941406 C 589.035156 199.863281 587.398438 199.824219 585.757812 199.824219 Z M 666.183594 279.101562 L 661.714844 280.371094 C 662.035156 281.59375 662.328125 282.824219 662.585938 284.0625 C 662.847656 285.300781 663.078125 286.542969 663.28125 287.792969 C 663.480469 289.039062 663.652344 290.292969 663.792969 291.550781 C 663.933594 292.804688 664.042969 294.066406 664.121094 295.328125 C 664.199219 296.589844 664.25 297.851562 664.265625 299.117188 C 664.285156 300.382812 664.273438 301.644531 664.230469 302.910156 C 664.1875 304.171875 664.113281 305.4375 664.007812 306.695312 C 663.90625 307.957031 663.769531 309.214844 663.605469 310.46875 C 663.441406 311.722656 663.246094 312.96875 663.023438 314.214844 C 662.796875 315.457031 662.542969 316.695312 662.257812 317.929688 C 661.972656 319.160156 661.65625 320.386719 661.3125 321.601562 C 660.96875 322.820312 660.59375 324.027344 660.191406 325.226562 C 659.789062 326.425781 659.359375 327.613281 658.898438 328.789062 C 658.4375 329.96875 657.949219 331.132812 657.433594 332.289062 C 656.917969 333.441406 656.371094 334.582031 655.800781 335.710938 C 655.230469 336.839844 654.628906 337.953125 654.003906 339.050781 C 653.378906 340.152344 652.726562 341.234375 652.050781 342.300781 C 651.371094 343.367188 650.667969 344.417969 649.941406 345.453125 C 649.210938 346.488281 648.457031 347.5 647.679688 348.5 C 646.902344 349.496094 646.101562 350.472656 645.277344 351.433594 C 644.449219 352.390625 643.601562 353.328125 642.734375 354.246094 C 641.863281 355.164062 640.96875 356.058594 640.054688 356.933594 C 639.144531 357.804688 638.207031 358.65625 637.253906 359.488281 C 636.296875 360.316406 635.324219 361.121094 634.332031 361.902344 C 633.335938 362.683594 632.324219 363.441406 631.292969 364.175781 C 630.261719 364.910156 629.214844 365.617188 628.152344 366.296875 C 627.085938 366.980469 626.003906 367.636719 624.910156 368.265625 C 623.8125 368.898438 622.703125 369.5 621.574219 370.074219 C 620.449219 370.652344 619.3125 371.199219 618.160156 371.722656 C 617.007812 372.242188 615.84375 372.738281 614.667969 373.203125 C 613.492188 373.667969 612.304688 374.101562 611.109375 374.511719 C 609.910156 374.917969 608.703125 375.296875 607.488281 375.644531 C 606.273438 375.996094 605.050781 376.3125 603.820312 376.605469 C 602.589844 376.894531 601.351562 377.152344 600.109375 377.382812 C 598.863281 377.613281 597.617188 377.816406 596.363281 377.984375 C 595.109375 378.15625 593.855469 378.292969 592.59375 378.402344 C 591.335938 378.511719 590.074219 378.589844 588.808594 378.640625 C 587.546875 378.6875 586.28125 378.703125 585.015625 378.691406 C 583.753906 378.679688 582.488281 378.636719 581.226562 378.5625 C 579.964844 378.488281 578.703125 378.382812 577.445312 378.246094 C 576.191406 378.113281 574.9375 377.945312 573.6875 377.75 C 572.4375 377.554688 571.195312 377.328125 569.957031 377.074219 C 568.71875 376.816406 567.484375 376.53125 566.261719 376.21875 C 565.035156 375.902344 563.820312 375.558594 562.613281 375.183594 C 561.40625 374.808594 560.207031 374.40625 559.019531 373.972656 C 557.828125 373.539062 556.652344 373.082031 555.484375 372.589844 C 554.320312 372.101562 553.167969 371.585938 552.023438 371.039062 C 550.882812 370.496094 549.757812 369.921875 548.644531 369.324219 C 547.53125 368.726562 546.429688 368.097656 545.347656 367.445312 C 544.265625 366.792969 543.199219 366.117188 542.148438 365.410156 C 541.097656 364.707031 540.0625 363.980469 539.050781 363.226562 C 538.035156 362.472656 537.039062 361.691406 536.058594 360.890625 C 535.082031 360.089844 534.125 359.261719 533.1875 358.414062 C 532.25 357.566406 531.332031 356.695312 530.4375 355.800781 C 529.542969 354.910156 528.667969 353.996094 527.816406 353.0625 C 526.964844 352.125 526.136719 351.171875 525.332031 350.195312 C 524.527344 349.21875 523.746094 348.226562 522.988281 347.214844 C 522.230469 346.199219 521.5 345.171875 520.792969 344.121094 C 520.085938 343.074219 519.402344 342.007812 518.75 340.925781 C 518.09375 339.847656 517.464844 338.75 516.859375 337.636719 C 516.257812 336.527344 515.683594 335.402344 515.132812 334.261719 C 514.585938 333.121094 514.066406 331.96875 513.574219 330.804688 C 513.078125 329.640625 512.617188 328.464844 512.179688 327.277344 C 511.746094 326.089844 511.335938 324.894531 510.960938 323.6875 C 510.5625 322.460938 510.195312 321.226562 509.855469 319.980469 C 509.519531 318.734375 509.214844 317.484375 508.9375 316.222656 C 508.664062 314.964844 508.417969 313.699219 508.207031 312.425781 C 507.992188 311.152344 507.8125 309.878906 507.660156 308.597656 C 507.511719 307.316406 507.390625 306.03125 507.304688 304.746094 C 507.21875 303.457031 507.164062 302.171875 507.140625 300.882812 C 507.117188 299.59375 507.125 298.304688 507.167969 297.015625 C 507.207031 295.726562 507.277344 294.4375 507.382812 293.152344 C 507.484375 291.867188 507.621094 290.585938 507.789062 289.304688 C 507.957031 288.027344 508.152344 286.753906 508.382812 285.484375 C 508.613281 284.214844 508.875 282.953125 509.164062 281.699219 C 509.457031 280.441406 509.78125 279.195312 510.132812 277.953125 C 510.488281 276.714844 510.871094 275.484375 511.285156 274.261719 C 511.699219 273.039062 512.144531 271.828125 512.617188 270.628906 C 513.09375 269.429688 513.59375 268.246094 514.128906 267.070312 C 514.660156 265.894531 515.222656 264.734375 515.8125 263.585938 C 516.398438 262.441406 517.019531 261.308594 517.664062 260.191406 C 518.308594 259.078125 518.980469 257.976562 519.679688 256.894531 C 520.378906 255.808594 521.105469 254.746094 521.859375 253.695312 C 522.609375 252.648438 523.386719 251.621094 524.191406 250.613281 C 524.996094 249.601562 525.820312 248.613281 526.671875 247.644531 C 527.523438 246.679688 528.398438 245.730469 529.296875 244.804688 C 530.195312 243.878906 531.117188 242.976562 532.058594 242.097656 C 533.003906 241.21875 533.964844 240.363281 534.953125 239.53125 C 535.9375 238.699219 536.941406 237.890625 537.964844 237.109375 C 538.992188 236.324219 540.035156 235.566406 541.097656 234.835938 C 542.160156 234.105469 543.238281 233.402344 544.335938 232.722656 C 545.433594 232.042969 546.546875 231.394531 547.675781 230.769531 C 548.804688 230.148438 549.945312 229.550781 551.105469 228.984375 C 552.261719 228.417969 553.433594 227.882812 554.621094 227.371094 C 555.804688 226.863281 557 226.382812 558.210938 225.933594 C 559.417969 225.484375 560.636719 225.0625 561.867188 224.671875 C 563.09375 224.285156 564.332031 223.925781 565.582031 223.59375 C 566.828125 223.265625 568.082031 222.96875 569.34375 222.703125 C 570.605469 222.433594 571.871094 222.199219 573.144531 221.992188 C 574.417969 221.789062 575.695312 221.617188 576.976562 221.472656 C 578.261719 221.332031 579.542969 221.222656 580.832031 221.144531 C 582.117188 221.066406 583.40625 221.019531 584.695312 221.003906 C 585.984375 220.992188 587.273438 221.007812 588.5625 221.054688 C 589.851562 221.105469 591.140625 221.1875 592.421875 221.296875 C 593.707031 221.410156 594.988281 221.554688 596.265625 221.730469 C 597.542969 221.90625 598.816406 222.113281 600.085938 222.351562 C 601.351562 222.589844 602.613281 222.855469 603.867188 223.15625 C 605.121094 223.457031 606.367188 223.789062 607.605469 224.152344 C 608.84375 224.511719 610.070312 224.90625 611.289062 225.328125 C 612.507812 225.75 613.714844 226.203125 614.910156 226.683594 C 616.105469 227.164062 617.289062 227.675781 618.460938 228.214844 C 619.632812 228.757812 620.789062 229.324219 621.933594 229.921875 C 623.074219 230.519531 624.203125 231.144531 625.316406 231.796875 C 626.425781 232.449219 627.523438 233.128906 628.601562 233.835938 C 629.679688 234.542969 630.738281 235.277344 631.78125 236.035156 C 632.824219 236.792969 633.847656 237.578125 634.851562 238.386719 C 635.855469 239.199219 636.839844 240.03125 637.800781 240.890625 C 638.765625 241.75 639.707031 242.628906 640.625 243.535156 C 641.542969 244.4375 642.441406 245.363281 643.3125 246.3125 C 644.1875 247.261719 645.035156 248.230469 645.863281 249.222656 C 646.6875 250.210938 647.488281 251.222656 648.265625 252.253906 C 649.039062 253.28125 649.789062 254.332031 650.515625 255.398438 C 651.238281 256.464844 651.9375 257.550781 652.609375 258.652344 C 653.277344 259.753906 653.921875 260.871094 654.539062 262.003906 C 655.152344 263.136719 655.742188 264.28125 656.300781 265.445312 C 656.859375 266.605469 657.390625 267.78125 657.890625 268.96875 C 658.390625 270.160156 658.863281 271.359375 659.304688 272.570312 C 659.746094 273.78125 660.160156 275.003906 660.539062 276.234375 L 660.855469 277.300781 L 665.257812 276 C 665.460938 275.9375 665.667969 275.921875 665.875 275.941406 C 666.085938 275.964844 666.285156 276.023438 666.472656 276.125 C 666.65625 276.226562 666.816406 276.359375 666.949219 276.523438 C 667.082031 276.6875 667.179688 276.871094 667.238281 277.074219 C 667.300781 277.277344 667.320312 277.480469 667.296875 277.691406 C 667.277344 277.902344 667.214844 278.101562 667.113281 278.285156 C 667.011719 278.472656 666.878906 278.632812 666.714844 278.765625 C 666.550781 278.898438 666.371094 278.996094 666.167969 279.054688 Z M 666.183594 279.101562 " clip-rule="nonzero"/></clipPath><linearGradient x1="138.517234" gradientTransform="matrix(1.567112, 0, 0, -1.567112, 465.826966, 424.546246)" y1="13.708691" x2="14.540541" gradientUnits="userSpaceOnUse" y2="145.229254" id="fb55babf49"><stop stop-opacity="1" stop-color="rgb(100%, 100%, 100%)" offset="0"/><stop stop-opacity="1" stop-color="rgb(100%, 100%, 100%)" offset="0.0625"/><stop stop-opacity="1" stop-color="rgb(100%, 100%, 100%)" offset="0.09375"/><stop stop-opacity="1" stop-color="rgb(100%, 100%, 100%)" offset="0.109375"/><stop stop-opacity="1" stop-color="rgb(100%, 99.815369%, 99.577332%)" offset="0.113281"/><stop stop-opacity="1" stop-color="rgb(100%, 99.632263%, 99.154663%)" offset="0.117187"/><stop stop-opacity="1" stop-color="rgb(100%, 99.415588%, 98.657227%)" offset="0.121094"/><stop stop-opacity="1" stop-color="rgb(100%, 99.198914%, 98.15979%)" offset="0.125"/><stop stop-opacity="1" stop-color="rgb(100%, 98.982239%, 97.660828%)" offset="0.128906"/><stop stop-opacity="1" stop-color="rgb(100%, 98.765564%, 97.163391%)" offset="0.132812"/><stop stop-opacity="1" stop-color="rgb(100%, 98.548889%, 96.665955%)" offset="0.136719"/><stop stop-opacity="1" stop-color="rgb(100%, 98.332214%, 96.168518%)" offset="0.140625"/><stop stop-opacity="1" stop-color="rgb(100%, 98.11554%, 95.671082%)" offset="0.144531"/><stop stop-opacity="1" stop-color="rgb(100%, 97.900391%, 95.173645%)" offset="0.148437"/><stop stop-opacity="1" stop-color="rgb(100%, 97.683716%, 94.674683%)" offset="0.152344"/><stop stop-opacity="1" stop-color="rgb(100%, 97.467041%, 94.177246%)" offset="0.15625"/><stop stop-opacity="1" stop-color="rgb(100%, 97.250366%, 93.67981%)" offset="0.160156"/><stop stop-opacity="1" stop-color="rgb(100%, 97.033691%, 93.182373%)" offset="0.164062"/><stop stop-opacity="1" stop-color="rgb(100%, 96.817017%, 92.683411%)" offset="0.167969"/><stop stop-opacity="1" stop-color="rgb(100%, 96.600342%, 92.185974%)" offset="0.171875"/><stop stop-opacity="1" stop-color="rgb(100%, 96.383667%, 91.688538%)" offset="0.175781"/><stop stop-opacity="1" stop-color="rgb(100%, 96.166992%, 91.191101%)" offset="0.179688"/><stop stop-opacity="1" stop-color="rgb(100%, 95.950317%, 90.692139%)" offset="0.183594"/><stop stop-opacity="1" stop-color="rgb(100%, 95.735168%, 90.194702%)" offset="0.1875"/><stop stop-opacity="1" stop-color="rgb(100%, 95.518494%, 89.697266%)" offset="0.191406"/><stop stop-opacity="1" stop-color="rgb(100%, 95.301819%, 89.199829%)" offset="0.195312"/><stop stop-opacity="1" stop-color="rgb(100%, 95.085144%, 88.700867%)" offset="0.199219"/><stop stop-opacity="1" stop-color="rgb(100%, 94.868469%, 88.20343%)" offset="0.203125"/><stop stop-opacity="1" stop-color="rgb(100%, 94.651794%, 87.705994%)" offset="0.207031"/><stop stop-opacity="1" stop-color="rgb(100%, 94.43512%, 87.208557%)" offset="0.210937"/><stop stop-opacity="1" stop-color="rgb(100%, 94.218445%, 86.711121%)" offset="0.214844"/><stop stop-opacity="1" stop-color="rgb(100%, 94.00177%, 86.213684%)" offset="0.21875"/><stop stop-opacity="1" stop-color="rgb(100%, 93.785095%, 85.714722%)" offset="0.222656"/><stop stop-opacity="1" stop-color="rgb(100%, 93.56842%, 85.217285%)" offset="0.226562"/><stop stop-opacity="1" stop-color="rgb(100%, 93.351746%, 84.719849%)" offset="0.230469"/><stop stop-opacity="1" stop-color="rgb(100%, 93.136597%, 84.222412%)" offset="0.234375"/><stop stop-opacity="1" stop-color="rgb(100%, 92.919922%, 83.72345%)" offset="0.238281"/><stop stop-opacity="1" stop-color="rgb(100%, 92.703247%, 83.226013%)" offset="0.242188"/><stop stop-opacity="1" stop-color="rgb(100%, 92.486572%, 82.728577%)" offset="0.246094"/><stop stop-opacity="1" stop-color="rgb(100%, 92.269897%, 82.23114%)" offset="0.25"/><stop stop-opacity="1" stop-color="rgb(100%, 92.053223%, 81.732178%)" offset="0.253906"/><stop stop-opacity="1" stop-color="rgb(100%, 91.836548%, 81.234741%)" offset="0.257812"/><stop stop-opacity="1" stop-color="rgb(100%, 91.619873%, 80.737305%)" offset="0.261719"/><stop stop-opacity="1" stop-color="rgb(100%, 91.403198%, 80.239868%)" offset="0.265625"/><stop stop-opacity="1" stop-color="rgb(100%, 91.186523%, 79.740906%)" offset="0.269531"/><stop stop-opacity="1" stop-color="rgb(100%, 90.971375%, 79.243469%)" offset="0.273438"/><stop stop-opacity="1" stop-color="rgb(100%, 90.7547%, 78.746033%)" offset="0.277344"/><stop stop-opacity="1" stop-color="rgb(100%, 90.538025%, 78.248596%)" offset="0.28125"/><stop stop-opacity="1" stop-color="rgb(100%, 90.32135%, 77.75116%)" offset="0.285156"/><stop stop-opacity="1" stop-color="rgb(100%, 90.104675%, 77.253723%)" offset="0.289062"/><stop stop-opacity="1" stop-color="rgb(100%, 89.888%, 76.754761%)" offset="0.292969"/><stop stop-opacity="1" stop-color="rgb(100%, 89.671326%, 76.257324%)" offset="0.296875"/><stop stop-opacity="1" stop-color="rgb(100%, 89.454651%, 75.759888%)" offset="0.300781"/><stop stop-opacity="1" stop-color="rgb(100%, 89.237976%, 75.262451%)" offset="0.304688"/><stop stop-opacity="1" stop-color="rgb(100%, 89.021301%, 74.763489%)" offset="0.308594"/><stop stop-opacity="1" stop-color="rgb(100%, 88.806152%, 74.266052%)" offset="0.3125"/><stop stop-opacity="1" stop-color="rgb(100%, 88.589478%, 73.768616%)" offset="0.316406"/><stop stop-opacity="1" stop-color="rgb(100%, 88.372803%, 73.271179%)" offset="0.320312"/><stop stop-opacity="1" stop-color="rgb(100%, 88.156128%, 72.772217%)" offset="0.324219"/><stop stop-opacity="1" stop-color="rgb(100%, 87.939453%, 72.27478%)" offset="0.328125"/><stop stop-opacity="1" stop-color="rgb(100%, 87.722778%, 71.777344%)" offset="0.332031"/><stop stop-opacity="1" stop-color="rgb(100%, 87.506104%, 71.279907%)" offset="0.335938"/><stop stop-opacity="1" stop-color="rgb(100%, 87.289429%, 70.780945%)" offset="0.339844"/><stop stop-opacity="1" stop-color="rgb(100%, 87.072754%, 70.283508%)" offset="0.34375"/><stop stop-opacity="1" stop-color="rgb(100%, 86.856079%, 69.786072%)" offset="0.347656"/><stop stop-opacity="1" stop-color="rgb(100%, 86.639404%, 69.288635%)" offset="0.351562"/><stop stop-opacity="1" stop-color="rgb(100%, 86.422729%, 68.791199%)" offset="0.355469"/><stop stop-opacity="1" stop-color="rgb(100%, 86.207581%, 68.293762%)" offset="0.359375"/><stop stop-opacity="1" stop-color="rgb(100%, 85.990906%, 67.7948%)" offset="0.363281"/><stop stop-opacity="1" stop-color="rgb(100%, 85.774231%, 67.297363%)" offset="0.367187"/><stop stop-opacity="1" stop-color="rgb(100%, 85.557556%, 66.799927%)" offset="0.371094"/><stop stop-opacity="1" stop-color="rgb(100%, 85.340881%, 66.30249%)" offset="0.375"/><stop stop-opacity="1" stop-color="rgb(100%, 85.124207%, 65.803528%)" offset="0.378906"/><stop stop-opacity="1" stop-color="rgb(100%, 84.907532%, 65.306091%)" offset="0.382813"/><stop stop-opacity="1" stop-color="rgb(100%, 84.690857%, 64.808655%)" offset="0.386719"/><stop stop-opacity="1" stop-color="rgb(100%, 84.474182%, 64.311218%)" offset="0.390625"/><stop stop-opacity="1" stop-color="rgb(100%, 84.257507%, 63.812256%)" offset="0.394531"/><stop stop-opacity="1" stop-color="rgb(100%, 84.042358%, 63.314819%)" offset="0.398438"/><stop stop-opacity="1" stop-color="rgb(100%, 83.825684%, 62.817383%)" offset="0.402344"/><stop stop-opacity="1" stop-color="rgb(100%, 83.609009%, 62.319946%)" offset="0.40625"/><stop stop-opacity="1" stop-color="rgb(100%, 83.392334%, 61.820984%)" offset="0.410156"/><stop stop-opacity="1" stop-color="rgb(100%, 83.175659%, 61.323547%)" offset="0.414062"/><stop stop-opacity="1" stop-color="rgb(100%, 82.958984%, 60.826111%)" offset="0.417969"/><stop stop-opacity="1" stop-color="rgb(100%, 82.74231%, 60.328674%)" offset="0.421875"/><stop stop-opacity="1" stop-color="rgb(100%, 82.525635%, 59.831238%)" offset="0.425781"/><stop stop-opacity="1" stop-color="rgb(100%, 82.30896%, 59.333801%)" offset="0.429688"/><stop stop-opacity="1" stop-color="rgb(100%, 82.092285%, 58.834839%)" offset="0.433594"/><stop stop-opacity="1" stop-color="rgb(100%, 81.877136%, 58.337402%)" offset="0.4375"/><stop stop-opacity="1" stop-color="rgb(100%, 81.660461%, 57.839966%)" offset="0.441406"/><stop stop-opacity="1" stop-color="rgb(100%, 81.443787%, 57.342529%)" offset="0.445312"/><stop stop-opacity="1" stop-color="rgb(100%, 81.227112%, 56.843567%)" offset="0.449219"/><stop stop-opacity="1" stop-color="rgb(100%, 81.010437%, 56.34613%)" offset="0.453125"/><stop stop-opacity="1" stop-color="rgb(100%, 80.793762%, 55.848694%)" offset="0.457031"/><stop stop-opacity="1" stop-color="rgb(100%, 80.577087%, 55.351257%)" offset="0.460937"/><stop stop-opacity="1" stop-color="rgb(100%, 80.360413%, 54.852295%)" offset="0.464844"/><stop stop-opacity="1" stop-color="rgb(100%, 80.143738%, 54.354858%)" offset="0.46875"/><stop stop-opacity="1" stop-color="rgb(100%, 79.927063%, 53.857422%)" offset="0.472656"/><stop stop-opacity="1" stop-color="rgb(100%, 79.710388%, 53.359985%)" offset="0.476562"/><stop stop-opacity="1" stop-color="rgb(100%, 79.493713%, 52.862549%)" offset="0.480469"/><stop stop-opacity="1" stop-color="rgb(100%, 79.278564%, 52.365112%)" offset="0.484375"/><stop stop-opacity="1" stop-color="rgb(100%, 79.06189%, 51.86615%)" offset="0.488281"/><stop stop-opacity="1" stop-color="rgb(100%, 78.845215%, 51.368713%)" offset="0.492188"/><stop stop-opacity="1" stop-color="rgb(100%, 78.62854%, 50.871277%)" offset="0.496094"/><stop stop-opacity="1" stop-color="rgb(100%, 78.411865%, 50.37384%)" offset="0.5"/><stop stop-opacity="1" stop-color="rgb(100%, 78.19519%, 49.874878%)" offset="0.503906"/><stop stop-opacity="1" stop-color="rgb(100%, 77.978516%, 49.377441%)" offset="0.507812"/><stop stop-opacity="1" stop-color="rgb(100%, 77.761841%, 48.880005%)" offset="0.511719"/><stop stop-opacity="1" stop-color="rgb(100%, 77.545166%, 48.382568%)" offset="0.515625"/><stop stop-opacity="1" stop-color="rgb(100%, 77.328491%, 47.883606%)" offset="0.519531"/><stop stop-opacity="1" stop-color="rgb(100%, 77.113342%, 47.386169%)" offset="0.523438"/><stop stop-opacity="1" stop-color="rgb(100%, 76.896667%, 46.888733%)" offset="0.527344"/><stop stop-opacity="1" stop-color="rgb(100%, 76.679993%, 46.391296%)" offset="0.53125"/><stop stop-opacity="1" stop-color="rgb(100%, 76.463318%, 45.892334%)" offset="0.535156"/><stop stop-opacity="1" stop-color="rgb(100%, 76.246643%, 45.394897%)" offset="0.539062"/><stop stop-opacity="1" stop-color="rgb(100%, 76.029968%, 44.897461%)" offset="0.542969"/><stop stop-opacity="1" stop-color="rgb(100%, 75.813293%, 44.400024%)" offset="0.546875"/><stop stop-opacity="1" stop-color="rgb(100%, 75.596619%, 43.902588%)" offset="0.550781"/><stop stop-opacity="1" stop-color="rgb(100%, 75.379944%, 43.405151%)" offset="0.554688"/><stop stop-opacity="1" stop-color="rgb(100%, 75.163269%, 42.906189%)" offset="0.558594"/><stop stop-opacity="1" stop-color="rgb(100%, 74.94812%, 42.408752%)" offset="0.5625"/><stop stop-opacity="1" stop-color="rgb(100%, 74.731445%, 41.911316%)" offset="0.566406"/><stop stop-opacity="1" stop-color="rgb(100%, 74.514771%, 41.413879%)" offset="0.570312"/><stop stop-opacity="1" stop-color="rgb(100%, 74.298096%, 40.914917%)" offset="0.574219"/><stop stop-opacity="1" stop-color="rgb(100%, 74.081421%, 40.41748%)" offset="0.578125"/><stop stop-opacity="1" stop-color="rgb(100%, 73.864746%, 39.920044%)" offset="0.582031"/><stop stop-opacity="1" stop-color="rgb(100%, 73.648071%, 39.422607%)" offset="0.585938"/><stop stop-opacity="1" stop-color="rgb(100%, 73.431396%, 38.923645%)" offset="0.589844"/><stop stop-opacity="1" stop-color="rgb(100%, 73.214722%, 38.426208%)" offset="0.59375"/><stop stop-opacity="1" stop-color="rgb(100%, 72.998047%, 37.928772%)" offset="0.597656"/><stop stop-opacity="1" stop-color="rgb(100%, 72.781372%, 37.431335%)" offset="0.601563"/><stop stop-opacity="1" stop-color="rgb(100%, 72.564697%, 36.932373%)" offset="0.605469"/><stop stop-opacity="1" stop-color="rgb(100%, 72.349548%, 36.434937%)" offset="0.609375"/><stop stop-opacity="1" stop-color="rgb(100%, 72.132874%, 35.9375%)" offset="0.613281"/><stop stop-opacity="1" stop-color="rgb(100%, 71.916199%, 35.440063%)" offset="0.617188"/><stop stop-opacity="1" stop-color="rgb(100%, 71.699524%, 34.942627%)" offset="0.621094"/><stop stop-opacity="1" stop-color="rgb(100%, 71.482849%, 34.44519%)" offset="0.625"/><stop stop-opacity="1" stop-color="rgb(100%, 71.266174%, 33.946228%)" offset="0.628906"/><stop stop-opacity="1" stop-color="rgb(100%, 71.0495%, 33.448792%)" offset="0.632812"/><stop stop-opacity="1" stop-color="rgb(100%, 70.832825%, 32.951355%)" offset="0.636719"/><stop stop-opacity="1" stop-color="rgb(100%, 70.61615%, 32.453918%)" offset="0.640625"/><stop stop-opacity="1" stop-color="rgb(100%, 70.399475%, 31.954956%)" offset="0.644531"/><stop stop-opacity="1" stop-color="rgb(100%, 70.184326%, 31.45752%)" offset="0.648438"/><stop stop-opacity="1" stop-color="rgb(100%, 69.967651%, 30.960083%)" offset="0.652344"/><stop stop-opacity="1" stop-color="rgb(100%, 69.750977%, 30.462646%)" offset="0.65625"/><stop stop-opacity="1" stop-color="rgb(100%, 69.534302%, 29.963684%)" offset="0.660156"/><stop stop-opacity="1" stop-color="rgb(100%, 69.317627%, 29.466248%)" offset="0.664062"/><stop stop-opacity="1" stop-color="rgb(100%, 69.100952%, 28.968811%)" offset="0.667969"/><stop stop-opacity="1" stop-color="rgb(100%, 68.884277%, 28.471375%)" offset="0.671875"/><stop stop-opacity="1" stop-color="rgb(100%, 68.667603%, 27.972412%)" offset="0.675781"/><stop stop-opacity="1" stop-color="rgb(100%, 68.450928%, 27.474976%)" offset="0.679688"/><stop stop-opacity="1" stop-color="rgb(100%, 68.234253%, 26.977539%)" offset="0.683594"/><stop stop-opacity="1" stop-color="rgb(100%, 68.019104%, 26.480103%)" offset="0.6875"/><stop stop-opacity="1" stop-color="rgb(100%, 67.802429%, 25.982666%)" offset="0.691406"/><stop stop-opacity="1" stop-color="rgb(100%, 67.585754%, 25.485229%)" offset="0.695312"/><stop stop-opacity="1" stop-color="rgb(100%, 67.36908%, 24.986267%)" offset="0.699219"/><stop stop-opacity="1" stop-color="rgb(100%, 67.152405%, 24.488831%)" offset="0.703125"/><stop stop-opacity="1" stop-color="rgb(100%, 66.93573%, 23.991394%)" offset="0.707031"/><stop stop-opacity="1" stop-color="rgb(100%, 66.719055%, 23.493958%)" offset="0.710938"/><stop stop-opacity="1" stop-color="rgb(100%, 66.50238%, 22.994995%)" offset="0.714844"/><stop stop-opacity="1" stop-color="rgb(100%, 66.285706%, 22.497559%)" offset="0.71875"/><stop stop-opacity="1" stop-color="rgb(100%, 66.069031%, 22.000122%)" offset="0.722656"/><stop stop-opacity="1" stop-color="rgb(100%, 65.852356%, 21.502686%)" offset="0.726562"/><stop stop-opacity="1" stop-color="rgb(100%, 65.635681%, 21.003723%)" offset="0.730469"/><stop stop-opacity="1" stop-color="rgb(100%, 65.420532%, 20.506287%)" offset="0.734375"/><stop stop-opacity="1" stop-color="rgb(100%, 65.203857%, 20.00885%)" offset="0.738281"/><stop stop-opacity="1" stop-color="rgb(100%, 64.987183%, 19.511414%)" offset="0.742188"/><stop stop-opacity="1" stop-color="rgb(100%, 64.770508%, 19.012451%)" offset="0.746094"/><stop stop-opacity="1" stop-color="rgb(100%, 64.553833%, 18.515015%)" offset="0.75"/><stop stop-opacity="1" stop-color="rgb(100%, 64.337158%, 18.017578%)" offset="0.753906"/><stop stop-opacity="1" stop-color="rgb(100%, 64.120483%, 17.520142%)" offset="0.757812"/><stop stop-opacity="1" stop-color="rgb(100%, 63.903809%, 17.022705%)" offset="0.761719"/><stop stop-opacity="1" stop-color="rgb(100%, 63.687134%, 16.525269%)" offset="0.765625"/><stop stop-opacity="1" stop-color="rgb(100%, 63.470459%, 16.026306%)" offset="0.769531"/><stop stop-opacity="1" stop-color="rgb(100%, 63.25531%, 15.52887%)" offset="0.773438"/><stop stop-opacity="1" stop-color="rgb(100%, 63.038635%, 15.031433%)" offset="0.777344"/><stop stop-opacity="1" stop-color="rgb(100%, 62.82196%, 14.533997%)" offset="0.78125"/><stop stop-opacity="1" stop-color="rgb(100%, 62.605286%, 14.035034%)" offset="0.785156"/><stop stop-opacity="1" stop-color="rgb(100%, 62.388611%, 13.537598%)" offset="0.789062"/><stop stop-opacity="1" stop-color="rgb(100%, 62.171936%, 13.040161%)" offset="0.792969"/><stop stop-opacity="1" stop-color="rgb(100%, 61.955261%, 12.542725%)" offset="0.796875"/><stop stop-opacity="1" stop-color="rgb(100%, 61.738586%, 12.043762%)" offset="0.800781"/><stop stop-opacity="1" stop-color="rgb(100%, 61.521912%, 11.546326%)" offset="0.804687"/><stop stop-opacity="1" stop-color="rgb(100%, 61.305237%, 11.048889%)" offset="0.808594"/><stop stop-opacity="1" stop-color="rgb(100%, 61.090088%, 10.551453%)" offset="0.8125"/><stop stop-opacity="1" stop-color="rgb(100%, 60.873413%, 10.054016%)" offset="0.816406"/><stop stop-opacity="1" stop-color="rgb(100%, 60.656738%, 9.55658%)" offset="0.820312"/><stop stop-opacity="1" stop-color="rgb(100%, 60.440063%, 9.057617%)" offset="0.824219"/><stop stop-opacity="1" stop-color="rgb(100%, 60.223389%, 8.560181%)" offset="0.828125"/><stop stop-opacity="1" stop-color="rgb(100%, 60.006714%, 8.062744%)" offset="0.832031"/><stop stop-opacity="1" stop-color="rgb(100%, 59.790039%, 7.565308%)" offset="0.835937"/><stop stop-opacity="1" stop-color="rgb(100%, 59.573364%, 7.066345%)" offset="0.839844"/><stop stop-opacity="1" stop-color="rgb(100%, 59.356689%, 6.568909%)" offset="0.84375"/><stop stop-opacity="1" stop-color="rgb(100%, 59.140015%, 6.071472%)" offset="0.847656"/><stop stop-opacity="1" stop-color="rgb(100%, 58.92334%, 5.574036%)" offset="0.851562"/><stop stop-opacity="1" stop-color="rgb(100%, 58.706665%, 5.075073%)" offset="0.855469"/><stop stop-opacity="1" stop-color="rgb(100%, 58.491516%, 4.577637%)" offset="0.859375"/><stop stop-opacity="1" stop-color="rgb(100%, 58.274841%, 4.0802%)" offset="0.863281"/><stop stop-opacity="1" stop-color="rgb(100%, 58.058167%, 3.582764%)" offset="0.867187"/><stop stop-opacity="1" stop-color="rgb(100%, 57.841492%, 3.083801%)" offset="0.871094"/><stop stop-opacity="1" stop-color="rgb(100%, 57.624817%, 2.586365%)" offset="0.875"/><stop stop-opacity="1" stop-color="rgb(100%, 57.408142%, 2.088928%)" offset="0.878906"/><stop stop-opacity="1" stop-color="rgb(100%, 57.191467%, 1.591492%)" offset="0.882812"/><stop stop-opacity="1" stop-color="rgb(100%, 56.974792%, 1.094055%)" offset="0.886719"/><stop stop-opacity="1" stop-color="rgb(100%, 56.758118%, 0.596619%)" offset="0.890625"/><stop stop-opacity="1" stop-color="rgb(100%, 56.628418%, 0.297546%)" offset="0.894531"/><stop stop-opacity="1" stop-color="rgb(100%, 56.498718%, 0%)" offset="0.898437"/><stop stop-opacity="1" stop-color="rgb(100%, 56.498718%, 0%)" offset="0.90625"/><stop stop-opacity="1" stop-color="rgb(100%, 56.498718%, 0%)" offset="0.9375"/><stop stop-opacity="1" stop-color="rgb(100%, 56.498718%, 0%)" offset="1"/></linearGradient></defs><g clip-path="url(#0024bba925)"><g clip-path="url(#88db1afbe2)"><path fill="url(#40eb5c88ce)" d="M 465.828125 419.921875 L 465.828125 180.078125 L 705.671875 180.078125 L 705.671875 419.921875 Z M 465.828125 419.921875 " fill-rule="nonzero"/></g></g><g clip-path="url(#4324d31954)"><g clip-path="url(#e58b0ed828)"><path fill="url(#661deef9e1)" d="M 521.835938 363.191406 L 521.835938 236.769531 L 648.265625 236.769531 L 648.265625 363.191406 Z M 521.835938 363.191406 " fill-rule="nonzero"/></g></g><g clip-path="url(#16daf91c51)"><g clip-path="url(#20a8597f02)"><path fill="url(#fb55babf49)" d="M 485.574219 400.191406 L 485.574219 199.824219 L 685.945312 199.824219 L 685.945312 400.191406 Z M 485.574219 400.191406 " fill-rule="nonzero"/></g></g><path fill="#5c0601" d="M 661.714844 277.066406 L 664.851562 262.179688 L 651.355469 266.347656 C 648.972656 267.058594 646.707031 268.046875 644.558594 269.300781 C 642.414062 270.558594 640.445312 272.050781 638.652344 273.78125 C 636.863281 275.507812 635.304688 277.425781 633.972656 279.527344 C 632.640625 281.628906 631.578125 283.859375 630.78125 286.21875 Z M 661.714844 277.066406 " fill-opacity="1" fill-rule="nonzero"/><path fill="#5c0601" d="M 662.0625 280.371094 L 631.21875 289.492188 C 633.515625 291 635.949219 292.238281 638.519531 293.210938 C 641.085938 294.183594 643.730469 294.867188 646.449219 295.261719 C 649.167969 295.65625 651.894531 295.75 654.632812 295.546875 C 657.375 295.34375 660.058594 294.84375 662.6875 294.054688 L 674.722656 290.355469 Z M 662.0625 280.371094 " fill-opacity="1" fill-rule="nonzero"/></svg>