<svg xmlns="http://www.w3.org/2000/svg" xmlns:xlink="http://www.w3.org/1999/xlink" viewBox="0 0 158.77 153.05"><defs><clipPath id="a"><rect width="158.77" height="153.05" fill="none"/></clipPath><linearGradient id="b" x1="62.57" y1="38.94" x2="96.23" y2="120.1" gradientTransform="matrix(1, 0, 0, -1, 0, 156)" gradientUnits="userSpaceOnUse"><stop offset="0" stop-color="#63f0eb"/><stop offset="1" stop-color="#11afff"/></linearGradient><linearGradient id="c" x1="89.17" y1="84.43" x2="38.38" y2="135.51" gradientTransform="matrix(1, 0, 0, -1, 0, 156)" gradientUnits="userSpaceOnUse"><stop offset="0" stop-color="#fff"/><stop offset="1" stop-color="#11afff"/></linearGradient><linearGradient id="d" x1="82.66" y1="77.93" x2="31.86" y2="129.02" xlink:href="#c"/><linearGradient id="e" x1="153.26" y1="28.61" x2="83.38" y2="79.7" xlink:href="#c"/><linearGradient id="f" x1="86.54" y1="81.94" x2="-14.76" y2="157.1" xlink:href="#c"/><linearGradient id="g" x1="105.4" y1="64.66" x2="56.38" y2="103.12" xlink:href="#c"/><linearGradient id="h" x1="105.75" y1="65.1" x2="56.72" y2="103.56" xlink:href="#c"/></defs><g clip-path="url(#a)"><path d="M101.28,153.05a2.58,2.58,0,0,1-1.63-.58L.93,71.52a2.55,2.55,0,0,1-.35-3.6L55.5.93A2.57,2.57,0,0,1,59.11.58l98.71,81a2.55,2.55,0,0,1,.36,3.6l-54.94,67a2.56,2.56,0,0,1-2,.93ZM57.49,1.46a1.1,1.1,0,0,0-.84.41l-54.93,67a1.07,1.07,0,0,0,.15,1.53l98.72,81a1.08,1.08,0,0,0,1.53-.16l54.93-67a1.09,1.09,0,0,0-.15-1.53L58.18,1.72A1,1,0,0,0,57.49,1.46Z" fill="url(#b)"/><path d="M40.4,131.31,73,93.65a.9.9,0,0,1,1.26-.12l7.67,6.25A.9.9,0,0,1,82,101L49.46,138.7a.91.91,0,0,1-1.6-.6l.11-5.67a.9.9,0,0,0-1.09-.9l-5.58,1.22a.9.9,0,0,1-.89-1.45Z" fill="#2e86fe"/><path d="M86.79,64.36l-4.45,5.42L83.76,71l4.45-5.42Z" fill-opacity="0.7" fill="url(#c)"/><path d="M79.24,73.58,72,82.45l-4.9-4L85,56.56l4.89,4,1.43,1.16L108.2,41.17s-7.15-18.9-38.82-39.42a1.5,1.5,0,0,0-2,.4L10.57,71.46a1.49,1.49,0,0,0,.13,2.13c6.16,4.65,34.81,26.67,39.17,37.55a.51.51,0,0,0,.88.07l29.9-36.47-1.42-1.16ZM60.61,72a13.71,13.71,0,0,1-5.44-2.85,12.39,12.39,0,0,1-3.24-3.9,10.31,10.31,0,0,1-1.16-4.47A12.41,12.41,0,0,1,51.69,56a18.92,18.92,0,0,1,3-4.91l1.1-1.33A18,18,0,0,1,60,45.9a12.29,12.29,0,0,1,4.58-1.81,10.51,10.51,0,0,1,4.63.25,11.94,11.94,0,0,1,4.36,2.35,12.89,12.89,0,0,1,3.89,4.87,9.56,9.56,0,0,1,.72,5.21,12.13,12.13,0,0,1-2,5l-4.89-4a7,7,0,0,0,1.29-2.55,3.64,3.64,0,0,0-.2-2.39,6.52,6.52,0,0,0-2-2.35,5.47,5.47,0,0,0-2.17-1.13,4.15,4.15,0,0,0-2.3.15A8,8,0,0,0,63.49,51a19.78,19.78,0,0,0-2.72,2.8l-1.12,1.36a22.11,22.11,0,0,0-2.23,3.18,8,8,0,0,0-1,2.68,4.27,4.27,0,0,0,.3,2.31,5.48,5.48,0,0,0,1.6,2,6.77,6.77,0,0,0,2.51,1.39,3.81,3.81,0,0,0,2.38-.17,6.37,6.37,0,0,0,2.28-1.68l4.86,4a10.47,10.47,0,0,1-4.49,3,9.84,9.84,0,0,1-5.26.19Z" fill="url(#d)"/><path d="M105.78,79.83l-2-1.63L92.07,92.49l2,1.67a6.26,6.26,0,0,0,3.38,1.51,6.16,6.16,0,0,0,3.56-.85,13.15,13.15,0,0,0,3.58-3.17l.82-1a14.25,14.25,0,0,0,2-3.13,7.56,7.56,0,0,0,.73-2.88,5.19,5.19,0,0,0-.57-2.58,6.75,6.75,0,0,0-1.84-2.21Z"/><path d="M154.46,71.5c-26.33-27-46.25-30.34-46.25-30.34L91.4,61.66l8.22,6.74L96.5,72.21l-8.22-6.74-4.45,5.42,7.27,6L88,80.64l-7.27-6-30,36.55a.5.5,0,0,0,.23.83c11.5,2.12,38.75,25.93,44.52,31.06a1.48,1.48,0,0,0,2.12-.29l56.83-69.32A1.49,1.49,0,0,0,154.46,71.5ZM113.14,89.88a15.15,15.15,0,0,1-2.74,4.86l-.81,1a15.13,15.13,0,0,1-4.22,3.65,12.51,12.51,0,0,1-4.8,1.6,12.16,12.16,0,0,1-4.93-.46A13.57,13.57,0,0,1,91,97.93l-2.5-2.06-4.43-3.63,18-21.88,3.41,2.8L108.91,76a13.55,13.55,0,0,1,3.44,4.08,11.87,11.87,0,0,1,1.43,4.77,12.37,12.37,0,0,1-.63,5Z" fill="url(#e)"/><path d="M86.67,64.37l-4.45,5.42L83.71,71l4.45-5.42Z" fill="#fff"/><path d="M79.12,73.58l-7.27,8.87-4.9-4,18-21.88,4.89,4,1.5,1.22L108,41.38S105.64,20.79,78.2,3.93a1.52,1.52,0,0,0-1.86.57L17.21,76.61a1.44,1.44,0,0,0-.07,2c5.28,3.9,29.79,22.48,32.82,32.56.1.33.54.32.81,0l29.84-36.4-1.49-1.22ZM60.49,72a13.71,13.71,0,0,1-5.44-2.85,12.25,12.25,0,0,1-3.24-3.9,10.31,10.31,0,0,1-1.16-4.47A12.41,12.41,0,0,1,51.57,56a18.92,18.92,0,0,1,3-4.91l1.09-1.33a18.21,18.21,0,0,1,4.26-3.88,12.29,12.29,0,0,1,4.58-1.81,10.51,10.51,0,0,1,4.63.25,11.94,11.94,0,0,1,4.36,2.35,12.89,12.89,0,0,1,3.89,4.87,9.56,9.56,0,0,1,.72,5.21,12.13,12.13,0,0,1-2,5l-4.89-4a7,7,0,0,0,1.29-2.55,3.64,3.64,0,0,0-.2-2.39,6.52,6.52,0,0,0-2-2.35,5.47,5.47,0,0,0-2.17-1.13,4.15,4.15,0,0,0-2.3.15A8,8,0,0,0,63.37,51a19.78,19.78,0,0,0-2.72,2.8l-1.12,1.36a22.11,22.11,0,0,0-2.23,3.18,8,8,0,0,0-1,2.68,4.27,4.27,0,0,0,.3,2.31,5.48,5.48,0,0,0,1.6,2,6.77,6.77,0,0,0,2.51,1.39,3.81,3.81,0,0,0,2.38-.17,6.37,6.37,0,0,0,2.28-1.68l4.86,4a10.47,10.47,0,0,1-4.49,3,9.84,9.84,0,0,1-5.26.19Z" fill="url(#f)"/><path d="M105.66,79.83l-2-1.63L92,92.49l2,1.67a6.32,6.32,0,0,0,3.39,1.51,6.16,6.16,0,0,0,3.56-.85,13.15,13.15,0,0,0,3.58-3.17l.82-1a14.63,14.63,0,0,0,2-3.13,7.56,7.56,0,0,0,.73-2.88,5.19,5.19,0,0,0-.57-2.58,6.75,6.75,0,0,0-1.84-2.21Z" fill="url(#g)"/><path d="M150.6,63.26c-21.9-23.62-43-21.4-43-21.4L91.34,61.72l8.15,6.68-3.12,3.81-8.15-6.68L83.77,71l7.2,5.9-3.11,3.79-7.2-5.9-29.9,36.47c-.27.32-.19.74.14.77,10.46,1,33.51,21.4,38.38,25.8a1.45,1.45,0,0,0,2-.47L150.4,65.19a1.51,1.51,0,0,0,.19-1.93ZM113,89.88a15.15,15.15,0,0,1-2.74,4.86l-.81,1a15.13,15.13,0,0,1-4.22,3.65,12.55,12.55,0,0,1-4.81,1.6,12.13,12.13,0,0,1-4.92-.46,13.7,13.7,0,0,1-4.66-2.57l-2.49-2.06-4.43-3.63,17.95-21.88,3.41,2.8L108.78,76a13.55,13.55,0,0,1,3.44,4.08,11.87,11.87,0,0,1,1.43,4.77,12.37,12.37,0,0,1-.63,5Z" fill="url(#h)"/></g></svg>