<?xml version="1.0" encoding="UTF-8"?>
<svg fill="none" viewBox="0 0 130 130" xmlns="http://www.w3.org/2000/svg">
<defs>
<style>.default-group, .group:target { display: block;}
			.group, .group:target ~ .default-group { display:none; }</style>
</defs>
<g id="fca" class="group">
<mask id="bk" x="0" y="48" width="130" height="78" style="mask-type:luminance" maskUnits="userSpaceOnUse">
<path d="M130 48.087H0v77.869h130V48.087Z" fill="#fff"/>
</mask>
<g mask="url(#bk)">
<path d="m130 91.727-54.408 31.619L5.609 85.31 60.02 53.691 130 91.727Z" fill="url(#bi)"/>
<path d="m130 91.727-54.408 31.619L5.609 85.31 60.02 53.691 130 91.727Z" fill="url(#aw)" fill-opacity=".2"/>
<path d="m129.993 91.727-54.408 31.619L5.603 85.31l54.411-31.619 69.979 38.036Z" fill="url(#ak)"/>
<path d="m129.993 91.727-54.408 31.619L5.603 85.31l54.411-31.619 69.979 38.036Z" fill="url(#y)" fill-opacity=".59"/>
<path d="m130 91.726-.007 2.61-54.41 31.619.009-2.609L130 91.726Z" fill="url(#m)"/>
<path d="m75.566 123.581-.009 2.313L5.763 87.221l.006-2.312 69.797 38.672Z" fill="url(#g)"/>
<path d="m75.566 123.581-.009 2.313L5.763 87.221l.006-2.312 69.797 38.672Z" fill="url(#e)" fill-opacity=".2"/>
<g filter="url(#bn)">
<path d="m63.399 99.798-25.616-14.89L63.4 73.223l43.707 5.283 22.734 13.768-22.734 11.527-16.65-4.002-13.609-7.205L63.4 99.798Z" fill="url(#d)"/>
</g>
</g>
<path d="m51.564 25.03-.147 52.202-.371-.215-12.395-7.153.125-44.757.022-7.448 12.766 7.371Z" fill="#ECF7FF"/>
<path d="m100.772 26.01-.016 5.924-.131 46.242v.036l-7.432 4.32v-.02l.135-46.441.016-5.745 7.428-4.316Z" fill="#849ACB"/>
<path d="m100.756 29.826-.131 46.243-7.432 4.336-1.55.903.141-46.487 1.544-.858 7.428-4.137Z" fill="#44A3D8"/>
<path d="m51.158 31.917-.112 45.1-12.395-7.154.125-44.757 12.382 6.81Z" fill="#A3A3A3"/>
<path d="m51.158 31.917-.112 45.1-12.395-7.154.125-44.757 12.382 6.81Z" fill="#ECF6FF"/>
<path d="m51.158 31.917-.112 45.1-12.395-7.154.125-44.757 12.382 6.81Z" fill="url(#b)" fill-opacity=".3"/>
<path d="m51.158 31.917-.112 45.1-12.395-7.154.125-44.757 12.382 6.81Z" fill="url(#a)" fill-opacity=".3"/>
<path d="m51.158 31.917-.112 45.1-12.395-7.154.125-44.757 12.382 6.81Z" fill="url(#bh)" fill-opacity=".1"/>
<path d="m51.158 31.917-.112 45.1-12.395-7.154.125-44.757 12.382 6.81Z" fill="#2E86FE"/>
<path d="m51.158 31.917-.112 45.1-12.395-7.154.125-44.757 12.382 6.81Z" fill="url(#bg)"/>
<path d="m76.796 39.711-.147 52.205-13.375 7.77.147-52.2 13.375-7.775Z" fill="url(#bf)"/>
<path d="m63.421 47.484-.147 52.202-25.33-14.624.146-52.201 25.331 14.623Z" fill="#ECF7FF"/>
<path d="m100.775 26.01-7.431 4.319 14.46 8.348-16.346 9.5-14.662-8.466-13.375 7.774-25.33-14.623 13.473-7.832-12.763-7.368L62.48 3.9l38.295 22.11Z" fill="#D9E6FC"/>
<path d="m100.775 26.01-7.431 4.319 14.46 8.348-16.346 9.5-14.662-8.466-13.375 7.774-25.33-14.623 13.473-7.832-12.763-7.368L62.48 3.9l38.295 22.11Z" fill="url(#be)" fill-opacity=".15"/>
<path d="m98.143 25.871-6.64 4.217 14.972 8.716-14.909 8.347-14.822-8.767-13.425 8.012-23.336-13.637 13.109-7.784-12.296-7.31 21.68-12.597 35.667 20.803z" fill="url(#bd)"/>
<path d="m107.804 38.678-.148 52.201-16.346 9.5.148-52.201 16.346-9.5Z" fill="url(#bc)"/>
<path d="m91.454 48.174-.015 5.725-.132 46.48-14.659-8.466.132-46.074.016-6.128 14.658 8.463Z" fill="#ECF7FF"/>
<path d="M53.092 24.977v1.53l-12.194 6.958-.915-.704 13.109-7.784ZM40.796 17.665l.944.614L62.476 6.121l34.838 20.291.829-.54L62.476 5.067l-21.68 12.597ZM91.503 30.088v1.127l14.012 8.104.96-.515-14.972-8.716Z" fill="#849ACB"/>
<path d="M42.772 87.773v-46.25l20.617 11.339-.115 46.825-20.502-11.914Z" fill="#A3A3A3"/>
<path d="M42.772 87.773v-46.25l20.617 11.339-.115 46.825-20.502-11.914Z" fill="#ECF6FF"/>
<path d="M42.772 87.773v-46.25l20.617 11.339-.115 46.825-20.502-11.914Z" fill="url(#bb)" fill-opacity=".3"/>
<path d="M42.772 87.773v-46.25l20.617 11.339-.115 46.825-20.502-11.914Z" fill="url(#ba)" fill-opacity=".3"/>
<path d="M42.772 87.773v-46.25l20.617 11.339-.115 46.825-20.502-11.914Z" fill="url(#az)" fill-opacity=".1"/>
<path d="M42.772 87.773v-46.25l20.617 11.339-.115 46.825-20.502-11.914Z" fill="#2E86FE"/>
<path d="M42.772 87.773v-46.25l20.617 11.339-.115 46.825-20.502-11.914Z" fill="url(#ay)"/>
<path d="m91.439 53.9-.132 46.479-14.659-8.466.132-46.073 14.659 8.06Z" fill="#A3A3A3"/>
<path d="m91.439 53.9-.132 46.479-14.659-8.466.132-46.073 14.659 8.06Z" fill="#ECF6FF"/>
<path d="m91.439 53.9-.132 46.479-14.659-8.466.132-46.073 14.659 8.06Z" fill="url(#av)" fill-opacity=".3"/>
<path d="m91.439 53.9-.132 46.479-14.659-8.466.132-46.073 14.659 8.06Z" fill="url(#au)" fill-opacity=".3"/>
<path d="m91.439 53.9-.132 46.479-14.659-8.466.132-46.073 14.659 8.06Z" fill="url(#at)" fill-opacity=".1"/>
<path d="m91.439 53.9-.132 46.479-14.659-8.466.132-46.073 14.659 8.06Z" fill="#2E86FE"/>
<path d="m91.439 53.9-.132 46.479-14.659-8.466.132-46.073 14.659 8.06Z" fill="url(#as)"/>
<path d="m76.78 45.84-13.39 7.022-.116 46.826 13.375-7.775.13-46.073Z" fill="#EAEAEA"/>
<path d="m76.78 45.84-13.39 7.022-.116 46.826 13.375-7.775.13-46.073Z" fill="#ECF6FF"/>
<path d="m76.78 45.84-13.39 7.022-.116 46.826 13.375-7.775.13-46.073Z" fill="url(#ar)" fill-opacity=".3"/>
<path d="m76.78 45.84-13.39 7.022-.116 46.826 13.375-7.775.13-46.073Z" fill="url(#aq)" fill-opacity=".3"/>
<path d="m76.78 45.84-13.39 7.022-.116 46.826 13.375-7.775.13-46.073Z" fill="url(#ap)" fill-opacity=".1"/>
<path d="m76.78 45.84-13.39 7.022-.116 46.826 13.375-7.775.13-46.073Z" fill="#266FD2"/>
<path d="m76.78 45.84-13.39 7.022-.116 46.826 13.375-7.775.13-46.073Z" fill="url(#ao)"/>
<g style="mix-blend-mode:multiply">
<path d="m76.745 45.84-13.391 7.022-.115 46.826 13.374-7.775.132-46.073Z" fill="#EAEAEA"/>
<path d="m76.745 45.84-13.391 7.022-.115 46.826 13.374-7.775.132-46.073Z" fill="#ECF6FF"/>
<path d="m76.745 45.84-13.391 7.022-.115 46.826 13.374-7.775.132-46.073Z" fill="url(#an)"/>
</g>
<path d="m104.144 46.899-.176 46.073-.375.221-12.231 7.23.14-46.906 12.091-6.31.551-.308Z" fill="#EAEAEA"/>
<path d="m104.144 46.899-.176 46.073-.375.221-12.231 7.23.14-46.906 12.091-6.31.551-.308Z" fill="#ECF6FF"/>
<path d="m104.144 46.899-.176 46.073-.375.221-12.231 7.23.14-46.906 12.091-6.31.551-.308Z" fill="url(#am)" fill-opacity=".3"/>
<path d="m104.144 46.899-.176 46.073-.375.221-12.231 7.23.14-46.906 12.091-6.31.551-.308Z" fill="url(#aj)" fill-opacity=".3"/>
<path d="m104.144 46.899-.176 46.073-.375.221-12.231 7.23.14-46.906 12.091-6.31.551-.308Z" fill="url(#ai)" fill-opacity=".1"/>
<path d="m104.144 46.899-.176 46.073-.375.221-12.231 7.23.14-46.906 12.091-6.31.551-.308Z" fill="#266FD2"/>
<path d="m104.144 46.899-.176 46.073-.375.221-12.231 7.23.14-46.906 12.091-6.31.551-.308Z" fill="url(#ah)"/>
<g style="mix-blend-mode:multiply">
<path d="m103.878 46.899-.176 46.073-.375.221-12.231 7.23.14-46.906 12.091-6.31.551-.308Z" fill="#EAEAEA"/>
<path d="m103.878 46.899-.176 46.073-.375.221-12.231 7.23.14-46.906 12.091-6.31.551-.308Z" fill="#ECF6FF"/>
<path d="m103.878 46.899-.176 46.073-.375.221-12.231 7.23.14-46.906 12.091-6.31.551-.308Z" fill="url(#ag)"/>
</g>
<path d="M43.091 41.851 63.24 52.73l13.448-6.884 14.396 7.72 12.981-6.76" stroke="#fff" stroke-miterlimit="10" stroke-width=".123"/>
<path d="m42.864 46.889 20.243 11.274 13.308-7.092 14.84 7.582 12.764-6.369" stroke="#fff" stroke-miterlimit="10" stroke-width=".123"/>
<path d="m42.864 51.977 20.243 11.345 13.308-7.153 15 7.767 12.562-6.56" stroke="#fff" stroke-miterlimit="10" stroke-width=".123"/>
<path d="m42.864 57.066 20.243 11.418 13.308-7.218 14.777 7.903 12.744-6.702" stroke="#fff" stroke-miterlimit="10" stroke-width=".123"/>
<path d="m42.864 62.151 20.243 11.492 13.308-7.278 14.812 8.008 12.667-6.81" stroke="#fff" stroke-miterlimit="10" stroke-width=".123"/>
<path d="m42.864 67.237 20.243 11.562 13.308-7.339 14.85 8.11 12.587-6.919" stroke="#fff" stroke-miterlimit="10" stroke-width=".123"/>
<path d="m42.864 72.325 20.243 11.636 13.308-7.406L91.3 84.771l12.51-7.028" stroke="#fff" stroke-miterlimit="10" stroke-width=".123"/>
<path d="m42.864 77.411 20.243 11.71 13.308-7.468 14.92 8.322 12.434-7.14" stroke="#fff" stroke-miterlimit="10" stroke-width=".123"/>
<path d="m42.864 82.5 20.243 11.78 13.308-7.529 14.96 8.425 12.353-7.246" stroke="#fff" stroke-miterlimit="10" stroke-width=".123"/>
<path d="M42.906 87.79 63.24 99.639l13.448-7.685 14.57 8.485 12.429-7.419" stroke="#fff" stroke-miterlimit="10" stroke-width=".123"/>
<path d="M43.239 41.806V87.82" stroke="#fff" stroke-miterlimit="10" stroke-width=".246"/>
<path d="M56.194 95.156v-7.364l-7.963-2.999-.965-.363v6.084l8.928 4.642Z" fill="url(#af)"/>
<path d="M55.805 94.602v-7.4l-8.214-3.416-.202 6.012 8.416 4.804Z" fill="url(#ae)"/>
<path d="m53.313 47.445v43.065m-4.822-45.812v43.642m9.721-38.173v46.433m4.988-43.871v46.801m13.497-53.525v46.032m3.656-44.11v46.125m3.698-44.042-0.045 46.057m3.654-44.212v46.225m3.596-44.549-0.061 46.909m3.237-48.49-0.022 46.61m3.137-48.18-0.044 46.364m3.16-47.933-0.067 46.118" stroke="#fff" stroke-miterlimit="10" stroke-width=".123"/>
<path d="m103.78 47.237-0.096 45.874" stroke="#fff" stroke-miterlimit="10" stroke-width=".246"/>
<path d="m66.553 51.246v46.47m3.349-48.181v46.262m3.263-48.03 0.09 46.096" stroke="#fff" stroke-miterlimit="10" stroke-width=".123"/>
<path d="m104.224 46.645-.256 46.326-.375.22V46.899l.631-.253Z" fill="url(#ad)"/>
<path d="M42.772 41.524v46.249l.586.586V41.806l-.586-.282Z" fill="url(#ac)"/>
<path d="M40.825 94.195v-.48l10.246 5.763v.64l-10.246-5.923Z" fill="url(#ab)"/>
<path d="m57.315 95.796-6.244 3.683v.64l6.244-3.682v-.64Z" fill="url(#aa)"/>
<path d="m57.315 95.796-6.244 3.682-10.246-5.763 6.404-3.682 10.086 5.763z" fill="url(#x)"/>
<path d="M42.426 85.711h.64v8.005l-.64-.32V85.71Z" fill="#ECF7FF"/>
<path d="m43.867 85.551-.8.16v8.005l.8-.48V85.55Z" fill="url(#w)"/>
<path d="M50.43 90.513h.64v8.004l-.64-.32v-7.684Z" fill="#ECF7FF"/>
<path d="m51.871 90.353-.8.16v8.004l.8-.48v-7.684Z" fill="url(#v)"/>
<path d="M41.625 86.189v-.48l10.247 5.763v.64L41.625 86.19Z" fill="url(#u)"/>
<path d="m58.116 87.79-6.244 3.683v.64l6.244-3.682v-.64Z" fill="url(#t)"/>
<path d="m58.116 87.79-6.244 3.683-10.247-5.764 6.404-3.682 10.087 5.763z" fill="url(#s)"/>
<path d="M43.28 55.704v-8.729l19.925 25.13v9.975L43.281 55.704Z" fill="url(#r)"/>
<path d="m76.687 74.464v-8.446l14.409 20.699v9.88l-14.41-22.133z" fill="url(#q)"/>
<g filter="url(#bm)">
<path d="M85.653 32.558H75.566V21.191h8.646l9.926 6.084-8.485 5.283Z" fill="url(#p)" fill-opacity=".41"/>
</g>
<g filter="url(#bl)">
<path d="M71.724 23.913H61.638V12.546h8.645l9.926 6.083-8.485 5.284Z" fill="url(#o)" fill-opacity=".41"/>
</g>
<path d="m84.692 21.832-9.286 5.444-8.485-4.963 9.285-5.284 8.486 4.803z" fill="url(#l)"/>
<path d="m83.561 21.889-.49.285-6.96-3.939-7.461 4.227-.48-.291 7.94-4.5 7.451 4.218Z" fill="#849ACB"/>
<path d="m75.406 27.116-8.485-4.803v5.444l8.485 4.963v-5.604z" fill="#ECF7FF"/>
<path d="m84.692 21.833-9.286 5.284v5.603l9.285-5.283v-5.604z" fill="url(#k)"/>
<path d="m71.084 12.867-9.286 5.443-8.485-4.963 9.285-5.283 8.486 4.803z" fill="url(#j)"/>
<path d="m69.953 12.923-.49.285-6.96-3.938-7.461 4.227-.48-.292 7.94-4.499 7.451 4.217Z" fill="#849ACB"/>
<path d="m61.798 18.15-8.485-4.802v5.443l8.485 4.963v-5.603z" fill="#ECF7FF"/>
<path d="m71.083 12.868-9.285 5.283v5.604l9.285-5.284v-5.603z" fill="url(#i)"/>
<defs>
<radialGradient id="aw" cx="0" cy="0" r="1" gradientTransform="rotate(186.47 58.356 64.559) scale(194.02 65.999)" gradientUnits="userSpaceOnUse">
<stop stop-color="#0C2780" offset="0"/>
<stop stop-color="#0C2780" stop-opacity="0" offset="1"/>
</radialGradient>
<radialGradient id="y" cx="0" cy="0" r="1" gradientTransform="rotate(185.6 66.037 44.303) scale(177.27 60.302)" gradientUnits="userSpaceOnUse">
<stop stop-color="#0C2780" offset="0"/>
<stop stop-color="#0C2780" stop-opacity="0" offset="1"/>
</radialGradient>
<radialGradient id="e" cx="0" cy="0" r="1" gradientTransform="rotate(157.93 22.902 45.846) scale(108.49 37.826)" gradientUnits="userSpaceOnUse">
<stop stop-color="#0C2780" offset="0"/>
<stop stop-color="#0C2780" stop-opacity="0" offset="1"/>
</radialGradient>
<radialGradient id="b" cx="0" cy="0" r="1" gradientTransform="rotate(117.57 1.668 52.723) scale(20.788 21.402)" gradientUnits="userSpaceOnUse">
<stop stop-color="#2E86FE" offset="0"/>
<stop stop-color="#2E86FE" stop-opacity="0" offset="1"/>
</radialGradient>
<radialGradient id="a" cx="0" cy="0" r="1" gradientTransform="matrix(-.58687 -40.632 20.889 -.3017 44.88 91.545)" gradientUnits="userSpaceOnUse">
<stop stop-color="#0C2780" offset="0"/>
<stop stop-color="#0C2780" stop-opacity="0" offset="1"/>
</radialGradient>
<radialGradient id="bh" cx="0" cy="0" r="1" gradientTransform="matrix(-18.869 16.496 -21.157 -24.2 40.366 21.74)" gradientUnits="userSpaceOnUse">
<stop stop-color="#2E86FE" offset="0"/>
<stop stop-color="#2E86FE" stop-opacity="0" offset="1"/>
</radialGradient>
<radialGradient id="bf" cx="0" cy="0" r="1" gradientTransform="rotate(121.31 39.856 42.735) scale(96.007 113.15)" gradientUnits="userSpaceOnUse">
<stop stop-color="#ECF6FF" offset=".195"/>
<stop stop-color="#4B71CD" offset="1"/>
</radialGradient>
<radialGradient id="be" cx="0" cy="0" r="1" gradientTransform="matrix(-58.647 14.342 -24.529 -100.3 113.88 13.561)" gradientUnits="userSpaceOnUse">
<stop stop-color="#63F0EB" offset="0"/>
<stop stop-color="#63F0EB" stop-opacity="0" offset="1"/>
</radialGradient>
<radialGradient id="bd" cx="0" cy="0" r="1" gradientTransform="matrix(272.81 -32.34 19.089 161.02 -78.609 59.934)" gradientUnits="userSpaceOnUse">
<stop stop-color="#ECF6FF" offset=".493"/>
<stop stop-color="#4B71CD" offset="1"/>
</radialGradient>
<radialGradient id="bc" cx="0" cy="0" r="1" gradientTransform="matrix(-81.651 117.51 -147.98 -102.83 140.41 20.872)" gradientUnits="userSpaceOnUse">
<stop stop-color="#ECF6FF" offset=".195"/>
<stop stop-color="#4B71CD" offset="1"/>
</radialGradient>
<radialGradient id="bb" cx="0" cy="0" r="1" gradientTransform="rotate(127.52 5.875 63.891) scale(26.036 31.564)" gradientUnits="userSpaceOnUse">
<stop stop-color="#2E86FE" offset="0"/>
<stop stop-color="#2E86FE" stop-opacity="0" offset="1"/>
</radialGradient>
<radialGradient id="ba" cx="0" cy="0" r="1" gradientTransform="rotate(268.78 83.285 32.02) scale(45.537 34.434)" gradientUnits="userSpaceOnUse">
<stop stop-color="#0C2780" offset="0"/>
<stop stop-color="#0C2780" stop-opacity="0" offset="1"/>
</radialGradient>
<radialGradient id="az" cx="0" cy="0" r="1" gradientTransform="rotate(149.28 17.615 25.14) scale(36.183 41.127)" gradientUnits="userSpaceOnUse">
<stop stop-color="#2E86FE" offset="0"/>
<stop stop-color="#2E86FE" stop-opacity="0" offset="1"/>
</radialGradient>
<radialGradient id="av" cx="0" cy="0" r="1" gradientTransform="matrix(-11.376 19.362 -21.223 -12.47 89.096 98.936)" gradientUnits="userSpaceOnUse">
<stop stop-color="#2E86FE" offset="0"/>
<stop stop-color="#2E86FE" stop-opacity="0" offset="1"/>
</radialGradient>
<radialGradient id="au" cx="0" cy="0" r="1" gradientTransform="rotate(269.07 98.897 16.491) scale(42.695 24.704)" gradientUnits="userSpaceOnUse">
<stop stop-color="#0C2780" offset="0"/>
<stop stop-color="#0C2780" stop-opacity="0" offset="1"/>
</radialGradient>
<radialGradient id="at" cx="0" cy="0" r="1" gradientTransform="matrix(-22.314 17.331 -21.732 -27.979 78.677 42.304)" gradientUnits="userSpaceOnUse">
<stop stop-color="#2E86FE" offset="0"/>
<stop stop-color="#2E86FE" stop-opacity="0" offset="1"/>
</radialGradient>
<radialGradient id="ar" cx="0" cy="0" r="1" gradientTransform="matrix(-10.389 19.116 -20.127 -10.938 74.641 98.263)" gradientUnits="userSpaceOnUse">
<stop stop-color="#2E86FE" offset="0"/>
<stop stop-color="#2E86FE" stop-opacity="0" offset="1"/>
</radialGradient>
<radialGradient id="aq" cx="0" cy="0" r="1" gradientTransform="rotate(269.14 91.523 22.9) scale(42.153 22.559)" gradientUnits="userSpaceOnUse">
<stop stop-color="#0C2780" offset="0"/>
<stop stop-color="#0C2780" stop-opacity="0" offset="1"/>
</radialGradient>
<radialGradient id="ap" cx="0" cy="0" r="1" gradientTransform="rotate(139.98 24.852 33.034) scale(26.608 33.917)" gradientUnits="userSpaceOnUse">
<stop stop-color="#2E86FE" offset="0"/>
<stop stop-color="#2E86FE" stop-opacity="0" offset="1"/>
</radialGradient>
<radialGradient id="an" cx="0" cy="0" r="1" gradientTransform="rotate(90.833 6.674 58.395) scale(64.816 68.242)" gradientUnits="userSpaceOnUse">
<stop stop-color="#2E86FE" offset="0"/>
<stop stop-color="#2E86FE" stop-opacity="0" offset="1"/>
</radialGradient>
<radialGradient id="am" cx="0" cy="0" r="1" gradientTransform="rotate(117.36 20.937 80.573) scale(21.394 21.914)" gradientUnits="userSpaceOnUse">
<stop stop-color="#2E86FE" offset="0"/>
<stop stop-color="#2E86FE" stop-opacity="0" offset="1"/>
</radialGradient>
<radialGradient id="aj" cx="0" cy="0" r="1" gradientTransform="rotate(269.18 105.75 9.532) scale(41.9 21.351)" gradientUnits="userSpaceOnUse">
<stop stop-color="#0C2780" offset="0"/>
<stop stop-color="#0C2780" stop-opacity="0" offset="1"/>
</radialGradient>
<radialGradient id="ai" cx="0" cy="0" r="1" gradientTransform="rotate(138.59 38.35 39.313) scale(25.714 33.017)" gradientUnits="userSpaceOnUse">
<stop stop-color="#2E86FE" offset="0"/>
<stop stop-color="#2E86FE" stop-opacity="0" offset="1"/>
</radialGradient>
<radialGradient id="ag" cx="0" cy="0" r="1" gradientTransform="rotate(99.205 26.432 72.092) scale(61.264 62.753)" gradientUnits="userSpaceOnUse">
<stop stop-color="#2E86FE" offset="0"/>
<stop stop-color="#2E86FE" stop-opacity="0" offset="1"/>
</radialGradient>
<radialGradient id="af" cx="0" cy="0" r="1" gradientTransform="rotate(24.314 -173.5 99.589) scale(29.163 27.02)" gradientUnits="userSpaceOnUse">
<stop stop-color="#ECF6FF" offset=".344"/>
<stop stop-color="#4B71CD" offset="1"/>
</radialGradient>
<radialGradient id="ae" cx="0" cy="0" r="1" gradientTransform="rotate(112.93 21.807 40.715) scale(66.636 61.739)" gradientUnits="userSpaceOnUse">
<stop stop-color="#ECF6FF" offset=".344"/>
<stop stop-color="#4B71CD" offset="1"/>
</radialGradient>
<radialGradient id="ad" cx="0" cy="0" r="1" gradientTransform="rotate(-74.213 120.24 4.107) scale(74.606 1.0097)" gradientUnits="userSpaceOnUse">
<stop stop-color="#ECF6FF" offset=".195"/>
<stop stop-color="#4B71CD" offset="1"/>
</radialGradient>
<radialGradient id="ac" cx="0" cy="0" r="1" gradientTransform="matrix(-22.895 -79.729 1.1348 -.32586 65.96 121.25)" gradientUnits="userSpaceOnUse">
<stop stop-color="#ECF6FF" offset=".195"/>
<stop stop-color="#4B71CD" offset="1"/>
</radialGradient>
<radialGradient id="ab" cx="0" cy="0" r="1" gradientTransform="matrix(-50.724 12.197 -7.4504 -30.986 71.325 91.866)" gradientUnits="userSpaceOnUse">
<stop stop-color="#ECF6FF" offset=".195"/>
<stop stop-color="#4B71CD" offset="1"/>
</radialGradient>
<radialGradient id="aa" cx="0" cy="0" r="1" gradientTransform="matrix(-20.347 5.25 -3.5089 -13.599 69.657 94.549)" gradientUnits="userSpaceOnUse">
<stop stop-color="#ECF6FF" offset=".195"/>
<stop stop-color="#4B71CD" offset="1"/>
</radialGradient>
<radialGradient id="x" cx="0" cy="0" r="1" gradientTransform="matrix(-52.432 11.475 -6.1885 -28.276 82.05 88.644)" gradientUnits="userSpaceOnUse">
<stop stop-color="#ECF6FF" offset=".344"/>
<stop stop-color="#4B71CD" offset="1"/>
</radialGradient>
<radialGradient id="w" cx="0" cy="0" r="1" gradientTransform="matrix(-8.6452 13.128 -8.9238 -5.8765 36.822 86.352)" gradientUnits="userSpaceOnUse">
<stop stop-color="#ECF6FF" offset=".302"/>
<stop stop-color="#4B71CD" offset="1"/>
</radialGradient>
<radialGradient id="v" cx="0" cy="0" r="1" gradientTransform="rotate(123.37 -2.144 57.653) scale(15.719 10.685)" gradientUnits="userSpaceOnUse">
<stop stop-color="#ECF6FF" offset=".302"/>
<stop stop-color="#4B71CD" offset="1"/>
</radialGradient>
<radialGradient id="u" cx="0" cy="0" r="1" gradientTransform="matrix(-50.724 12.197 -7.4504 -30.986 72.126 83.86)" gradientUnits="userSpaceOnUse">
<stop stop-color="#ECF6FF" offset=".195"/>
<stop stop-color="#4B71CD" offset="1"/>
</radialGradient>
<radialGradient id="t" cx="0" cy="0" r="1" gradientTransform="matrix(-20.347 5.25 -3.5089 -13.599 70.458 86.543)" gradientUnits="userSpaceOnUse">
<stop stop-color="#ECF6FF" offset=".195"/>
<stop stop-color="#4B71CD" offset="1"/>
</radialGradient>
<radialGradient id="s" cx="0" cy="0" r="1" gradientTransform="matrix(-60.843 12.918 -6.9666 -32.812 82.85 80.638)" gradientUnits="userSpaceOnUse">
<stop stop-color="#ECF6FF" offset=".493"/>
<stop stop-color="#4B71CD" offset="1"/>
</radialGradient>
<radialGradient id="l" cx="0" cy="0" r="1" gradientTransform="rotate(101.91 33.281 38.323) scale(44.996 121.75)" gradientUnits="userSpaceOnUse">
<stop stop-color="#E4EFF9" offset=".13"/>
<stop stop-color="#506AA5" offset="1"/>
</radialGradient>
<radialGradient id="k" cx="0" cy="0" r="1" gradientTransform="rotate(156.51 47.207 20.368) scale(37.356 36.247)" gradientUnits="userSpaceOnUse">
<stop stop-color="#ECF6FF" offset=".195"/>
<stop stop-color="#4B71CD" offset="1"/>
</radialGradient>
<radialGradient id="j" cx="0" cy="0" r="1" gradientTransform="rotate(101.91 30.113 28.322) scale(44.996 121.75)" gradientUnits="userSpaceOnUse">
<stop stop-color="#E4EFF9" offset=".13"/>
<stop stop-color="#506AA5" offset="1"/>
</radialGradient>
<radialGradient id="i" cx="0" cy="0" r="1" gradientTransform="matrix(-34.261 14.889 -14.447 -33.244 85.012 11.267)" gradientUnits="userSpaceOnUse">
<stop stop-color="#ECF6FF" offset=".195"/>
<stop stop-color="#4B71CD" offset="1"/>
</radialGradient>
<linearGradient id="bi" x1="79.222" x2="64.505" y1="112.92" y2="63.438" gradientUnits="userSpaceOnUse">
<stop stop-color="#3ADFD5" offset="0"/>
<stop stop-color="#63F0EB" offset="1"/>
</linearGradient>
<linearGradient id="ak" x1="79.215" x2="64.498" y1="112.92" y2="63.441" gradientUnits="userSpaceOnUse">
<stop stop-color="#3ADFD5" offset="0"/>
<stop stop-color="#63F0EB" offset="1"/>
</linearGradient>
<linearGradient id="m" x1="150.5" x2="59.197" y1="128.83" y2="128.41" gradientUnits="userSpaceOnUse">
<stop stop-color="#1BB1FF" offset="0"/>
<stop stop-color="#63F0EB" offset="1"/>
</linearGradient>
<linearGradient id="g" x1="48.3" x2="40.19" y1="120.22" y2="93.333" gradientUnits="userSpaceOnUse">
<stop stop-color="#3ADFD5" offset="0"/>
<stop stop-color="#63F0EB" offset="1"/>
</linearGradient>
<linearGradient id="d" x1="149.05" x2="7.891" y1="90.512" y2="93.594" gradientUnits="userSpaceOnUse">
<stop stop-color="#0C2780" stop-opacity="0" offset="0"/>
<stop stop-color="#0C2780" stop-opacity=".12" offset=".268"/>
<stop stop-color="#0C2780" stop-opacity="0" offset="1"/>
</linearGradient>
<linearGradient id="bg" x1="37.231" x2="50.31" y1="42.697" y2="43.927" gradientUnits="userSpaceOnUse">
<stop stop-color="#60C9FF" offset="0"/>
<stop stop-color="#12AFFF" stop-opacity="0" offset="1"/>
</linearGradient>
<linearGradient id="ay" x1="44.347" x2="89.993" y1="35.12" y2="58.941" gradientUnits="userSpaceOnUse">
<stop stop-color="#60C9FF" offset="0"/>
<stop stop-color="#12AFFF" stop-opacity="0" offset="1"/>
</linearGradient>
<linearGradient id="as" x1="72.845" x2="109.44" y1="45.846" y2="54.693" gradientUnits="userSpaceOnUse">
<stop stop-color="#60C9FF" offset="0"/>
<stop stop-color="#12AFFF" stop-opacity="0" offset="1"/>
</linearGradient>
<linearGradient id="ao" x1="45.231" x2="89.786" y1="44.136" y2="21.053" gradientUnits="userSpaceOnUse">
<stop stop-color="#60C9FF" offset="0"/>
<stop stop-color="#129BE1" offset=".354"/>
<stop stop-color="#12AFFF" stop-opacity="0" offset="1"/>
</linearGradient>
<linearGradient id="ah" x1="74.286" x2="117.3" y1="45.205" y2="23.985" gradientUnits="userSpaceOnUse">
<stop stop-color="#60C9FF" offset="0"/>
<stop stop-color="#129BE1" offset=".354"/>
<stop stop-color="#12AFFF" stop-opacity="0" offset="1"/>
</linearGradient>
<linearGradient id="r" x1="39.333" x2="62.659" y1="39.12" y2="86.707" gradientUnits="userSpaceOnUse">
<stop stop-color="#fff" offset="0"/>
<stop stop-color="#D9D9D9" stop-opacity="0" offset="1"/>
</linearGradient>
<linearGradient id="q" x1="61.157" x2="102.23" y1="48.087" y2="95.024" gradientUnits="userSpaceOnUse">
<stop stop-color="#fff" offset="0"/>
<stop stop-color="#D9D9D9" stop-opacity="0" offset="1"/>
</linearGradient>
<linearGradient id="p" x1="98.013" x2="69.526" y1="27.618" y2="27.956" gradientUnits="userSpaceOnUse">
<stop stop-color="#0C2780" stop-opacity="0" offset="0"/>
<stop stop-color="#0C2780" stop-opacity=".27" offset=".268"/>
<stop stop-color="#0C2780" stop-opacity="0" offset="1"/>
</linearGradient>
<linearGradient id="o" x1="84.085" x2="55.598" y1="18.973" y2="19.31" gradientUnits="userSpaceOnUse">
<stop stop-color="#0C2780" stop-opacity="0" offset="0"/>
<stop stop-color="#0C2780" stop-opacity=".27" offset=".268"/>
<stop stop-color="#0C2780" stop-opacity="0" offset="1"/>
</linearGradient>
<filter id="bn" x="36.538" y="71.976" width="94.548" height="33.07" color-interpolation-filters="sRGB" filterUnits="userSpaceOnUse">
<feFlood flood-opacity="0" result="BackgroundImageFix"/>
<feBlend in="SourceGraphic" in2="BackgroundImageFix" result="shape"/>
<feGaussianBlur result="effect1_foregroundBlur_57_2" stdDeviation=".623"/>
</filter>
<filter id="bm" x="74.827" y="20.452" width="20.049" height="12.845" color-interpolation-filters="sRGB" filterUnits="userSpaceOnUse">
<feFlood flood-opacity="0" result="BackgroundImageFix"/>
<feBlend in="SourceGraphic" in2="BackgroundImageFix" result="shape"/>
<feGaussianBlur result="effect1_foregroundBlur_57_2" stdDeviation=".369"/>
</filter>
<filter id="bl" x="60.899" y="11.807" width="20.049" height="12.845" color-interpolation-filters="sRGB" filterUnits="userSpaceOnUse">
<feFlood flood-opacity="0" result="BackgroundImageFix"/>
<feBlend in="SourceGraphic" in2="BackgroundImageFix" result="shape"/>
<feGaussianBlur result="effect1_foregroundBlur_57_2" stdDeviation=".369"/>
</filter>
</defs>
</g>
<!-- Always keep the default as the last item -->
<g class="default-group">
<path d="M20.8 11.267V99.74l66.288 8.192V19.459L20.8 11.267Z" fill="url(#bj)"/>
<path d="M60.535 37.53c.598.082 1.198.414 1.657.977.919 1.124.93 2.746.023 3.62l-9.123 8.806a1.963 1.963  0 0  1-1.646.523c-.614-.085-1.218-.44-1.655-.977l-4.45-5.453c-.92-1.126-.93-2.747-.023-3.621a1.948  1.948 0 0 1 1.646-.523c.597.082 1.197.414 1.656.977l2.788 3.415 7.481-7.223a1.947 1.947 0 0 1  1.646-.523v.002Z" fill="url(#ax)"/>
<path d="M71.858 43.12c1.214 1.803 1.228 4.138.036 5.609l-1.218 1.504c-.623.768-.935 1.801-.88 2.904l.112  2.159c.11 2.113-1.13 3.83-2.978 4.124l-1.887.303c-.965.152-1.796.703-2.337 1.547l-1.06  1.652c-.762 1.188-2.056 1.741-3.402 1.557a4.195 4.195 0 0 1-1.453-.493l-1.836-1.015a4.166 4.166  0 0 0-1.454-.493 3.578 3.578 0 0  0-1.45.093l-1.826.513c-.474.133-.964.16-1.45.094-1.346-.184-2.65-1.095-3.427-2.496l-1.082-1.946c-.553-.994-1.392-1.774-2.361-2.194l-1.895-.822c-1.854-.803-3.118-2.864-3.035-4.95l.083-2.133c.043-1.088-.284-2.21-.916-3.151l-1.24-1.841c-1.213-1.803-1.227-4.138-.035-5.609l1.218-1.504c.623-.767.935-1.801.879-2.904l-.112-2.159c-.108-2.111  1.131-3.83 2.98-4.124l1.886-.301a3.393 3.393 0 0 0 2.337-1.548l1.06-1.651c.763-1.188 2.057-1.743  3.403-1.557.484.066.977.23 1.452.492l1.836 1.017c.469.26.962.425 1.454.492.492.068.983.038  1.45-.093l1.826-.513c.472-.133.963-.16 1.448-.095 1.346.185 2.65 1.097 3.429 2.497l1.082  1.946c.553.993 1.392 1.774 2.361 2.195l1.894.82c1.855.805 3.118 2.865 3.036 4.951l-.083  2.132a5.338 5.338 0 0 0 .915 3.152l1.24 1.84ZM53.47 57.57c7.149.982 12.902-4.572  12.853-12.408-.05-7.836-5.884-14.984-13.032-15.966-7.148-.983-12.901 4.573-12.852 12.409.049  7.835 5.883 14.982 13.031 15.965Z" fill="url(#al)"/>
<path d="M35.426 71.562a2.076 2.076 0 0 1 2.317-1.803l33.555 4.183a2.076 2.076 0 0 1-.514 4.12L37.23  73.88a2.076 2.076 0 0 1-1.804-2.318Z" clip-rule="evenodd" fill="url(#z)" fill-rule="evenodd"/>
<path d="M35.426 80.521a2.076 2.076 0 0 1 2.317-1.803L71.298 82.9a2.076 2.076 0 0 1-.514 4.121L37.23  82.838a2.076 2.076 0 0 1-1.804-2.317Z" clip-rule="evenodd" fill="url(#n)" fill-rule="evenodd"/>
<path d="m44.044 89.474a2.076 2.076 0 0 1 2.32-1.8l15.549 1.967a2.076 2.076 0 1 1-0.521 4.12l-15.549-1.966a2.076 2.076 0 0 1-1.8-2.32z" clip-rule="evenodd" fill="url(#h)" fill-rule="evenodd"/>
<path d="M89.314 73.417c.93.114 1.864.635 2.54 1.53 3.092 4.105 8.076 8.284 14.227  9.038.076.01.152.02.228.027 1.576.193 2.768 1.806 2.565 3.417-2.026 16.186-7.68 25.535-16.943  30.932a3.696 3.696 0 0  1-2.329.46c-.812-.1-1.628-.448-2.339-1.032-9.346-7.675-15.128-18.426-17.363-35.133-.222-1.663.95-2.988  2.49-2.799l.264.034c6.15.753 11.09-2.211 14.136-5.564.664-.731 1.593-1.024 2.524-.911v.001Z" fill="url(#f)"/>
<path d="M89.314 73.417c.93.114 1.864.635 2.54 1.53 3.092 4.105 8.076 8.284 14.227  9.038.076.01.152.02.228.027 1.576.193 2.768 1.806 2.565 3.417-2.026 16.186-7.68 25.535-16.943  30.932a3.696 3.696 0 0  1-2.329.46c-.812-.1-1.628-.448-2.339-1.032-9.346-7.675-15.128-18.426-17.363-35.133-.222-1.663.95-2.988  2.49-2.799l.264.034c6.15.753 11.09-2.211 14.136-5.564.664-.731 1.593-1.024 2.524-.911v.001Z" fill="url(#c)" fill-opacity=".2"/>
<defs>
<linearGradient id="bj" x1="-32.776" x2="179.14" y1="-55.262" y2="87.822" gradientUnits="userSpaceOnUse">
<stop stop-color="#446DCE" offset="0"/>
<stop stop-color="#E2F2FF" offset=".449"/>
<stop stop-color="#ECF6FF" offset=".561"/>
<stop stop-color="#107ADC" offset="1"/>
</linearGradient>
<linearGradient id="ax" x1="44.644" x2="60.797" y1="51.476" y2="31.163" gradientUnits="userSpaceOnUse">
<stop stop-color="#1BB1FF" offset="0"/>
<stop stop-color="#63F0EB" offset="1"/>
</linearGradient>
<linearGradient id="al" x1="72.778" x2="33.982" y1="67.862" y2="40.743" gradientUnits="userSpaceOnUse">
<stop stop-color="#2E86FE" offset="0"/>
<stop stop-color="#12AFFF" offset="1"/>
</linearGradient>
<linearGradient id="z" x1="71.042" x2="37.518" y1="73.997" y2="73.997" gradientUnits="userSpaceOnUse">
<stop stop-color="#2E86FE" offset="0"/>
<stop stop-color="#12AFFF" offset="1"/>
</linearGradient>
<linearGradient id="n" x1="71.042" x2="37.518" y1="82.956" y2="82.956" gradientUnits="userSpaceOnUse">
<stop stop-color="#2E86FE" offset="0"/>
<stop stop-color="#12AFFF" offset="1"/>
</linearGradient>
<linearGradient id="h" x1="79.659" x2="46.135" y1="91.912" y2="91.912" gradientUnits="userSpaceOnUse">
<stop stop-color="#2E86FE" offset="0"/>
<stop stop-color="#12AFFF" offset="1"/>
</linearGradient>
<linearGradient id="f" x1="93.653" x2="79.319" y1="112.55" y2="88.602" gradientUnits="userSpaceOnUse">
<stop stop-color="#3ADFD5" offset="0"/>
<stop stop-color="#63F0EB" offset="1"/>
</linearGradient>
<radialGradient id="c" cx="0" cy="0" r="1" gradientTransform="matrix(-57.874 -13.208 8.7032 -38.135 102.61 126.06)" gradientUnits="userSpaceOnUse">
<stop stop-color="#0C2780" offset="0"/>
<stop stop-color="#0C2780" stop-opacity="0" offset="1"/>
</radialGradient>
</defs>
</g>
</svg>