<svg xmlns="http://www.w3.org/2000/svg" xmlns:xlink="http://www.w3.org/1999/xlink" width="2500" zoomAndPan="magnify" viewBox="0 0 1874.88 599.999999" height="800" preserveAspectRatio="xMidYMid meet" version="1.0"><defs><g/><clipPath id="703ec3cd07"><path d="M 1305.5625 207.652344 L 1866.867188 207.652344 L 1866.867188 392.347656 L 1305.5625 392.347656 Z M 1305.5625 207.652344 " clip-rule="nonzero"/></clipPath><clipPath id="2df5d34dd3"><path d="M 1774.453125 207.652344 L 1397.910156 207.652344 L 1305.5625 300 L 1397.910156 392.347656 L 1774.453125 392.347656 L 1866.800781 300 Z M 1774.453125 207.652344 " clip-rule="nonzero"/></clipPath></defs><g fill="#ffffff" fill-opacity="1"><g transform="translate(4.901462, 374.642887)"><g><path d="M 97.578125 -175.078125 C 99.265625 -175.242188 101.164062 -175.367188 103.28125 -175.453125 C 105.40625 -175.535156 107.648438 -175.492188 110.015625 -175.328125 C 114.765625 -175.328125 119.59375 -175.113281 124.5 -174.6875 C 129.414062 -174.257812 134.160156 -173.625 138.734375 -172.78125 C 142.796875 -171.59375 145.59375 -168.882812 147.125 -164.65625 C 147.457031 -163.800781 147.789062 -163.117188 148.125 -162.609375 C 148.46875 -162.109375 148.8125 -161.601562 149.15625 -161.09375 C 150.84375 -158.894531 152.109375 -156.945312 152.953125 -155.25 C 153.804688 -153.550781 154.40625 -151.859375 154.75 -150.171875 C 155.082031 -148.640625 155.078125 -146.984375 154.734375 -145.203125 C 154.398438 -143.429688 153.8125 -141.53125 152.96875 -139.5 C 152.289062 -137.96875 151.523438 -136.90625 150.671875 -136.3125 C 149.828125 -135.726562 147.628906 -134.757812 144.078125 -133.40625 C 139.835938 -131.875 136.785156 -131.445312 134.921875 -132.125 C 134.585938 -132.289062 134.207031 -132.332031 133.78125 -132.25 C 133.351562 -132.164062 132.882812 -132.125 132.375 -132.125 C 131.195312 -131.957031 130.519531 -131.957031 130.34375 -132.125 C 130.175781 -132.125 129.375 -132.164062 127.9375 -132.25 C 126.5 -132.332031 124.335938 -132.460938 121.453125 -132.640625 C 116.710938 -132.804688 111.671875 -132.757812 106.328125 -132.5 C 100.992188 -132.25 95.28125 -131.867188 89.1875 -131.359375 C 86.8125 -131.023438 84.269531 -130.601562 81.5625 -130.09375 C 78.851562 -129.582031 76.054688 -129.078125 73.171875 -128.578125 C 66.910156 -127.390625 63.78125 -126.457031 63.78125 -125.78125 C 63.78125 -125.269531 63.523438 -122.472656 63.015625 -117.390625 C 62.847656 -115.523438 62.71875 -113.40625 62.625 -111.03125 C 62.539062 -108.664062 62.414062 -105.957031 62.25 -102.90625 C 61.914062 -96.976562 61.832031 -93.929688 62 -93.765625 L 62.25 -93.765625 C 62.757812 -93.765625 63.609375 -93.890625 64.796875 -94.140625 C 65.984375 -94.390625 67.59375 -94.6875 69.625 -95.03125 C 73.519531 -95.707031 77.328125 -96.34375 81.046875 -96.9375 C 84.773438 -97.53125 88.84375 -98.082031 93.25 -98.59375 C 95.28125 -98.925781 97.90625 -99.132812 101.125 -99.21875 C 104.34375 -99.300781 108.15625 -99.257812 112.5625 -99.09375 C 116.96875 -98.925781 120.738281 -98.753906 123.875 -98.578125 C 127.007812 -98.410156 129.59375 -98.160156 131.625 -97.828125 C 133.820312 -97.484375 135.554688 -96.84375 136.828125 -95.90625 C 138.097656 -94.976562 139.070312 -93.925781 139.75 -92.75 C 140.09375 -92.238281 140.390625 -91.726562 140.640625 -91.21875 C 140.890625 -90.707031 141.1875 -90.113281 141.53125 -89.4375 C 141.863281 -88.59375 142.539062 -87.320312 143.5625 -85.625 C 144.582031 -83.9375 145.597656 -81.734375 146.609375 -79.015625 C 147.796875 -76.816406 148.390625 -75.296875 148.390625 -74.453125 C 148.390625 -73.773438 148.257812 -72.800781 148 -71.53125 C 147.75 -70.257812 147.410156 -68.898438 146.984375 -67.453125 C 146.566406 -66.015625 146.101562 -64.703125 145.59375 -63.515625 C 145.082031 -62.335938 144.578125 -61.492188 144.078125 -60.984375 C 142.710938 -59.960938 141.140625 -59.328125 139.359375 -59.078125 C 137.585938 -58.828125 135.851562 -58.703125 134.15625 -58.703125 C 133.820312 -58.523438 133.484375 -58.394531 133.140625 -58.3125 C 132.804688 -58.226562 132.210938 -58.101562 131.359375 -57.9375 C 130.515625 -57.757812 129.753906 -57.585938 129.078125 -57.421875 C 128.398438 -57.253906 127.894531 -57.085938 127.5625 -56.921875 C 127.21875 -56.742188 126.75 -56.570312 126.15625 -56.40625 C 125.5625 -56.238281 125.007812 -56.070312 124.5 -55.90625 C 122.976562 -55.5625 122.132812 -55.304688 121.96875 -55.140625 C 121.789062 -54.972656 121.195312 -54.71875 120.1875 -54.375 C 119.84375 -54.539062 119.671875 -54.625 119.671875 -54.625 L 119.421875 -54.625 L 119.9375 -55.140625 C 119.757812 -55.304688 119.164062 -55.132812 118.15625 -54.625 C 117.3125 -54.289062 116.800781 -54.460938 116.625 -55.140625 C 116.457031 -56.828125 113.070312 -57.671875 106.46875 -57.671875 C 99.6875 -57.671875 94.265625 -56.828125 90.203125 -55.140625 L 87.65625 -54.375 C 87.65625 -54.539062 88.207031 -54.960938 89.3125 -55.640625 C 90.414062 -56.316406 91.222656 -56.910156 91.734375 -57.421875 C 91.898438 -57.585938 92.28125 -57.925781 92.875 -58.4375 C 93.46875 -58.945312 93.847656 -59.285156 94.015625 -59.453125 C 94.859375 -60.472656 95.023438 -60.898438 94.515625 -60.734375 C 94.347656 -60.734375 93.925781 -60.6875 93.25 -60.59375 C 92.570312 -60.507812 91.640625 -60.382812 90.453125 -60.21875 C 85.546875 -59.375 81.90625 -58.867188 79.53125 -58.703125 C 74.445312 -58.191406 70.503906 -57.550781 67.703125 -56.78125 C 64.910156 -56.019531 63.265625 -55.390625 62.765625 -54.890625 C 62.253906 -54.378906 61.914062 -48.023438 61.75 -35.828125 C 61.570312 -25.660156 61.398438 -18.117188 61.234375 -13.203125 C 61.066406 -8.296875 60.898438 -5.675781 60.734375 -5.34375 C 60.734375 -5.34375 60.5625 -3.222656 60.21875 1.015625 C 60.050781 3.898438 59.878906 6.269531 59.703125 8.125 C 59.535156 9.988281 59.070312 11.597656 58.3125 12.953125 C 57.550781 14.304688 56.40625 15.445312 54.875 16.375 C 53.351562 17.3125 51.238281 18.289062 48.53125 19.3125 C 44.976562 20.5 42.269531 21.09375 40.40625 21.09375 C 38.539062 21.09375 36.421875 20.5 34.046875 19.3125 C 31.171875 18.46875 29.734375 18.046875 29.734375 18.046875 C 29.390625 18.046875 27.609375 16.601562 24.390625 13.71875 C 20.328125 9.65625 17.875 5.757812 17.03125 2.03125 C 16.6875 0.507812 16.6875 -4.820312 17.03125 -13.96875 C 18.207031 -34.132812 19.050781 -52.429688 19.5625 -68.859375 C 20.070312 -85.285156 20.328125 -100.109375 20.328125 -113.328125 L 20.578125 -127.8125 L 18.546875 -130.09375 C 16.679688 -132.125 15.328125 -134.453125 14.484375 -137.078125 C 13.640625 -139.703125 12.625 -143.894531 11.4375 -149.65625 C 10.925781 -152.375 10.628906 -154.789062 10.546875 -156.90625 C 10.460938 -159.019531 10.757812 -160.753906 11.4375 -162.109375 C 12.445312 -164.992188 13.71875 -166.265625 15.25 -165.921875 C 15.925781 -165.753906 16.179688 -166.007812 16.015625 -166.6875 C 16.015625 -167.53125 16.097656 -167.953125 16.265625 -167.953125 C 16.773438 -167.953125 17.789062 -167.613281 19.3125 -166.9375 C 21.851562 -166.257812 26.003906 -166.003906 31.765625 -166.171875 C 34.640625 -166.515625 38.785156 -167.066406 44.203125 -167.828125 C 49.628906 -168.585938 56.320312 -169.644531 64.28125 -171 C 69.707031 -171.851562 75.210938 -172.617188 80.796875 -173.296875 C 86.390625 -173.972656 91.984375 -174.566406 97.578125 -175.078125 Z M 97.578125 -175.078125 "/></g></g></g><g fill="#ffffff" fill-opacity="1"><g transform="translate(158.872195, 374.642887)"><g><path d="M 97.0625 -106.21875 C 96.382812 -107.90625 95.878906 -108.75 95.546875 -108.75 C 94.179688 -108.75 91.640625 -102.820312 87.921875 -90.96875 C 82.492188 -74.03125 79.867188 -65.472656 80.046875 -65.296875 C 80.210938 -65.128906 83.085938 -65.382812 88.671875 -66.0625 C 90.878906 -66.40625 93.164062 -66.742188 95.53125 -67.078125 C 97.90625 -67.421875 100.445312 -67.757812 103.15625 -68.09375 C 105.195312 -68.4375 106.722656 -68.691406 107.734375 -68.859375 C 108.753906 -69.023438 109.347656 -69.109375 109.515625 -69.109375 C 110.023438 -69.285156 108.332031 -75.128906 104.4375 -86.640625 C 100.707031 -97.316406 98.25 -103.84375 97.0625 -106.21875 Z M 68.609375 -174.3125 C 70.972656 -174.820312 74.53125 -174.820312 79.28125 -174.3125 C 84.1875 -173.800781 88.332031 -173.332031 91.71875 -172.90625 C 95.113281 -172.488281 97.65625 -172.109375 99.34375 -171.765625 C 102.90625 -171.253906 108.328125 -169.726562 115.609375 -167.1875 C 122.390625 -165.5 126.960938 -163.300781 129.328125 -160.59375 C 130.859375 -159.226562 132.804688 -155.332031 135.171875 -148.90625 C 136.359375 -145.6875 137.96875 -141.023438 140 -134.921875 C 142.039062 -128.828125 144.582031 -121.117188 147.625 -111.796875 C 150 -104.679688 151.90625 -98.921875 153.34375 -94.515625 C 154.78125 -90.117188 155.925781 -86.816406 156.78125 -84.609375 C 157.625 -81.898438 158.425781 -79.53125 159.1875 -77.5 C 159.945312 -75.46875 160.582031 -73.601562 161.09375 -71.90625 C 161.9375 -69.875 162.65625 -68.050781 163.25 -66.4375 C 163.84375 -64.832031 164.3125 -63.4375 164.65625 -62.25 C 166.851562 -56.832031 168.925781 -51.367188 170.875 -45.859375 C 172.820312 -40.359375 174.644531 -34.554688 176.34375 -28.453125 C 178.207031 -22.191406 179.644531 -17.066406 180.65625 -13.078125 C 181.675781 -9.097656 182.441406 -5.25 182.953125 -1.53125 C 183.628906 2.875 184.09375 6.304688 184.34375 8.765625 C 184.59375 11.222656 184.804688 13.128906 184.984375 14.484375 C 185.148438 16.003906 185.234375 17.019531 185.234375 17.53125 C 184.890625 17.53125 184.082031 18.078125 182.8125 19.171875 C 181.550781 20.273438 180.492188 20.828125 179.640625 20.828125 C 178.960938 20.828125 178.203125 21.082031 177.359375 21.59375 C 176.679688 22.101562 171.175781 22.441406 160.84375 22.609375 L 145.09375 22.609375 L 142.796875 21.34375 C 141.441406 20.832031 139.832031 19.644531 137.96875 17.78125 C 136.957031 16.769531 136.238281 15.96875 135.8125 15.375 C 135.382812 14.78125 135.128906 14.351562 135.046875 14.09375 C 134.960938 13.84375 134.960938 13.632812 135.046875 13.46875 C 135.128906 13.300781 135.003906 13.128906 134.671875 12.953125 C 134.160156 12.453125 133.90625 12.03125 133.90625 11.6875 C 133.90625 11.351562 132.890625 10.253906 130.859375 8.390625 C 128.992188 6.523438 127.722656 5.082031 127.046875 4.0625 C 126.878906 3.726562 126.707031 3.304688 126.53125 2.796875 C 126.363281 2.285156 126.023438 1.609375 125.515625 0.765625 C 124.160156 -1.097656 124.332031 -1.773438 126.03125 -1.265625 C 126.707031 -1.265625 127.128906 -1.691406 127.296875 -2.546875 C 127.472656 -3.722656 127.8125 -3.972656 128.3125 -3.296875 C 128.65625 -2.960938 128.828125 -3.132812 128.828125 -3.8125 L 128.828125 -7.109375 C 128.484375 -10.503906 127.84375 -13.9375 126.90625 -17.40625 C 125.976562 -20.875 124.585938 -25.320312 122.734375 -30.75 L 121.453125 -34.296875 L 117.90625 -34.046875 C 114.6875 -33.710938 110.617188 -33.078125 105.703125 -32.140625 C 100.785156 -31.210938 94.941406 -29.898438 88.171875 -28.203125 C 86.816406 -27.867188 85.585938 -27.570312 84.484375 -27.3125 C 83.378906 -27.0625 82.40625 -26.765625 81.5625 -26.421875 C 80.882812 -26.253906 79.738281 -26 78.125 -25.65625 C 76.519531 -25.320312 74.363281 -24.734375 71.65625 -23.890625 C 66.570312 -22.535156 63.773438 -21.601562 63.265625 -21.09375 C 62.585938 -20.414062 61.570312 -18.296875 60.21875 -14.734375 C 58.351562 -9.992188 56.363281 -5.675781 54.25 -1.78125 C 52.132812 2.113281 49.71875 6.007812 47 9.90625 C 45.476562 11.9375 44.71875 13.207031 44.71875 13.71875 C 44.71875 13.882812 43.957031 14.734375 42.4375 16.265625 L 40.140625 18.796875 L 35.578125 18.546875 C 32.859375 18.378906 31.078125 18.039062 30.234375 17.53125 C 29.898438 17.363281 28.628906 17.785156 26.421875 18.796875 C 23.203125 20.328125 21.425781 20.582031 21.09375 19.5625 C 20.914062 19.226562 20.445312 18.804688 19.6875 18.296875 C 18.925781 17.785156 17.703125 17.363281 16.015625 17.03125 C 15.503906 16.851562 15.25 16.425781 15.25 15.75 C 15.25 15.070312 14.992188 14.734375 14.484375 14.734375 C 13.804688 14.734375 12.703125 13.800781 11.171875 11.9375 C 9.648438 10.070312 8.804688 8.632812 8.640625 7.625 C 8.640625 6.4375 8.300781 5.503906 7.625 4.828125 C 6.4375 3.472656 6.097656 -1.015625 6.609375 -8.640625 C 6.941406 -11.347656 7.109375 -12.703125 7.109375 -12.703125 C 7.453125 -13.722656 7.707031 -14.65625 7.875 -15.5 C 8.550781 -17.363281 9.398438 -19.054688 10.421875 -20.578125 C 11.609375 -22.441406 12.328125 -23.835938 12.578125 -24.765625 C 12.828125 -25.703125 13.378906 -26.765625 14.234375 -27.953125 C 15.078125 -28.960938 16.003906 -30.398438 17.015625 -32.265625 C 18.035156 -34.128906 19.222656 -36.585938 20.578125 -39.640625 C 21.429688 -42.015625 22.109375 -43.832031 22.609375 -45.09375 C 23.117188 -46.363281 23.457031 -47.253906 23.625 -47.765625 C 23.625 -48.441406 23.878906 -49.375 24.390625 -50.5625 C 26.253906 -54.800781 29.050781 -62.335938 32.78125 -73.171875 C 33.96875 -76.566406 34.941406 -79.40625 35.703125 -81.6875 C 36.460938 -83.976562 37.097656 -85.800781 37.609375 -87.15625 C 40.148438 -94.4375 42.691406 -101.929688 45.234375 -109.640625 C 47.773438 -117.347656 50.226562 -125.351562 52.59375 -133.65625 C 57.675781 -150.425781 59.796875 -160.421875 58.953125 -163.640625 C 58.785156 -164.484375 58.445312 -165.160156 57.9375 -165.671875 C 57.257812 -166.179688 57.597656 -166.941406 58.953125 -167.953125 C 59.960938 -168.628906 60.296875 -169.179688 59.953125 -169.609375 C 59.617188 -170.035156 60.128906 -170.671875 61.484375 -171.515625 C 64.023438 -173.035156 66.398438 -173.96875 68.609375 -174.3125 Z M 68.609375 -174.3125 "/></g></g></g><g fill="#ffffff" fill-opacity="1"><g transform="translate(342.316, 374.642887)"><g><path d="M 45.984375 -174.8125 C 49.035156 -174.8125 51.617188 -174.726562 53.734375 -174.5625 C 55.859375 -174.394531 57.34375 -174.140625 58.1875 -173.796875 C 59.539062 -173.460938 61.0625 -172.613281 62.75 -171.25 C 64.445312 -169.894531 65.550781 -168.710938 66.0625 -167.703125 C 66.90625 -166.347656 67.5 -164.0625 67.84375 -160.84375 C 68.007812 -159.488281 68.050781 -157.367188 67.96875 -154.484375 C 67.882812 -151.609375 67.671875 -147.96875 67.328125 -143.5625 C 66.992188 -140.175781 66.785156 -133.523438 66.703125 -123.609375 C 66.617188 -113.703125 66.488281 -100.363281 66.3125 -83.59375 C 66.144531 -66.144531 66.0625 -52.929688 66.0625 -43.953125 C 66.0625 -34.972656 65.976562 -30.0625 65.8125 -29.21875 C 65.644531 -27.351562 65.5625 -25.488281 65.5625 -23.625 C 65.5625 -21.757812 65.472656 -19.898438 65.296875 -18.046875 C 65.128906 -13.640625 64.914062 -9.828125 64.65625 -6.609375 C 64.40625 -3.390625 63.941406 -0.765625 63.265625 1.265625 C 63.097656 2.617188 62.378906 4.1875 61.109375 5.96875 C 59.835938 7.75 58.3125 9.484375 56.53125 11.171875 C 54.757812 12.867188 52.898438 14.394531 50.953125 15.75 C 49.003906 17.101562 47.265625 17.867188 45.734375 18.046875 C 44.378906 18.046875 43.40625 18.210938 42.8125 18.546875 C 42.21875 18.890625 40.90625 19.144531 38.875 19.3125 C 36.675781 19.644531 34.894531 19.429688 33.53125 18.671875 C 32.175781 17.910156 30.398438 16.34375 28.203125 13.96875 C 26.679688 12.113281 25.328125 10.632812 24.140625 9.53125 C 22.953125 8.425781 21.9375 7.617188 21.09375 7.109375 C 18.71875 5.585938 17.273438 3.554688 16.765625 1.015625 C 16.265625 -1.359375 16.015625 -8.390625 16.015625 -20.078125 C 16.015625 -26.335938 16.015625 -31.203125 16.015625 -34.671875 C 16.015625 -38.148438 16.097656 -40.144531 16.265625 -40.65625 C 16.429688 -40.988281 16.515625 -43.566406 16.515625 -48.390625 C 16.515625 -53.222656 16.597656 -60.382812 16.765625 -69.875 C 17.273438 -118.488281 16.003906 -148.132812 12.953125 -158.8125 C 12.785156 -159.65625 11.769531 -161.09375 9.90625 -163.125 C 8.382812 -164.988281 7.707031 -166.09375 7.875 -166.4375 C 8.039062 -166.601562 8.25 -166.8125 8.5 -167.0625 C 8.757812 -167.320312 9.226562 -167.617188 9.90625 -167.953125 C 11.257812 -168.460938 12.53125 -169.3125 13.71875 -170.5 C 14.90625 -171.6875 17.109375 -172.363281 20.328125 -172.53125 C 23.710938 -172.863281 25.742188 -173.203125 26.421875 -173.546875 C 27.273438 -173.878906 28.585938 -174.128906 30.359375 -174.296875 C 32.140625 -174.472656 34.003906 -174.601562 35.953125 -174.6875 C 37.898438 -174.769531 39.804688 -174.8125 41.671875 -174.8125 C 43.535156 -174.8125 44.972656 -174.8125 45.984375 -174.8125 Z M 45.984375 -174.8125 "/></g></g></g><g fill="#ffffff" fill-opacity="1"><g transform="translate(418.792867, 374.642887)"><g><path d="M 89.953125 -134.15625 C 85.378906 -134.15625 80.128906 -133.476562 74.203125 -132.125 C 70.804688 -131.613281 68.851562 -131.1875 68.34375 -130.84375 C 67.84375 -130.507812 67.675781 -129.414062 67.84375 -127.5625 C 68.007812 -126.375 68.050781 -124.890625 67.96875 -123.109375 C 67.882812 -121.328125 67.671875 -119.253906 67.328125 -116.890625 C 67.160156 -114.679688 67.035156 -112.007812 66.953125 -108.875 C 66.867188 -105.738281 66.65625 -102.054688 66.3125 -97.828125 C 65.8125 -89.523438 65.644531 -85.289062 65.8125 -85.125 C 66.320312 -84.613281 69.285156 -85.117188 74.703125 -86.640625 C 77.242188 -87.316406 80.035156 -88.164062 83.078125 -89.1875 C 86.128906 -90.207031 89.09375 -91.4375 91.96875 -92.875 C 94.851562 -94.3125 97.523438 -95.960938 99.984375 -97.828125 C 102.441406 -99.691406 104.429688 -101.722656 105.953125 -103.921875 C 108.160156 -107.304688 109.265625 -111.878906 109.265625 -117.640625 C 108.921875 -124.421875 107.304688 -128.867188 104.421875 -130.984375 C 101.546875 -133.097656 96.722656 -134.15625 89.953125 -134.15625 Z M 85.125 -172.78125 C 88.164062 -172.78125 91.675781 -172.609375 95.65625 -172.265625 C 99.644531 -171.929688 103.585938 -171.425781 107.484375 -170.75 C 111.378906 -170.070312 115.1875 -169.222656 118.90625 -168.203125 C 122.632812 -167.191406 125.769531 -166.007812 128.3125 -164.65625 C 137.125 -160.082031 144.492188 -154.488281 150.421875 -147.875 C 156.347656 -141.269531 160.078125 -134.5 161.609375 -127.5625 C 163.472656 -119.59375 163.132812 -111.457031 160.59375 -103.15625 C 160.082031 -100.957031 159.316406 -98.710938 158.296875 -96.421875 C 157.285156 -94.140625 156.1875 -91.9375 155 -89.8125 C 153.8125 -87.695312 152.539062 -85.75 151.1875 -83.96875 C 149.832031 -82.195312 148.5625 -80.800781 147.375 -79.78125 C 146.019531 -78.59375 144.875 -77.535156 143.9375 -76.609375 C 143.007812 -75.679688 142.207031 -74.878906 141.53125 -74.203125 C 138.3125 -71.148438 136.445312 -69.625 135.9375 -69.625 C 135.769531 -70.132812 135.515625 -70.390625 135.171875 -70.390625 C 134.835938 -70.390625 134.671875 -70.21875 134.671875 -69.875 C 134.671875 -69.539062 133.90625 -68.863281 132.375 -67.84375 C 130.175781 -67 128.484375 -65.984375 127.296875 -64.796875 C 125.265625 -63.265625 123.742188 -62.332031 122.734375 -62 L 121.203125 -61.234375 C 121.035156 -61.234375 120.863281 -61.148438 120.6875 -60.984375 C 120.6875 -60.304688 125.601562 -55.054688 135.4375 -45.234375 C 141.695312 -38.796875 146.988281 -33.242188 151.3125 -28.578125 C 155.632812 -23.921875 158.8125 -19.984375 160.84375 -16.765625 C 161.351562 -15.921875 162.15625 -14.648438 163.25 -12.953125 C 164.351562 -11.265625 165.410156 -9.445312 166.421875 -7.5 C 167.441406 -5.550781 168.375 -3.726562 169.21875 -2.03125 C 170.070312 -0.332031 170.582031 1.019531 170.75 2.03125 C 171.257812 4.238281 171.640625 6.0625 171.890625 7.5 C 172.148438 8.9375 172.191406 10.25 172.015625 11.4375 C 171.847656 12.625 171.46875 13.722656 170.875 14.734375 C 170.28125 15.753906 169.304688 16.859375 167.953125 18.046875 C 165.242188 20.753906 161.941406 22.785156 158.046875 24.140625 C 154.148438 25.492188 150.253906 26.171875 146.359375 26.171875 C 141.785156 26.171875 137.890625 24.984375 134.671875 22.609375 C 133.828125 21.929688 133.109375 21.421875 132.515625 21.078125 C 131.921875 20.742188 131.285156 20.410156 130.609375 20.078125 C 129.253906 19.566406 127.8125 18.550781 126.28125 17.03125 C 124.757812 16.007812 123.066406 14.734375 121.203125 13.203125 C 119.335938 11.679688 117.515625 10.03125 115.734375 8.25 C 113.960938 6.476562 112.3125 4.617188 110.78125 2.671875 C 109.257812 0.722656 108.078125 -1.097656 107.234375 -2.796875 C 103.503906 -9.398438 99.304688 -16.046875 94.640625 -22.734375 C 89.984375 -29.429688 85.203125 -35.742188 80.296875 -41.671875 C 78.085938 -44.378906 76.429688 -46.367188 75.328125 -47.640625 C 74.234375 -48.910156 73.601562 -49.628906 73.4375 -49.796875 C 73.09375 -49.972656 72.078125 -49.804688 70.390625 -49.296875 C 68.859375 -48.785156 67.414062 -48.53125 66.0625 -48.53125 C 64.875 -48.53125 64.195312 -48.191406 64.03125 -47.515625 C 63.519531 -45.140625 63.007812 -37.941406 62.5 -25.921875 C 62 -17.109375 61.578125 -9.988281 61.234375 -4.5625 C 60.898438 0.851562 60.644531 4.492188 60.46875 6.359375 C 60.132812 10.253906 59.539062 12.75 58.6875 13.84375 C 57.84375 14.945312 57.164062 15.753906 56.65625 16.265625 C 54.113281 18.296875 50.390625 19.648438 45.484375 20.328125 C 44.128906 20.660156 42.859375 20.910156 41.671875 21.078125 C 40.484375 21.253906 39.46875 21.515625 38.625 21.859375 C 37.269531 22.535156 36.164062 22.875 35.3125 22.875 C 34.976562 23.207031 33.117188 22.523438 29.734375 20.828125 C 27.191406 19.648438 24.988281 18.425781 23.125 17.15625 C 21.257812 15.882812 19.648438 13.976562 18.296875 11.4375 C 17.617188 10.25 17.066406 9.144531 16.640625 8.125 C 16.222656 7.113281 15.925781 6.097656 15.75 5.078125 C 15.582031 4.066406 15.5 2.878906 15.5 1.515625 C 15.5 0.160156 15.582031 -1.441406 15.75 -3.296875 C 15.925781 -5.503906 16.054688 -8.679688 16.140625 -12.828125 C 16.222656 -16.984375 16.429688 -22.109375 16.765625 -28.203125 C 17.617188 -49.210938 18.253906 -65.769531 18.671875 -77.875 C 19.097656 -89.988281 19.394531 -97.992188 19.5625 -101.890625 C 19.726562 -106.972656 19.851562 -110.992188 19.9375 -113.953125 C 20.03125 -116.921875 19.988281 -118.828125 19.8125 -119.671875 C 19.476562 -120.691406 18.550781 -121.878906 17.03125 -123.234375 C 14.488281 -125.609375 12.707031 -128.488281 11.6875 -131.875 C 9.988281 -138.144531 10.242188 -143.648438 12.453125 -148.390625 C 13.128906 -149.742188 13.46875 -152.367188 13.46875 -156.265625 L 13.46875 -161.859375 L 15.5 -162.875 C 16.175781 -163.550781 17.570312 -164.097656 19.6875 -164.515625 C 21.8125 -164.941406 23.296875 -165.15625 24.140625 -165.15625 L 24.390625 -165.15625 C 24.554688 -164.988281 25.148438 -164.988281 26.171875 -165.15625 C 27.359375 -165.664062 33.625 -166.9375 44.96875 -168.96875 C 58.1875 -171.507812 71.570312 -172.78125 85.125 -172.78125 Z M 85.125 -172.78125 "/></g></g></g><g fill="#ffffff" fill-opacity="1"><g transform="translate(591.057233, 374.642887)"><g><path d="M 249.015625 -176.34375 C 249.859375 -176.507812 250.660156 -176.550781 251.421875 -176.46875 C 252.179688 -176.382812 253.15625 -176.34375 254.34375 -176.34375 C 257.726562 -176.175781 260.269531 -175.410156 261.96875 -174.046875 C 263.664062 -172.691406 264.597656 -170.660156 264.765625 -167.953125 C 264.929688 -165.242188 264.847656 -161.941406 264.515625 -158.046875 C 263.660156 -151.953125 262.425781 -145.597656 260.8125 -138.984375 C 259.207031 -132.378906 257.726562 -126.113281 256.375 -120.1875 C 256.207031 -119 255.953125 -117.6875 255.609375 -116.25 C 255.273438 -114.8125 254.976562 -113.457031 254.71875 -112.1875 C 254.46875 -110.914062 254.210938 -109.8125 253.953125 -108.875 C 253.703125 -107.945312 253.578125 -107.398438 253.578125 -107.234375 C 252.898438 -102.316406 251.125 -95.367188 248.25 -86.390625 C 247.570312 -84.191406 246.976562 -82.203125 246.46875 -80.421875 C 245.957031 -78.640625 245.535156 -76.988281 245.203125 -75.46875 C 245.035156 -74.957031 244.820312 -74.191406 244.5625 -73.171875 C 244.3125 -72.160156 243.929688 -70.804688 243.421875 -69.109375 C 242.234375 -65.554688 241.554688 -63.015625 241.390625 -61.484375 C 241.046875 -60.128906 240.492188 -58.179688 239.734375 -55.640625 C 238.972656 -53.097656 238.082031 -49.878906 237.0625 -45.984375 C 236.21875 -43.273438 235.539062 -41.03125 235.03125 -39.25 C 234.53125 -37.476562 234.109375 -36.082031 233.765625 -35.0625 C 232.066406 -29.976562 230.203125 -24.132812 228.171875 -17.53125 C 225.296875 -7.363281 222.332031 0.507812 219.28125 6.09375 C 218.09375 8.46875 216.863281 10.671875 215.59375 12.703125 C 214.320312 14.734375 213.347656 15.75 212.671875 15.75 C 212.503906 15.75 212.421875 15.921875 212.421875 16.265625 C 212.421875 16.597656 211.910156 16.929688 210.890625 17.265625 C 209.878906 17.609375 209.289062 18.035156 209.125 18.546875 C 208.78125 19.734375 200.304688 20.15625 183.703125 19.8125 L 170.25 19.8125 L 167.703125 18.296875 C 164.992188 16.773438 162.617188 13.9375 160.578125 9.78125 C 158.546875 5.632812 156.175781 -1.179688 153.46875 -10.671875 C 152.625 -13.378906 151.90625 -15.707031 151.3125 -17.65625 C 150.71875 -19.601562 150.253906 -21.171875 149.921875 -22.359375 C 147.546875 -29.304688 144.492188 -39.640625 140.765625 -53.359375 C 140.597656 -53.703125 140.257812 -54.800781 139.75 -56.65625 C 139.238281 -58.519531 138.476562 -61.148438 137.46875 -64.546875 C 136.957031 -66.910156 136.273438 -69.488281 135.421875 -72.28125 C 134.578125 -75.082031 134.070312 -76.738281 133.90625 -77.25 C 133.394531 -79.28125 132.972656 -80.296875 132.640625 -80.296875 C 132.296875 -80.296875 131.53125 -78.347656 130.34375 -74.453125 C 129.84375 -72.753906 129.296875 -70.972656 128.703125 -69.109375 C 128.109375 -67.242188 127.472656 -65.210938 126.796875 -63.015625 C 125.609375 -59.285156 124.460938 -55.515625 123.359375 -51.703125 C 122.253906 -47.890625 121.113281 -43.953125 119.9375 -39.890625 C 119.082031 -37.015625 118.101562 -33.878906 117 -30.484375 C 115.90625 -27.097656 114.679688 -23.457031 113.328125 -19.5625 C 112.984375 -18.71875 112.429688 -17.109375 111.671875 -14.734375 C 110.910156 -12.367188 109.9375 -9.320312 108.75 -5.59375 C 107.394531 -1.519531 106.289062 1.570312 105.4375 3.6875 C 104.59375 5.800781 104.003906 7.195312 103.671875 7.875 C 101.128906 11.257812 99.265625 13.125 98.078125 13.46875 C 97.398438 13.632812 97.0625 13.890625 97.0625 14.234375 C 97.0625 14.566406 96.425781 14.898438 95.15625 15.234375 C 93.882812 15.578125 93.164062 16.003906 93 16.515625 C 92.832031 16.859375 91.859375 17.238281 90.078125 17.65625 C 88.296875 18.082031 87.148438 18.125 86.640625 17.78125 C 85.796875 17.613281 84.273438 18.039062 82.078125 19.0625 L 81.5625 19.5625 C 80.207031 19.90625 79.273438 19.648438 78.765625 18.796875 C 78.597656 18.296875 78.09375 18.210938 77.25 18.546875 C 76.570312 18.890625 74.195312 19.226562 70.125 19.5625 L 64.03125 19.8125 L 60.734375 18.046875 C 57.171875 16.347656 54.96875 14.398438 54.125 12.203125 C 53.957031 11.691406 53.703125 11.4375 53.359375 11.4375 C 53.191406 11.4375 52.722656 11.140625 51.953125 10.546875 C 51.191406 9.953125 50.984375 9.484375 51.328125 9.140625 L 51.328125 8.890625 C 51.160156 8.890625 50.90625 8.804688 50.5625 8.640625 C 49.882812 8.472656 49.546875 8.132812 49.546875 7.625 C 49.546875 7.113281 49.289062 6.941406 48.78125 7.109375 C 48.445312 7.285156 47.984375 6.988281 47.390625 6.21875 C 46.796875 5.457031 46.582031 4.820312 46.75 4.3125 C 46.914062 4.144531 46.832031 4.0625 46.5 4.0625 C 45.988281 4.0625 45.351562 2.664062 44.59375 -0.125 C 43.832031 -2.914062 43.453125 -5.332031 43.453125 -7.375 C 43.453125 -11.769531 40.398438 -24.976562 34.296875 -47 C 33.796875 -48.863281 32.910156 -52.253906 31.640625 -57.171875 C 30.367188 -62.085938 28.800781 -68.523438 26.9375 -76.484375 C 25.070312 -84.441406 23.585938 -90.625 22.484375 -95.03125 C 21.378906 -99.4375 20.660156 -102.316406 20.328125 -103.671875 C 19.816406 -106.046875 19.007812 -109.644531 17.90625 -114.46875 C 16.8125 -119.289062 15.585938 -124.285156 14.234375 -129.453125 C 12.878906 -134.617188 11.519531 -139.488281 10.15625 -144.0625 C 8.800781 -148.644531 7.617188 -151.867188 6.609375 -153.734375 C 5.765625 -155.085938 5.34375 -158.050781 5.34375 -162.625 C 5.164062 -167.53125 5.414062 -170.492188 6.09375 -171.515625 C 6.945312 -172.703125 8.597656 -173.632812 11.046875 -174.3125 C 13.503906 -174.988281 16.128906 -175.453125 18.921875 -175.703125 C 21.722656 -175.960938 24.476562 -176.132812 27.1875 -176.21875 C 29.894531 -176.300781 31.925781 -176.34375 33.28125 -176.34375 C 35.65625 -176.175781 38.363281 -175.75 41.40625 -175.0625 C 44.457031 -174.382812 47.46875 -173.367188 50.4375 -172.015625 C 53.40625 -170.660156 56.03125 -169.007812 58.3125 -167.0625 C 60.601562 -165.113281 62 -162.867188 62.5 -160.328125 C 63.519531 -155.421875 64.285156 -150.382812 64.796875 -145.21875 C 65.304688 -140.050781 65.8125 -135.007812 66.3125 -130.09375 C 66.820312 -127.039062 67.414062 -123.054688 68.09375 -118.140625 C 68.769531 -113.234375 69.535156 -107.304688 70.390625 -100.359375 C 71.566406 -90.710938 72.617188 -82.625 73.546875 -76.09375 C 74.484375 -69.570312 75.289062 -64.535156 75.96875 -60.984375 C 77.5 -53.191406 78.6875 -49.296875 79.53125 -49.296875 C 80.207031 -49.804688 81.222656 -52.175781 82.578125 -56.40625 C 83.929688 -60.644531 85.5 -65.9375 87.28125 -72.28125 C 89.0625 -78.632812 90.882812 -85.582031 92.75 -93.125 C 94.613281 -100.664062 96.304688 -107.90625 97.828125 -114.84375 C 99.347656 -121.789062 100.613281 -127.972656 101.625 -133.390625 C 102.644531 -138.816406 103.15625 -142.628906 103.15625 -144.828125 C 103.15625 -146.359375 102.734375 -147.503906 101.890625 -148.265625 C 101.046875 -149.023438 100.367188 -149.40625 99.859375 -149.40625 C 98.160156 -149.40625 98.328125 -150.503906 100.359375 -152.703125 C 101.722656 -154.066406 103.546875 -155.253906 105.828125 -156.265625 C 108.117188 -157.285156 110.578125 -158.132812 113.203125 -158.8125 C 115.828125 -159.488281 118.453125 -159.953125 121.078125 -160.203125 C 123.703125 -160.460938 126.03125 -160.59375 128.0625 -160.59375 C 129.414062 -160.59375 132 -160.421875 135.8125 -160.078125 C 139.625 -159.742188 143.5625 -159.191406 147.625 -158.421875 C 151.695312 -157.660156 155.296875 -156.644531 158.421875 -155.375 C 161.554688 -154.101562 163.125 -152.535156 163.125 -150.671875 C 163.125 -148.984375 163.71875 -146.019531 164.90625 -141.78125 C 166.425781 -135.34375 167.90625 -129.203125 169.34375 -123.359375 C 170.789062 -117.515625 172.109375 -111.882812 173.296875 -106.46875 C 174.648438 -100.875 175.789062 -95.617188 176.71875 -90.703125 C 177.65625 -85.796875 178.546875 -81.140625 179.390625 -76.734375 C 182.941406 -58.097656 185.3125 -48.1875 186.5 -47 C 186.84375 -46.664062 187.519531 -48.703125 188.53125 -53.109375 C 189.382812 -57.003906 190.65625 -62.675781 192.34375 -70.125 C 194.039062 -77.582031 196.078125 -86.984375 198.453125 -98.328125 C 201.835938 -114.421875 204.164062 -126.742188 205.4375 -135.296875 C 206.707031 -143.859375 207.003906 -149.320312 206.328125 -151.6875 C 206.148438 -152.539062 205.472656 -153.5625 204.296875 -154.75 C 203.273438 -155.757812 202.765625 -157.023438 202.765625 -158.546875 C 202.765625 -160.078125 202.679688 -161.179688 202.515625 -161.859375 C 202.515625 -163.210938 203.695312 -164.988281 206.0625 -167.1875 C 208.101562 -169.226562 210.394531 -170.671875 212.9375 -171.515625 C 214.457031 -172.023438 218.4375 -172.785156 224.875 -173.796875 C 227.75 -174.140625 230.035156 -174.476562 231.734375 -174.8125 C 233.429688 -175.15625 234.53125 -175.410156 235.03125 -175.578125 C 235.207031 -175.578125 237.582031 -175.75 242.15625 -176.09375 C 246.550781 -176.09375 248.835938 -176.175781 249.015625 -176.34375 Z M 249.015625 -176.34375 "/></g></g></g><g fill="#ffffff" fill-opacity="1"><g transform="translate(855.043876, 374.642887)"><g><path d="M 45.984375 -174.8125 C 49.035156 -174.8125 51.617188 -174.726562 53.734375 -174.5625 C 55.859375 -174.394531 57.34375 -174.140625 58.1875 -173.796875 C 59.539062 -173.460938 61.0625 -172.613281 62.75 -171.25 C 64.445312 -169.894531 65.550781 -168.710938 66.0625 -167.703125 C 66.90625 -166.347656 67.5 -164.0625 67.84375 -160.84375 C 68.007812 -159.488281 68.050781 -157.367188 67.96875 -154.484375 C 67.882812 -151.609375 67.671875 -147.96875 67.328125 -143.5625 C 66.992188 -140.175781 66.785156 -133.523438 66.703125 -123.609375 C 66.617188 -113.703125 66.488281 -100.363281 66.3125 -83.59375 C 66.144531 -66.144531 66.0625 -52.929688 66.0625 -43.953125 C 66.0625 -34.972656 65.976562 -30.0625 65.8125 -29.21875 C 65.644531 -27.351562 65.5625 -25.488281 65.5625 -23.625 C 65.5625 -21.757812 65.472656 -19.898438 65.296875 -18.046875 C 65.128906 -13.640625 64.914062 -9.828125 64.65625 -6.609375 C 64.40625 -3.390625 63.941406 -0.765625 63.265625 1.265625 C 63.097656 2.617188 62.378906 4.1875 61.109375 5.96875 C 59.835938 7.75 58.3125 9.484375 56.53125 11.171875 C 54.757812 12.867188 52.898438 14.394531 50.953125 15.75 C 49.003906 17.101562 47.265625 17.867188 45.734375 18.046875 C 44.378906 18.046875 43.40625 18.210938 42.8125 18.546875 C 42.21875 18.890625 40.90625 19.144531 38.875 19.3125 C 36.675781 19.644531 34.894531 19.429688 33.53125 18.671875 C 32.175781 17.910156 30.398438 16.34375 28.203125 13.96875 C 26.679688 12.113281 25.328125 10.632812 24.140625 9.53125 C 22.953125 8.425781 21.9375 7.617188 21.09375 7.109375 C 18.71875 5.585938 17.273438 3.554688 16.765625 1.015625 C 16.265625 -1.359375 16.015625 -8.390625 16.015625 -20.078125 C 16.015625 -26.335938 16.015625 -31.203125 16.015625 -34.671875 C 16.015625 -38.148438 16.097656 -40.144531 16.265625 -40.65625 C 16.429688 -40.988281 16.515625 -43.566406 16.515625 -48.390625 C 16.515625 -53.222656 16.597656 -60.382812 16.765625 -69.875 C 17.273438 -118.488281 16.003906 -148.132812 12.953125 -158.8125 C 12.785156 -159.65625 11.769531 -161.09375 9.90625 -163.125 C 8.382812 -164.988281 7.707031 -166.09375 7.875 -166.4375 C 8.039062 -166.601562 8.25 -166.8125 8.5 -167.0625 C 8.757812 -167.320312 9.226562 -167.617188 9.90625 -167.953125 C 11.257812 -168.460938 12.53125 -169.3125 13.71875 -170.5 C 14.90625 -171.6875 17.109375 -172.363281 20.328125 -172.53125 C 23.710938 -172.863281 25.742188 -173.203125 26.421875 -173.546875 C 27.273438 -173.878906 28.585938 -174.128906 30.359375 -174.296875 C 32.140625 -174.472656 34.003906 -174.601562 35.953125 -174.6875 C 37.898438 -174.769531 39.804688 -174.8125 41.671875 -174.8125 C 43.535156 -174.8125 44.972656 -174.8125 45.984375 -174.8125 Z M 45.984375 -174.8125 "/></g></g></g><g fill="#ffffff" fill-opacity="1"><g transform="translate(931.520694, 374.642887)"><g><path d="M 158.046875 -176.59375 C 159.398438 -176.9375 162.023438 -176.9375 165.921875 -176.59375 L 172.015625 -176.59375 L 173.546875 -174.8125 C 175.066406 -173.125 176.082031 -169.398438 176.59375 -163.640625 C 176.9375 -161.941406 177.109375 -157.195312 177.109375 -149.40625 C 177.109375 -141.613281 177.019531 -130.601562 176.84375 -116.375 C 176.675781 -95.03125 176.171875 -73.515625 175.328125 -51.828125 C 175.160156 -47.929688 175.078125 -44.671875 175.078125 -42.046875 C 175.078125 -39.421875 174.988281 -37.347656 174.8125 -35.828125 C 174.644531 -34.640625 174.519531 -32.898438 174.4375 -30.609375 C 174.351562 -28.328125 174.222656 -24.726562 174.046875 -19.8125 C 173.710938 -10.164062 173.207031 -3.476562 172.53125 0.25 C 171.851562 2.957031 171.34375 4.648438 171 5.328125 C 170.664062 6.015625 170.070312 6.78125 169.21875 7.625 C 167.863281 8.8125 166.59375 9.867188 165.40625 10.796875 C 164.226562 11.734375 163.046875 12.539062 161.859375 13.21875 C 159.992188 14.0625 158.640625 14.738281 157.796875 15.25 C 153.722656 17.28125 149.148438 18.296875 144.078125 18.296875 C 141.703125 18.296875 139.410156 17.875 137.203125 17.03125 C 134.671875 15.84375 132.8125 14.738281 131.625 13.71875 C 130.4375 12.707031 128.316406 11.4375 125.265625 9.90625 C 120.523438 7.539062 116.414062 4.28125 112.9375 0.125 C 109.46875 -4.019531 106.71875 -8.46875 104.6875 -13.21875 C 103.164062 -16.601562 102.40625 -18.378906 102.40625 -18.546875 C 102.40625 -18.546875 101.046875 -22.1875 98.328125 -29.46875 C 97.648438 -31.164062 96.757812 -33.15625 95.65625 -35.4375 C 94.5625 -37.726562 93.164062 -41.242188 91.46875 -45.984375 C 90.28125 -49.546875 89.007812 -53.234375 87.65625 -57.046875 C 86.300781 -60.859375 85.539062 -63.015625 85.375 -63.515625 C 84.863281 -64.878906 83.085938 -69.707031 80.046875 -78 C 77.160156 -86.132812 74.703125 -93.039062 72.671875 -98.71875 C 70.640625 -104.394531 69.03125 -108.84375 67.84375 -112.0625 L 65.8125 -117.390625 L 65.046875 -113.578125 C 64.710938 -111.710938 64.332031 -106.628906 63.90625 -98.328125 C 63.476562 -90.035156 63.007812 -78.429688 62.5 -63.515625 C 62.5 -61.828125 62.457031 -59.414062 62.375 -56.28125 C 62.289062 -53.144531 62.25 -49.710938 62.25 -45.984375 C 62.25 -42.265625 62.207031 -38.367188 62.125 -34.296875 C 62.039062 -30.234375 62 -26.425781 62 -22.875 C 62 -7.625 61.40625 1.523438 60.21875 4.578125 C 59.707031 5.929688 58.519531 7.582031 56.65625 9.53125 C 54.800781 11.476562 53.023438 12.957031 51.328125 13.96875 C 49.460938 15.15625 48.273438 16.085938 47.765625 16.765625 C 47.085938 17.441406 46.242188 17.78125 45.234375 17.78125 C 43.878906 17.78125 42.773438 18.117188 41.921875 18.796875 C 39.554688 20.328125 38.375 20.835938 38.375 20.328125 C 38.375 19.304688 36.929688 19.472656 34.046875 20.828125 C 32.179688 21.679688 30.65625 21.9375 29.46875 21.59375 C 28.113281 21.257812 26.628906 20.5 25.015625 19.3125 C 23.410156 18.125 21.890625 16.8125 20.453125 15.375 C 19.015625 13.9375 17.703125 12.410156 16.515625 10.796875 C 15.328125 9.191406 14.566406 7.710938 14.234375 6.359375 C 13.046875 1.441406 12.789062 -2.367188 13.46875 -5.078125 C 13.632812 -5.929688 13.800781 -8.6875 13.96875 -13.34375 C 14.144531 -18 14.570312 -24.644531 15.25 -33.28125 C 15.414062 -36.675781 15.582031 -40.867188 15.75 -45.859375 C 15.925781 -50.859375 16.097656 -56.40625 16.265625 -62.5 C 16.429688 -68.601562 16.554688 -75.082031 16.640625 -81.9375 C 16.722656 -88.800781 16.765625 -95.625 16.765625 -102.40625 C 16.765625 -116.125 16.679688 -127.300781 16.515625 -135.9375 C 16.347656 -144.582031 16.09375 -150.597656 15.75 -153.984375 C 15.238281 -160.753906 14.222656 -166.003906 12.703125 -169.734375 C 12.367188 -170.242188 12.75 -170.707031 13.84375 -171.125 C 14.945312 -171.550781 17.191406 -172.019531 20.578125 -172.53125 C 23.796875 -173.207031 27.691406 -173.546875 32.265625 -173.546875 C 38.703125 -173.546875 45.140625 -172.953125 51.578125 -171.765625 C 58.015625 -170.578125 64.285156 -169.050781 70.390625 -167.1875 L 77.75 -164.90625 L 80.546875 -161.859375 C 83.929688 -158.128906 86.851562 -154.78125 89.3125 -151.8125 C 91.769531 -148.851562 94.015625 -145.804688 96.046875 -142.671875 C 98.078125 -139.535156 99.984375 -136.234375 101.765625 -132.765625 C 103.546875 -129.296875 105.453125 -125.1875 107.484375 -120.4375 C 109.847656 -115.1875 112.257812 -108.367188 114.71875 -99.984375 C 117.175781 -91.597656 119.847656 -82.832031 122.734375 -73.6875 C 123.910156 -69.625 124.921875 -66.40625 125.765625 -64.03125 C 126.617188 -61.65625 127.21875 -60.128906 127.5625 -59.453125 C 127.726562 -59.285156 127.894531 -60.132812 128.0625 -62 C 128.40625 -64.875 128.660156 -72.070312 128.828125 -83.59375 C 128.992188 -95.113281 129.160156 -109.851562 129.328125 -127.8125 C 129.503906 -139.5 129.59375 -148.601562 129.59375 -155.125 C 129.59375 -161.644531 129.59375 -165.753906 129.59375 -167.453125 C 129.59375 -168.296875 129.972656 -169.015625 130.734375 -169.609375 C 131.492188 -170.203125 132.378906 -170.707031 133.390625 -171.125 C 134.410156 -171.550781 135.472656 -171.890625 136.578125 -172.140625 C 137.679688 -172.398438 138.570312 -172.53125 139.25 -172.53125 C 141.101562 -172.863281 142.375 -173.367188 143.0625 -174.046875 C 143.738281 -174.734375 146.109375 -175.242188 150.171875 -175.578125 C 152.367188 -175.921875 154.101562 -176.132812 155.375 -176.21875 C 156.644531 -176.300781 157.535156 -176.425781 158.046875 -176.59375 Z M 158.046875 -176.59375 "/></g></g></g><g fill="#ffffff" fill-opacity="1"><g transform="translate(1117.759343, 374.642887)"><g><path d="M 111.296875 -133.140625 C 110.441406 -133.316406 109.675781 -133.445312 109 -133.53125 C 108.320312 -133.613281 107.816406 -133.65625 107.484375 -133.65625 C 105.953125 -133.65625 103.832031 -133.441406 101.125 -133.015625 C 98.414062 -132.585938 95.617188 -132.035156 92.734375 -131.359375 C 89.859375 -130.679688 87.191406 -129.878906 84.734375 -128.953125 C 82.285156 -128.023438 80.550781 -127.050781 79.53125 -126.03125 C 79.1875 -125.863281 78.800781 -125.609375 78.375 -125.265625 C 77.957031 -124.929688 77.328125 -124.59375 76.484375 -124.25 C 72.921875 -122.382812 70.460938 -120.179688 69.109375 -117.640625 C 67.753906 -115.097656 66.65625 -110.019531 65.8125 -102.40625 C 65.46875 -100.539062 65.253906 -98.800781 65.171875 -97.1875 C 65.085938 -95.582031 64.960938 -93.847656 64.796875 -91.984375 C 64.628906 -90.117188 64.546875 -88.59375 64.546875 -87.40625 C 64.546875 -86.21875 64.457031 -85.375 64.28125 -84.875 C 63.945312 -82.5 63.691406 -77.835938 63.515625 -70.890625 C 63.179688 -65.640625 62.972656 -61.316406 62.890625 -57.921875 C 62.804688 -54.535156 62.675781 -52.082031 62.5 -50.5625 C 62.5 -48.1875 62.457031 -45.5625 62.375 -42.6875 C 62.289062 -39.8125 62.25 -36.847656 62.25 -33.796875 C 62.082031 -27.523438 62.082031 -24.050781 62.25 -23.375 C 62.757812 -22.019531 64.453125 -20.875 67.328125 -19.9375 C 70.210938 -19.007812 73.6875 -18.546875 77.75 -18.546875 C 83.507812 -18.546875 88.890625 -19.519531 93.890625 -21.46875 C 98.890625 -23.414062 103.503906 -26.082031 107.734375 -29.46875 C 111.972656 -32.863281 115.703125 -36.804688 118.921875 -41.296875 C 122.140625 -45.785156 124.765625 -50.566406 126.796875 -55.640625 C 130.179688 -64.109375 131.875 -74.613281 131.875 -87.15625 C 131.875 -91.21875 131.703125 -95.617188 131.359375 -100.359375 C 131.023438 -105.109375 130.132812 -109.726562 128.6875 -114.21875 C 127.25 -118.707031 125.175781 -122.6875 122.46875 -126.15625 C 119.757812 -129.625 116.035156 -131.953125 111.296875 -133.140625 Z M 106.46875 -174.8125 C 111.207031 -174.8125 115.3125 -174.679688 118.78125 -174.421875 C 122.257812 -174.171875 125.609375 -173.625 128.828125 -172.78125 C 132.046875 -171.9375 135.222656 -170.75 138.359375 -169.21875 C 141.492188 -167.695312 145.09375 -165.664062 149.15625 -163.125 C 167.445312 -151.945312 178.960938 -135.851562 183.703125 -114.84375 C 185.234375 -108.238281 185.914062 -96.382812 185.75 -79.28125 C 185.914062 -74.363281 185.828125 -70.082031 185.484375 -66.4375 C 185.148438 -62.800781 184.726562 -59.710938 184.21875 -57.171875 C 183.195312 -53.109375 181.671875 -48.742188 179.640625 -44.078125 C 177.609375 -39.421875 175.320312 -34.847656 172.78125 -30.359375 C 170.238281 -25.867188 167.523438 -21.59375 164.640625 -17.53125 C 161.765625 -13.46875 158.890625 -9.910156 156.015625 -6.859375 C 147.378906 2.285156 137.003906 9.359375 124.890625 14.359375 C 112.773438 19.359375 100.113281 21.859375 86.90625 21.859375 C 83.007812 21.859375 78.5625 21.5625 73.5625 20.96875 C 68.5625 20.375 64.453125 19.226562 61.234375 17.53125 L 57.421875 15.5 L 54.375 17.03125 C 52.675781 17.875 51.066406 18.503906 49.546875 18.921875 C 48.023438 19.347656 46.5 19.5625 44.96875 19.5625 C 42.9375 19.5625 40.738281 19.054688 38.375 18.046875 C 35.65625 16.859375 31.84375 12.875 26.9375 6.09375 C 26.769531 5.59375 26.429688 4.914062 25.921875 4.0625 C 25.410156 3.21875 24.816406 2.367188 24.140625 1.515625 C 23.460938 0.671875 22.828125 -0.171875 22.234375 -1.015625 C 21.640625 -1.859375 21.171875 -2.453125 20.828125 -2.796875 C 17.953125 -7.367188 16.257812 -10.753906 15.75 -12.953125 C 15.414062 -14.304688 15.203125 -16.171875 15.109375 -18.546875 C 15.023438 -20.921875 15.070312 -23.882812 15.25 -27.4375 C 15.414062 -30.320312 15.582031 -33.625 15.75 -37.34375 C 15.925781 -41.070312 16.097656 -45.222656 16.265625 -49.796875 C 16.265625 -54.035156 16.347656 -57.847656 16.515625 -61.234375 C 16.679688 -64.617188 16.851562 -67.753906 17.03125 -70.640625 C 17.03125 -71.484375 17.070312 -73.175781 17.15625 -75.71875 C 17.238281 -78.257812 17.363281 -81.222656 17.53125 -84.609375 C 17.695312 -87.992188 17.863281 -91.507812 18.03125 -95.15625 C 18.207031 -98.800781 18.335938 -102.234375 18.421875 -105.453125 C 18.503906 -108.671875 18.628906 -111.378906 18.796875 -113.578125 C 18.972656 -115.785156 19.144531 -117.054688 19.3125 -117.390625 C 19.476562 -118.578125 18.96875 -120.015625 17.78125 -121.703125 C 12.363281 -128.992188 11.179688 -139.671875 14.234375 -153.734375 C 14.910156 -156.441406 15.546875 -158.640625 16.140625 -160.328125 C 16.734375 -162.023438 17.453125 -163.210938 18.296875 -163.890625 C 18.804688 -164.234375 19.3125 -164.65625 19.8125 -165.15625 C 19.988281 -165.15625 20.160156 -165.242188 20.328125 -165.421875 C 20.835938 -165.921875 21.8125 -166.632812 23.25 -167.5625 C 24.6875 -168.5 25.832031 -169.140625 26.6875 -169.484375 C 27.53125 -169.648438 28.628906 -170.242188 29.984375 -171.265625 C 32.179688 -172.953125 34.128906 -173.203125 35.828125 -172.015625 C 36.335938 -171.847656 37.097656 -171.34375 38.109375 -170.5 C 38.285156 -170.332031 38.5 -170.117188 38.75 -169.859375 C 39 -169.609375 39.460938 -169.3125 40.140625 -168.96875 C 40.816406 -168.289062 41.835938 -167.953125 43.203125 -167.953125 C 44.378906 -167.953125 45.5625 -167.445312 46.75 -166.4375 C 47.601562 -165.582031 48.535156 -165.15625 49.546875 -165.15625 C 50.390625 -165.15625 52.847656 -165.664062 56.921875 -166.6875 C 65.046875 -169.0625 73.171875 -171.007812 81.296875 -172.53125 C 89.429688 -174.050781 97.820312 -174.8125 106.46875 -174.8125 Z M 106.46875 -174.8125 "/></g></g></g><g fill="#ffffff" fill-opacity="1"><g transform="translate(1307.566274, 374.642887)"><g/></g></g><g clip-path="url(#703ec3cd07)"><g clip-path="url(#2df5d34dd3)"><path fill="#ffffff" d="M 1305.5625 207.652344 L 1866.867188 207.652344 L 1866.867188 392.347656 L 1305.5625 392.347656 Z M 1305.5625 207.652344 " fill-opacity="1" fill-rule="nonzero"/></g></g><g fill="#1b0400" fill-opacity="1"><g transform="translate(1413.112502, 329.443177)"><g><path d="M 18.625 -70.78125 C 19.851562 -70.78125 20.894531 -70.742188 21.75 -70.671875 C 22.613281 -70.609375 23.21875 -70.503906 23.5625 -70.359375 C 24.101562 -70.222656 24.71875 -69.878906 25.40625 -69.328125 C 26.09375 -68.785156 26.539062 -68.304688 26.75 -67.890625 C 27.09375 -67.347656 27.332031 -66.425781 27.46875 -65.125 C 27.539062 -64.570312 27.554688 -63.710938 27.515625 -62.546875 C 27.484375 -61.378906 27.398438 -59.90625 27.265625 -58.125 C 27.128906 -56.75 27.039062 -54.054688 27 -50.046875 C 26.96875 -46.035156 26.914062 -40.632812 26.84375 -33.84375 C 26.78125 -26.78125 26.75 -21.429688 26.75 -17.796875 C 26.75 -14.160156 26.710938 -12.171875 26.640625 -11.828125 C 26.578125 -11.078125 26.546875 -10.320312 26.546875 -9.5625 C 26.546875 -8.8125 26.507812 -8.054688 26.4375 -7.296875 C 26.375 -5.515625 26.289062 -3.972656 26.1875 -2.671875 C 26.082031 -1.367188 25.890625 -0.304688 25.609375 0.515625 C 25.546875 1.066406 25.253906 1.703125 24.734375 2.421875 C 24.222656 3.140625 23.609375 3.84375 22.890625 4.53125 C 22.171875 5.21875 21.414062 5.832031 20.625 6.375 C 19.832031 6.925781 19.128906 7.234375 18.515625 7.296875 C 17.960938 7.296875 17.566406 7.363281 17.328125 7.5 C 17.085938 7.644531 16.554688 7.75 15.734375 7.8125 C 14.847656 7.957031 14.128906 7.875 13.578125 7.5625 C 13.023438 7.25 12.304688 6.613281 11.421875 5.65625 C 10.804688 4.90625 10.253906 4.304688 9.765625 3.859375 C 9.285156 3.410156 8.875 3.082031 8.53125 2.875 C 7.570312 2.257812 6.992188 1.4375 6.796875 0.40625 C 6.585938 -0.550781 6.484375 -3.394531 6.484375 -8.125 C 6.484375 -10.664062 6.484375 -12.640625 6.484375 -14.046875 C 6.484375 -15.453125 6.515625 -16.253906 6.578125 -16.453125 C 6.648438 -16.597656 6.6875 -17.644531 6.6875 -19.59375 C 6.6875 -21.550781 6.722656 -24.453125 6.796875 -28.296875 C 6.992188 -47.972656 6.476562 -59.972656 5.25 -64.296875 C 5.175781 -64.640625 4.765625 -65.222656 4.015625 -66.046875 C 3.398438 -66.796875 3.125 -67.242188 3.1875 -67.390625 C 3.257812 -67.453125 3.34375 -67.535156 3.4375 -67.640625 C 3.539062 -67.742188 3.734375 -67.863281 4.015625 -68 C 4.554688 -68.207031 5.070312 -68.550781 5.5625 -69.03125 C 6.039062 -69.507812 6.929688 -69.785156 8.234375 -69.859375 C 9.597656 -69.992188 10.421875 -70.128906 10.703125 -70.265625 C 11.046875 -70.398438 11.578125 -70.5 12.296875 -70.5625 C 13.015625 -70.632812 13.765625 -70.6875 14.546875 -70.71875 C 15.335938 -70.757812 16.109375 -70.78125 16.859375 -70.78125 C 17.617188 -70.78125 18.207031 -70.78125 18.625 -70.78125 Z M 18.625 -70.78125 "/></g></g></g><g fill="#1b0400" fill-opacity="1"><g transform="translate(1444.073412, 329.443177)"><g><path d="M 63.984375 -71.5 C 64.535156 -71.632812 65.597656 -71.632812 67.171875 -71.5 L 69.640625 -71.5 L 70.265625 -70.78125 C 70.878906 -70.09375 71.289062 -68.582031 71.5 -66.25 C 71.632812 -65.5625 71.703125 -63.640625 71.703125 -60.484375 C 71.703125 -57.335938 71.664062 -52.878906 71.59375 -47.109375 C 71.53125 -38.472656 71.328125 -29.765625 70.984375 -20.984375 C 70.910156 -19.410156 70.875 -18.09375 70.875 -17.03125 C 70.875 -15.96875 70.84375 -15.125 70.78125 -14.5 C 70.707031 -14.019531 70.65625 -13.316406 70.625 -12.390625 C 70.59375 -11.460938 70.539062 -10.007812 70.46875 -8.03125 C 70.332031 -4.113281 70.128906 -1.398438 69.859375 0.109375 C 69.578125 1.203125 69.367188 1.882812 69.234375 2.15625 C 69.097656 2.4375 68.859375 2.75 68.515625 3.09375 C 67.960938 3.570312 67.445312 4 66.96875 4.375 C 66.488281 4.75 66.007812 5.070312 65.53125 5.34375 C 64.78125 5.6875 64.234375 5.960938 63.890625 6.171875 C 62.242188 6.992188 60.390625 7.40625 58.328125 7.40625 C 57.367188 7.40625 56.441406 7.234375 55.546875 6.890625 C 54.523438 6.410156 53.769531 5.960938 53.28125 5.546875 C 52.800781 5.140625 51.945312 4.628906 50.71875 4.015625 C 48.800781 3.054688 47.140625 1.734375 45.734375 0.046875 C 44.328125 -1.628906 43.210938 -3.425781 42.390625 -5.34375 C 41.765625 -6.71875 41.453125 -7.441406 41.453125 -7.515625 C 41.453125 -7.515625 40.90625 -8.988281 39.8125 -11.9375 C 39.539062 -12.625 39.179688 -13.425781 38.734375 -14.34375 C 38.285156 -15.269531 37.71875 -16.695312 37.03125 -18.625 C 36.550781 -20.0625 36.035156 -21.550781 35.484375 -23.09375 C 34.941406 -24.632812 34.632812 -25.507812 34.5625 -25.71875 C 34.351562 -26.269531 33.632812 -28.222656 32.40625 -31.578125 C 31.238281 -34.867188 30.242188 -37.660156 29.421875 -39.953125 C 28.597656 -42.253906 27.945312 -44.0625 27.46875 -45.375 L 26.640625 -47.53125 L 26.34375 -45.984375 C 26.195312 -45.234375 26.035156 -43.175781 25.859375 -39.8125 C 25.691406 -36.445312 25.507812 -31.75 25.3125 -25.71875 C 25.3125 -25.03125 25.289062 -24.050781 25.25 -22.78125 C 25.21875 -21.519531 25.203125 -20.132812 25.203125 -18.625 C 25.203125 -17.113281 25.179688 -15.535156 25.140625 -13.890625 C 25.109375 -12.242188 25.09375 -10.703125 25.09375 -9.265625 C 25.09375 -3.085938 24.851562 0.617188 24.375 1.859375 C 24.175781 2.398438 23.695312 3.066406 22.9375 3.859375 C 22.1875 4.648438 21.46875 5.25 20.78125 5.65625 C 20.03125 6.132812 19.550781 6.515625 19.34375 6.796875 C 19.0625 7.066406 18.71875 7.203125 18.3125 7.203125 C 17.757812 7.203125 17.3125 7.335938 16.96875 7.609375 C 16.007812 8.222656 15.53125 8.429688 15.53125 8.234375 C 15.53125 7.816406 14.945312 7.882812 13.78125 8.4375 C 13.03125 8.78125 12.414062 8.882812 11.9375 8.75 C 11.382812 8.601562 10.78125 8.289062 10.125 7.8125 C 9.476562 7.332031 8.863281 6.800781 8.28125 6.21875 C 7.695312 5.632812 7.164062 5.015625 6.6875 4.359375 C 6.207031 3.710938 5.898438 3.117188 5.765625 2.578125 C 5.285156 0.585938 5.179688 -0.957031 5.453125 -2.0625 C 5.523438 -2.40625 5.59375 -3.519531 5.65625 -5.40625 C 5.726562 -7.289062 5.898438 -9.984375 6.171875 -13.484375 C 6.242188 -14.847656 6.3125 -16.539062 6.375 -18.5625 C 6.445312 -20.59375 6.515625 -22.84375 6.578125 -25.3125 C 6.648438 -27.78125 6.703125 -30.398438 6.734375 -33.171875 C 6.773438 -35.953125 6.796875 -38.710938 6.796875 -41.453125 C 6.796875 -47.015625 6.757812 -51.539062 6.6875 -55.03125 C 6.613281 -58.53125 6.507812 -60.96875 6.375 -62.34375 C 6.164062 -65.082031 5.753906 -67.207031 5.140625 -68.71875 C 5.003906 -68.925781 5.160156 -69.113281 5.609375 -69.28125 C 6.054688 -69.457031 6.960938 -69.648438 8.328125 -69.859375 C 9.628906 -70.128906 11.207031 -70.265625 13.0625 -70.265625 C 15.664062 -70.265625 18.269531 -70.023438 20.875 -69.546875 C 23.488281 -69.066406 26.03125 -68.445312 28.5 -67.6875 L 31.484375 -66.765625 L 32.609375 -65.53125 C 33.984375 -64.019531 35.164062 -62.664062 36.15625 -61.46875 C 37.15625 -60.269531 38.066406 -59.035156 38.890625 -57.765625 C 39.710938 -56.492188 40.484375 -55.15625 41.203125 -53.75 C 41.921875 -52.34375 42.691406 -50.679688 43.515625 -48.765625 C 44.472656 -46.640625 45.445312 -43.878906 46.4375 -40.484375 C 47.4375 -37.085938 48.519531 -33.535156 49.6875 -29.828125 C 50.164062 -28.179688 50.578125 -26.878906 50.921875 -25.921875 C 51.265625 -24.960938 51.503906 -24.347656 51.640625 -24.078125 C 51.710938 -24.003906 51.78125 -24.34375 51.84375 -25.09375 C 51.988281 -26.257812 52.09375 -29.175781 52.15625 -33.84375 C 52.226562 -38.507812 52.296875 -44.476562 52.359375 -51.75 C 52.429688 -56.476562 52.46875 -60.160156 52.46875 -62.796875 C 52.46875 -65.441406 52.46875 -67.109375 52.46875 -67.796875 C 52.46875 -68.140625 52.617188 -68.429688 52.921875 -68.671875 C 53.234375 -68.910156 53.59375 -69.113281 54 -69.28125 C 54.414062 -69.457031 54.847656 -69.597656 55.296875 -69.703125 C 55.742188 -69.804688 56.101562 -69.859375 56.375 -69.859375 C 57.125 -69.992188 57.640625 -70.195312 57.921875 -70.46875 C 58.191406 -70.738281 59.148438 -70.945312 60.796875 -71.09375 C 61.691406 -71.226562 62.394531 -71.3125 62.90625 -71.34375 C 63.414062 -71.375 63.773438 -71.425781 63.984375 -71.5 Z M 63.984375 -71.5 "/></g></g></g><g fill="#1b0400" fill-opacity="1"><g transform="translate(1519.470317, 329.443177)"><g><path d="M 59.46875 -71.1875 C 59.664062 -71.257812 60.207031 -71.273438 61.09375 -71.234375 C 61.988281 -71.203125 63.226562 -71.15625 64.8125 -71.09375 C 67.96875 -71.019531 69.851562 -70.914062 70.46875 -70.78125 C 71.5 -70.570312 72.546875 -70.242188 73.609375 -69.796875 C 74.671875 -69.347656 75.304688 -68.988281 75.515625 -68.71875 C 75.992188 -68.164062 76.332031 -67.207031 76.53125 -65.84375 C 76.675781 -65.019531 75.851562 -62.035156 74.0625 -56.890625 C 73.582031 -55.378906 73.15625 -54.109375 72.78125 -53.078125 C 72.40625 -52.054688 72.082031 -51.234375 71.8125 -50.609375 C 71.257812 -49.304688 70.398438 -47.195312 69.234375 -44.28125 C 68.066406 -41.375 66.628906 -37.550781 64.921875 -32.8125 C 64.367188 -31.445312 63.816406 -30.007812 63.265625 -28.5 C 62.710938 -26.988281 62.128906 -25.375 61.515625 -23.65625 C 60.285156 -20.363281 59.222656 -17.515625 58.328125 -15.109375 C 57.441406 -12.710938 56.722656 -10.726562 56.171875 -9.15625 C 55.753906 -7.988281 55.375 -6.90625 55.03125 -5.90625 C 54.695312 -4.914062 54.390625 -4.007812 54.109375 -3.1875 C 52.671875 0.507812 51.742188 2.769531 51.328125 3.59375 C 51.128906 3.9375 51.03125 4.210938 51.03125 4.421875 C 51.03125 4.691406 50.875 5.015625 50.5625 5.390625 C 50.25 5.773438 49.882812 6.15625 49.46875 6.53125 C 49.0625 6.90625 48.601562 7.210938 48.09375 7.453125 C 47.582031 7.691406 47.117188 7.8125 46.703125 7.8125 C 46.296875 7.882812 45.953125 7.921875 45.671875 7.921875 C 45.398438 7.921875 45.195312 7.957031 45.0625 8.03125 C 43.476562 8.300781 41.863281 8.46875 40.21875 8.53125 C 38.570312 8.601562 36.960938 8.640625 35.390625 8.640625 C 33.328125 8.640625 31.457031 8.332031 29.78125 7.71875 C 28.101562 7.101562 26.785156 5.765625 25.828125 3.703125 C 25.617188 3.222656 25.320312 2.347656 24.9375 1.078125 C 24.5625 -0.191406 24.101562 -1.851562 23.5625 -3.90625 C 23.082031 -5.6875 22.476562 -7.726562 21.75 -10.03125 C 21.03125 -12.332031 20.160156 -14.921875 19.140625 -17.796875 C 17.421875 -22.867188 16.007812 -27.066406 14.90625 -30.390625 C 13.8125 -33.722656 13.023438 -36.242188 12.546875 -37.953125 C 11.453125 -41.867188 10.472656 -45.234375 9.609375 -48.046875 C 8.753906 -50.859375 8.019531 -53.117188 7.40625 -54.828125 C 6.175781 -58.117188 4.976562 -60.488281 3.8125 -61.9375 C 2.914062 -62.820312 2.363281 -63.78125 2.15625 -64.8125 C 1.8125 -66.1875 2.222656 -67.382812 3.390625 -68.40625 L 4.328125 -69.4375 L 6.890625 -69.640625 C 7.710938 -69.710938 8.585938 -69.765625 9.515625 -69.796875 C 10.441406 -69.835938 11.382812 -69.820312 12.34375 -69.75 C 16.9375 -69.613281 20.195312 -69.097656 22.125 -68.203125 C 24.445312 -67.316406 26.019531 -66.015625 26.84375 -64.296875 C 27.332031 -63.398438 28.601562 -58.597656 30.65625 -49.890625 C 30.789062 -49.484375 31.007812 -48.59375 31.3125 -47.21875 C 31.625 -45.84375 32.054688 -43.957031 32.609375 -41.5625 C 33.367188 -38.613281 34.019531 -35.9375 34.5625 -33.53125 C 35.113281 -31.132812 35.628906 -28.941406 36.109375 -26.953125 C 36.660156 -24.410156 37.125 -22.351562 37.5 -20.78125 C 37.875 -19.207031 38.195312 -18.109375 38.46875 -17.484375 L 38.78125 -16.671875 L 39.09375 -17.59375 C 39.226562 -17.863281 39.398438 -18.320312 39.609375 -18.96875 C 39.816406 -19.625 40.09375 -20.429688 40.4375 -21.390625 C 40.570312 -21.804688 40.789062 -22.578125 41.09375 -23.703125 C 41.40625 -24.835938 41.835938 -26.367188 42.390625 -28.296875 C 49.109375 -50.304688 52.46875 -63.0625 52.46875 -66.5625 C 52.46875 -67.25 52.601562 -67.765625 52.875 -68.109375 C 53.15625 -68.453125 53.910156 -69 55.140625 -69.75 C 56.234375 -70.4375 57.191406 -70.847656 58.015625 -70.984375 C 58.359375 -71.054688 58.648438 -71.09375 58.890625 -71.09375 C 59.128906 -71.09375 59.320312 -71.125 59.46875 -71.1875 Z M 59.46875 -71.1875 "/></g></g></g><g fill="#1b0400" fill-opacity="1"><g transform="translate(1595.792967, 329.443177)"><g><path d="M 36.515625 -70.46875 C 37.753906 -70.675781 39.265625 -70.78125 41.046875 -70.78125 C 43.035156 -70.78125 44.988281 -70.742188 46.90625 -70.671875 C 48.832031 -70.609375 50.753906 -70.40625 52.671875 -70.0625 C 55.066406 -69.71875 56.847656 -68.550781 58.015625 -66.5625 C 58.222656 -66.21875 58.378906 -65.957031 58.484375 -65.78125 C 58.585938 -65.613281 58.707031 -65.460938 58.84375 -65.328125 C 59.113281 -65.054688 59.210938 -64.867188 59.140625 -64.765625 C 59.078125 -64.660156 59.253906 -64.195312 59.671875 -63.375 C 59.941406 -63.03125 60.144531 -62.648438 60.28125 -62.234375 C 60.414062 -61.828125 60.554688 -61.347656 60.703125 -60.796875 C 60.835938 -60.316406 60.921875 -59.851562 60.953125 -59.40625 C 60.984375 -58.957031 60.929688 -58.53125 60.796875 -58.125 C 60.523438 -56.550781 60.007812 -55.453125 59.25 -54.828125 C 58.632812 -54.347656 57.675781 -54.144531 56.375 -54.21875 C 55.414062 -54.351562 54.695312 -54.28125 54.21875 -54 C 53.738281 -53.726562 53.257812 -53.734375 52.78125 -54.015625 C 52.5 -54.210938 51.914062 -54.242188 51.03125 -54.109375 C 49.382812 -53.765625 47.289062 -53.5625 44.75 -53.5 C 44.0625 -53.425781 43.046875 -53.320312 41.703125 -53.1875 C 40.367188 -53.050781 38.742188 -52.84375 36.828125 -52.5625 C 35.929688 -52.425781 35.453125 -52.394531 35.390625 -52.46875 C 35.390625 -52.46875 35.695312 -52.671875 36.3125 -53.078125 C 36.863281 -53.421875 37.117188 -53.660156 37.078125 -53.796875 C 37.046875 -53.941406 36.6875 -54.015625 36 -54.015625 C 35.65625 -54.015625 34.914062 -53.894531 33.78125 -53.65625 C 32.65625 -53.414062 31.472656 -53.140625 30.234375 -52.828125 C 29.003906 -52.515625 27.875 -52.203125 26.84375 -51.890625 C 25.820312 -51.585938 25.207031 -51.332031 25 -51.125 C 24.925781 -51.0625 24.820312 -50.582031 24.6875 -49.6875 C 24.550781 -48.789062 24.445312 -47.8125 24.375 -46.75 C 24.3125 -45.6875 24.242188 -44.691406 24.171875 -43.765625 C 24.109375 -42.847656 24.078125 -42.25 24.078125 -41.96875 C 24.003906 -39.914062 24.003906 -38.890625 24.078125 -38.890625 C 24.140625 -38.890625 24.664062 -38.972656 25.65625 -39.140625 C 26.65625 -39.316406 28.082031 -39.578125 29.9375 -39.921875 C 32.40625 -40.398438 34.835938 -40.738281 37.234375 -40.9375 C 39.640625 -41.144531 42.109375 -41.25 44.640625 -41.25 C 50.335938 -41.25 53.835938 -40.941406 55.140625 -40.328125 C 55.890625 -39.984375 56.503906 -39.46875 56.984375 -38.78125 C 57.472656 -38.09375 57.71875 -37.40625 57.71875 -36.71875 C 57.71875 -36.582031 57.988281 -35.757812 58.53125 -34.25 C 58.945312 -33.019531 59.238281 -31.90625 59.40625 -30.90625 C 59.582031 -29.914062 59.5 -29.078125 59.15625 -28.390625 C 58.601562 -27.222656 57.945312 -26.414062 57.1875 -25.96875 C 56.4375 -25.53125 55.171875 -25.207031 53.390625 -25 C 52.359375 -24.863281 51.6875 -24.722656 51.375 -24.578125 C 51.070312 -24.441406 50.578125 -24.34375 49.890625 -24.28125 C 49.347656 -24.144531 49.003906 -24.054688 48.859375 -24.015625 C 48.722656 -23.984375 48.484375 -24.035156 48.140625 -24.171875 C 47.734375 -24.304688 47.441406 -24.304688 47.265625 -24.171875 C 47.097656 -24.035156 46.804688 -24.101562 46.390625 -24.375 C 46.046875 -24.582031 45.703125 -24.769531 45.359375 -24.9375 C 45.023438 -25.113281 44.6875 -25.203125 44.34375 -25.203125 C 43.925781 -25.203125 43.320312 -25.148438 42.53125 -25.046875 C 41.75 -24.941406 40.707031 -24.820312 39.40625 -24.6875 C 36.9375 -24.34375 35.628906 -24.238281 35.484375 -24.375 C 35.554688 -24.445312 35.523438 -24.519531 35.390625 -24.59375 C 34.296875 -24.925781 33.367188 -24.957031 32.609375 -24.6875 C 32.203125 -24.550781 31.894531 -24.484375 31.6875 -24.484375 C 31.476562 -24.484375 31.507812 -24.585938 31.78125 -24.796875 C 31.988281 -24.929688 32.078125 -25 32.046875 -25 C 32.015625 -25 31.859375 -25 31.578125 -25 C 31.515625 -24.925781 30.96875 -24.820312 29.9375 -24.6875 C 28.15625 -24.34375 26.765625 -24.082031 25.765625 -23.90625 C 24.773438 -23.738281 24.210938 -23.585938 24.078125 -23.453125 C 23.867188 -23.242188 23.710938 -22.503906 23.609375 -21.234375 C 23.503906 -19.972656 23.414062 -18.570312 23.34375 -17.03125 C 23.28125 -15.488281 23.25 -13.976562 23.25 -12.5 C 23.25 -11.019531 23.25 -10.007812 23.25 -9.46875 C 23.175781 -9.1875 25.921875 -9.253906 31.484375 -9.671875 C 35.253906 -10.015625 38.390625 -10.269531 40.890625 -10.4375 C 43.390625 -10.613281 45.910156 -10.703125 48.453125 -10.703125 C 48.929688 -10.703125 49.597656 -10.679688 50.453125 -10.640625 C 51.316406 -10.609375 52.191406 -10.554688 53.078125 -10.484375 C 53.972656 -10.421875 54.796875 -10.300781 55.546875 -10.125 C 56.304688 -9.957031 56.789062 -9.738281 57 -9.46875 C 57.195312 -9.257812 57.3125 -9.101562 57.34375 -9 C 57.382812 -8.894531 57.4375 -8.789062 57.5 -8.6875 C 57.570312 -8.582031 57.691406 -8.410156 57.859375 -8.171875 C 58.035156 -7.929688 58.328125 -7.609375 58.734375 -7.203125 C 59.492188 -6.378906 60.164062 -5.332031 60.75 -4.0625 C 61.332031 -2.789062 61.691406 -1.644531 61.828125 -0.625 C 62.035156 0.132812 62.101562 0.875 62.03125 1.59375 C 61.96875 2.3125 61.832031 2.976562 61.625 3.59375 C 61.34375 4.414062 60.804688 5.171875 60.015625 5.859375 C 59.234375 6.546875 58.296875 7.128906 57.203125 7.609375 C 56.441406 7.890625 55.492188 8.097656 54.359375 8.234375 C 53.234375 8.367188 52.5 8.367188 52.15625 8.234375 C 51.882812 8.023438 51.335938 7.921875 50.515625 7.921875 C 50.171875 7.847656 49.894531 7.796875 49.6875 7.765625 C 49.476562 7.734375 49.203125 7.679688 48.859375 7.609375 C 48.515625 7.472656 48.15625 7.367188 47.78125 7.296875 C 47.40625 7.234375 46.941406 7.164062 46.390625 7.09375 C 46.046875 7.03125 45.53125 6.945312 44.84375 6.84375 C 44.164062 6.738281 43.722656 6.6875 43.515625 6.6875 C 42.210938 6.476562 41.007812 6.320312 39.90625 6.21875 C 38.8125 6.113281 37.203125 6.0625 35.078125 6.0625 C 31.859375 6.0625 28.601562 6.164062 25.3125 6.375 C 22.019531 6.582031 18.828125 7.0625 15.734375 7.8125 C 14.710938 8.019531 13.6875 8.125 12.65625 8.125 C 11.351562 8.125 10.117188 7.726562 8.953125 6.9375 C 7.785156 6.15625 6.925781 5.179688 6.375 4.015625 C 5.6875 2.234375 5.550781 0.414062 5.96875 -1.4375 C 6.03125 -1.78125 6.113281 -2.207031 6.21875 -2.71875 C 6.320312 -3.238281 6.375 -3.84375 6.375 -4.53125 C 6.507812 -7.820312 6.628906 -11.113281 6.734375 -14.40625 C 6.835938 -17.695312 6.957031 -20.988281 7.09375 -24.28125 C 7.09375 -24.894531 7.109375 -25.679688 7.140625 -26.640625 C 7.179688 -27.597656 7.21875 -28.554688 7.25 -29.515625 C 7.28125 -30.484375 7.3125 -31.359375 7.34375 -32.140625 C 7.382812 -32.929688 7.441406 -33.46875 7.515625 -33.75 C 7.515625 -35.1875 7.53125 -36.757812 7.5625 -38.46875 C 7.59375 -40.1875 7.644531 -42.144531 7.71875 -44.34375 L 7.8125 -51.4375 L 7.09375 -52.46875 C 6.269531 -53.5 5.617188 -55.144531 5.140625 -57.40625 C 4.523438 -60.082031 4.253906 -61.96875 4.328125 -63.0625 C 4.390625 -63.675781 4.503906 -64.304688 4.671875 -64.953125 C 4.847656 -65.609375 5.175781 -66.210938 5.65625 -66.765625 C 6.132812 -67.242188 6.546875 -67.484375 6.890625 -67.484375 C 7.304688 -67.484375 7.546875 -67.617188 7.609375 -67.890625 C 7.742188 -68.441406 8.257812 -68.613281 9.15625 -68.40625 C 9.707031 -68.269531 10.101562 -68.113281 10.34375 -67.9375 C 10.582031 -67.769531 10.800781 -67.515625 11 -67.171875 C 11.144531 -66.972656 11.285156 -66.875 11.421875 -66.875 C 11.554688 -66.875 12 -66.90625 12.75 -66.96875 C 13.78125 -67.039062 15.132812 -67.175781 16.8125 -67.375 C 18.5 -67.582031 20.507812 -67.960938 22.84375 -68.515625 C 27.300781 -69.410156 31.859375 -70.0625 36.515625 -70.46875 Z M 36.515625 -70.46875 "/></g></g></g><g fill="#1b0400" fill-opacity="1"><g transform="translate(1657.817925, 329.443177)"><g><path d="M 31.28125 -70.359375 C 33.125 -70.359375 34.988281 -70.222656 36.875 -69.953125 C 38.757812 -69.679688 40.597656 -69.375 42.390625 -69.03125 C 43.347656 -68.820312 44.375 -68.628906 45.46875 -68.453125 C 46.5625 -68.285156 47.179688 -68.203125 47.328125 -68.203125 C 48.347656 -67.992188 49.132812 -67.582031 49.6875 -66.96875 C 50.238281 -66.351562 50.925781 -65.15625 51.75 -63.375 L 52.984375 -60.796875 L 52.984375 -58.328125 C 52.984375 -56.753906 52.773438 -55.585938 52.359375 -54.828125 C 52.085938 -54.347656 51.710938 -53.816406 51.234375 -53.234375 C 50.753906 -52.648438 50.222656 -52.097656 49.640625 -51.578125 C 49.054688 -51.066406 48.453125 -50.625 47.828125 -50.25 C 47.210938 -49.875 46.597656 -49.6875 45.984375 -49.6875 C 45.578125 -49.6875 45.082031 -49.789062 44.5 -50 C 43.914062 -50.207031 43.070312 -50.550781 41.96875 -51.03125 C 39.289062 -52.46875 37.644531 -53.1875 37.03125 -53.1875 C 36.6875 -53.1875 36.378906 -53.320312 36.109375 -53.59375 C 35.691406 -53.9375 34.96875 -54.175781 33.9375 -54.3125 C 32.914062 -54.457031 32.0625 -54.457031 31.375 -54.3125 C 29.59375 -53.96875 27.878906 -53.265625 26.234375 -52.203125 C 24.585938 -51.140625 23.421875 -49.753906 22.734375 -48.046875 C 21.835938 -45.773438 21.875 -43.921875 22.84375 -42.484375 C 23.1875 -41.941406 23.988281 -41.394531 25.25 -40.84375 C 26.519531 -40.289062 27.910156 -39.753906 29.421875 -39.234375 C 30.929688 -38.722656 32.421875 -38.257812 33.890625 -37.84375 C 35.367188 -37.4375 36.519531 -37.132812 37.34375 -36.9375 C 39.40625 -36.3125 41.445312 -35.5 43.46875 -34.5 C 45.488281 -33.507812 47.351562 -32.3125 49.0625 -30.90625 C 50.78125 -29.507812 52.289062 -27.9375 53.59375 -26.1875 C 54.894531 -24.4375 55.890625 -22.460938 56.578125 -20.265625 C 57.609375 -16.765625 57.710938 -13.265625 56.890625 -9.765625 C 56.066406 -6.273438 54.316406 -3.019531 51.640625 0 C 46.222656 5.96875 38.269531 8.953125 27.78125 8.953125 C 26.132812 8.953125 24.195312 8.8125 21.96875 8.53125 C 19.738281 8.257812 17.523438 7.796875 15.328125 7.140625 C 13.128906 6.492188 11.117188 5.640625 9.296875 4.578125 C 7.484375 3.515625 6.132812 2.160156 5.25 0.515625 C 5.039062 0.0976562 4.882812 -0.226562 4.78125 -0.46875 C 4.675781 -0.707031 4.585938 -0.960938 4.515625 -1.234375 C 4.453125 -1.503906 4.40625 -1.8125 4.375 -2.15625 C 4.34375 -2.5 4.328125 -3.015625 4.328125 -3.703125 C 4.328125 -5.484375 4.394531 -6.441406 4.53125 -6.578125 C 4.664062 -6.722656 4.734375 -6.929688 4.734375 -7.203125 C 4.734375 -7.410156 4.664062 -7.582031 4.53125 -7.71875 C 4.394531 -7.851562 4.359375 -8.226562 4.421875 -8.84375 C 4.492188 -9.457031 4.597656 -9.867188 4.734375 -10.078125 C 4.796875 -10.359375 4.796875 -10.597656 4.734375 -10.796875 C 4.597656 -10.929688 4.53125 -11.410156 4.53125 -12.234375 L 4.625 -13.375 L 4.734375 -13.171875 C 4.867188 -12.890625 5.003906 -12.992188 5.140625 -13.484375 C 5.140625 -13.617188 5.175781 -13.71875 5.25 -13.78125 C 5.382812 -14.40625 5.488281 -14.921875 5.5625 -15.328125 C 5.5625 -15.804688 5.628906 -16.046875 5.765625 -16.046875 C 5.898438 -16.046875 5.96875 -15.941406 5.96875 -15.734375 C 5.96875 -15.535156 6.242188 -14.921875 6.796875 -13.890625 C 7.546875 -12.378906 8.625 -11.003906 10.03125 -9.765625 C 11.4375 -8.535156 13.03125 -7.644531 14.8125 -7.09375 C 15.769531 -6.75 16.9375 -6.472656 18.3125 -6.265625 C 19.6875 -6.066406 21.054688 -5.96875 22.421875 -5.96875 C 23.660156 -5.96875 24.960938 -6.066406 26.328125 -6.265625 C 27.703125 -6.472656 29.039062 -6.800781 30.34375 -7.25 C 31.644531 -7.695312 32.8125 -8.332031 33.84375 -9.15625 C 34.875 -9.976562 35.628906 -11.003906 36.109375 -12.234375 C 36.378906 -13.066406 36.53125 -14.0625 36.5625 -15.21875 C 36.601562 -16.382812 36.453125 -17.175781 36.109375 -17.59375 C 35.628906 -18.144531 34.359375 -18.898438 32.296875 -19.859375 C 30.242188 -20.816406 27.296875 -21.984375 23.453125 -23.359375 C 20.921875 -24.242188 18.8125 -25.082031 17.125 -25.875 C 15.445312 -26.664062 14.128906 -27.398438 13.171875 -28.078125 C 10.078125 -30.273438 7.691406 -32.832031 6.015625 -35.75 C 4.335938 -38.664062 3.5 -42.039062 3.5 -45.875 C 3.5 -47.9375 3.890625 -50.097656 4.671875 -52.359375 C 5.460938 -54.628906 6.546875 -56.753906 7.921875 -58.734375 C 9.296875 -60.722656 10.875 -62.503906 12.65625 -64.078125 C 14.4375 -65.660156 16.285156 -66.863281 18.203125 -67.6875 C 20.398438 -68.582031 22.546875 -69.25 24.640625 -69.6875 C 26.734375 -70.132812 28.945312 -70.359375 31.28125 -70.359375 Z M 31.28125 -70.359375 "/></g></g></g><g fill="#1b0400" fill-opacity="1"><g transform="translate(1715.831307, 329.443177)"><g><path d="M 45.46875 -70.15625 C 47.382812 -70.226562 50.195312 -70.128906 53.90625 -69.859375 C 55.757812 -69.710938 57.300781 -69.550781 58.53125 -69.375 C 59.769531 -69.207031 60.660156 -69.054688 61.203125 -68.921875 C 62.578125 -68.515625 63.675781 -67.519531 64.5 -65.9375 C 64.707031 -65.59375 64.929688 -65.234375 65.171875 -64.859375 C 65.410156 -64.484375 65.703125 -64.054688 66.046875 -63.578125 C 67.273438 -62.066406 68.269531 -60.421875 69.03125 -58.640625 L 70.0625 -56.375 L 69.75 -55.25 C 69.539062 -54.425781 69.332031 -53.859375 69.125 -53.546875 C 68.925781 -53.234375 68.445312 -52.769531 67.6875 -52.15625 C 66.863281 -51.332031 65.148438 -50.644531 62.546875 -50.09375 C 61.722656 -49.957031 61.207031 -50.03125 61 -50.3125 C 60.800781 -50.582031 60.457031 -50.679688 59.96875 -50.609375 C 59.351562 -50.472656 59.015625 -50.375 58.953125 -50.3125 C 58.804688 -50.164062 58.734375 -50.195312 58.734375 -50.40625 C 58.734375 -50.613281 58.632812 -50.71875 58.4375 -50.71875 C 58.363281 -50.71875 58.085938 -50.890625 57.609375 -51.234375 C 56.785156 -51.847656 55.925781 -52.222656 55.03125 -52.359375 C 54.144531 -52.492188 52.5 -52.492188 50.09375 -52.359375 C 48.039062 -52.359375 46.804688 -52.222656 46.390625 -51.953125 C 45.984375 -51.535156 45.742188 -50.742188 45.671875 -49.578125 C 45.328125 -47.109375 45.066406 -43.921875 44.890625 -40.015625 C 44.722656 -36.109375 44.570312 -31.273438 44.4375 -25.515625 C 44.238281 -16.253906 43.945312 -9.066406 43.5625 -3.953125 C 43.1875 1.148438 42.722656 4.078125 42.171875 4.828125 C 41.765625 5.515625 40.632812 6.066406 38.78125 6.484375 C 38.03125 6.617188 37.65625 6.738281 37.65625 6.84375 C 37.65625 6.945312 37.515625 7 37.234375 7 C 36.960938 7 36.773438 7.066406 36.671875 7.203125 C 36.566406 7.335938 36.484375 7.367188 36.421875 7.296875 C 36.210938 7.160156 35.628906 7.570312 34.671875 8.53125 C 34.117188 9.082031 33.707031 9.253906 33.4375 9.046875 C 33.300781 8.910156 33.023438 8.925781 32.609375 9.09375 C 32.203125 9.269531 31.722656 9.222656 31.171875 8.953125 C 29.660156 8.128906 28.425781 6.6875 27.46875 4.625 C 27.195312 4.082031 26.957031 3.617188 26.75 3.234375 C 26.539062 2.859375 26.300781 2.535156 26.03125 2.265625 C 25.34375 1.441406 25.066406 0.207031 25.203125 -1.4375 C 25.273438 -1.914062 25.359375 -4.078125 25.453125 -7.921875 C 25.554688 -11.765625 25.679688 -17.21875 25.828125 -24.28125 C 25.960938 -31.269531 26.046875 -36.648438 26.078125 -40.421875 C 26.109375 -44.203125 26.09375 -46.535156 26.03125 -47.421875 C 26.03125 -48.179688 25.960938 -48.832031 25.828125 -49.375 C 25.828125 -49.65625 25.789062 -49.894531 25.71875 -50.09375 C 25.71875 -50.09375 24.109375 -49.890625 20.890625 -49.484375 C 14.023438 -48.453125 9.632812 -48.003906 7.71875 -48.140625 C 6.28125 -48.347656 5.113281 -49.101562 4.21875 -50.40625 C 2.78125 -52.601562 2.160156 -55.65625 2.359375 -59.5625 C 2.503906 -61.070312 2.765625 -62.425781 3.140625 -63.625 C 3.515625 -64.820312 4.179688 -66.003906 5.140625 -67.171875 C 5.691406 -67.859375 5.96875 -68.304688 5.96875 -68.515625 C 5.96875 -68.722656 6.085938 -69 6.328125 -69.34375 C 6.566406 -69.6875 6.789062 -69.859375 7 -69.859375 C 7.132812 -69.859375 7.351562 -69.597656 7.65625 -69.078125 C 7.96875 -68.566406 8.191406 -68.070312 8.328125 -67.59375 C 8.609375 -67.113281 8.882812 -66.769531 9.15625 -66.5625 C 9.5625 -66.289062 10.484375 -66.117188 11.921875 -66.046875 C 13.367188 -65.972656 14.710938 -66.007812 15.953125 -66.15625 C 17.929688 -66.425781 19.796875 -66.679688 21.546875 -66.921875 C 23.296875 -67.160156 24.960938 -67.414062 26.546875 -67.6875 C 34.773438 -69.0625 41.082031 -69.882812 45.46875 -70.15625 Z M 45.46875 -70.15625 "/></g></g></g></svg>