<svg xmlns="http://www.w3.org/2000/svg" xmlns:xlink="http://www.w3.org/1999/xlink" width="1563" zoomAndPan="magnify" viewBox="0 0 1172.25 599.999999" height="800" preserveAspectRatio="xMidYMid meet" version="1.0"><defs><clipPath id="b58a406b95"><path d="M 303.929688 4 L 867.570312 4 L 867.570312 596 L 303.929688 596 Z M 303.929688 4 " clip-rule="nonzero"/></clipPath></defs><g clip-path="url(#b58a406b95)"><path fill="#c38407" d="M 321.472656 165.449219 C 320.898438 165.449219 320.324219 165.476562 319.753906 165.535156 C 319.183594 165.589844 318.613281 165.675781 318.050781 165.785156 C 317.488281 165.898438 316.929688 166.039062 316.378906 166.203125 C 315.832031 166.371094 315.289062 166.566406 314.761719 166.785156 C 314.230469 167.003906 313.710938 167.25 313.203125 167.519531 C 312.695312 167.792969 312.203125 168.085938 311.726562 168.40625 C 311.25 168.726562 310.789062 169.066406 310.34375 169.429688 C 309.898438 169.796875 309.476562 170.179688 309.070312 170.585938 C 308.664062 170.992188 308.277344 171.417969 307.914062 171.863281 C 307.546875 172.308594 307.207031 172.769531 306.886719 173.246094 C 306.566406 173.722656 306.273438 174.214844 306 174.722656 C 305.730469 175.230469 305.484375 175.746094 305.265625 176.277344 C 305.046875 176.808594 304.851562 177.351562 304.6875 177.898438 C 304.519531 178.449219 304.378906 179.007812 304.269531 179.570312 C 304.15625 180.132812 304.070312 180.699219 304.015625 181.273438 C 303.957031 181.84375 303.929688 182.417969 303.929688 182.992188 L 303.929688 416.832031 C 303.929688 417.40625 303.957031 417.980469 304.015625 418.550781 C 304.070312 419.125 304.15625 419.691406 304.269531 420.253906 C 304.378906 420.820312 304.519531 421.375 304.6875 421.925781 C 304.851562 422.476562 305.046875 423.015625 305.265625 423.546875 C 305.484375 424.078125 305.730469 424.59375 306 425.101562 C 306.273438 425.609375 306.566406 426.101562 306.886719 426.578125 C 307.207031 427.054688 307.546875 427.515625 307.914062 427.960938 C 308.277344 428.40625 308.664062 428.832031 309.070312 429.238281 C 309.476562 429.644531 309.898438 430.027344 310.34375 430.394531 C 310.789062 430.757812 311.25 431.097656 311.726562 431.417969 C 312.203125 431.738281 312.695312 432.03125 313.203125 432.304688 C 313.710938 432.574219 314.230469 432.820312 314.761719 433.039062 C 315.289062 433.257812 315.832031 433.453125 316.378906 433.621094 C 316.929688 433.785156 317.488281 433.925781 318.050781 434.039062 C 318.613281 434.148438 319.183594 434.234375 319.753906 434.289062 C 320.324219 434.347656 320.898438 434.375 321.472656 434.375 L 455.496094 434.375 C 456.070312 434.375 456.644531 434.402344 457.21875 434.460938 C 457.789062 434.515625 458.355469 434.601562 458.917969 434.710938 C 459.484375 434.824219 460.039062 434.964844 460.589844 435.128906 C 461.140625 435.296875 461.679688 435.492188 462.210938 435.710938 C 462.742188 435.929688 463.261719 436.175781 463.765625 436.445312 C 464.273438 436.71875 464.765625 437.011719 465.242188 437.332031 C 465.722656 437.652344 466.183594 437.992188 466.625 438.355469 C 467.070312 438.722656 467.496094 439.105469 467.902344 439.511719 C 468.308594 439.917969 468.695312 440.34375 469.058594 440.789062 C 469.421875 441.234375 469.765625 441.695312 470.082031 442.171875 C 470.402344 442.648438 470.699219 443.140625 470.96875 443.648438 C 471.238281 444.15625 471.484375 444.671875 471.703125 445.203125 C 471.925781 445.734375 472.117188 446.277344 472.285156 446.824219 C 472.453125 447.375 472.589844 447.933594 472.703125 448.496094 C 472.816406 449.058594 472.898438 449.625 472.957031 450.199219 C 473.011719 450.769531 473.039062 451.34375 473.039062 451.917969 L 473.039062 578.398438 C 473.039062 578.972656 473.066406 579.546875 473.125 580.117188 C 473.179688 580.691406 473.265625 581.257812 473.378906 581.820312 C 473.488281 582.382812 473.628906 582.941406 473.796875 583.492188 C 473.960938 584.039062 474.15625 584.582031 474.375 585.113281 C 474.59375 585.644531 474.839844 586.160156 475.109375 586.667969 C 475.382812 587.175781 475.675781 587.667969 475.996094 588.144531 C 476.316406 588.621094 476.65625 589.082031 477.023438 589.527344 C 477.386719 589.972656 477.773438 590.398438 478.179688 590.804688 C 478.585938 591.210938 479.007812 591.59375 479.453125 591.960938 C 479.898438 592.324219 480.359375 592.664062 480.835938 592.984375 C 481.3125 593.304688 481.804688 593.597656 482.3125 593.871094 C 482.820312 594.140625 483.339844 594.386719 483.867188 594.605469 C 484.398438 594.824219 484.941406 595.019531 485.488281 595.1875 C 486.039062 595.351562 486.597656 595.492188 487.160156 595.605469 C 487.722656 595.714844 488.292969 595.800781 488.863281 595.855469 C 489.433594 595.914062 490.007812 595.941406 490.582031 595.941406 L 680.917969 595.941406 C 681.492188 595.941406 682.066406 595.914062 682.636719 595.855469 C 683.210938 595.800781 683.777344 595.714844 684.339844 595.605469 C 684.902344 595.492188 685.460938 595.351562 686.011719 595.1875 C 686.558594 595.019531 687.101562 594.824219 687.632812 594.605469 C 688.160156 594.386719 688.679688 594.140625 689.1875 593.871094 C 689.695312 593.597656 690.1875 593.304688 690.664062 592.984375 C 691.140625 592.664062 691.601562 592.324219 692.046875 591.960938 C 692.492188 591.59375 692.917969 591.210938 693.324219 590.804688 C 693.730469 590.398438 694.113281 589.972656 694.480469 589.527344 C 694.84375 589.082031 695.183594 588.621094 695.503906 588.144531 C 695.824219 587.667969 696.117188 587.175781 696.390625 586.667969 C 696.660156 586.160156 696.90625 585.644531 697.125 585.113281 C 697.34375 584.582031 697.539062 584.039062 697.707031 583.492188 C 697.871094 582.941406 698.011719 582.382812 698.125 581.820312 C 698.234375 581.257812 698.320312 580.691406 698.375 580.117188 C 698.433594 579.546875 698.460938 578.972656 698.460938 578.398438 L 698.460938 451.917969 C 698.460938 451.34375 698.488281 450.769531 698.546875 450.199219 C 698.601562 449.625 698.683594 449.058594 698.796875 448.496094 C 698.910156 447.933594 699.050781 447.375 699.214844 446.824219 C 699.382812 446.277344 699.574219 445.734375 699.796875 445.203125 C 700.015625 444.671875 700.261719 444.15625 700.53125 443.648438 C 700.804688 443.140625 701.097656 442.648438 701.417969 442.171875 C 701.734375 441.695312 702.078125 441.234375 702.441406 440.789062 C 702.808594 440.34375 703.191406 439.917969 703.597656 439.511719 C 704.003906 439.105469 704.429688 438.722656 704.875 438.355469 C 705.316406 437.992188 705.777344 437.652344 706.257812 437.332031 C 706.734375 437.011719 707.226562 436.71875 707.734375 436.445312 C 708.242188 436.175781 708.757812 435.929688 709.289062 435.710938 C 709.820312 435.492188 710.359375 435.296875 710.910156 435.128906 C 711.460938 434.964844 712.015625 434.824219 712.582031 434.710938 C 713.144531 434.601562 713.710938 434.515625 714.285156 434.460938 C 714.855469 434.402344 715.429688 434.375 716.003906 434.375 L 850.027344 434.375 C 850.601562 434.375 851.175781 434.347656 851.746094 434.289062 C 852.320312 434.234375 852.886719 434.148438 853.449219 434.039062 C 854.011719 433.925781 854.570312 433.785156 855.121094 433.621094 C 855.667969 433.453125 856.210938 433.261719 856.742188 433.039062 C 857.269531 432.820312 857.789062 432.574219 858.296875 432.304688 C 858.804688 432.03125 859.296875 431.738281 859.773438 431.417969 C 860.25 431.101562 860.710938 430.757812 861.15625 430.394531 C 861.601562 430.027344 862.027344 429.644531 862.433594 429.238281 C 862.839844 428.832031 863.222656 428.40625 863.589844 427.960938 C 863.953125 427.515625 864.292969 427.054688 864.613281 426.578125 C 864.933594 426.101562 865.226562 425.609375 865.5 425.101562 C 865.769531 424.59375 866.015625 424.078125 866.234375 423.546875 C 866.453125 423.015625 866.648438 422.476562 866.816406 421.925781 C 866.980469 421.375 867.121094 420.820312 867.234375 420.253906 C 867.34375 419.691406 867.429688 419.125 867.484375 418.550781 C 867.542969 417.980469 867.570312 417.40625 867.570312 416.832031 L 867.570312 182.992188 C 867.570312 182.417969 867.542969 181.84375 867.484375 181.273438 C 867.429688 180.699219 867.34375 180.132812 867.234375 179.570312 C 867.121094 179.007812 866.980469 178.449219 866.816406 177.898438 C 866.648438 177.351562 866.453125 176.808594 866.234375 176.277344 C 866.015625 175.746094 865.769531 175.230469 865.5 174.722656 C 865.226562 174.214844 864.933594 173.722656 864.613281 173.246094 C 864.292969 172.769531 863.953125 172.308594 863.585938 171.863281 C 863.222656 171.417969 862.839844 170.992188 862.433594 170.585938 C 862.027344 170.179688 861.601562 169.796875 861.15625 169.429688 C 860.710938 169.066406 860.25 168.726562 859.773438 168.40625 C 859.296875 168.085938 858.804688 167.792969 858.296875 167.519531 C 857.789062 167.25 857.269531 167.003906 856.742188 166.785156 C 856.210938 166.566406 855.667969 166.371094 855.121094 166.203125 C 854.570312 166.039062 854.011719 165.898438 853.449219 165.785156 C 852.886719 165.675781 852.320312 165.589844 851.746094 165.535156 C 851.175781 165.476562 850.601562 165.449219 850.027344 165.449219 L 716.003906 165.449219 C 715.429688 165.449219 714.855469 165.421875 714.285156 165.363281 C 713.710938 165.308594 713.144531 165.222656 712.582031 165.113281 C 712.015625 165 711.460938 164.859375 710.910156 164.695312 C 710.359375 164.527344 709.820312 164.332031 709.289062 164.113281 C 708.757812 163.894531 708.238281 163.648438 707.734375 163.378906 C 707.226562 163.105469 706.734375 162.8125 706.257812 162.492188 C 705.777344 162.171875 705.316406 161.832031 704.875 161.46875 C 704.429688 161.101562 704.003906 160.71875 703.597656 160.3125 C 703.191406 159.90625 702.808594 159.480469 702.441406 159.035156 C 702.078125 158.589844 701.734375 158.128906 701.417969 157.652344 C 701.097656 157.175781 700.800781 156.683594 700.53125 156.175781 C 700.261719 155.667969 700.015625 155.152344 699.796875 154.621094 C 699.574219 154.089844 699.382812 153.550781 699.214844 153 C 699.050781 152.449219 698.910156 151.894531 698.796875 151.328125 C 698.683594 150.765625 698.601562 150.199219 698.546875 149.625 C 698.488281 149.054688 698.460938 148.480469 698.460938 147.90625 L 698.460938 21.601562 C 698.460938 21.027344 698.433594 20.453125 698.375 19.882812 C 698.320312 19.308594 698.234375 18.742188 698.125 18.179688 C 698.011719 17.617188 697.871094 17.058594 697.707031 16.507812 C 697.539062 15.960938 697.34375 15.417969 697.125 14.886719 C 696.90625 14.355469 696.660156 13.839844 696.390625 13.332031 C 696.117188 12.824219 695.824219 12.332031 695.503906 11.855469 C 695.183594 11.378906 694.84375 10.917969 694.480469 10.472656 C 694.113281 10.027344 693.730469 9.601562 693.324219 9.195312 C 692.917969 8.789062 692.492188 8.40625 692.046875 8.039062 C 691.601562 7.675781 691.140625 7.335938 690.664062 7.015625 C 690.1875 6.695312 689.695312 6.402344 689.1875 6.128906 C 688.679688 5.859375 688.160156 5.613281 687.632812 5.394531 C 687.101562 5.175781 686.558594 4.980469 686.011719 4.8125 C 685.460938 4.648438 684.902344 4.507812 684.339844 4.394531 C 683.777344 4.285156 683.210938 4.199219 682.636719 4.144531 C 682.066406 4.085938 681.492188 4.058594 680.917969 4.058594 L 490.582031 4.058594 C 490.007812 4.058594 489.433594 4.085938 488.863281 4.144531 C 488.292969 4.199219 487.722656 4.285156 487.160156 4.394531 C 486.597656 4.507812 486.039062 4.648438 485.488281 4.8125 C 484.941406 4.980469 484.398438 5.175781 483.867188 5.394531 C 483.339844 5.613281 482.820312 5.859375 482.3125 6.128906 C 481.804688 6.402344 481.3125 6.695312 480.835938 7.015625 C 480.359375 7.335938 479.898438 7.675781 479.453125 8.039062 C 479.007812 8.40625 478.585938 8.789062 478.179688 9.195312 C 477.773438 9.601562 477.386719 10.027344 477.023438 10.472656 C 476.65625 10.917969 476.316406 11.378906 475.996094 11.855469 C 475.675781 12.332031 475.382812 12.824219 475.109375 13.332031 C 474.839844 13.839844 474.59375 14.355469 474.375 14.886719 C 474.15625 15.417969 473.960938 15.960938 473.796875 16.507812 C 473.628906 17.058594 473.488281 17.617188 473.378906 18.179688 C 473.265625 18.742188 473.179688 19.308594 473.125 19.882812 C 473.066406 20.453125 473.039062 21.027344 473.039062 21.601562 L 473.039062 147.90625 C 473.039062 148.480469 473.011719 149.054688 472.957031 149.625 C 472.898438 150.199219 472.816406 150.765625 472.703125 151.328125 C 472.589844 151.894531 472.453125 152.449219 472.285156 153 C 472.117188 153.550781 471.925781 154.089844 471.703125 154.621094 C 471.484375 155.152344 471.238281 155.667969 470.96875 156.175781 C 470.699219 156.683594 470.402344 157.175781 470.082031 157.652344 C 469.765625 158.128906 469.421875 158.589844 469.058594 159.035156 C 468.695312 159.480469 468.308594 159.90625 467.902344 160.3125 C 467.496094 160.71875 467.070312 161.101562 466.625 161.46875 C 466.183594 161.832031 465.722656 162.171875 465.242188 162.492188 C 464.765625 162.8125 464.273438 163.105469 463.765625 163.378906 C 463.261719 163.648438 462.742188 163.894531 462.210938 164.113281 C 461.679688 164.332031 461.140625 164.527344 460.589844 164.695312 C 460.039062 164.859375 459.484375 165 458.917969 165.113281 C 458.355469 165.222656 457.789062 165.308594 457.21875 165.363281 C 456.644531 165.421875 456.070312 165.449219 455.496094 165.449219 Z M 321.472656 165.449219 " fill-opacity="1" fill-rule="evenodd"/></g></svg>