<svg xmlns="http://www.w3.org/2000/svg" xmlns:xlink="http://www.w3.org/1999/xlink" width="1563" zoomAndPan="magnify" viewBox="0 0 1172.25 599.999999" height="800" preserveAspectRatio="xMidYMid meet" version="1.0"><defs><clipPath id="f1d586550c"><path d="M 473.023438 181 L 698.628906 181 L 698.628906 419 L 473.023438 419 Z M 473.023438 181 " clip-rule="nonzero"/></clipPath></defs><g clip-path="url(#f1d586550c)"><path fill="#5b271e" d="M 480.039062 246.179688 C 479.578125 246.179688 479.121094 246.226562 478.671875 246.316406 C 478.21875 246.40625 477.78125 246.539062 477.355469 246.714844 C 476.929688 246.890625 476.523438 247.105469 476.140625 247.363281 C 475.757812 247.617188 475.402344 247.910156 475.078125 248.234375 C 474.75 248.5625 474.460938 248.914062 474.203125 249.296875 C 473.949219 249.683594 473.734375 250.085938 473.554688 250.511719 C 473.378906 250.9375 473.246094 251.375 473.15625 251.828125 C 473.066406 252.28125 473.023438 252.738281 473.023438 253.195312 L 473.023438 346.734375 C 473.023438 347.195312 473.066406 347.648438 473.15625 348.101562 C 473.246094 348.554688 473.378906 348.992188 473.554688 349.417969 C 473.734375 349.84375 473.949219 350.246094 474.203125 350.632812 C 474.460938 351.015625 474.75 351.367188 475.078125 351.695312 C 475.402344 352.019531 475.757812 352.3125 476.140625 352.566406 C 476.523438 352.824219 476.929688 353.039062 477.355469 353.214844 C 477.78125 353.390625 478.21875 353.523438 478.671875 353.613281 C 479.121094 353.703125 479.578125 353.75 480.039062 353.75 L 533.648438 353.75 C 534.109375 353.75 534.566406 353.792969 535.015625 353.882812 C 535.46875 353.972656 535.90625 354.105469 536.332031 354.285156 C 536.757812 354.460938 537.164062 354.675781 537.546875 354.933594 C 537.929688 355.1875 538.285156 355.480469 538.609375 355.804688 C 538.9375 356.128906 539.226562 356.484375 539.484375 356.867188 C 539.738281 357.25 539.953125 357.65625 540.132812 358.082031 C 540.308594 358.507812 540.441406 358.945312 540.53125 359.398438 C 540.621094 359.847656 540.664062 360.304688 540.664062 360.765625 L 540.664062 411.359375 C 540.664062 411.820312 540.710938 412.277344 540.800781 412.726562 C 540.890625 413.179688 541.023438 413.617188 541.199219 414.042969 C 541.375 414.46875 541.59375 414.875 541.847656 415.257812 C 542.105469 415.640625 542.394531 415.996094 542.71875 416.320312 C 543.046875 416.644531 543.402344 416.9375 543.785156 417.191406 C 544.167969 417.449219 544.570312 417.664062 544.996094 417.839844 C 545.421875 418.015625 545.863281 418.152344 546.3125 418.242188 C 546.765625 418.332031 547.222656 418.375 547.683594 418.375 L 623.816406 418.375 C 624.277344 418.375 624.734375 418.332031 625.183594 418.242188 C 625.636719 418.152344 626.074219 418.015625 626.5 417.839844 C 626.925781 417.664062 627.332031 417.449219 627.714844 417.191406 C 628.097656 416.9375 628.453125 416.644531 628.777344 416.320312 C 629.101562 415.996094 629.394531 415.640625 629.648438 415.257812 C 629.90625 414.875 630.121094 414.46875 630.296875 414.042969 C 630.476562 413.617188 630.609375 413.179688 630.699219 412.726562 C 630.789062 412.277344 630.832031 411.820312 630.832031 411.359375 L 630.832031 360.765625 C 630.832031 360.304688 630.878906 359.847656 630.96875 359.398438 C 631.058594 358.945312 631.191406 358.507812 631.367188 358.082031 C 631.542969 357.65625 631.757812 357.25 632.015625 356.867188 C 632.269531 356.484375 632.5625 356.128906 632.886719 355.804688 C 633.214844 355.480469 633.566406 355.1875 633.953125 354.933594 C 634.335938 354.675781 634.738281 354.460938 635.164062 354.285156 C 635.589844 354.105469 636.027344 353.972656 636.480469 353.882812 C 636.933594 353.792969 637.390625 353.75 637.847656 353.75 L 691.457031 353.75 C 691.917969 353.75 692.375 353.703125 692.828125 353.613281 C 693.28125 353.523438 693.71875 353.390625 694.144531 353.214844 C 694.570312 353.039062 694.972656 352.824219 695.355469 352.566406 C 695.742188 352.3125 696.09375 352.019531 696.421875 351.695312 C 696.746094 351.367188 697.039062 351.015625 697.292969 350.632812 C 697.550781 350.246094 697.765625 349.84375 697.941406 349.417969 C 698.117188 348.992188 698.25 348.554688 698.339844 348.101562 C 698.429688 347.648438 698.476562 347.195312 698.476562 346.734375 L 698.476562 253.195312 C 698.476562 252.738281 698.429688 252.28125 698.339844 251.828125 C 698.25 251.375 698.117188 250.9375 697.941406 250.511719 C 697.765625 250.085938 697.550781 249.683594 697.292969 249.296875 C 697.039062 248.914062 696.746094 248.5625 696.421875 248.234375 C 696.09375 247.910156 695.742188 247.617188 695.355469 247.363281 C 694.972656 247.105469 694.570312 246.890625 694.144531 246.714844 C 693.71875 246.539062 693.28125 246.40625 692.828125 246.316406 C 692.375 246.226562 691.917969 246.179688 691.457031 246.179688 L 637.847656 246.179688 C 637.390625 246.179688 636.933594 246.136719 636.480469 246.046875 C 636.027344 245.957031 635.589844 245.824219 635.164062 245.644531 C 634.738281 245.46875 634.335938 245.253906 633.953125 244.996094 C 633.566406 244.742188 633.214844 244.449219 632.886719 244.125 C 632.5625 243.800781 632.269531 243.445312 632.015625 243.0625 C 631.757812 242.679688 631.542969 242.273438 631.367188 241.847656 C 631.191406 241.421875 631.058594 240.984375 630.96875 240.53125 C 630.878906 240.082031 630.832031 239.625 630.832031 239.164062 L 630.832031 188.640625 C 630.832031 188.179688 630.789062 187.722656 630.699219 187.273438 C 630.609375 186.820312 630.476562 186.382812 630.296875 185.957031 C 630.121094 185.53125 629.90625 185.125 629.648438 184.742188 C 629.394531 184.359375 629.101562 184.003906 628.777344 183.679688 C 628.453125 183.355469 628.097656 183.0625 627.714844 182.808594 C 627.332031 182.550781 626.925781 182.335938 626.5 182.160156 C 626.074219 181.984375 625.636719 181.847656 625.183594 181.757812 C 624.734375 181.667969 624.277344 181.625 623.816406 181.625 L 547.683594 181.625 C 547.222656 181.625 546.765625 181.667969 546.3125 181.757812 C 545.863281 181.847656 545.421875 181.984375 544.996094 182.160156 C 544.570312 182.335938 544.167969 182.550781 543.785156 182.808594 C 543.402344 183.0625 543.046875 183.355469 542.71875 183.679688 C 542.394531 184.003906 542.105469 184.359375 541.847656 184.742188 C 541.59375 185.125 541.375 185.53125 541.199219 185.957031 C 541.023438 186.382812 540.890625 186.820312 540.800781 187.273438 C 540.710938 187.722656 540.664062 188.179688 540.664062 188.640625 L 540.664062 239.164062 C 540.664062 239.625 540.621094 240.082031 540.53125 240.53125 C 540.441406 240.984375 540.308594 241.421875 540.132812 241.847656 C 539.953125 242.273438 539.738281 242.679688 539.484375 243.0625 C 539.226562 243.445312 538.9375 243.800781 538.609375 244.125 C 538.285156 244.449219 537.929688 244.742188 537.546875 244.996094 C 537.164062 245.253906 536.757812 245.46875 536.332031 245.644531 C 535.90625 245.824219 535.46875 245.957031 535.015625 246.046875 C 534.566406 246.136719 534.109375 246.179688 533.648438 246.179688 Z M 480.039062 246.179688 " fill-opacity="1" fill-rule="evenodd"/></g></svg>