<svg xmlns="http://www.w3.org/2000/svg" xmlns:xlink="http://www.w3.org/1999/xlink" width="3000" zoomAndPan="magnify" viewBox="0 0 2250 599.999999" height="800" preserveAspectRatio="xMidYMid meet" version="1.0"><defs><g/><clipPath id="9879838d56"><path d="M 1577.265625 188.335938 L 2250 188.335938 L 2250 411.664062 L 1577.265625 411.664062 Z M 1577.265625 188.335938 " clip-rule="nonzero"/></clipPath><clipPath id="d6eca66376"><path d="M 2144.230469 188.335938 L 1688.929688 188.335938 L 1577.265625 300 L 1688.929688 411.664062 L 2144.230469 411.664062 L 2255.894531 300 Z M 2144.230469 188.335938 " clip-rule="nonzero"/></clipPath></defs><g fill="#ffffff" fill-opacity="1"><g transform="translate(-9.735662, 390.254939)"><g><path d="M 117.984375 -211.6875 C 120.035156 -211.894531 122.335938 -212.050781 124.890625 -212.15625 C 127.453125 -212.257812 130.171875 -212.207031 133.046875 -212 C 138.773438 -212 144.609375 -211.742188 150.546875 -211.234375 C 156.492188 -210.722656 162.234375 -209.957031 167.765625 -208.9375 C 172.671875 -207.5 176.046875 -204.21875 177.890625 -199.09375 C 178.304688 -198.070312 178.71875 -197.253906 179.125 -196.640625 C 179.53125 -196.023438 179.941406 -195.410156 180.359375 -194.796875 C 182.398438 -192.128906 183.929688 -189.769531 184.953125 -187.71875 C 185.984375 -185.675781 186.703125 -183.628906 187.109375 -181.578125 C 187.523438 -179.734375 187.523438 -177.738281 187.109375 -175.59375 C 186.703125 -173.445312 185.988281 -171.144531 184.96875 -168.6875 C 184.144531 -166.84375 183.21875 -165.5625 182.1875 -164.84375 C 181.164062 -164.125 178.503906 -162.945312 174.203125 -161.3125 C 169.085938 -159.46875 165.40625 -158.953125 163.15625 -159.765625 C 162.738281 -159.972656 162.273438 -160.023438 161.765625 -159.921875 C 161.253906 -159.816406 160.691406 -159.765625 160.078125 -159.765625 C 158.640625 -159.566406 157.820312 -159.566406 157.625 -159.765625 C 157.414062 -159.765625 156.441406 -159.816406 154.703125 -159.921875 C 152.960938 -160.023438 150.347656 -160.179688 146.859375 -160.390625 C 141.128906 -160.585938 135.035156 -160.53125 128.578125 -160.21875 C 122.128906 -159.914062 115.21875 -159.457031 107.84375 -158.84375 C 104.976562 -158.4375 101.90625 -157.925781 98.625 -157.3125 C 95.351562 -156.695312 91.972656 -156.082031 88.484375 -155.46875 C 80.910156 -154.03125 77.125 -152.90625 77.125 -152.09375 C 77.125 -151.476562 76.816406 -148.097656 76.203125 -141.953125 C 75.992188 -139.691406 75.835938 -137.128906 75.734375 -134.265625 C 75.628906 -131.398438 75.476562 -128.125 75.28125 -124.4375 C 74.863281 -117.269531 74.757812 -113.582031 74.96875 -113.375 L 75.28125 -113.375 C 75.894531 -113.375 76.914062 -113.523438 78.34375 -113.828125 C 79.78125 -114.140625 81.726562 -114.5 84.1875 -114.90625 C 88.894531 -115.726562 93.5 -116.5 98 -117.21875 C 102.507812 -117.9375 107.429688 -118.601562 112.765625 -119.21875 C 115.222656 -119.625 118.394531 -119.878906 122.28125 -119.984375 C 126.175781 -120.085938 130.785156 -120.035156 136.109375 -119.828125 C 141.429688 -119.617188 145.988281 -119.410156 149.78125 -119.203125 C 153.570312 -119.003906 156.695312 -118.703125 159.15625 -118.296875 C 161.820312 -117.878906 163.921875 -117.109375 165.453125 -115.984375 C 166.992188 -114.859375 168.171875 -113.578125 168.984375 -112.140625 C 169.398438 -111.523438 169.757812 -110.910156 170.0625 -110.296875 C 170.375 -109.679688 170.734375 -108.96875 171.140625 -108.15625 C 171.546875 -107.125 172.363281 -105.582031 173.59375 -103.53125 C 174.820312 -101.488281 176.050781 -98.832031 177.28125 -95.5625 C 178.71875 -92.894531 179.4375 -91.050781 179.4375 -90.03125 C 179.4375 -89.207031 179.28125 -88.023438 178.96875 -86.484375 C 178.664062 -84.953125 178.253906 -83.316406 177.734375 -81.578125 C 177.222656 -79.835938 176.660156 -78.25 176.046875 -76.8125 C 175.429688 -75.375 174.816406 -74.347656 174.203125 -73.734375 C 172.566406 -72.503906 170.671875 -71.734375 168.515625 -71.421875 C 166.367188 -71.117188 164.273438 -70.96875 162.234375 -70.96875 C 161.816406 -70.769531 161.40625 -70.617188 161 -70.515625 C 160.59375 -70.410156 159.875 -70.253906 158.84375 -70.046875 C 157.820312 -69.847656 156.898438 -69.644531 156.078125 -69.4375 C 155.265625 -69.226562 154.648438 -69.023438 154.234375 -68.828125 C 153.828125 -68.617188 153.265625 -68.410156 152.546875 -68.203125 C 151.828125 -68.003906 151.160156 -67.800781 150.546875 -67.59375 C 148.703125 -67.1875 147.679688 -66.878906 147.484375 -66.671875 C 147.273438 -66.460938 146.554688 -66.15625 145.328125 -65.75 C 144.921875 -65.957031 144.71875 -66.0625 144.71875 -66.0625 L 144.40625 -66.0625 L 145.015625 -66.671875 C 144.816406 -66.878906 144.101562 -66.675781 142.875 -66.0625 C 141.84375 -65.644531 141.226562 -65.847656 141.03125 -66.671875 C 140.820312 -68.722656 136.722656 -69.75 128.734375 -69.75 C 120.546875 -69.75 113.992188 -68.722656 109.078125 -66.671875 L 106 -65.75 C 106 -65.957031 106.664062 -66.46875 108 -67.28125 C 109.332031 -68.101562 110.304688 -68.820312 110.921875 -69.4375 C 111.117188 -69.644531 111.578125 -70.054688 112.296875 -70.671875 C 113.015625 -71.285156 113.476562 -71.691406 113.6875 -71.890625 C 114.707031 -73.117188 114.910156 -73.632812 114.296875 -73.4375 C 114.085938 -73.4375 113.570312 -73.382812 112.75 -73.28125 C 111.9375 -73.175781 110.8125 -73.019531 109.375 -72.8125 C 103.4375 -71.789062 99.035156 -71.175781 96.171875 -70.96875 C 90.023438 -70.351562 85.257812 -69.582031 81.875 -68.65625 C 78.5 -67.738281 76.503906 -66.972656 75.890625 -66.359375 C 75.273438 -65.742188 74.863281 -58.066406 74.65625 -43.328125 C 74.457031 -31.035156 74.253906 -21.914062 74.046875 -15.96875 C 73.835938 -10.03125 73.632812 -6.859375 73.4375 -6.453125 C 73.4375 -6.453125 73.226562 -3.890625 72.8125 1.234375 C 72.613281 4.710938 72.410156 7.578125 72.203125 9.828125 C 71.992188 12.085938 71.425781 14.035156 70.5 15.671875 C 69.582031 17.304688 68.203125 18.6875 66.359375 19.8125 C 64.515625 20.9375 61.957031 22.113281 58.6875 23.34375 C 54.382812 24.78125 51.109375 25.5 48.859375 25.5 C 46.597656 25.5 44.035156 24.78125 41.171875 23.34375 C 37.691406 22.320312 35.953125 21.8125 35.953125 21.8125 C 35.535156 21.8125 33.382812 20.070312 29.5 16.59375 C 24.582031 11.675781 21.609375 6.960938 20.578125 2.453125 C 20.171875 0.609375 20.171875 -5.84375 20.578125 -16.90625 C 22.015625 -41.28125 23.039062 -63.398438 23.65625 -83.265625 C 24.269531 -103.128906 24.578125 -121.050781 24.578125 -137.03125 L 24.890625 -154.546875 L 22.421875 -157.3125 C 20.171875 -159.769531 18.535156 -162.585938 17.515625 -165.765625 C 16.492188 -168.941406 15.265625 -174.007812 13.828125 -180.96875 C 13.210938 -184.25 12.851562 -187.164062 12.75 -189.71875 C 12.644531 -192.28125 13.003906 -194.382812 13.828125 -196.03125 C 15.054688 -199.507812 16.59375 -201.046875 18.4375 -200.640625 C 19.25 -200.429688 19.554688 -200.738281 19.359375 -201.5625 C 19.359375 -202.582031 19.457031 -203.09375 19.65625 -203.09375 C 20.269531 -203.09375 21.5 -202.679688 23.34375 -201.859375 C 26.414062 -201.046875 31.4375 -200.738281 38.40625 -200.9375 C 41.882812 -201.351562 46.898438 -202.019531 53.453125 -202.9375 C 60.015625 -203.863281 68.109375 -205.144531 77.734375 -206.78125 C 84.285156 -207.800781 90.941406 -208.722656 97.703125 -209.546875 C 104.460938 -210.367188 111.222656 -211.082031 117.984375 -211.6875 Z M 117.984375 -211.6875 "/></g></g></g><g fill="#ffffff" fill-opacity="1"><g transform="translate(176.439044, 390.254939)"><g><path d="M 117.375 -128.4375 C 116.550781 -130.476562 115.9375 -131.5 115.53125 -131.5 C 113.882812 -131.5 110.8125 -124.332031 106.3125 -110 C 99.75 -89.507812 96.570312 -79.164062 96.78125 -78.96875 C 96.988281 -78.757812 100.472656 -79.066406 107.234375 -79.890625 C 109.890625 -80.296875 112.648438 -80.703125 115.515625 -81.109375 C 118.390625 -81.523438 121.46875 -81.9375 124.75 -82.34375 C 127.207031 -82.75 129.050781 -83.054688 130.28125 -83.265625 C 131.507812 -83.472656 132.222656 -83.578125 132.421875 -83.578125 C 133.035156 -83.773438 130.988281 -90.835938 126.28125 -104.765625 C 121.769531 -117.671875 118.800781 -125.5625 117.375 -128.4375 Z M 82.953125 -210.78125 C 85.828125 -211.382812 90.128906 -211.382812 95.859375 -210.78125 C 101.796875 -210.164062 106.8125 -209.597656 110.90625 -209.078125 C 115.007812 -208.566406 118.085938 -208.109375 120.140625 -207.703125 C 124.441406 -207.085938 130.992188 -205.242188 139.796875 -202.171875 C 147.992188 -200.117188 153.523438 -197.457031 156.390625 -194.1875 C 158.234375 -192.539062 160.585938 -187.828125 163.453125 -180.046875 C 164.890625 -176.148438 166.835938 -170.515625 169.296875 -163.140625 C 171.753906 -155.773438 174.828125 -146.457031 178.515625 -135.1875 C 181.378906 -126.582031 183.679688 -119.617188 185.421875 -114.296875 C 187.160156 -108.972656 188.546875 -104.976562 189.578125 -102.3125 C 190.597656 -99.03125 191.566406 -96.160156 192.484375 -93.703125 C 193.410156 -91.253906 194.179688 -89.003906 194.796875 -86.953125 C 195.816406 -84.492188 196.6875 -82.289062 197.40625 -80.34375 C 198.125 -78.394531 198.6875 -76.707031 199.09375 -75.28125 C 201.757812 -68.71875 204.269531 -62.109375 206.625 -55.453125 C 208.976562 -48.796875 211.179688 -41.78125 213.234375 -34.40625 C 215.484375 -26.832031 217.222656 -20.640625 218.453125 -15.828125 C 219.679688 -11.015625 220.601562 -6.351562 221.21875 -1.84375 C 222.039062 3.476562 222.601562 7.625 222.90625 10.59375 C 223.21875 13.570312 223.472656 15.878906 223.671875 17.515625 C 223.878906 19.359375 223.984375 20.585938 223.984375 21.203125 C 223.578125 21.203125 222.601562 21.863281 221.0625 23.1875 C 219.53125 24.519531 218.25 25.1875 217.21875 25.1875 C 216.40625 25.1875 215.484375 25.492188 214.453125 26.109375 C 213.640625 26.722656 206.984375 27.132812 194.484375 27.34375 L 175.4375 27.34375 L 172.671875 25.8125 C 171.035156 25.195312 169.09375 23.757812 166.84375 21.5 C 165.613281 20.269531 164.738281 19.296875 164.21875 18.578125 C 163.707031 17.867188 163.398438 17.359375 163.296875 17.046875 C 163.203125 16.742188 163.203125 16.488281 163.296875 16.28125 C 163.398438 16.082031 163.25 15.878906 162.84375 15.671875 C 162.226562 15.054688 161.921875 14.546875 161.921875 14.140625 C 161.921875 13.722656 160.691406 12.390625 158.234375 10.140625 C 155.984375 7.890625 154.445312 6.148438 153.625 4.921875 C 153.414062 4.503906 153.207031 3.988281 153 3.375 C 152.800781 2.757812 152.394531 1.941406 151.78125 0.921875 C 150.144531 -1.328125 150.347656 -2.144531 152.390625 -1.53125 C 153.210938 -1.53125 153.726562 -2.046875 153.9375 -3.078125 C 154.132812 -4.503906 154.539062 -4.8125 155.15625 -4 C 155.570312 -3.582031 155.78125 -3.785156 155.78125 -4.609375 L 155.78125 -8.609375 C 155.363281 -12.703125 154.59375 -16.847656 153.46875 -21.046875 C 152.34375 -25.242188 150.65625 -30.617188 148.40625 -37.171875 L 146.859375 -41.484375 L 142.5625 -41.171875 C 138.664062 -40.765625 133.75 -39.992188 127.8125 -38.859375 C 121.875 -37.734375 114.804688 -36.148438 106.609375 -34.109375 C 104.972656 -33.691406 103.488281 -33.328125 102.15625 -33.015625 C 100.820312 -32.710938 99.644531 -32.359375 98.625 -31.953125 C 97.800781 -31.742188 96.414062 -31.4375 94.46875 -31.03125 C 92.53125 -30.625 89.921875 -29.90625 86.640625 -28.875 C 80.492188 -27.238281 77.113281 -26.113281 76.5 -25.5 C 75.6875 -24.675781 74.457031 -22.117188 72.8125 -17.828125 C 70.5625 -12.085938 68.15625 -6.859375 65.59375 -2.140625 C 63.03125 2.566406 60.113281 7.273438 56.84375 11.984375 C 55 14.441406 54.078125 15.976562 54.078125 16.59375 C 54.078125 16.800781 53.15625 17.820312 51.3125 19.65625 L 48.546875 22.734375 L 43.015625 22.421875 C 39.734375 22.222656 37.582031 21.816406 36.5625 21.203125 C 36.15625 20.992188 34.617188 21.503906 31.953125 22.734375 C 28.054688 24.578125 25.90625 24.882812 25.5 23.65625 C 25.289062 23.25 24.722656 22.738281 23.796875 22.125 C 22.878906 21.507812 21.398438 20.992188 19.359375 20.578125 C 18.742188 20.378906 18.4375 19.867188 18.4375 19.046875 C 18.4375 18.234375 18.128906 17.828125 17.515625 17.828125 C 16.691406 17.828125 15.359375 16.695312 13.515625 14.4375 C 11.671875 12.1875 10.648438 10.445312 10.453125 9.21875 C 10.453125 7.78125 10.039062 6.65625 9.21875 5.84375 C 7.78125 4.195312 7.367188 -1.234375 7.984375 -10.453125 C 8.398438 -13.722656 8.609375 -15.359375 8.609375 -15.359375 C 9.015625 -16.585938 9.320312 -17.71875 9.53125 -18.75 C 10.34375 -21 11.363281 -23.046875 12.59375 -24.890625 C 14.03125 -27.140625 14.898438 -28.828125 15.203125 -29.953125 C 15.515625 -31.078125 16.179688 -32.359375 17.203125 -33.796875 C 18.234375 -35.023438 19.359375 -36.765625 20.578125 -39.015625 C 21.804688 -41.273438 23.242188 -44.25 24.890625 -47.9375 C 25.910156 -50.800781 26.726562 -53 27.34375 -54.53125 C 27.957031 -56.070312 28.367188 -57.148438 28.578125 -57.765625 C 28.578125 -58.578125 28.882812 -59.703125 29.5 -61.140625 C 31.75 -66.265625 35.128906 -75.378906 39.640625 -88.484375 C 41.066406 -92.585938 42.238281 -96.019531 43.15625 -98.78125 C 44.082031 -101.539062 44.851562 -103.742188 45.46875 -105.390625 C 48.539062 -114.191406 51.613281 -123.253906 54.6875 -132.578125 C 57.757812 -141.898438 60.726562 -151.578125 63.59375 -161.609375 C 69.738281 -181.890625 72.300781 -193.976562 71.28125 -197.875 C 71.070312 -198.894531 70.660156 -199.710938 70.046875 -200.328125 C 69.234375 -200.941406 69.644531 -201.863281 71.28125 -203.09375 C 72.507812 -203.914062 72.914062 -204.582031 72.5 -205.09375 C 72.09375 -205.601562 72.710938 -206.367188 74.359375 -207.390625 C 77.429688 -209.234375 80.296875 -210.363281 82.953125 -210.78125 Z M 82.953125 -210.78125 "/></g></g></g><g fill="#ffffff" fill-opacity="1"><g transform="translate(398.251305, 390.254939)"><g><path d="M 55.609375 -211.390625 C 59.296875 -211.390625 62.421875 -211.285156 64.984375 -211.078125 C 67.546875 -210.878906 69.335938 -210.570312 70.359375 -210.15625 C 71.992188 -209.75 73.835938 -208.722656 75.890625 -207.078125 C 77.941406 -205.441406 79.273438 -204.007812 79.890625 -202.78125 C 80.910156 -201.144531 81.625 -198.378906 82.03125 -194.484375 C 82.238281 -192.847656 82.289062 -190.285156 82.1875 -186.796875 C 82.082031 -183.316406 81.828125 -178.914062 81.421875 -173.59375 C 81.015625 -169.5 80.757812 -161.457031 80.65625 -149.46875 C 80.550781 -137.488281 80.394531 -121.359375 80.1875 -101.078125 C 79.988281 -79.984375 79.890625 -64.007812 79.890625 -53.15625 C 79.890625 -42.300781 79.785156 -36.359375 79.578125 -35.328125 C 79.367188 -33.078125 79.265625 -30.820312 79.265625 -28.5625 C 79.265625 -26.3125 79.164062 -24.0625 78.96875 -21.8125 C 78.757812 -16.488281 78.5 -11.878906 78.1875 -7.984375 C 77.882812 -4.097656 77.320312 -0.925781 76.5 1.53125 C 76.300781 3.175781 75.429688 5.070312 73.890625 7.21875 C 72.359375 9.375 70.515625 11.472656 68.359375 13.515625 C 66.210938 15.566406 63.957031 17.410156 61.59375 19.046875 C 59.238281 20.679688 57.144531 21.601562 55.3125 21.8125 C 53.664062 21.8125 52.484375 22.015625 51.765625 22.421875 C 51.054688 22.835938 49.472656 23.144531 47.015625 23.34375 C 44.347656 23.757812 42.191406 23.503906 40.546875 22.578125 C 38.910156 21.660156 36.765625 19.769531 34.109375 16.90625 C 32.265625 14.644531 30.625 12.847656 29.1875 11.515625 C 27.75 10.191406 26.519531 9.222656 25.5 8.609375 C 22.632812 6.765625 20.894531 4.304688 20.28125 1.234375 C 19.664062 -1.640625 19.359375 -10.140625 19.359375 -24.265625 C 19.359375 -31.847656 19.359375 -37.738281 19.359375 -41.9375 C 19.359375 -46.132812 19.457031 -48.539062 19.65625 -49.15625 C 19.863281 -49.570312 19.96875 -52.695312 19.96875 -58.53125 C 19.96875 -64.363281 20.070312 -73.019531 20.28125 -84.5 C 20.894531 -143.28125 19.359375 -179.125 15.671875 -192.03125 C 15.460938 -193.050781 14.234375 -194.789062 11.984375 -197.25 C 10.140625 -199.507812 9.320312 -200.84375 9.53125 -201.25 C 9.726562 -201.457031 9.976562 -201.710938 10.28125 -202.015625 C 10.59375 -202.328125 11.160156 -202.6875 11.984375 -203.09375 C 13.617188 -203.707031 15.15625 -204.734375 16.59375 -206.171875 C 18.03125 -207.597656 20.691406 -208.414062 24.578125 -208.625 C 28.671875 -209.03125 31.128906 -209.441406 31.953125 -209.859375 C 32.972656 -210.265625 34.554688 -210.566406 36.703125 -210.765625 C 38.859375 -210.972656 41.113281 -211.128906 43.46875 -211.234375 C 45.832031 -211.335938 48.140625 -211.390625 50.390625 -211.390625 C 52.640625 -211.390625 54.378906 -211.390625 55.609375 -211.390625 Z M 55.609375 -211.390625 "/></g></g></g><g fill="#ffffff" fill-opacity="1"><g transform="translate(490.723802, 390.254939)"><g><path d="M 108.765625 -162.234375 C 103.234375 -162.234375 96.882812 -161.410156 89.71875 -159.765625 C 85.625 -159.148438 83.269531 -158.640625 82.65625 -158.234375 C 82.039062 -157.828125 81.832031 -156.492188 82.03125 -154.234375 C 82.238281 -152.804688 82.289062 -151.015625 82.1875 -148.859375 C 82.082031 -146.710938 81.828125 -144.203125 81.421875 -141.328125 C 81.210938 -138.671875 81.054688 -135.445312 80.953125 -131.65625 C 80.859375 -127.863281 80.601562 -123.410156 80.1875 -118.296875 C 79.570312 -108.253906 79.367188 -103.128906 79.578125 -102.921875 C 80.191406 -102.304688 83.773438 -102.921875 90.328125 -104.765625 C 93.398438 -105.585938 96.78125 -106.613281 100.46875 -107.84375 C 104.15625 -109.070312 107.738281 -110.554688 111.21875 -112.296875 C 114.707031 -114.035156 117.9375 -116.03125 120.90625 -118.28125 C 123.875 -120.539062 126.28125 -123.003906 128.125 -125.671875 C 130.789062 -129.765625 132.125 -135.289062 132.125 -142.25 C 131.707031 -150.445312 129.757812 -155.828125 126.28125 -158.390625 C 122.800781 -160.953125 116.960938 -162.234375 108.765625 -162.234375 Z M 102.921875 -208.9375 C 106.609375 -208.9375 110.859375 -208.726562 115.671875 -208.3125 C 120.492188 -207.90625 125.257812 -207.289062 129.96875 -206.46875 C 134.675781 -205.65625 139.28125 -204.632812 143.78125 -203.40625 C 148.289062 -202.175781 152.082031 -200.738281 155.15625 -199.09375 C 165.8125 -193.5625 174.722656 -186.800781 181.890625 -178.8125 C 189.054688 -170.832031 193.5625 -162.640625 195.40625 -154.234375 C 197.664062 -144.609375 197.257812 -134.78125 194.1875 -124.75 C 193.570312 -122.082031 192.648438 -119.363281 191.421875 -116.59375 C 190.191406 -113.832031 188.859375 -111.171875 187.421875 -108.609375 C 185.984375 -106.046875 184.445312 -103.6875 182.8125 -101.53125 C 181.175781 -99.382812 179.640625 -97.695312 178.203125 -96.46875 C 176.566406 -95.039062 175.1875 -93.765625 174.0625 -92.640625 C 172.9375 -91.515625 171.960938 -90.539062 171.140625 -89.71875 C 167.242188 -86.03125 164.988281 -84.1875 164.375 -84.1875 C 164.175781 -84.800781 163.867188 -85.109375 163.453125 -85.109375 C 163.046875 -85.109375 162.84375 -84.898438 162.84375 -84.484375 C 162.84375 -84.078125 161.921875 -83.257812 160.078125 -82.03125 C 157.410156 -81.007812 155.363281 -79.78125 153.9375 -78.34375 C 151.476562 -76.5 149.632812 -75.375 148.40625 -74.96875 L 146.5625 -74.046875 C 146.351562 -74.046875 146.144531 -73.941406 145.9375 -73.734375 C 145.9375 -72.921875 151.878906 -66.570312 163.765625 -54.6875 C 171.335938 -46.90625 177.734375 -40.195312 182.953125 -34.5625 C 188.179688 -28.925781 192.023438 -24.164062 194.484375 -20.28125 C 195.097656 -19.257812 196.070312 -17.722656 197.40625 -15.671875 C 198.738281 -13.617188 200.019531 -11.414062 201.25 -9.0625 C 202.476562 -6.707031 203.601562 -4.503906 204.625 -2.453125 C 205.65625 -0.410156 206.269531 1.222656 206.46875 2.453125 C 207.082031 5.117188 207.539062 7.320312 207.84375 9.0625 C 208.15625 10.800781 208.207031 12.390625 208 13.828125 C 207.800781 15.265625 207.34375 16.59375 206.625 17.8125 C 205.90625 19.039062 204.726562 20.375 203.09375 21.8125 C 199.8125 25.09375 195.816406 27.550781 191.109375 29.1875 C 186.398438 30.820312 181.6875 31.640625 176.96875 31.640625 C 171.445312 31.640625 166.738281 30.207031 162.84375 27.34375 C 161.820312 26.519531 160.953125 25.90625 160.234375 25.5 C 159.515625 25.09375 158.742188 24.679688 157.921875 24.265625 C 156.285156 23.648438 154.546875 22.421875 152.703125 20.578125 C 150.859375 19.359375 148.804688 17.828125 146.546875 15.984375 C 144.296875 14.140625 142.09375 12.140625 139.9375 9.984375 C 137.789062 7.835938 135.796875 5.582031 133.953125 3.21875 C 132.117188 0.863281 130.6875 -1.332031 129.65625 -3.375 C 125.15625 -11.363281 120.085938 -19.40625 114.453125 -27.5 C 108.816406 -35.59375 103.03125 -43.222656 97.09375 -50.390625 C 94.425781 -53.671875 92.425781 -56.078125 91.09375 -57.609375 C 89.769531 -59.140625 89.003906 -60.007812 88.796875 -60.21875 C 88.390625 -60.425781 87.160156 -60.222656 85.109375 -59.609375 C 83.265625 -58.992188 81.523438 -58.6875 79.890625 -58.6875 C 78.453125 -58.6875 77.628906 -58.273438 77.421875 -57.453125 C 76.804688 -54.585938 76.191406 -45.882812 75.578125 -31.34375 C 74.960938 -20.6875 74.453125 -12.082031 74.046875 -5.53125 C 73.640625 1.019531 73.332031 5.425781 73.125 7.6875 C 72.71875 12.394531 72 15.414062 70.96875 16.75 C 69.945312 18.082031 69.128906 19.050781 68.515625 19.65625 C 65.441406 22.113281 60.9375 23.753906 55 24.578125 C 53.363281 24.984375 51.828125 25.289062 50.390625 25.5 C 48.953125 25.707031 47.722656 26.015625 46.703125 26.421875 C 45.066406 27.242188 43.734375 27.65625 42.703125 27.65625 C 42.296875 28.0625 40.046875 27.238281 35.953125 25.1875 C 32.878906 23.757812 30.210938 22.273438 27.953125 20.734375 C 25.703125 19.203125 23.757812 16.898438 22.125 13.828125 C 21.300781 12.390625 20.632812 11.054688 20.125 9.828125 C 19.613281 8.597656 19.253906 7.367188 19.046875 6.140625 C 18.847656 4.910156 18.75 3.476562 18.75 1.84375 C 18.75 0.207031 18.847656 -1.738281 19.046875 -4 C 19.253906 -6.65625 19.40625 -10.492188 19.5 -15.515625 C 19.601562 -20.535156 19.863281 -26.734375 20.28125 -34.109375 C 21.300781 -59.503906 22.066406 -79.523438 22.578125 -94.171875 C 23.085938 -108.816406 23.445312 -118.492188 23.65625 -123.203125 C 23.863281 -129.347656 24.015625 -134.210938 24.109375 -137.796875 C 24.210938 -141.378906 24.164062 -143.6875 23.96875 -144.71875 C 23.550781 -145.945312 22.421875 -147.378906 20.578125 -149.015625 C 17.515625 -151.878906 15.367188 -155.363281 14.140625 -159.46875 C 12.085938 -167.039062 12.394531 -173.695312 15.0625 -179.4375 C 15.875 -181.070312 16.28125 -184.242188 16.28125 -188.953125 L 16.28125 -195.71875 L 18.75 -196.953125 C 19.5625 -197.765625 21.25 -198.425781 23.8125 -198.9375 C 26.375 -199.457031 28.164062 -199.71875 29.1875 -199.71875 L 29.5 -199.71875 C 29.695312 -199.507812 30.410156 -199.507812 31.640625 -199.71875 C 33.078125 -200.332031 40.660156 -201.867188 54.390625 -204.328125 C 70.359375 -207.398438 86.535156 -208.9375 102.921875 -208.9375 Z M 102.921875 -208.9375 "/></g></g></g><g fill="#ffffff" fill-opacity="1"><g transform="translate(699.018373, 390.254939)"><g><path d="M 301.109375 -213.234375 C 302.128906 -213.429688 303.097656 -213.476562 304.015625 -213.375 C 304.941406 -213.28125 306.125 -213.234375 307.5625 -213.234375 C 311.65625 -213.023438 314.726562 -212.101562 316.78125 -210.46875 C 318.820312 -208.832031 319.945312 -206.375 320.15625 -203.09375 C 320.363281 -199.8125 320.257812 -195.816406 319.84375 -191.109375 C 318.820312 -183.734375 317.335938 -176.050781 315.390625 -168.0625 C 313.441406 -160.070312 311.648438 -152.492188 310.015625 -145.328125 C 309.804688 -143.890625 309.5 -142.300781 309.09375 -140.5625 C 308.6875 -138.820312 308.328125 -137.179688 308.015625 -135.640625 C 307.710938 -134.109375 307.40625 -132.78125 307.09375 -131.65625 C 306.789062 -130.53125 306.640625 -129.863281 306.640625 -129.65625 C 305.816406 -123.71875 303.664062 -115.320312 300.1875 -104.46875 C 299.363281 -101.800781 298.644531 -99.390625 298.03125 -97.234375 C 297.414062 -95.085938 296.90625 -93.09375 296.5 -91.25 C 296.289062 -90.632812 296.03125 -89.710938 295.71875 -88.484375 C 295.414062 -87.253906 294.957031 -85.617188 294.34375 -83.578125 C 292.90625 -79.273438 292.085938 -76.203125 291.890625 -74.359375 C 291.472656 -72.710938 290.800781 -70.351562 289.875 -67.28125 C 288.957031 -64.207031 287.890625 -60.316406 286.671875 -55.609375 C 285.640625 -52.335938 284.816406 -49.625 284.203125 -47.46875 C 283.585938 -45.320312 283.078125 -43.632812 282.671875 -42.40625 C 280.617188 -36.257812 278.363281 -29.191406 275.90625 -21.203125 C 272.425781 -8.910156 268.84375 0.613281 265.15625 7.375 C 263.71875 10.238281 262.226562 12.898438 260.6875 15.359375 C 259.15625 17.816406 257.984375 19.046875 257.171875 19.046875 C 256.960938 19.046875 256.859375 19.25 256.859375 19.65625 C 256.859375 20.070312 256.242188 20.484375 255.015625 20.890625 C 253.785156 21.296875 253.066406 21.804688 252.859375 22.421875 C 252.453125 23.859375 242.210938 24.375 222.140625 23.96875 L 205.859375 23.96875 L 202.78125 22.125 C 199.507812 20.28125 196.644531 16.847656 194.1875 11.828125 C 191.726562 6.804688 188.859375 -1.4375 185.578125 -12.90625 C 184.554688 -16.1875 183.6875 -19.003906 182.96875 -21.359375 C 182.25 -23.710938 181.6875 -25.601562 181.28125 -27.03125 C 178.40625 -35.4375 174.71875 -47.929688 170.21875 -64.515625 C 170.007812 -64.929688 169.597656 -66.265625 168.984375 -68.515625 C 168.367188 -70.765625 167.445312 -73.941406 166.21875 -78.046875 C 165.601562 -80.910156 164.785156 -84.03125 163.765625 -87.40625 C 162.742188 -90.789062 162.128906 -92.789062 161.921875 -93.40625 C 161.304688 -95.863281 160.796875 -97.09375 160.390625 -97.09375 C 159.972656 -97.09375 159.050781 -94.738281 157.625 -90.03125 C 157.007812 -87.976562 156.34375 -85.820312 155.625 -83.5625 C 154.90625 -81.3125 154.132812 -78.859375 153.3125 -76.203125 C 151.882812 -71.691406 150.503906 -67.128906 149.171875 -62.515625 C 147.835938 -57.910156 146.453125 -53.148438 145.015625 -48.234375 C 143.992188 -44.753906 142.816406 -40.960938 141.484375 -36.859375 C 140.148438 -32.765625 138.664062 -28.363281 137.03125 -23.65625 C 136.625 -22.632812 135.957031 -20.6875 135.03125 -17.8125 C 134.113281 -14.945312 132.9375 -11.265625 131.5 -6.765625 C 129.863281 -1.847656 128.53125 1.890625 127.5 4.453125 C 126.476562 7.015625 125.765625 8.707031 125.359375 9.53125 C 122.285156 13.625 120.03125 15.875 118.59375 16.28125 C 117.78125 16.488281 117.375 16.796875 117.375 17.203125 C 117.375 17.617188 116.601562 18.03125 115.0625 18.4375 C 113.53125 18.84375 112.660156 19.351562 112.453125 19.96875 C 112.242188 20.375 111.0625 20.832031 108.90625 21.34375 C 106.757812 21.863281 105.378906 21.914062 104.765625 21.5 C 103.742188 21.300781 101.898438 21.816406 99.234375 23.046875 L 98.625 23.65625 C 96.988281 24.0625 95.863281 23.753906 95.25 22.734375 C 95.039062 22.117188 94.425781 22.015625 93.40625 22.421875 C 92.582031 22.835938 89.710938 23.25 84.796875 23.65625 L 77.421875 23.96875 L 73.4375 21.8125 C 69.132812 19.769531 66.46875 17.414062 65.4375 14.75 C 65.238281 14.132812 64.929688 13.828125 64.515625 13.828125 C 64.316406 13.828125 63.753906 13.46875 62.828125 12.75 C 61.910156 12.03125 61.65625 11.46875 62.0625 11.0625 L 62.0625 10.75 C 61.851562 10.75 61.546875 10.648438 61.140625 10.453125 C 60.316406 10.242188 59.90625 9.832031 59.90625 9.21875 C 59.90625 8.601562 59.597656 8.398438 58.984375 8.609375 C 58.578125 8.804688 58.015625 8.441406 57.296875 7.515625 C 56.585938 6.597656 56.332031 5.832031 56.53125 5.21875 C 56.738281 5.019531 56.640625 4.921875 56.234375 4.921875 C 55.617188 4.921875 54.847656 3.234375 53.921875 -0.140625 C 53.003906 -3.523438 52.546875 -6.445312 52.546875 -8.90625 C 52.546875 -14.238281 48.859375 -30.21875 41.484375 -56.84375 C 40.867188 -59.09375 39.789062 -63.1875 38.25 -69.125 C 36.71875 -75.070312 34.820312 -82.859375 32.5625 -92.484375 C 30.3125 -102.109375 28.519531 -109.582031 27.1875 -114.90625 C 25.851562 -120.238281 24.984375 -123.722656 24.578125 -125.359375 C 23.960938 -128.222656 22.988281 -132.570312 21.65625 -138.40625 C 20.320312 -144.25 18.835938 -150.296875 17.203125 -156.546875 C 15.566406 -162.796875 13.925781 -168.679688 12.28125 -174.203125 C 10.644531 -179.734375 9.210938 -183.628906 7.984375 -185.890625 C 6.960938 -187.523438 6.453125 -191.109375 6.453125 -196.640625 C 6.242188 -202.578125 6.550781 -206.160156 7.375 -207.390625 C 8.394531 -208.828125 10.390625 -209.953125 13.359375 -210.765625 C 16.335938 -211.585938 19.515625 -212.148438 22.890625 -212.453125 C 26.265625 -212.765625 29.59375 -212.972656 32.875 -213.078125 C 36.15625 -213.179688 38.613281 -213.234375 40.25 -213.234375 C 43.113281 -213.023438 46.390625 -212.507812 50.078125 -211.6875 C 53.765625 -210.875 57.398438 -209.644531 60.984375 -208 C 64.566406 -206.363281 67.738281 -204.367188 70.5 -202.015625 C 73.269531 -199.660156 74.960938 -196.945312 75.578125 -193.875 C 76.804688 -187.9375 77.726562 -181.84375 78.34375 -175.59375 C 78.957031 -169.34375 79.570312 -163.25 80.1875 -157.3125 C 80.800781 -153.625 81.519531 -148.8125 82.34375 -142.875 C 83.164062 -136.9375 84.085938 -129.765625 85.109375 -121.359375 C 86.546875 -109.679688 87.828125 -99.898438 88.953125 -92.015625 C 90.078125 -84.128906 91.050781 -78.035156 91.875 -73.734375 C 93.71875 -64.316406 95.148438 -59.609375 96.171875 -59.609375 C 96.984375 -60.222656 98.207031 -63.085938 99.84375 -68.203125 C 101.488281 -73.328125 103.382812 -79.726562 105.53125 -87.40625 C 107.6875 -95.09375 109.890625 -103.492188 112.140625 -112.609375 C 114.398438 -121.722656 116.453125 -130.476562 118.296875 -138.875 C 120.140625 -147.269531 121.675781 -154.742188 122.90625 -161.296875 C 124.132812 -167.859375 124.75 -172.46875 124.75 -175.125 C 124.75 -176.96875 124.234375 -178.347656 123.203125 -179.265625 C 122.179688 -180.191406 121.363281 -180.65625 120.75 -180.65625 C 118.695312 -180.65625 118.898438 -181.988281 121.359375 -184.65625 C 123.003906 -186.289062 125.207031 -187.722656 127.96875 -188.953125 C 130.738281 -190.179688 133.707031 -191.207031 136.875 -192.03125 C 140.050781 -192.851562 143.226562 -193.414062 146.40625 -193.71875 C 149.582031 -194.03125 152.398438 -194.1875 154.859375 -194.1875 C 156.492188 -194.1875 159.613281 -193.976562 164.21875 -193.5625 C 168.832031 -193.15625 173.597656 -192.488281 178.515625 -191.5625 C 183.429688 -190.644531 187.78125 -189.414062 191.5625 -187.875 C 195.351562 -186.34375 197.25 -184.453125 197.25 -182.203125 C 197.25 -180.148438 197.96875 -176.566406 199.40625 -171.453125 C 201.25 -163.660156 203.039062 -156.226562 204.78125 -149.15625 C 206.519531 -142.09375 208.109375 -135.285156 209.546875 -128.734375 C 211.179688 -121.972656 212.5625 -115.625 213.6875 -109.6875 C 214.8125 -103.75 215.890625 -98.117188 216.921875 -92.796875 C 221.222656 -70.253906 224.085938 -58.269531 225.515625 -56.84375 C 225.929688 -56.4375 226.753906 -58.894531 227.984375 -64.21875 C 229.003906 -68.925781 230.535156 -75.785156 232.578125 -84.796875 C 234.628906 -93.804688 237.09375 -105.175781 239.96875 -118.90625 C 244.0625 -138.363281 246.875 -153.265625 248.40625 -163.609375 C 249.945312 -173.953125 250.304688 -180.554688 249.484375 -183.421875 C 249.285156 -184.453125 248.46875 -185.679688 247.03125 -187.109375 C 245.800781 -188.335938 245.1875 -189.875 245.1875 -191.71875 C 245.1875 -193.5625 245.082031 -194.894531 244.875 -195.71875 C 244.875 -197.351562 246.3125 -199.503906 249.1875 -202.171875 C 251.632812 -204.628906 254.394531 -206.367188 257.46875 -207.390625 C 259.3125 -208.003906 264.128906 -208.925781 271.921875 -210.15625 C 275.398438 -210.570312 278.160156 -210.984375 280.203125 -211.390625 C 282.253906 -211.796875 283.585938 -212.101562 284.203125 -212.3125 C 284.410156 -212.3125 287.28125 -212.515625 292.8125 -212.921875 C 298.132812 -212.921875 300.898438 -213.023438 301.109375 -213.234375 Z M 301.109375 -213.234375 "/></g></g></g><g fill="#ffffff" fill-opacity="1"><g transform="translate(1018.219526, 390.254939)"><g><path d="M 55.609375 -211.390625 C 59.296875 -211.390625 62.421875 -211.285156 64.984375 -211.078125 C 67.546875 -210.878906 69.335938 -210.570312 70.359375 -210.15625 C 71.992188 -209.75 73.835938 -208.722656 75.890625 -207.078125 C 77.941406 -205.441406 79.273438 -204.007812 79.890625 -202.78125 C 80.910156 -201.144531 81.625 -198.378906 82.03125 -194.484375 C 82.238281 -192.847656 82.289062 -190.285156 82.1875 -186.796875 C 82.082031 -183.316406 81.828125 -178.914062 81.421875 -173.59375 C 81.015625 -169.5 80.757812 -161.457031 80.65625 -149.46875 C 80.550781 -137.488281 80.394531 -121.359375 80.1875 -101.078125 C 79.988281 -79.984375 79.890625 -64.007812 79.890625 -53.15625 C 79.890625 -42.300781 79.785156 -36.359375 79.578125 -35.328125 C 79.367188 -33.078125 79.265625 -30.820312 79.265625 -28.5625 C 79.265625 -26.3125 79.164062 -24.0625 78.96875 -21.8125 C 78.757812 -16.488281 78.5 -11.878906 78.1875 -7.984375 C 77.882812 -4.097656 77.320312 -0.925781 76.5 1.53125 C 76.300781 3.175781 75.429688 5.070312 73.890625 7.21875 C 72.359375 9.375 70.515625 11.472656 68.359375 13.515625 C 66.210938 15.566406 63.957031 17.410156 61.59375 19.046875 C 59.238281 20.679688 57.144531 21.601562 55.3125 21.8125 C 53.664062 21.8125 52.484375 22.015625 51.765625 22.421875 C 51.054688 22.835938 49.472656 23.144531 47.015625 23.34375 C 44.347656 23.757812 42.191406 23.503906 40.546875 22.578125 C 38.910156 21.660156 36.765625 19.769531 34.109375 16.90625 C 32.265625 14.644531 30.625 12.847656 29.1875 11.515625 C 27.75 10.191406 26.519531 9.222656 25.5 8.609375 C 22.632812 6.765625 20.894531 4.304688 20.28125 1.234375 C 19.664062 -1.640625 19.359375 -10.140625 19.359375 -24.265625 C 19.359375 -31.847656 19.359375 -37.738281 19.359375 -41.9375 C 19.359375 -46.132812 19.457031 -48.539062 19.65625 -49.15625 C 19.863281 -49.570312 19.96875 -52.695312 19.96875 -58.53125 C 19.96875 -64.363281 20.070312 -73.019531 20.28125 -84.5 C 20.894531 -143.28125 19.359375 -179.125 15.671875 -192.03125 C 15.460938 -193.050781 14.234375 -194.789062 11.984375 -197.25 C 10.140625 -199.507812 9.320312 -200.84375 9.53125 -201.25 C 9.726562 -201.457031 9.976562 -201.710938 10.28125 -202.015625 C 10.59375 -202.328125 11.160156 -202.6875 11.984375 -203.09375 C 13.617188 -203.707031 15.15625 -204.734375 16.59375 -206.171875 C 18.03125 -207.597656 20.691406 -208.414062 24.578125 -208.625 C 28.671875 -209.03125 31.128906 -209.441406 31.953125 -209.859375 C 32.972656 -210.265625 34.554688 -210.566406 36.703125 -210.765625 C 38.859375 -210.972656 41.113281 -211.128906 43.46875 -211.234375 C 45.832031 -211.335938 48.140625 -211.390625 50.390625 -211.390625 C 52.640625 -211.390625 54.378906 -211.390625 55.609375 -211.390625 Z M 55.609375 -211.390625 "/></g></g></g><g fill="#ffffff" fill-opacity="1"><g transform="translate(1110.691965, 390.254939)"><g><path d="M 191.109375 -213.53125 C 192.742188 -213.945312 195.921875 -213.945312 200.640625 -213.53125 L 208.015625 -213.53125 L 209.859375 -211.390625 C 211.691406 -209.335938 212.914062 -204.832031 213.53125 -197.875 C 213.945312 -195.820312 214.15625 -190.082031 214.15625 -180.65625 C 214.15625 -171.238281 214.050781 -157.925781 213.84375 -140.71875 C 213.632812 -114.90625 213.019531 -88.890625 212 -62.671875 C 211.789062 -57.960938 211.6875 -54.019531 211.6875 -50.84375 C 211.6875 -47.675781 211.585938 -45.171875 211.390625 -43.328125 C 211.179688 -41.890625 211.023438 -39.785156 210.921875 -37.015625 C 210.828125 -34.253906 210.675781 -29.90625 210.46875 -23.96875 C 210.0625 -12.289062 209.445312 -4.195312 208.625 0.3125 C 207.800781 3.582031 207.1875 5.628906 206.78125 6.453125 C 206.375 7.273438 205.65625 8.195312 204.625 9.21875 C 202.988281 10.65625 201.453125 11.9375 200.015625 13.0625 C 198.585938 14.1875 197.15625 15.160156 195.71875 15.984375 C 193.46875 17.003906 191.828125 17.820312 190.796875 18.4375 C 185.878906 20.894531 180.347656 22.125 174.203125 22.125 C 171.335938 22.125 168.578125 21.609375 165.921875 20.578125 C 162.847656 19.148438 160.59375 17.820312 159.15625 16.59375 C 157.71875 15.363281 155.15625 13.828125 151.46875 11.984375 C 145.738281 9.117188 140.773438 5.175781 136.578125 0.15625 C 132.378906 -4.863281 129.050781 -10.242188 126.59375 -15.984375 C 124.75 -20.078125 123.828125 -22.222656 123.828125 -22.421875 C 123.828125 -22.421875 122.1875 -26.828125 118.90625 -35.640625 C 118.082031 -37.691406 117.003906 -40.097656 115.671875 -42.859375 C 114.347656 -45.628906 112.660156 -49.878906 110.609375 -55.609375 C 109.171875 -59.910156 107.632812 -64.363281 106 -68.96875 C 104.363281 -73.582031 103.441406 -76.195312 103.234375 -76.8125 C 102.617188 -78.445312 100.46875 -84.285156 96.78125 -94.328125 C 93.300781 -104.160156 90.332031 -112.503906 87.875 -119.359375 C 85.414062 -126.222656 83.46875 -131.601562 82.03125 -135.5 L 79.578125 -141.953125 L 78.65625 -137.34375 C 78.25 -135.09375 77.785156 -128.945312 77.265625 -118.90625 C 76.753906 -108.863281 76.191406 -94.832031 75.578125 -76.8125 C 75.578125 -74.757812 75.523438 -71.835938 75.421875 -68.046875 C 75.328125 -64.265625 75.28125 -60.117188 75.28125 -55.609375 C 75.28125 -51.109375 75.226562 -46.398438 75.125 -41.484375 C 75.019531 -36.566406 74.96875 -31.957031 74.96875 -27.65625 C 74.96875 -9.21875 74.25 1.84375 72.8125 5.53125 C 72.195312 7.164062 70.765625 9.160156 68.515625 11.515625 C 66.265625 13.878906 64.113281 15.675781 62.0625 16.90625 C 59.8125 18.332031 58.378906 19.457031 57.765625 20.28125 C 56.941406 21.09375 55.914062 21.5 54.6875 21.5 C 53.050781 21.5 51.722656 21.910156 50.703125 22.734375 C 47.828125 24.578125 46.390625 25.191406 46.390625 24.578125 C 46.390625 23.347656 44.648438 23.550781 41.171875 25.1875 C 38.921875 26.21875 37.078125 26.523438 35.640625 26.109375 C 34.003906 25.703125 32.210938 24.78125 30.265625 23.34375 C 28.316406 21.914062 26.472656 20.332031 24.734375 18.59375 C 22.992188 16.851562 21.40625 15.007812 19.96875 13.0625 C 18.539062 11.113281 17.617188 9.320312 17.203125 7.6875 C 15.773438 1.738281 15.46875 -2.867188 16.28125 -6.140625 C 16.488281 -7.171875 16.691406 -10.5 16.890625 -16.125 C 17.097656 -21.757812 17.613281 -29.800781 18.4375 -40.25 C 18.644531 -44.34375 18.847656 -49.410156 19.046875 -55.453125 C 19.253906 -61.492188 19.457031 -68.203125 19.65625 -75.578125 C 19.863281 -82.953125 20.019531 -90.785156 20.125 -99.078125 C 20.226562 -107.378906 20.28125 -115.628906 20.28125 -123.828125 C 20.28125 -140.410156 20.175781 -153.925781 19.96875 -164.375 C 19.757812 -174.820312 19.453125 -182.09375 19.046875 -186.1875 C 18.429688 -194.382812 17.203125 -200.738281 15.359375 -205.25 C 14.953125 -205.863281 15.414062 -206.425781 16.75 -206.9375 C 18.082031 -207.445312 20.796875 -208.007812 24.890625 -208.625 C 28.773438 -209.445312 33.484375 -209.859375 39.015625 -209.859375 C 46.804688 -209.859375 54.59375 -209.140625 62.375 -207.703125 C 70.15625 -206.265625 77.734375 -204.421875 85.109375 -202.171875 L 94.015625 -199.40625 L 97.390625 -195.71875 C 101.492188 -191.207031 105.03125 -187.160156 108 -183.578125 C 110.96875 -179.992188 113.679688 -176.304688 116.140625 -172.515625 C 118.597656 -168.734375 120.898438 -164.738281 123.046875 -160.53125 C 125.203125 -156.332031 127.507812 -151.367188 129.96875 -145.640625 C 132.832031 -139.285156 135.75 -131.035156 138.71875 -120.890625 C 141.6875 -110.753906 144.914062 -100.160156 148.40625 -89.109375 C 149.832031 -84.191406 151.054688 -80.296875 152.078125 -77.421875 C 153.109375 -74.554688 153.828125 -72.710938 154.234375 -71.890625 C 154.441406 -71.691406 154.648438 -72.71875 154.859375 -74.96875 C 155.265625 -78.445312 155.566406 -87.148438 155.765625 -101.078125 C 155.972656 -115.015625 156.179688 -132.835938 156.390625 -154.546875 C 156.597656 -168.679688 156.703125 -179.691406 156.703125 -187.578125 C 156.703125 -195.460938 156.703125 -200.429688 156.703125 -202.484375 C 156.703125 -203.503906 157.160156 -204.375 158.078125 -205.09375 C 159.003906 -205.8125 160.082031 -206.425781 161.3125 -206.9375 C 162.539062 -207.445312 163.816406 -207.851562 165.140625 -208.15625 C 166.472656 -208.46875 167.550781 -208.625 168.375 -208.625 C 170.625 -209.03125 172.160156 -209.644531 172.984375 -210.46875 C 173.796875 -211.28125 176.660156 -211.894531 181.578125 -212.3125 C 184.242188 -212.71875 186.34375 -212.972656 187.875 -213.078125 C 189.414062 -213.179688 190.492188 -213.332031 191.109375 -213.53125 Z M 191.109375 -213.53125 "/></g></g></g><g fill="#ffffff" fill-opacity="1"><g transform="translate(1335.88363, 390.254939)"><g><path d="M 134.578125 -161 C 133.554688 -161.207031 132.632812 -161.359375 131.8125 -161.453125 C 130.988281 -161.554688 130.375 -161.609375 129.96875 -161.609375 C 128.125 -161.609375 125.5625 -161.351562 122.28125 -160.84375 C 119.007812 -160.332031 115.628906 -159.664062 112.140625 -158.84375 C 108.660156 -158.03125 105.4375 -157.054688 102.46875 -155.921875 C 99.5 -154.796875 97.398438 -153.617188 96.171875 -152.390625 C 95.765625 -152.191406 95.300781 -151.882812 94.78125 -151.46875 C 94.269531 -151.0625 93.503906 -150.65625 92.484375 -150.25 C 88.179688 -147.988281 85.210938 -145.320312 83.578125 -142.25 C 81.929688 -139.175781 80.597656 -133.035156 79.578125 -123.828125 C 79.171875 -121.566406 78.914062 -119.460938 78.8125 -117.515625 C 78.707031 -115.578125 78.550781 -113.476562 78.34375 -111.21875 C 78.144531 -108.96875 78.046875 -107.125 78.046875 -105.6875 C 78.046875 -104.257812 77.941406 -103.238281 77.734375 -102.625 C 77.328125 -99.75 77.019531 -94.113281 76.8125 -85.71875 C 76.40625 -79.375 76.148438 -74.148438 76.046875 -70.046875 C 75.941406 -65.953125 75.785156 -62.984375 75.578125 -61.140625 C 75.578125 -58.273438 75.523438 -55.097656 75.421875 -51.609375 C 75.328125 -48.128906 75.28125 -44.546875 75.28125 -40.859375 C 75.070312 -33.285156 75.070312 -29.085938 75.28125 -28.265625 C 75.894531 -26.628906 77.941406 -25.242188 81.421875 -24.109375 C 84.898438 -22.984375 89.097656 -22.421875 94.015625 -22.421875 C 100.984375 -22.421875 107.488281 -23.597656 113.53125 -25.953125 C 119.570312 -28.316406 125.148438 -31.546875 130.265625 -35.640625 C 135.390625 -39.734375 139.894531 -44.492188 143.78125 -49.921875 C 147.675781 -55.347656 150.851562 -61.132812 153.3125 -67.28125 C 157.414062 -77.53125 159.46875 -90.234375 159.46875 -105.390625 C 159.46875 -110.304688 159.257812 -115.628906 158.84375 -121.359375 C 158.4375 -127.097656 157.363281 -132.679688 155.625 -138.109375 C 153.882812 -143.535156 151.375 -148.347656 148.09375 -152.546875 C 144.8125 -156.742188 140.304688 -159.5625 134.578125 -161 Z M 128.734375 -211.390625 C 134.472656 -211.390625 139.441406 -211.234375 143.640625 -210.921875 C 147.835938 -210.617188 151.878906 -209.953125 155.765625 -208.921875 C 159.660156 -207.898438 163.503906 -206.46875 167.296875 -204.625 C 171.085938 -202.78125 175.441406 -200.320312 180.359375 -197.25 C 202.472656 -183.726562 216.398438 -164.269531 222.140625 -138.875 C 223.984375 -130.882812 224.800781 -116.546875 224.59375 -95.859375 C 224.800781 -89.921875 224.695312 -84.75 224.28125 -80.34375 C 223.875 -75.9375 223.363281 -72.195312 222.75 -69.125 C 221.519531 -64.207031 219.675781 -58.929688 217.21875 -53.296875 C 214.757812 -47.671875 211.992188 -42.144531 208.921875 -36.71875 C 205.859375 -31.289062 202.582031 -26.117188 199.09375 -21.203125 C 195.613281 -16.285156 192.132812 -11.984375 188.65625 -8.296875 C 178.207031 2.765625 165.660156 11.316406 151.015625 17.359375 C 136.367188 23.398438 121.054688 26.421875 105.078125 26.421875 C 100.367188 26.421875 94.992188 26.0625 88.953125 25.34375 C 82.910156 24.625 77.941406 23.242188 74.046875 21.203125 L 69.4375 18.75 L 65.75 20.578125 C 63.695312 21.609375 61.75 22.378906 59.90625 22.890625 C 58.070312 23.398438 56.234375 23.65625 54.390625 23.65625 C 51.929688 23.65625 49.265625 23.039062 46.390625 21.8125 C 43.117188 20.375 38.507812 15.5625 32.5625 7.375 C 32.363281 6.757812 31.957031 5.9375 31.34375 4.90625 C 30.726562 3.882812 30.007812 2.863281 29.1875 1.84375 C 28.363281 0.820312 27.59375 -0.195312 26.875 -1.21875 C 26.164062 -2.25 25.601562 -2.96875 25.1875 -3.375 C 21.707031 -8.90625 19.660156 -13.003906 19.046875 -15.671875 C 18.640625 -17.304688 18.382812 -19.554688 18.28125 -22.421875 C 18.175781 -25.296875 18.226562 -28.882812 18.4375 -33.1875 C 18.644531 -36.664062 18.847656 -40.65625 19.046875 -45.15625 C 19.253906 -49.664062 19.457031 -54.6875 19.65625 -60.21875 C 19.65625 -65.34375 19.757812 -69.953125 19.96875 -74.046875 C 20.175781 -78.140625 20.378906 -81.929688 20.578125 -85.421875 C 20.578125 -86.441406 20.628906 -88.488281 20.734375 -91.5625 C 20.835938 -94.632812 20.988281 -98.21875 21.1875 -102.3125 C 21.394531 -106.40625 21.601562 -110.65625 21.8125 -115.0625 C 22.019531 -119.46875 22.171875 -123.613281 22.265625 -127.5 C 22.367188 -131.394531 22.523438 -134.671875 22.734375 -137.328125 C 22.941406 -139.992188 23.144531 -141.535156 23.34375 -141.953125 C 23.550781 -143.378906 22.9375 -145.117188 21.5 -147.171875 C 14.945312 -155.984375 13.515625 -168.890625 17.203125 -185.890625 C 18.023438 -189.160156 18.789062 -191.820312 19.5 -193.875 C 20.21875 -195.925781 21.09375 -197.359375 22.125 -198.171875 C 22.738281 -198.585938 23.351562 -199.101562 23.96875 -199.71875 C 24.164062 -199.71875 24.367188 -199.816406 24.578125 -200.015625 C 25.191406 -200.628906 26.367188 -201.5 28.109375 -202.625 C 29.847656 -203.757812 31.234375 -204.53125 32.265625 -204.9375 C 33.285156 -205.144531 34.613281 -205.863281 36.25 -207.09375 C 38.914062 -209.132812 41.273438 -209.441406 43.328125 -208.015625 C 43.941406 -207.804688 44.863281 -207.191406 46.09375 -206.171875 C 46.289062 -205.960938 46.539062 -205.703125 46.84375 -205.390625 C 47.15625 -205.085938 47.722656 -204.734375 48.546875 -204.328125 C 49.367188 -203.503906 50.597656 -203.09375 52.234375 -203.09375 C 53.671875 -203.09375 55.101562 -202.476562 56.53125 -201.25 C 57.550781 -200.226562 58.675781 -199.71875 59.90625 -199.71875 C 60.9375 -199.71875 63.910156 -200.332031 68.828125 -201.5625 C 78.660156 -204.425781 88.488281 -206.78125 98.3125 -208.625 C 108.144531 -210.46875 118.285156 -211.390625 128.734375 -211.390625 Z M 128.734375 -211.390625 "/></g></g></g><g fill="#ffffff" fill-opacity="1"><g transform="translate(1565.389906, 390.254939)"><g/></g></g><g clip-path="url(#9879838d56)"><g clip-path="url(#d6eca66376)"><path fill="#ffffff" d="M 1577.265625 188.335938 L 2255.972656 188.335938 L 2255.972656 411.664062 L 1577.265625 411.664062 Z M 1577.265625 188.335938 " fill-opacity="1" fill-rule="nonzero"/></g></g><g fill="#1b0400" fill-opacity="1"><g transform="translate(1707.31294, 335.601378)"><g><path d="M 22.515625 -85.578125 C 24.003906 -85.578125 25.265625 -85.535156 26.296875 -85.453125 C 27.335938 -85.367188 28.066406 -85.242188 28.484375 -85.078125 C 29.148438 -84.910156 29.894531 -84.492188 30.71875 -83.828125 C 31.550781 -83.171875 32.09375 -82.59375 32.34375 -82.09375 C 32.757812 -81.4375 33.050781 -80.316406 33.21875 -78.734375 C 33.300781 -78.078125 33.320312 -77.039062 33.28125 -75.625 C 33.238281 -74.21875 33.132812 -72.4375 32.96875 -70.28125 C 32.800781 -68.625 32.695312 -65.367188 32.65625 -60.515625 C 32.613281 -55.660156 32.550781 -49.128906 32.46875 -40.921875 C 32.382812 -32.378906 32.34375 -25.910156 32.34375 -21.515625 C 32.34375 -17.117188 32.300781 -14.71875 32.21875 -14.3125 C 32.132812 -13.394531 32.09375 -12.476562 32.09375 -11.5625 C 32.09375 -10.65625 32.050781 -9.742188 31.96875 -8.828125 C 31.882812 -6.671875 31.78125 -4.804688 31.65625 -3.234375 C 31.53125 -1.660156 31.300781 -0.375 30.96875 0.625 C 30.882812 1.28125 30.53125 2.046875 29.90625 2.921875 C 29.289062 3.796875 28.546875 4.644531 27.671875 5.46875 C 26.804688 6.300781 25.894531 7.046875 24.9375 7.703125 C 23.988281 8.367188 23.140625 8.742188 22.390625 8.828125 C 21.722656 8.828125 21.242188 8.910156 20.953125 9.078125 C 20.671875 9.242188 20.03125 9.367188 19.03125 9.453125 C 17.957031 9.617188 17.085938 9.515625 16.421875 9.140625 C 15.753906 8.765625 14.882812 8 13.8125 6.84375 C 13.0625 5.925781 12.394531 5.195312 11.8125 4.65625 C 11.238281 4.125 10.742188 3.734375 10.328125 3.484375 C 9.160156 2.734375 8.453125 1.738281 8.203125 0.5 C 7.960938 -0.664062 7.84375 -4.109375 7.84375 -9.828125 C 7.84375 -12.890625 7.84375 -15.269531 7.84375 -16.96875 C 7.84375 -18.675781 7.882812 -19.65625 7.96875 -19.90625 C 8.039062 -20.070312 8.078125 -21.332031 8.078125 -23.6875 C 8.078125 -26.050781 8.117188 -29.554688 8.203125 -34.203125 C 8.453125 -58.003906 7.832031 -72.519531 6.34375 -77.75 C 6.257812 -78.15625 5.757812 -78.859375 4.84375 -79.859375 C 4.101562 -80.773438 3.773438 -81.3125 3.859375 -81.46875 C 3.941406 -81.550781 4.046875 -81.65625 4.171875 -81.78125 C 4.296875 -81.90625 4.519531 -82.050781 4.84375 -82.21875 C 5.507812 -82.46875 6.132812 -82.882812 6.71875 -83.46875 C 7.300781 -84.050781 8.378906 -84.382812 9.953125 -84.46875 C 11.609375 -84.625 12.601562 -84.785156 12.9375 -84.953125 C 13.351562 -85.117188 13.992188 -85.242188 14.859375 -85.328125 C 15.734375 -85.410156 16.644531 -85.472656 17.59375 -85.515625 C 18.550781 -85.554688 19.484375 -85.578125 20.390625 -85.578125 C 21.304688 -85.578125 22.015625 -85.578125 22.515625 -85.578125 Z M 22.515625 -85.578125 "/></g></g></g><g fill="#1b0400" fill-opacity="1"><g transform="translate(1744.749522, 335.601378)"><g><path d="M 77.375 -86.453125 C 78.03125 -86.617188 79.316406 -86.617188 81.234375 -86.453125 L 84.21875 -86.453125 L 84.953125 -85.578125 C 85.703125 -84.753906 86.203125 -82.929688 86.453125 -80.109375 C 86.617188 -79.273438 86.703125 -76.953125 86.703125 -73.140625 C 86.703125 -69.328125 86.660156 -63.9375 86.578125 -56.96875 C 86.492188 -46.519531 86.242188 -35.988281 85.828125 -25.375 C 85.742188 -23.46875 85.703125 -21.867188 85.703125 -20.578125 C 85.703125 -19.296875 85.660156 -18.285156 85.578125 -17.546875 C 85.492188 -16.960938 85.429688 -16.109375 85.390625 -14.984375 C 85.347656 -13.867188 85.285156 -12.109375 85.203125 -9.703125 C 85.035156 -4.972656 84.789062 -1.695312 84.46875 0.125 C 84.132812 1.445312 83.882812 2.273438 83.71875 2.609375 C 83.550781 2.941406 83.257812 3.316406 82.84375 3.734375 C 82.175781 4.316406 81.550781 4.832031 80.96875 5.28125 C 80.394531 5.738281 79.816406 6.132812 79.234375 6.46875 C 78.328125 6.882812 77.664062 7.21875 77.25 7.46875 C 75.257812 8.457031 73.019531 8.953125 70.53125 8.953125 C 69.363281 8.953125 68.242188 8.742188 67.171875 8.328125 C 65.929688 7.753906 65.019531 7.21875 64.4375 6.71875 C 63.851562 6.21875 62.816406 5.59375 61.328125 4.84375 C 59.003906 3.6875 56.988281 2.09375 55.28125 0.0625 C 53.582031 -1.96875 52.238281 -4.144531 51.25 -6.46875 C 50.5 -8.125 50.125 -8.992188 50.125 -9.078125 C 50.125 -9.078125 49.460938 -10.859375 48.140625 -14.421875 C 47.804688 -15.253906 47.367188 -16.226562 46.828125 -17.34375 C 46.296875 -18.46875 45.613281 -20.191406 44.78125 -22.515625 C 44.195312 -24.253906 43.570312 -26.054688 42.90625 -27.921875 C 42.25 -29.785156 41.878906 -30.84375 41.796875 -31.09375 C 41.546875 -31.757812 40.675781 -34.125 39.1875 -38.1875 C 37.769531 -42.164062 36.5625 -45.546875 35.5625 -48.328125 C 34.570312 -51.109375 33.789062 -53.285156 33.21875 -54.859375 L 32.21875 -57.46875 L 31.84375 -55.609375 C 31.675781 -54.691406 31.488281 -52.203125 31.28125 -48.140625 C 31.070312 -44.078125 30.84375 -38.394531 30.59375 -31.09375 C 30.59375 -30.269531 30.570312 -29.085938 30.53125 -27.546875 C 30.488281 -26.015625 30.46875 -24.335938 30.46875 -22.515625 C 30.46875 -20.691406 30.445312 -18.785156 30.40625 -16.796875 C 30.363281 -14.804688 30.34375 -12.9375 30.34375 -11.1875 C 30.34375 -3.726562 30.054688 0.742188 29.484375 2.234375 C 29.234375 2.898438 28.648438 3.707031 27.734375 4.65625 C 26.828125 5.613281 25.957031 6.34375 25.125 6.84375 C 24.21875 7.425781 23.640625 7.878906 23.390625 8.203125 C 23.054688 8.535156 22.640625 8.703125 22.140625 8.703125 C 21.472656 8.703125 20.9375 8.867188 20.53125 9.203125 C 19.363281 9.953125 18.78125 10.203125 18.78125 9.953125 C 18.78125 9.453125 18.078125 9.535156 16.671875 10.203125 C 15.753906 10.617188 15.003906 10.742188 14.421875 10.578125 C 13.765625 10.410156 13.039062 10.035156 12.25 9.453125 C 11.46875 8.867188 10.722656 8.222656 10.015625 7.515625 C 9.304688 6.816406 8.660156 6.070312 8.078125 5.28125 C 7.503906 4.5 7.132812 3.773438 6.96875 3.109375 C 6.382812 0.703125 6.257812 -1.160156 6.59375 -2.484375 C 6.675781 -2.898438 6.757812 -4.25 6.84375 -6.53125 C 6.925781 -8.8125 7.132812 -12.066406 7.46875 -16.296875 C 7.550781 -17.953125 7.632812 -20.003906 7.71875 -22.453125 C 7.800781 -24.898438 7.878906 -27.613281 7.953125 -30.59375 C 8.035156 -33.582031 8.097656 -36.753906 8.140625 -40.109375 C 8.179688 -43.472656 8.203125 -46.8125 8.203125 -50.125 C 8.203125 -56.84375 8.160156 -62.316406 8.078125 -66.546875 C 8.003906 -70.773438 7.882812 -73.71875 7.71875 -75.375 C 7.46875 -78.695312 6.96875 -81.269531 6.21875 -83.09375 C 6.050781 -83.34375 6.238281 -83.570312 6.78125 -83.78125 C 7.320312 -83.988281 8.421875 -84.21875 10.078125 -84.46875 C 11.648438 -84.789062 13.554688 -84.953125 15.796875 -84.953125 C 18.953125 -84.953125 22.101562 -84.660156 25.25 -84.078125 C 28.40625 -83.503906 31.472656 -82.757812 34.453125 -81.84375 L 38.0625 -80.734375 L 39.4375 -79.234375 C 41.09375 -77.410156 42.519531 -75.769531 43.71875 -74.3125 C 44.925781 -72.863281 46.023438 -71.375 47.015625 -69.84375 C 48.015625 -68.3125 48.945312 -66.691406 49.8125 -64.984375 C 50.6875 -63.285156 51.625 -61.28125 52.625 -58.96875 C 53.78125 -56.394531 54.957031 -53.054688 56.15625 -48.953125 C 57.363281 -44.847656 58.671875 -40.554688 60.078125 -36.078125 C 60.660156 -34.085938 61.15625 -32.507812 61.5625 -31.34375 C 61.976562 -30.1875 62.269531 -29.441406 62.4375 -29.109375 C 62.519531 -29.023438 62.601562 -29.4375 62.6875 -30.34375 C 62.851562 -31.757812 62.976562 -35.285156 63.0625 -40.921875 C 63.144531 -46.566406 63.226562 -53.78125 63.3125 -62.5625 C 63.394531 -68.289062 63.4375 -72.75 63.4375 -75.9375 C 63.4375 -79.132812 63.4375 -81.144531 63.4375 -81.96875 C 63.4375 -82.382812 63.625 -82.738281 64 -83.03125 C 64.375 -83.320312 64.804688 -83.570312 65.296875 -83.78125 C 65.796875 -83.988281 66.316406 -84.15625 66.859375 -84.28125 C 67.398438 -84.40625 67.835938 -84.46875 68.171875 -84.46875 C 69.078125 -84.625 69.695312 -84.867188 70.03125 -85.203125 C 70.363281 -85.535156 71.523438 -85.785156 73.515625 -85.953125 C 74.585938 -86.117188 75.4375 -86.222656 76.0625 -86.265625 C 76.6875 -86.304688 77.125 -86.367188 77.375 -86.453125 Z M 77.375 -86.453125 "/></g></g></g><g fill="#1b0400" fill-opacity="1"><g transform="translate(1835.916173, 335.601378)"><g><path d="M 71.890625 -86.078125 C 72.140625 -86.160156 72.800781 -86.179688 73.875 -86.140625 C 74.957031 -86.097656 76.453125 -86.035156 78.359375 -85.953125 C 82.179688 -85.867188 84.460938 -85.742188 85.203125 -85.578125 C 86.453125 -85.328125 87.71875 -84.929688 89 -84.390625 C 90.28125 -83.859375 91.046875 -83.425781 91.296875 -83.09375 C 91.878906 -82.425781 92.296875 -81.265625 92.546875 -79.609375 C 92.710938 -78.617188 91.71875 -75.007812 89.5625 -68.78125 C 88.976562 -66.957031 88.457031 -65.421875 88 -64.171875 C 87.550781 -62.929688 87.160156 -61.941406 86.828125 -61.203125 C 86.160156 -59.628906 85.117188 -57.078125 83.703125 -53.546875 C 82.296875 -50.023438 80.554688 -45.40625 78.484375 -39.6875 C 77.828125 -38.019531 77.164062 -36.273438 76.5 -34.453125 C 75.832031 -32.628906 75.128906 -30.679688 74.390625 -28.609375 C 72.890625 -24.628906 71.597656 -21.1875 70.515625 -18.28125 C 69.441406 -15.382812 68.578125 -12.984375 67.921875 -11.078125 C 67.421875 -9.660156 66.960938 -8.347656 66.546875 -7.140625 C 66.128906 -5.941406 65.753906 -4.847656 65.421875 -3.859375 C 63.679688 0.617188 62.566406 3.359375 62.078125 4.359375 C 61.828125 4.765625 61.703125 5.09375 61.703125 5.34375 C 61.703125 5.675781 61.515625 6.070312 61.140625 6.53125 C 60.765625 6.988281 60.328125 7.441406 59.828125 7.890625 C 59.328125 8.347656 58.765625 8.722656 58.140625 9.015625 C 57.523438 9.304688 56.96875 9.453125 56.46875 9.453125 C 55.976562 9.535156 55.566406 9.578125 55.234375 9.578125 C 54.898438 9.578125 54.648438 9.617188 54.484375 9.703125 C 52.578125 10.035156 50.628906 10.242188 48.640625 10.328125 C 46.648438 10.410156 44.703125 10.453125 42.796875 10.453125 C 40.304688 10.453125 38.046875 10.078125 36.015625 9.328125 C 33.984375 8.578125 32.382812 6.960938 31.21875 4.484375 C 30.96875 3.898438 30.613281 2.835938 30.15625 1.296875 C 29.707031 -0.234375 29.148438 -2.242188 28.484375 -4.734375 C 27.898438 -6.890625 27.171875 -9.351562 26.296875 -12.125 C 25.429688 -14.90625 24.378906 -18.035156 23.140625 -21.515625 C 21.066406 -27.648438 19.363281 -32.726562 18.03125 -36.75 C 16.707031 -40.78125 15.753906 -43.832031 15.171875 -45.90625 C 13.847656 -50.625 12.664062 -54.679688 11.625 -58.078125 C 10.59375 -61.484375 9.703125 -64.222656 8.953125 -66.296875 C 7.460938 -70.273438 6.015625 -73.140625 4.609375 -74.890625 C 3.523438 -75.960938 2.859375 -77.117188 2.609375 -78.359375 C 2.191406 -80.023438 2.691406 -81.476562 4.109375 -82.71875 L 5.21875 -83.96875 L 8.328125 -84.21875 C 9.328125 -84.300781 10.382812 -84.363281 11.5 -84.40625 C 12.625 -84.445312 13.765625 -84.425781 14.921875 -84.34375 C 20.484375 -84.175781 24.425781 -83.550781 26.75 -82.46875 C 29.5625 -81.394531 31.46875 -79.820312 32.46875 -77.75 C 33.050781 -76.664062 34.582031 -70.859375 37.0625 -60.328125 C 37.226562 -59.828125 37.5 -58.75 37.875 -57.09375 C 38.25 -55.4375 38.769531 -53.15625 39.4375 -50.25 C 40.34375 -46.6875 41.128906 -43.453125 41.796875 -40.546875 C 42.460938 -37.648438 43.082031 -35 43.65625 -32.59375 C 44.320312 -29.519531 44.882812 -27.03125 45.34375 -25.125 C 45.800781 -23.21875 46.191406 -21.890625 46.515625 -21.140625 L 46.890625 -20.15625 L 47.265625 -21.265625 C 47.429688 -21.597656 47.640625 -22.15625 47.890625 -22.9375 C 48.140625 -23.726562 48.472656 -24.707031 48.890625 -25.875 C 49.054688 -26.375 49.320312 -27.304688 49.6875 -28.671875 C 50.0625 -30.035156 50.582031 -31.878906 51.25 -34.203125 C 59.375 -60.828125 63.4375 -76.253906 63.4375 -80.484375 C 63.4375 -81.304688 63.601562 -81.925781 63.9375 -82.34375 C 64.269531 -82.757812 65.179688 -83.425781 66.671875 -84.34375 C 67.992188 -85.164062 69.15625 -85.660156 70.15625 -85.828125 C 70.570312 -85.910156 70.925781 -85.953125 71.21875 -85.953125 C 71.507812 -85.953125 71.734375 -85.992188 71.890625 -86.078125 Z M 71.890625 -86.078125 "/></g></g></g><g fill="#1b0400" fill-opacity="1"><g transform="translate(1928.202195, 335.601378)"><g><path d="M 44.15625 -85.203125 C 45.644531 -85.453125 47.46875 -85.578125 49.625 -85.578125 C 52.03125 -85.578125 54.394531 -85.535156 56.71875 -85.453125 C 59.039062 -85.367188 61.363281 -85.117188 63.6875 -84.703125 C 66.59375 -84.296875 68.75 -82.890625 70.15625 -80.484375 C 70.40625 -80.066406 70.59375 -79.753906 70.71875 -79.546875 C 70.84375 -79.335938 70.988281 -79.148438 71.15625 -78.984375 C 71.488281 -78.648438 71.613281 -78.421875 71.53125 -78.296875 C 71.445312 -78.179688 71.648438 -77.625 72.140625 -76.625 C 72.472656 -76.207031 72.722656 -75.75 72.890625 -75.25 C 73.054688 -74.757812 73.222656 -74.179688 73.390625 -73.515625 C 73.554688 -72.929688 73.660156 -72.367188 73.703125 -71.828125 C 73.742188 -71.296875 73.679688 -70.78125 73.515625 -70.28125 C 73.179688 -68.375 72.5625 -67.046875 71.65625 -66.296875 C 70.90625 -65.710938 69.742188 -65.460938 68.171875 -65.546875 C 67.003906 -65.710938 66.128906 -65.628906 65.546875 -65.296875 C 64.972656 -64.972656 64.394531 -64.976562 63.8125 -65.3125 C 63.476562 -65.550781 62.773438 -65.585938 61.703125 -65.421875 C 59.710938 -65.015625 57.179688 -64.769531 54.109375 -64.6875 C 53.273438 -64.601562 52.050781 -64.476562 50.4375 -64.3125 C 48.820312 -64.144531 46.851562 -63.894531 44.53125 -63.5625 C 43.457031 -63.394531 42.878906 -63.351562 42.796875 -63.4375 C 42.796875 -63.4375 43.164062 -63.6875 43.90625 -64.1875 C 44.570312 -64.601562 44.882812 -64.894531 44.84375 -65.0625 C 44.800781 -65.226562 44.363281 -65.3125 43.53125 -65.3125 C 43.125 -65.3125 42.234375 -65.164062 40.859375 -64.875 C 39.492188 -64.582031 38.0625 -64.25 36.5625 -63.875 C 35.070312 -63.5 33.703125 -63.125 32.453125 -62.75 C 31.210938 -62.375 30.472656 -62.066406 30.234375 -61.828125 C 30.148438 -61.742188 30.023438 -61.160156 29.859375 -60.078125 C 29.691406 -59.003906 29.566406 -57.820312 29.484375 -56.53125 C 29.398438 -55.25 29.316406 -54.046875 29.234375 -52.921875 C 29.148438 -51.804688 29.109375 -51.082031 29.109375 -50.75 C 29.023438 -48.257812 29.023438 -47.015625 29.109375 -47.015625 C 29.191406 -47.015625 29.832031 -47.117188 31.03125 -47.328125 C 32.238281 -47.535156 33.960938 -47.847656 36.203125 -48.265625 C 39.179688 -48.847656 42.125 -49.257812 45.03125 -49.5 C 47.9375 -49.75 50.921875 -49.875 53.984375 -49.875 C 60.867188 -49.875 65.097656 -49.503906 66.671875 -48.765625 C 67.585938 -48.347656 68.332031 -47.722656 68.90625 -46.890625 C 69.488281 -46.066406 69.78125 -45.238281 69.78125 -44.40625 C 69.78125 -44.238281 70.113281 -43.242188 70.78125 -41.421875 C 71.28125 -39.929688 71.628906 -38.582031 71.828125 -37.375 C 72.035156 -36.175781 71.9375 -35.160156 71.53125 -34.328125 C 70.863281 -32.921875 70.070312 -31.945312 69.15625 -31.40625 C 68.25 -30.863281 66.71875 -30.472656 64.5625 -30.234375 C 63.3125 -30.066406 62.5 -29.898438 62.125 -29.734375 C 61.757812 -29.566406 61.160156 -29.441406 60.328125 -29.359375 C 59.660156 -29.191406 59.242188 -29.085938 59.078125 -29.046875 C 58.921875 -29.003906 58.632812 -29.066406 58.21875 -29.234375 C 57.71875 -29.398438 57.363281 -29.398438 57.15625 -29.234375 C 56.945312 -29.066406 56.59375 -29.148438 56.09375 -29.484375 C 55.6875 -29.734375 55.273438 -29.957031 54.859375 -30.15625 C 54.441406 -30.363281 54.023438 -30.46875 53.609375 -30.46875 C 53.109375 -30.46875 52.378906 -30.40625 51.421875 -30.28125 C 50.472656 -30.164062 49.210938 -30.023438 47.640625 -29.859375 C 44.648438 -29.441406 43.078125 -29.316406 42.921875 -29.484375 C 43.003906 -29.566406 42.960938 -29.648438 42.796875 -29.734375 C 41.460938 -30.140625 40.34375 -30.179688 39.4375 -29.859375 C 38.9375 -29.691406 38.5625 -29.609375 38.3125 -29.609375 C 38.0625 -29.609375 38.101562 -29.734375 38.4375 -29.984375 C 38.6875 -30.148438 38.789062 -30.234375 38.75 -30.234375 C 38.707031 -30.234375 38.519531 -30.234375 38.1875 -30.234375 C 38.101562 -30.148438 37.441406 -30.023438 36.203125 -29.859375 C 34.046875 -29.441406 32.363281 -29.128906 31.15625 -28.921875 C 29.957031 -28.710938 29.273438 -28.523438 29.109375 -28.359375 C 28.859375 -28.109375 28.671875 -27.21875 28.546875 -25.6875 C 28.421875 -24.15625 28.316406 -22.453125 28.234375 -20.578125 C 28.148438 -18.710938 28.109375 -16.890625 28.109375 -15.109375 C 28.109375 -13.328125 28.109375 -12.101562 28.109375 -11.4375 C 28.023438 -11.113281 31.34375 -11.195312 38.0625 -11.6875 C 42.625 -12.101562 46.414062 -12.414062 49.4375 -12.625 C 52.46875 -12.832031 55.519531 -12.9375 58.59375 -12.9375 C 59.164062 -12.9375 59.96875 -12.914062 61 -12.875 C 62.039062 -12.832031 63.097656 -12.769531 64.171875 -12.6875 C 65.253906 -12.601562 66.253906 -12.457031 67.171875 -12.25 C 68.085938 -12.039062 68.664062 -11.769531 68.90625 -11.4375 C 69.15625 -11.195312 69.300781 -11.015625 69.34375 -10.890625 C 69.382812 -10.765625 69.445312 -10.640625 69.53125 -10.515625 C 69.613281 -10.390625 69.757812 -10.179688 69.96875 -9.890625 C 70.175781 -9.597656 70.53125 -9.203125 71.03125 -8.703125 C 71.9375 -7.710938 72.742188 -6.445312 73.453125 -4.90625 C 74.160156 -3.375 74.597656 -1.988281 74.765625 -0.75 C 75.003906 0.164062 75.082031 1.054688 75 1.921875 C 74.925781 2.796875 74.765625 3.609375 74.515625 4.359375 C 74.179688 5.347656 73.535156 6.253906 72.578125 7.078125 C 71.628906 7.910156 70.488281 8.617188 69.15625 9.203125 C 68.25 9.535156 67.109375 9.785156 65.734375 9.953125 C 64.367188 10.117188 63.476562 10.117188 63.0625 9.953125 C 62.726562 9.703125 62.066406 9.578125 61.078125 9.578125 C 60.660156 9.492188 60.328125 9.429688 60.078125 9.390625 C 59.828125 9.347656 59.492188 9.285156 59.078125 9.203125 C 58.671875 9.035156 58.238281 8.910156 57.78125 8.828125 C 57.320312 8.742188 56.757812 8.660156 56.09375 8.578125 C 55.6875 8.492188 55.066406 8.390625 54.234375 8.265625 C 53.398438 8.140625 52.863281 8.078125 52.625 8.078125 C 51.039062 7.835938 49.582031 7.65625 48.25 7.53125 C 46.925781 7.40625 44.984375 7.34375 42.421875 7.34375 C 38.523438 7.34375 34.582031 7.460938 30.59375 7.703125 C 26.613281 7.953125 22.757812 8.535156 19.03125 9.453125 C 17.789062 9.703125 16.546875 9.828125 15.296875 9.828125 C 13.722656 9.828125 12.226562 9.347656 10.8125 8.390625 C 9.40625 7.441406 8.375 6.257812 7.71875 4.84375 C 6.882812 2.6875 6.71875 0.492188 7.21875 -1.734375 C 7.300781 -2.148438 7.40625 -2.671875 7.53125 -3.296875 C 7.65625 -3.921875 7.71875 -4.644531 7.71875 -5.46875 C 7.882812 -9.445312 8.023438 -13.425781 8.140625 -17.40625 C 8.265625 -21.394531 8.410156 -25.378906 8.578125 -29.359375 C 8.578125 -30.097656 8.597656 -31.046875 8.640625 -32.203125 C 8.679688 -33.367188 8.722656 -34.53125 8.765625 -35.6875 C 8.804688 -36.851562 8.847656 -37.910156 8.890625 -38.859375 C 8.929688 -39.816406 8.992188 -40.460938 9.078125 -40.796875 C 9.078125 -42.535156 9.097656 -44.441406 9.140625 -46.515625 C 9.179688 -48.585938 9.242188 -50.953125 9.328125 -53.609375 L 9.453125 -62.1875 L 8.578125 -63.4375 C 7.585938 -64.6875 6.800781 -66.675781 6.21875 -69.40625 C 5.46875 -72.644531 5.132812 -74.925781 5.21875 -76.25 C 5.300781 -77 5.445312 -77.765625 5.65625 -78.546875 C 5.863281 -79.335938 6.257812 -80.066406 6.84375 -80.734375 C 7.425781 -81.304688 7.921875 -81.59375 8.328125 -81.59375 C 8.828125 -81.59375 9.117188 -81.757812 9.203125 -82.09375 C 9.367188 -82.757812 9.992188 -82.96875 11.078125 -82.71875 C 11.734375 -82.550781 12.207031 -82.363281 12.5 -82.15625 C 12.789062 -81.945312 13.0625 -81.640625 13.3125 -81.234375 C 13.476562 -80.984375 13.644531 -80.859375 13.8125 -80.859375 C 13.976562 -80.859375 14.515625 -80.898438 15.421875 -80.984375 C 16.671875 -81.066406 18.3125 -81.226562 20.34375 -81.46875 C 22.375 -81.71875 24.796875 -82.175781 27.609375 -82.84375 C 33.003906 -83.925781 38.519531 -84.710938 44.15625 -85.203125 Z M 44.15625 -85.203125 "/></g></g></g><g fill="#1b0400" fill-opacity="1"><g transform="translate(2003.200071, 335.601378)"><g><path d="M 37.8125 -85.078125 C 40.050781 -85.078125 42.3125 -84.910156 44.59375 -84.578125 C 46.875 -84.253906 49.09375 -83.882812 51.25 -83.46875 C 52.40625 -83.21875 53.644531 -82.988281 54.96875 -82.78125 C 56.300781 -82.570312 57.050781 -82.46875 57.21875 -82.46875 C 58.457031 -82.21875 59.410156 -81.71875 60.078125 -80.96875 C 60.742188 -80.226562 61.570312 -78.78125 62.5625 -76.625 L 64.0625 -73.515625 L 64.0625 -70.53125 C 64.0625 -68.625 63.8125 -67.210938 63.3125 -66.296875 C 62.976562 -65.710938 62.519531 -65.066406 61.9375 -64.359375 C 61.363281 -63.660156 60.722656 -63 60.015625 -62.375 C 59.316406 -61.757812 58.59375 -61.222656 57.84375 -60.765625 C 57.09375 -60.304688 56.347656 -60.078125 55.609375 -60.078125 C 55.109375 -60.078125 54.503906 -60.203125 53.796875 -60.453125 C 53.085938 -60.703125 52.070312 -61.117188 50.75 -61.703125 C 47.519531 -63.441406 45.53125 -64.3125 44.78125 -64.3125 C 44.363281 -64.3125 43.988281 -64.476562 43.65625 -64.8125 C 43.164062 -65.21875 42.296875 -65.503906 41.046875 -65.671875 C 39.804688 -65.835938 38.769531 -65.835938 37.9375 -65.671875 C 35.78125 -65.265625 33.707031 -64.414062 31.71875 -63.125 C 29.726562 -61.84375 28.316406 -60.164062 27.484375 -58.09375 C 26.410156 -55.351562 26.453125 -53.113281 27.609375 -51.375 C 28.023438 -50.707031 29 -50.039062 30.53125 -49.375 C 32.070312 -48.71875 33.753906 -48.078125 35.578125 -47.453125 C 37.398438 -46.828125 39.203125 -46.265625 40.984375 -45.765625 C 42.765625 -45.273438 44.15625 -44.90625 45.15625 -44.65625 C 47.644531 -43.90625 50.109375 -42.925781 52.546875 -41.71875 C 54.992188 -40.519531 57.253906 -39.070312 59.328125 -37.375 C 61.398438 -35.675781 63.222656 -33.769531 64.796875 -31.65625 C 66.378906 -29.539062 67.585938 -27.15625 68.421875 -24.5 C 69.660156 -20.269531 69.78125 -16.039062 68.78125 -11.8125 C 67.789062 -7.582031 65.675781 -3.644531 62.4375 0 C 55.894531 7.21875 46.273438 10.828125 33.578125 10.828125 C 31.585938 10.828125 29.242188 10.660156 26.546875 10.328125 C 23.859375 9.992188 21.1875 9.429688 18.53125 8.640625 C 15.875 7.859375 13.445312 6.820312 11.25 5.53125 C 9.0625 4.25 7.425781 2.613281 6.34375 0.625 C 6.09375 0.125 5.90625 -0.269531 5.78125 -0.5625 C 5.65625 -0.851562 5.550781 -1.160156 5.46875 -1.484375 C 5.382812 -1.816406 5.320312 -2.191406 5.28125 -2.609375 C 5.238281 -3.023438 5.21875 -3.648438 5.21875 -4.484375 C 5.21875 -6.640625 5.300781 -7.800781 5.46875 -7.96875 C 5.632812 -8.125 5.71875 -8.367188 5.71875 -8.703125 C 5.71875 -8.953125 5.632812 -9.160156 5.46875 -9.328125 C 5.300781 -9.492188 5.257812 -9.945312 5.34375 -10.6875 C 5.425781 -11.4375 5.550781 -11.9375 5.71875 -12.1875 C 5.800781 -12.519531 5.800781 -12.8125 5.71875 -13.0625 C 5.550781 -13.226562 5.46875 -13.804688 5.46875 -14.796875 L 5.59375 -16.171875 L 5.71875 -15.921875 C 5.882812 -15.585938 6.050781 -15.710938 6.21875 -16.296875 C 6.21875 -16.460938 6.257812 -16.585938 6.34375 -16.671875 C 6.507812 -17.410156 6.632812 -18.03125 6.71875 -18.53125 C 6.71875 -19.113281 6.800781 -19.40625 6.96875 -19.40625 C 7.132812 -19.40625 7.21875 -19.28125 7.21875 -19.03125 C 7.21875 -18.78125 7.546875 -18.035156 8.203125 -16.796875 C 9.117188 -14.972656 10.425781 -13.3125 12.125 -11.8125 C 13.820312 -10.320312 15.75 -9.242188 17.90625 -8.578125 C 19.070312 -8.171875 20.484375 -7.84375 22.140625 -7.59375 C 23.796875 -7.34375 25.453125 -7.21875 27.109375 -7.21875 C 28.609375 -7.21875 30.1875 -7.34375 31.84375 -7.59375 C 33.5 -7.84375 35.113281 -8.234375 36.6875 -8.765625 C 38.269531 -9.304688 39.679688 -10.070312 40.921875 -11.0625 C 42.171875 -12.0625 43.082031 -13.304688 43.65625 -14.796875 C 43.988281 -15.796875 44.175781 -17 44.21875 -18.40625 C 44.257812 -19.820312 44.070312 -20.773438 43.65625 -21.265625 C 43.082031 -21.929688 41.550781 -22.84375 39.0625 -24 C 36.570312 -25.164062 33.003906 -26.578125 28.359375 -28.234375 C 25.296875 -29.316406 22.742188 -30.332031 20.703125 -31.28125 C 18.671875 -32.238281 17.078125 -33.128906 15.921875 -33.953125 C 12.191406 -36.609375 9.3125 -39.695312 7.28125 -43.21875 C 5.25 -46.75 4.234375 -50.835938 4.234375 -55.484375 C 4.234375 -57.960938 4.707031 -60.570312 5.65625 -63.3125 C 6.613281 -66.050781 7.921875 -68.625 9.578125 -71.03125 C 11.234375 -73.4375 13.140625 -75.59375 15.296875 -77.5 C 17.453125 -79.40625 19.691406 -80.851562 22.015625 -81.84375 C 24.671875 -82.925781 27.257812 -83.734375 29.78125 -84.265625 C 32.3125 -84.804688 34.988281 -85.078125 37.8125 -85.078125 Z M 37.8125 -85.078125 "/></g></g></g><g fill="#1b0400" fill-opacity="1"><g transform="translate(2073.347323, 335.601378)"><g><path d="M 54.984375 -84.828125 C 57.304688 -84.910156 60.707031 -84.789062 65.1875 -84.46875 C 67.425781 -84.300781 69.289062 -84.113281 70.78125 -83.90625 C 72.269531 -83.695312 73.347656 -83.507812 74.015625 -83.34375 C 75.671875 -82.84375 77 -81.640625 78 -79.734375 C 78.238281 -79.316406 78.503906 -78.878906 78.796875 -78.421875 C 79.085938 -77.972656 79.441406 -77.457031 79.859375 -76.875 C 81.347656 -75.050781 82.550781 -73.0625 83.46875 -70.90625 L 84.703125 -68.171875 L 84.34375 -66.796875 C 84.09375 -65.804688 83.84375 -65.125 83.59375 -64.75 C 83.34375 -64.375 82.757812 -63.8125 81.84375 -63.0625 C 80.851562 -62.070312 78.78125 -61.242188 75.625 -60.578125 C 74.632812 -60.410156 74.015625 -60.492188 73.765625 -60.828125 C 73.515625 -61.160156 73.097656 -61.285156 72.515625 -61.203125 C 71.773438 -61.035156 71.363281 -60.910156 71.28125 -60.828125 C 71.113281 -60.660156 71.03125 -60.703125 71.03125 -60.953125 C 71.03125 -61.203125 70.90625 -61.328125 70.65625 -61.328125 C 70.570312 -61.328125 70.238281 -61.535156 69.65625 -61.953125 C 68.664062 -62.691406 67.628906 -63.144531 66.546875 -63.3125 C 65.472656 -63.476562 63.484375 -63.476562 60.578125 -63.3125 C 58.085938 -63.3125 56.59375 -63.144531 56.09375 -62.8125 C 55.601562 -62.320312 55.316406 -61.367188 55.234375 -59.953125 C 54.816406 -56.972656 54.503906 -53.117188 54.296875 -48.390625 C 54.085938 -43.660156 53.898438 -37.8125 53.734375 -30.84375 C 53.484375 -19.65625 53.128906 -10.96875 52.671875 -4.78125 C 52.222656 1.394531 51.664062 4.9375 51 5.84375 C 50.5 6.675781 49.128906 7.34375 46.890625 7.84375 C 45.984375 8 45.53125 8.140625 45.53125 8.265625 C 45.53125 8.390625 45.363281 8.453125 45.03125 8.453125 C 44.695312 8.453125 44.46875 8.535156 44.34375 8.703125 C 44.21875 8.867188 44.113281 8.910156 44.03125 8.828125 C 43.78125 8.660156 43.078125 9.160156 41.921875 10.328125 C 41.253906 10.984375 40.753906 11.191406 40.421875 10.953125 C 40.253906 10.785156 39.921875 10.800781 39.421875 11 C 38.929688 11.207031 38.351562 11.148438 37.6875 10.828125 C 35.863281 9.828125 34.375 8.082031 33.21875 5.59375 C 32.882812 4.9375 32.59375 4.378906 32.34375 3.921875 C 32.09375 3.460938 31.800781 3.066406 31.46875 2.734375 C 30.644531 1.742188 30.3125 0.253906 30.46875 -1.734375 C 30.550781 -2.316406 30.65625 -4.929688 30.78125 -9.578125 C 30.90625 -14.222656 31.050781 -20.816406 31.21875 -29.359375 C 31.382812 -37.816406 31.488281 -44.328125 31.53125 -48.890625 C 31.570312 -53.453125 31.550781 -56.269531 31.46875 -57.34375 C 31.46875 -58.257812 31.382812 -59.046875 31.21875 -59.703125 C 31.21875 -60.035156 31.175781 -60.328125 31.09375 -60.578125 C 31.09375 -60.578125 29.144531 -60.328125 25.25 -59.828125 C 16.957031 -58.585938 11.648438 -58.050781 9.328125 -58.21875 C 7.585938 -58.46875 6.175781 -59.378906 5.09375 -60.953125 C 3.351562 -63.609375 2.609375 -67.296875 2.859375 -72.015625 C 3.023438 -73.847656 3.335938 -75.488281 3.796875 -76.9375 C 4.253906 -78.382812 5.0625 -79.816406 6.21875 -81.234375 C 6.882812 -82.054688 7.21875 -82.59375 7.21875 -82.84375 C 7.21875 -83.09375 7.359375 -83.425781 7.640625 -83.84375 C 7.929688 -84.257812 8.203125 -84.46875 8.453125 -84.46875 C 8.617188 -84.46875 8.890625 -84.15625 9.265625 -83.53125 C 9.640625 -82.90625 9.910156 -82.300781 10.078125 -81.71875 C 10.410156 -81.144531 10.742188 -80.734375 11.078125 -80.484375 C 11.566406 -80.148438 12.679688 -79.941406 14.421875 -79.859375 C 16.171875 -79.773438 17.789062 -79.816406 19.28125 -79.984375 C 21.6875 -80.316406 23.945312 -80.625 26.0625 -80.90625 C 28.175781 -81.195312 30.1875 -81.507812 32.09375 -81.84375 C 42.039062 -83.507812 49.671875 -84.503906 54.984375 -84.828125 Z M 54.984375 -84.828125 "/></g></g></g></svg>