<svg xmlns="http://www.w3.org/2000/svg" viewBox="0 0 282.5 45">
	<use id="blue" href="#logo" class="blue-fill" />
	<use id="default" href="#logo" />
	<symbol id="logo">
		<path d="M103.24,5.21H97.41V0h-9V5.21H82.61v8.53h5.83V19h9V13.74h5.83Z" fill="url(#plus-fill)"/>
		<path d="M0,36.88V15.42H21.67a8.2,8.2,0,0,1,1.19.08,8.81,8.81,0,0,1,1.18.25,8.72,8.72,0,0,1,1.13.51,5.24,5.24,0,0,1,1,.73,7,7,0,0,1,.61.8,4.9,4.9,0,0,1,.49,1,6.18,6.18,0,0,1,.31,1.18,8.65,8.65,0,0,1,.1,1.39v7.35a8.07,8.07,0,0,1-.1,1.33,5,5,0,0,1-.31,1.11,4,4,0,0,1-.44.93,4.86,4.86,0,0,1-.62.76,3.75,3.75,0,0,1-.8.64,6.13,6.13,0,0,1-.92.48,6,6,0,0,1-1.26.35,8.35,8.35,0,0,1-1.31.1H10.18V44.92H0ZM10.18,20.29v9.22h6.05a.78.78,0,0,0,.47-.17,1.69,1.69,0,0,0,.39-.41,2.2,2.2,0,0,0,.25-.54,2.14,2.14,0,0,0,.08-.54V21.74a1.7,1.7,0,0,0-.11-.61,1.3,1.3,0,0,0-.26-.43,1.05,1.05,0,0,0-.39-.31,1,1,0,0,0-.43-.1Z" fill="url(#plus-fill)"/>
		<path d="M54,23.18V39.54a.88.88,0,0,0,.12.43,1.79,1.79,0,0,0,.29.4,2.2,2.2,0,0,0,.43.27,1,1,0,0,0,.43.1h4.46a1.46,1.46,0,0,0,.43-.08,1,1,0,0,0,.38-.25,2.34,2.34,0,0,0,.29-.35.71.71,0,0,0,.12-.39V23.22h9.94V45H50a5.48,5.48,0,0,1-1.31-.14,6,6,0,0,1-1.15-.39,5.53,5.53,0,0,1-1-.68,6.59,6.59,0,0,1-.82-.85,7.46,7.46,0,0,1-1.18-2.15q-.17-.59-.27-1.17a6.91,6.91,0,0,1-.1-1.19V23.18Z" fill="url(#plus-fill)"/>
		<path d="M97.41,23.27v4H84.25a1,1,0,0,0-.31.07l-.35.14a1,1,0,0,0-.27.21.48.48,0,0,0-.1.29v1.19a.35.35,0,0,0,.12.28l.29.18a1.12,1.12,0,0,0,.35.12,1.45,1.45,0,0,0,.35,0H94a4.94,4.94,0,0,1,.92.09,7.12,7.12,0,0,1,.88.2,4.71,4.71,0,0,1,.84.42,4.36,4.36,0,0,1,.72.58,4.42,4.42,0,0,1,.51.66,5.32,5.32,0,0,1,.38.83,4.58,4.58,0,0,1,.25.94,8.45,8.45,0,0,1,.08,1.16v5.08a5.83,5.83,0,0,1-.1,1.12,5.11,5.11,0,0,1-.31,1,3.46,3.46,0,0,1-.45.85q-.28.39-.57.72a7.36,7.36,0,0,1-.78.6,8.59,8.59,0,0,1-.81.48,5.78,5.78,0,0,1-1.17.35,7.92,7.92,0,0,1-1.17.1h-19V41.07H88.34a.8.8,0,0,0,.35-.08.81.81,0,0,0,.3-.21.53.53,0,0,0,.25-.24.81.81,0,0,0,.08-.34V39a.68.68,0,0,0-.08-.31.62.62,0,0,0-.25-.23,1.16,1.16,0,0,0-.32-.18.8.8,0,0,0-.33-.06H78.65a6.8,6.8,0,0,1-1.17-.11,5,5,0,0,1-1.16-.35,4.3,4.3,0,0,1-.72-.41,3,3,0,0,1-.59-.58,3.58,3.58,0,0,1-.43-.64,5.92,5.92,0,0,1-.31-.73,6.78,6.78,0,0,1-.12-.7c0-.24,0-.51,0-.78V28.14a3.87,3.87,0,0,1,.13-1.05,5.11,5.11,0,0,1,.32-.93,7.6,7.6,0,0,1,.53-.78,3.44,3.44,0,0,1,.66-.66,4.46,4.46,0,0,1,.79-.58,6.42,6.42,0,0,1,.88-.42,10.92,10.92,0,0,1,1.19-.33,6.14,6.14,0,0,1,1.18-.12Z" fill="url(#plus-fill)"/>
		<path d="M127.21,17.87v4.46H111.64l-.27,5.34h11a6.11,6.11,0,0,1,1.94.3,4.66,4.66,0,0,1,1,.49,4.5,4.5,0,0,1,.85.72,4.41,4.41,0,0,1,.59.76,4.1,4.1,0,0,1,.42.87,6,6,0,0,1,.28,1,6.21,6.21,0,0,1,.09,1.08V40a6.2,6.2,0,0,1-.09,1.1,5.18,5.18,0,0,1-.28.95,3.67,3.67,0,0,1-.53,1,5.84,5.84,0,0,1-.71.77c-.25.18-.52.34-.79.5a3.33,3.33,0,0,1-.86.33,4.22,4.22,0,0,1-.93.23,6.56,6.56,0,0,1-1,.08H102.87V40.57h14.46a.5.5,0,0,0,.39-.17A1.19,1.19,0,0,0,118,40a1.67,1.67,0,0,0,.15-.54,3.37,3.37,0,0,0,0-.52V33.57a2.11,2.11,0,0,0-.09-.6,1.2,1.2,0,0,0-.25-.42.87.87,0,0,0-.35-.26,1.09,1.09,0,0,0-.43-.08H102.38l.19-14.34Z" fill="url(#plus-fill)"/>
		<path d="M136.61,17.83h15.24a6.33,6.33,0,0,1,1.26.13,7.34,7.34,0,0,1,1.06.33,4.4,4.4,0,0,1,1,.62,4.66,4.66,0,0,1,.79.81,5.09,5.09,0,0,1,.73,1.17c.18.43.34.87.47,1.29a9.31,9.31,0,0,1,.26,1.36,12,12,0,0,1,.07,1.33V38a12.31,12.31,0,0,1-.07,1.39,6.4,6.4,0,0,1-.26,1.26,7.72,7.72,0,0,1-.51,1.37A6.78,6.78,0,0,1,156,43.1a5.36,5.36,0,0,1-.83.82,4,4,0,0,1-.93.58,3.71,3.71,0,0,1-1.07.38A5.07,5.07,0,0,1,152,45h-15.5a6.11,6.11,0,0,1-1.28-.13,4.52,4.52,0,0,1-1.2-.43,5.71,5.71,0,0,1-1.05-.74,6.18,6.18,0,0,1-.9-1,8.05,8.05,0,0,1-.55-1.1,6.38,6.38,0,0,1-.42-1.32c-.07-.38-.13-.77-.18-1.2a9.23,9.23,0,0,1-.08-1.33V25.24a10.3,10.3,0,0,1,.1-1.45,10.44,10.44,0,0,1,.28-1.46,6,6,0,0,1,.45-1.38,5.71,5.71,0,0,1,1.57-2.08,3.8,3.8,0,0,1,1.12-.62,5.46,5.46,0,0,1,1-.3A5.81,5.81,0,0,1,136.61,17.83Zm10,4.54h-5a1.22,1.22,0,0,0-.54.15,1.48,1.48,0,0,0-.47.38,1.72,1.72,0,0,0-.36.5,1.18,1.18,0,0,0-.13.56v15a1.15,1.15,0,0,0,.17.59,2,2,0,0,0,.39.47,1.79,1.79,0,0,0,.52.38,1.21,1.21,0,0,0,.6.15h4.8a1.14,1.14,0,0,0,.46-.11,2.19,2.19,0,0,0,.47-.3,1.32,1.32,0,0,0,.32-.38.89.89,0,0,0,.13-.45V23.62a.86.86,0,0,0-.13-.45,1.32,1.32,0,0,0-.32-.38,2.19,2.19,0,0,0-.47-.3A1,1,0,0,0,146.65,22.37Z" fill="url(#plus-fill)"/>
		<path d="M166.61,17.83h15.24a6.15,6.15,0,0,1,1.25.13,7.1,7.1,0,0,1,1.07.33,4.88,4.88,0,0,1,1,.62,4.27,4.27,0,0,1,.78.81,4.81,4.81,0,0,1,.74,1.17,11.77,11.77,0,0,1,.46,1.29,8.18,8.18,0,0,1,.27,1.36,12,12,0,0,1,.07,1.33V38a12.31,12.31,0,0,1-.07,1.39,6.41,6.41,0,0,1-.27,1.26,7,7,0,0,1-.5,1.37,6.2,6.2,0,0,1-.7,1.13,4.89,4.89,0,0,1-.82.82,4.21,4.21,0,0,1-.93.58,3.82,3.82,0,0,1-1.07.38A5.13,5.13,0,0,1,182,45H166.53a6,6,0,0,1-1.27-.13,4.4,4.4,0,0,1-1.2-.43,5.39,5.39,0,0,1-1.05-.74,6.18,6.18,0,0,1-.9-1,9.38,9.38,0,0,1-.56-1.1,7,7,0,0,1-.41-1.32c-.08-.38-.14-.77-.19-1.2a11,11,0,0,1-.07-1.33V25.24a12,12,0,0,1,.09-1.45,10.44,10.44,0,0,1,.28-1.46A6.55,6.55,0,0,1,161.7,21a5.71,5.71,0,0,1,1.57-2.08,3.86,3.86,0,0,1,1.13-.62,5.46,5.46,0,0,1,1-.3A5.68,5.68,0,0,1,166.61,17.83Zm10,4.54h-5a1.3,1.3,0,0,0-.54.15,1.6,1.6,0,0,0-.47.38,1.68,1.68,0,0,0-.35.5,1.18,1.18,0,0,0-.13.56v15a1.06,1.06,0,0,0,.17.59,2,2,0,0,0,.38.47,2,2,0,0,0,.53.38,1.21,1.21,0,0,0,.6.15h4.79a1.19,1.19,0,0,0,.47-.11,2,2,0,0,0,.47-.3,1.32,1.32,0,0,0,.32-.38.89.89,0,0,0,.13-.45V23.62a.86.86,0,0,0-.13-.45,1.32,1.32,0,0,0-.32-.38,2,2,0,0,0-.47-.3A1.09,1.09,0,0,0,176.64,22.37Z" fill="url(#plus-fill)"/>
		<path d="M40.89,44.86s-4.86,0-5.27,0a3.09,3.09,0,0,1-1.15-.53,5.51,5.51,0,0,1-1-.9,9.2,9.2,0,0,1-.82-1.12A10.31,10.31,0,0,1,32,41a10.73,10.73,0,0,1-.51-1.51c-.11-.51-.2-1-.27-1.55a11.93,11.93,0,0,1-.1-1.57V16.19h9.81Z" fill="url(#plus-fill)"/>
		<path d="M197.5,25a10,10,0,0,1,10-10h65a10,10,0,0,1,10,10V35a10,10,0,0,1-10,10h-75Z" fill="url(#plus-fill)"/>
		<path class="badge-text" d="M232.73,26.36a1.76,1.76,0,0,0-1.58,1.17,7.58,7.58,0,0,0-.58,3.26q0,4.34,2.27,4.34a4.18,4.18,0,0,0,2.08-.63v2.06a4.12,4.12,0,0,1-2.35.61,3.7,3.7,0,0,1-3.24-1.67,8.4,8.4,0,0,1-1.13-4.73A8.34,8.34,0,0,1,229.36,26a3.71,3.71,0,0,1,3.25-1.7,4.42,4.42,0,0,1,1.31.19,5.16,5.16,0,0,1,1.35.65l-.77,1.89a9.29,9.29,0,0,0-.82-.48A2.17,2.17,0,0,0,232.73,26.36ZM239,37h-2.31V24.51h5.6v2H239V30h3.07v2H239Zm12.8-6.37a7.67,7.67,0,0,1-1.26,4.74A4.3,4.3,0,0,1,246.9,37h-3.05V24.51h3.34a4,4,0,0,1,3.39,1.61A7.35,7.35,0,0,1,251.79,30.63Zm-2.38.07q0-4.18-2.31-4.18h-.93V35h.75a2,2,0,0,0,1.88-1.06A6.62,6.62,0,0,0,249.41,30.7Z" fill="url(#badge-fill)"/>
	</symbol>
	<defs>
		<linearGradient xmlns="http://www.w3.org/2000/svg" id="plus-fill" x1="0%" y1="0%" x2="100%" y2="100%" gradientUnits="userSpaceOnUse">
			<stop class="fill-stop"/>
			<stop class="fill-stop"/>
		</linearGradient>
		<linearGradient xmlns="http://www.w3.org/2000/svg" id="badge-fill" x1="0%" y1="0%" x2="100%" y2="100%" gradientUnits="userSpaceOnUse">
			<stop class="fill-stop-w"/>
			<stop class="fill-stop-w"/>
		</linearGradient>
	</defs>
	<style>
		#blue {display:none}
		#default { display:inline; }
		#blue:target { display:block; }
		#blue:target + #default { display:none; }
		.fill-stop { stop-color:#FFFFFF; }
		.fill-stop-w { stop-color:#184ab5; }
		#blue:target~defs .fill-stop { stop-color:#0C2780; }
		#blue:target~defs .fill-stop-w { stop-color:#FFFFFF; }
	</style>
</svg>