<svg width="24" height="24" viewBox="0 0 24 24" fill="none" xmlns="http://www.w3.org/2000/svg">
<path d="M12 0C5.383 0 0 5.383 0 12C0 18.617 5.383 24 12 24C18.617 24 24 18.617 24 12C24 5.383 18.617 0 12 0ZM12 2C17.535 2 22 6.465 22 12C22 17.535 17.535 22 12 22C6.465 22 2 17.535 2 12C2 6.465 6.465 2 12 2ZM12.031 3.844C10.8543 3.86986 9.73446 4.35521 8.91104 5.19619C8.08762 6.03718 7.62602 7.16702 7.625 8.344V9.563C7.625 9.773 7.789 9.937 8 9.937H8.938C8.98726 9.93754 9.03614 9.92823 9.08175 9.90962C9.12737 9.89102 9.16881 9.86349 9.20365 9.82865C9.23849 9.79381 9.26602 9.75237 9.28462 9.70675C9.30323 9.66114 9.31254 9.61226 9.312 9.563V8.343C9.312 6.82 10.48 5.523 12 5.469C13.598 5.41 14.938 6.695 14.938 8.281V9.562C14.938 9.773 15.102 9.938 15.313 9.938H16.219C16.2685 9.93868 16.3177 9.9294 16.3635 9.91074C16.4094 9.89207 16.4511 9.86438 16.486 9.82932C16.521 9.79425 16.5486 9.75252 16.5671 9.70661C16.5857 9.66069 16.5948 9.61152 16.594 9.562V8.406C16.594 5.891 14.547 3.796 12.031 3.844ZM6.438 10.344C5.977 10.344 5.594 10.695 5.594 11.156V17.625C5.594 18.085 5.977 18.438 6.438 18.438H17.75C18.21 18.438 18.594 18.086 18.594 17.625V11.156C18.594 10.696 18.211 10.344 17.75 10.344H6.438ZM6.594 11.156H6.969C7.01853 11.1568 7.06579 11.1769 7.10072 11.212C7.13565 11.2471 7.15548 11.2945 7.156 11.344V17.469C7.15523 17.5184 7.13528 17.5655 7.10037 17.6004C7.06547 17.6353 7.01835 17.6552 6.969 17.656H6.594C6.54447 17.6555 6.4971 17.6356 6.46198 17.6007C6.42687 17.5658 6.40678 17.5185 6.406 17.469V11.344C6.40652 11.2943 6.42649 11.2468 6.46164 11.2116C6.49678 11.1765 6.5443 11.1565 6.594 11.156ZM12.063 11.969C12.941 11.969 13.656 12.684 13.656 13.563C13.6581 13.8406 13.587 14.1138 13.4499 14.3552C13.3128 14.5966 13.1145 14.7976 12.875 14.938V16.438C12.875 16.656 12.687 16.813 12.469 16.813H11.656C11.437 16.813 11.25 16.656 11.25 16.438V14.938C11.0105 14.7976 10.8122 14.5966 10.6751 14.3552C10.538 14.1138 10.4669 13.8406 10.469 13.563C10.469 12.683 11.184 11.969 12.063 11.969Z" fill="white"/>
</svg>