<?xml version="1.0" encoding="UTF-8"?>
<svg xmlns="http://www.w3.org/2000/svg"  viewBox="0 0 192 36">
	<defs>
		<style>
		.default-group, .group:target { display: block;}
		.group, .group:target ~ .default-group { display:none; }
		</style>
	</defs>
	<g id="half-great" class="group">
		<rect id="rect-1" width="36" height="36" fill="#ffce00"/>
		<rect id="rect-2" x="39" width="36" height="36" fill="#ffce00"/>
		<rect id="rect-3" x="78" width="36" height="36" fill="#ffce00"/>
		<rect id="rect-4" x="117" width="36" height="36" fill="#ffce00"/>
		<rect id="rect-5" x="156" width="36" height="36" fill="#e2e2e2"/>
		<rect id="half-1" x="57" class="rect" width="18" height="36" fill="#ffce00"/>
		<rect id="half-2" x="96" class="rect" width="18" height="36" fill="#ffce00"/>
		<rect id="half-3" x="117" class="rect" width="18" height="36" fill="#ffce00"/>
		<rect id="half-4" x="135" class="rect" width="18" height="36" fill="#e2e2e2"/>
		<rect id="half-5" x="174" class="rect" width="18" height="36" fill="#e2e2e2"/>
		<path d="M18,24.3l5.5-1.4l2.3,7.1L18,24.3z M30.6,15.2H21l-3-9.1l-3,9.1H5.4l7.8,5.6l-3,9.1l7.8-5.6l4.8-3.4L30.6,15.2 L30.6,15.2L30.6,15.2L30.6,15.2z" fill="white"/>
		<path d="M57,24.3l5.5-1.4l2.3,7.1L57,24.3z M69.6,15.2H60l-3-9.1l-3,9.1h-9.6l7.8,5.6l-3,9.1l7.8-5.6l4.8-3.4L69.6,15.2 L69.6,15.2L69.6,15.2L69.6,15.2z" fill="white"/>
		<path d="M96,24.3l5.5-1.4l2.3,7.1L96,24.3z M108.6,15.2H99l-3-9.1l-3,9.1h-9.6l7.8,5.6l-3,9.1l7.8-5.6l4.8-3.4 L108.6,15.2L108.6,15.2L108.6,15.2L108.6,15.2z" fill="white"/>
		<path d="M135,24.3l5.5-1.4l2.3,7.1L135,24.3z M147.6,15.2H138l-3-9.1l-3,9.1h-9.6l7.8,5.6l-3,9.1l7.8-5.6l4.8-3.4 L147.6,15.2L147.6,15.2L147.6,15.2L147.6,15.2z" fill="white"/>
		<path d="M174,24.3l5.5-1.4l2.3,7.1L174,24.3z M186.6,15.2H177l-3-9.1l-3,9.1h-9.6l7.8,5.6l-3,9.1l7.8-5.6l4.8-3.4 L186.6,15.2L186.6,15.2L186.6,15.2L186.6,15.2z" fill="white"/>
	</g>
    <g id="great" class="group">
		<rect id="rect-1" width="36" height="36" fill="#00B67A"/>
		<rect id="rect-2" x="39" width="36" height="36" fill="#00B67A"/>
		<rect id="rect-3" x="78" width="36" height="36" fill="#00B67A"/>
		<rect id="rect-4" x="117" width="36" height="36" fill="#00B67A"/>
		<rect id="rect-5" x="156" width="36" height="36" fill="#e2e2e2"/>
		<rect id="half-1" x="57" class="rect" width="18" height="36" fill="#00B67A"/>
		<rect id="half-2" x="96" class="rect" width="18" height="36" fill="#00B67A"/>
		<rect id="half-3" x="117" class="rect" width="18" height="36" fill="#00B67A"/>
		<rect id="half-4" x="135" class="rect" width="18" height="36" fill="#00B67A"/>
		<rect id="half-5" x="174" class="rect" width="18" height="36" fill="#e2e2e2"/>
		<path d="M18,24.3l5.5-1.4l2.3,7.1L18,24.3z M30.6,15.2H21l-3-9.1l-3,9.1H5.4l7.8,5.6l-3,9.1l7.8-5.6l4.8-3.4L30.6,15.2 L30.6,15.2L30.6,15.2L30.6,15.2z" fill="white"/>
		<path d="M57,24.3l5.5-1.4l2.3,7.1L57,24.3z M69.6,15.2H60l-3-9.1l-3,9.1h-9.6l7.8,5.6l-3,9.1l7.8-5.6l4.8-3.4L69.6,15.2 L69.6,15.2L69.6,15.2L69.6,15.2z" fill="white"/>
		<path d="M96,24.3l5.5-1.4l2.3,7.1L96,24.3z M108.6,15.2H99l-3-9.1l-3,9.1h-9.6l7.8,5.6l-3,9.1l7.8-5.6l4.8-3.4 L108.6,15.2L108.6,15.2L108.6,15.2L108.6,15.2z" fill="white"/>
		<path d="M135,24.3l5.5-1.4l2.3,7.1L135,24.3z M147.6,15.2H138l-3-9.1l-3,9.1h-9.6l7.8,5.6l-3,9.1l7.8-5.6l4.8-3.4 L147.6,15.2L147.6,15.2L147.6,15.2L147.6,15.2z" fill="white"/>
		<path d="M174,24.3l5.5-1.4l2.3,7.1L174,24.3z M186.6,15.2H177l-3-9.1l-3,9.1h-9.6l7.8,5.6l-3,9.1l7.8-5.6l4.8-3.4 L186.6,15.2L186.6,15.2L186.6,15.2L186.6,15.2z" fill="white"/>
	</g>	
	<g id="half-excellent" class="group">
		<rect id="rect-1" width="36" height="36" fill="#00B67A"/>
		<rect id="rect-2" x="39" width="36" height="36" fill="#00B67A"/>
		<rect id="rect-3" x="78" width="36" height="36" fill="#00B67A"/>
		<rect id="rect-4" x="117" width="36" height="36" fill="#00B67A"/>
		<rect id="rect-5" x="156" width="36" height="36" fill="#00B67A"/>
		<rect id="half-1" x="57" class="rect" width="18" height="36" fill="#00B67A"/>
		<rect id="half-2" x="96" class="rect" width="18" height="36" fill="#00B67A"/>
		<rect id="half-3" x="117" class="rect" width="18" height="36" fill="#00B67A"/>
		<rect id="half-4" x="135" class="rect" width="18" height="36" fill="#00B67A"/>
		<rect id="half-5" x="174" class="rect" width="18" height="36" fill="#e2e2e2"/>
		<path d="M18,24.3l5.5-1.4l2.3,7.1L18,24.3z M30.6,15.2H21l-3-9.1l-3,9.1H5.4l7.8,5.6l-3,9.1l7.8-5.6l4.8-3.4L30.6,15.2 L30.6,15.2L30.6,15.2L30.6,15.2z" fill="white"/>
		<path d="M57,24.3l5.5-1.4l2.3,7.1L57,24.3z M69.6,15.2H60l-3-9.1l-3,9.1h-9.6l7.8,5.6l-3,9.1l7.8-5.6l4.8-3.4L69.6,15.2 L69.6,15.2L69.6,15.2L69.6,15.2z" fill="white"/>
		<path d="M96,24.3l5.5-1.4l2.3,7.1L96,24.3z M108.6,15.2H99l-3-9.1l-3,9.1h-9.6l7.8,5.6l-3,9.1l7.8-5.6l4.8-3.4 L108.6,15.2L108.6,15.2L108.6,15.2L108.6,15.2z" fill="white"/>
		<path d="M135,24.3l5.5-1.4l2.3,7.1L135,24.3z M147.6,15.2H138l-3-9.1l-3,9.1h-9.6l7.8,5.6l-3,9.1l7.8-5.6l4.8-3.4 L147.6,15.2L147.6,15.2L147.6,15.2L147.6,15.2z" fill="white"/>
		<path d="M174,24.3l5.5-1.4l2.3,7.1L174,24.3z M186.6,15.2H177l-3-9.1l-3,9.1h-9.6l7.8,5.6l-3,9.1l7.8-5.6l4.8-3.4 L186.6,15.2L186.6,15.2L186.6,15.2L186.6,15.2z" fill="white"/>
	</g>
	<g id="excellent" class="group">
		<rect id="rect-1" width="36" height="36" fill="#00B67A"/>
		<rect id="rect-2" x="39" width="36" height="36" fill="#00B67A"/>
		<rect id="rect-3" x="78" width="36" height="36" fill="#00B67A"/>
		<rect id="rect-4" x="117" width="36" height="36" fill="#00B67A"/>
		<rect id="rect-5" x="156" width="36" height="36" fill="#00B67A"/>
		<rect id="half-1" x="57" class="rect" width="18" height="36" fill="#00B67A"/>
		<rect id="half-2" x="96" class="rect" width="18" height="36" fill="#00B67A"/>
		<rect id="half-3" x="117" class="rect" width="18" height="36" fill="#00B67A"/>
		<rect id="half-4" x="135" class="rect" width="18" height="36" fill="#00B67A"/>
		<rect id="half-5" x="174" class="rect" width="18" height="36" fill="#00B67A"/>
		<path d="M18,24.3l5.5-1.4l2.3,7.1L18,24.3z M30.6,15.2H21l-3-9.1l-3,9.1H5.4l7.8,5.6l-3,9.1l7.8-5.6l4.8-3.4L30.6,15.2 L30.6,15.2L30.6,15.2L30.6,15.2z" fill="white"/>
		<path d="M57,24.3l5.5-1.4l2.3,7.1L57,24.3z M69.6,15.2H60l-3-9.1l-3,9.1h-9.6l7.8,5.6l-3,9.1l7.8-5.6l4.8-3.4L69.6,15.2 L69.6,15.2L69.6,15.2L69.6,15.2z" fill="white"/>
		<path d="M96,24.3l5.5-1.4l2.3,7.1L96,24.3z M108.6,15.2H99l-3-9.1l-3,9.1h-9.6l7.8,5.6l-3,9.1l7.8-5.6l4.8-3.4 L108.6,15.2L108.6,15.2L108.6,15.2L108.6,15.2z" fill="white"/>
		<path d="M135,24.3l5.5-1.4l2.3,7.1L135,24.3z M147.6,15.2H138l-3-9.1l-3,9.1h-9.6l7.8,5.6l-3,9.1l7.8-5.6l4.8-3.4 L147.6,15.2L147.6,15.2L147.6,15.2L147.6,15.2z" fill="white"/>
		<path d="M174,24.3l5.5-1.4l2.3,7.1L174,24.3z M186.6,15.2H177l-3-9.1l-3,9.1h-9.6l7.8,5.6l-3,9.1l7.8-5.6l4.8-3.4 L186.6,15.2L186.6,15.2L186.6,15.2L186.6,15.2z" fill="white"/>
	</g>	
	<!-- Always keep the default as the last item -->
	<g class="default-group">
		<rect id="rect-1" width="36" height="36" fill="#e2e2e2"/>
		<rect id="rect-2" x="39" width="36" height="36" fill="#e2e2e2"/>
		<rect id="rect-3" x="78" width="36" height="36" fill="#e2e2e2"/>
		<rect id="rect-4" x="117" width="36" height="36" fill="#e2e2e2"/>
		<rect id="rect-5" x="156" width="36" height="36" fill="#e2e2e2"/>
		<rect id="half-1" x="57" class="rect" width="18" height="36" fill="#e2e2e2"/>
		<rect id="half-2" x="96" class="rect" width="18" height="36" fill="#e2e2e2"/>
		<rect id="half-3" x="117" class="rect" width="18" height="36" fill="#e2e2e2"/>
		<rect id="half-4" x="135" class="rect" width="18" height="36" fill="#e2e2e2"/>
		<rect id="half-5" x="174" class="rect" width="18" height="36" fill="#e2e2e2"/>
		<path d="M18,24.3l5.5-1.4l2.3,7.1L18,24.3z M30.6,15.2H21l-3-9.1l-3,9.1H5.4l7.8,5.6l-3,9.1l7.8-5.6l4.8-3.4L30.6,15.2 L30.6,15.2L30.6,15.2L30.6,15.2z" fill="white"/>
		<path d="M57,24.3l5.5-1.4l2.3,7.1L57,24.3z M69.6,15.2H60l-3-9.1l-3,9.1h-9.6l7.8,5.6l-3,9.1l7.8-5.6l4.8-3.4L69.6,15.2 L69.6,15.2L69.6,15.2L69.6,15.2z" fill="white"/>
		<path d="M96,24.3l5.5-1.4l2.3,7.1L96,24.3z M108.6,15.2H99l-3-9.1l-3,9.1h-9.6l7.8,5.6l-3,9.1l7.8-5.6l4.8-3.4 L108.6,15.2L108.6,15.2L108.6,15.2L108.6,15.2z" fill="white"/>
		<path d="M135,24.3l5.5-1.4l2.3,7.1L135,24.3z M147.6,15.2H138l-3-9.1l-3,9.1h-9.6l7.8,5.6l-3,9.1l7.8-5.6l4.8-3.4 L147.6,15.2L147.6,15.2L147.6,15.2L147.6,15.2z" fill="white"/>
		<path d="M174,24.3l5.5-1.4l2.3,7.1L174,24.3z M186.6,15.2H177l-3-9.1l-3,9.1h-9.6l7.8,5.6l-3,9.1l7.8-5.6l4.8-3.4 L186.6,15.2L186.6,15.2L186.6,15.2L186.6,15.2z" fill="white"/>
	</g>
</svg>