<svg width="48" height="24" viewBox="0 0 48 24" fill="none" xmlns="http://www.w3.org/2000/svg">
<path d="M22.7748 5.24976L19.7019 18.79H15.9862L19.0615 5.24976H22.7748ZM38.4139 13.9915L40.3702 8.9078L41.4962 13.9915H38.4139ZM42.5611 18.7878H46L42.9998 5.24755H39.826C39.1129 5.24755 38.5124 5.63877 38.245 6.23997L32.6691 18.7856H36.5725L37.3466 16.7632H42.1155L42.5611 18.7878ZM32.8615 14.3672C32.8779 10.7932 27.6164 10.5965 27.6539 9.00063C27.6657 8.51436 28.1559 7.99937 29.2303 7.86675C29.7628 7.80044 31.2312 7.75181 32.8967 8.47237L33.5488 5.6012C32.6551 5.29618 31.5033 5 30.0724 5C26.399 5 23.8116 6.84117 23.7905 9.47584C23.7671 11.4253 25.6366 12.5128 27.0464 13.1604C28.4937 13.8235 28.9816 14.2501 28.9746 14.8424C28.9652 15.7509 27.8205 16.1509 26.7508 16.1686C24.8813 16.1951 23.7976 15.6934 22.932 15.3132L22.2587 18.2794C23.1267 18.6552 24.7312 18.9823 26.3919 19C30.2929 19 32.8474 17.1809 32.8615 14.3672ZM17.464 5.24976L11.4425 18.79H7.51341L4.55073 7.9839C4.37011 7.3186 4.2153 7.07546 3.6664 6.79476C2.77501 6.33723 1.2972 5.90842 0 5.64319L0.0891394 5.24976H6.41325C7.22019 5.24976 7.94502 5.75591 8.12799 6.63119L9.69261 14.4667L13.5607 5.25197H17.464V5.24976Z" fill="#1A1F70"/>
</svg>
